<?xml version="1.0" encoding="utf-8" standalone="no"?>
<!DOCTYPE svg PUBLIC "-//W3C//DTD SVG 1.1//EN"
  "http://www.w3.org/Graphics/SVG/1.1/DTD/svg11.dtd">
<!-- Created with matplotlib (http://matplotlib.org/) -->
<svg height="432pt" version="1.1" viewBox="0 0 576 432" width="576pt" xmlns="http://www.w3.org/2000/svg" xmlns:xlink="http://www.w3.org/1999/xlink">
 <defs>
  <style type="text/css">
*{stroke-linecap:butt;stroke-linejoin:round;stroke-miterlimit:100000;}
  </style>
 </defs>
 <g id="figure_1">
  <g id="patch_1">
   <path d="M 0 432 
L 576 432 
L 576 0 
L 0 0 
z
" style="fill:#ffffff;"/>
  </g>
  <g id="axes_1">
   <g id="patch_2">
    <path d="M 72 388.8 
L 518.4 388.8 
L 518.4 43.2 
L 72 43.2 
z
" style="fill:#ffffff;"/>
   </g>
   <g id="line2d_1">
    <path clip-path="url(#p7aa71b6ce6)" d="M 81.714378 388.44481 
L 81.797052 388.08962 
L 84.498396 387.024049 
L 84.634281 386.313669 
L 85.238885 385.958479 
L 87.239739 385.248099 
L 87.779972 384.892909 
L 88.854546 384.537718 
L 88.91731 384.182528 
L 91.783377 383.827338 
L 92.01854 383.472148 
L 92.479939 383.116958 
L 92.708585 382.761768 
L 93.55487 382.406578 
L 95.162268 382.051387 
L 95.179499 381.696197 
L 95.936861 381.341007 
L 95.999535 380.985817 
L 97.021166 380.630627 
L 97.325968 379.920247 
L 98.4492 379.209866 
L 98.564639 378.144296 
L 98.752663 377.789106 
L 99.258077 377.433916 
L 99.37548 376.723535 
L 99.920267 376.368345 
L 99.922141 376.013155 
L 100.439608 375.657965 
L 100.751999 375.302775 
L 101.13876 374.237205 
L 101.384369 373.526824 
L 101.867374 373.171634 
L 102.140392 372.461254 
L 102.705713 369.974923 
L 103.262553 369.619733 
L 103.570747 367.843782 
L 103.897066 367.488592 
L 103.96474 367.133402 
L 104.181333 366.778212 
L 104.271327 366.067831 
L 104.626305 365.712641 
L 104.878699 364.291881 
L 104.97414 363.581501 
L 105.150289 363.22631 
L 105.295726 362.51593 
L 105.450002 362.16074 
L 105.45402 361.80555 
L 106.199597 361.45036 
L 106.243344 361.09517 
L 106.485828 360.739979 
L 106.671709 359.674409 
L 106.883392 358.964029 
L 107.201586 358.608839 
L 107.823868 356.477698 
L 107.925022 355.767318 
L 108.176345 355.056937 
L 108.608818 353.280987 
L 108.697294 352.570606 
L 109.52242 346.887564 
L 109.804812 346.177184 
L 110.409595 344.046043 
L 110.890904 343.690853 
L 111.738796 338.007811 
L 111.92557 337.652621 
L 111.984584 336.58705 
L 112.693199 333.390339 
L 112.947379 333.035149 
L 113.015678 332.679959 
L 113.456097 332.324769 
L 113.653673 330.904008 
L 114.022668 328.772867 
L 114.164623 328.417677 
L 114.400322 325.220966 
L 114.525671 324.155396 
L 114.6845 323.445015 
L 114.802439 322.024255 
L 114.951358 321.313875 
L 115.071261 320.248304 
L 116.004684 314.565262 
L 116.391534 314.210072 
L 116.530721 313.854882 
L 116.738565 310.658171 
L 117.17318 307.106269 
L 117.429682 306.040699 
L 117.672255 303.909558 
L 117.883849 303.199178 
L 118.092675 301.423227 
L 118.313643 300.357657 
L 118.612999 298.936896 
L 118.822896 298.581706 
L 119.128055 296.450565 
L 119.339381 295.740185 
L 119.92845 289.346763 
L 120.466898 286.860432 
L 120.482611 286.505242 
L 120.719114 285.794861 
L 120.724114 285.439671 
L 121.16355 284.018911 
L 121.182566 283.30853 
L 121.473441 282.95334 
L 121.604504 281.53258 
L 121.901806 280.467009 
L 122.07983 280.111819 
L 122.116078 279.756629 
L 122.293924 279.401439 
L 122.480787 278.335868 
L 122.856834 277.625488 
L 122.882011 277.270298 
L 123.254666 276.559918 
L 123.430637 275.139157 
L 123.565539 274.073587 
L 123.829183 273.008016 
L 123.918284 272.297636 
L 124.015689 270.166495 
L 124.394504 269.456115 
L 124.412628 268.745735 
L 124.666004 268.035355 
L 124.939647 265.904214 
L 125.22695 265.193834 
L 125.84075 261.641932 
L 125.84209 261.286742 
L 126.348307 259.865982 
L 126.356878 259.510791 
L 126.578828 258.800411 
L 126.792386 257.734841 
L 126.942912 257.02446 
L 127.004872 256.31408 
L 127.351279 255.95889 
L 127.416007 255.24851 
L 127.740361 254.89332 
L 127.913207 252.762179 
L 128.118194 252.406989 
L 128.282737 251.341418 
L 128.374338 249.565468 
L 128.515936 249.210277 
L 128.67548 246.723947 
L 128.802525 245.303186 
L 128.813953 244.947996 
L 129.245622 243.527235 
L 129.361507 242.461665 
L 129.634258 240.685714 
L 129.747822 239.620144 
L 130.208239 238.199383 
L 130.226363 237.844193 
L 130.44992 237.489003 
L 130.675173 236.068243 
L 130.867304 235.002672 
L 131.115859 234.647482 
L 131.663503 231.805961 
L 132.356673 230.3852 
L 132.614692 229.31963 
L 132.944671 228.25406 
L 133.299469 225.057348 
L 133.470798 224.702158 
L 133.814972 222.215827 
L 134.080937 221.150257 
L 134.106293 220.439877 
L 134.705897 219.729496 
L 134.906509 218.308736 
L 135.28336 217.953546 
L 135.545665 217.243165 
L 135.72851 216.887975 
L 135.912695 215.822405 
L 136.239103 215.112025 
L 136.397932 214.401644 
L 136.489533 214.046454 
L 136.790139 213.691264 
L 136.92388 213.336074 
L 137.049229 211.915313 
L 137.150027 210.494553 
L 137.351532 210.139363 
L 137.496344 208.363412 
L 137.641692 208.008222 
L 137.658298 207.653032 
L 138.176747 206.587461 
L 138.361645 205.521891 
L 138.654573 205.166701 
L 138.734568 204.456321 
L 138.861256 204.101131 
L 138.886969 203.03556 
L 139.049548 202.68037 
L 139.166237 200.904419 
L 139.663973 199.838849 
L 139.770841 199.128469 
L 140.167066 196.997328 
L 140.278933 195.931757 
L 140.431692 195.576567 
L 140.501687 194.866187 
L 140.808989 194.510997 
L 140.969693 193.800617 
L 140.974603 193.445427 
L 141.158252 193.090236 
L 141.179858 192.735046 
L 141.377613 192.379856 
L 141.762856 192.024666 
L 141.900615 190.248715 
L 142.406208 187.407194 
L 142.72958 184.565673 
L 142.97269 183.855293 
L 143.079201 182.789723 
L 143.083218 182.079342 
L 143.226691 181.724152 
L 143.361415 181.013772 
L 143.693804 179.593011 
L 143.927628 178.527441 
L 144.052174 177.461871 
L 144.430453 175.68592 
L 144.62187 174.265159 
L 144.769807 173.554779 
L 145.578148 170.002878 
L 146.086419 168.937307 
L 146.366133 168.582117 
L 147.386961 162.899075 
L 147.49365 161.478314 
L 147.614803 161.123124 
L 147.887643 160.767934 
L 148.112182 159.347174 
L 148.269672 158.636793 
L 148.572867 156.505653 
L 148.618221 155.795272 
L 148.710804 155.440082 
L 148.946504 155.084892 
L 149.020517 154.729702 
L 149.213183 154.374512 
L 149.314605 153.664132 
L 149.557 153.308941 
L 149.769755 151.888181 
L 149.943672 151.532991 
L 149.962421 151.177801 
L 150.138392 150.46742 
L 150.298471 149.75704 
L 150.690231 149.40185 
L 150.823437 148.69147 
L 150.938162 147.270709 
L 151.417953 146.205139 
L 151.731861 145.849949 
L 151.739986 145.494758 
L 152.902947 141.942857 
L 153.027314 140.877287 
L 153.372738 140.166906 
L 153.434163 139.456526 
L 154.139832 138.746146 
L 154.397405 138.390956 
L 154.512844 137.680576 
L 154.531414 137.325385 
L 155.081647 135.904625 
L 155.224763 135.194245 
L 155.427696 134.483864 
L 155.653932 134.128674 
L 156.032032 133.773484 
L 157.348287 129.511202 
L 157.477386 128.090442 
L 158.267336 127.024872 
L 158.61151 126.314491 
L 158.698826 125.959301 
L 158.981933 125.604111 
L 159.195401 124.893731 
L 160.232031 124.18335 
L 160.561832 123.11778 
L 161.179739 122.76259 
L 161.953171 121.69702 
L 162.305827 121.341829 
L 162.479923 120.986639 
L 162.554026 119.921069 
L 162.988819 119.565879 
L 163.045958 119.210689 
L 163.609315 118.500308 
L 163.79591 117.789928 
L 164.168208 117.434738 
L 164.211062 117.079548 
L 164.71103 116.724358 
L 164.866378 116.013977 
L 165.166358 115.658787 
L 165.825245 115.303597 
L 166.288608 113.527646 
L 167.221584 112.817266 
L 167.267117 112.462076 
L 168.515251 111.396506 
L 169.245562 111.041316 
L 170.176752 109.265365 
L 171.063302 108.554985 
L 171.473098 108.199794 
L 171.592733 107.844604 
L 171.593626 107.489414 
L 173.04264 105.003083 
L 173.871158 104.292703 
L 173.876515 103.937513 
L 174.228278 103.227133 
L 174.374698 102.871942 
L 174.673786 102.516752 
L 174.729139 102.161562 
L 175.111258 101.451182 
L 175.613904 101.095992 
L 175.683542 100.740802 
L 176.023699 100.385612 
L 176.146013 100.030421 
L 177.38879 99.320041 
L 177.437002 98.964851 
L 177.803942 98.254471 
L 178.22088 97.899281 
L 179.607398 97.54409 
L 179.875238 96.83371 
L 180.255571 96.47852 
L 180.385027 96.12333 
L 181.450138 95.41295 
L 182.000102 94.702569 
L 182.759875 94.347379 
L 184.416912 93.992189 
L 184.99009 93.636999 
L 185.807894 93.281809 
L 186.26233 92.926619 
L 186.338218 92.571429 
L 187.385472 92.216238 
L 187.829194 91.861048 
L 188.886269 91.505858 
L 189.609437 90.795478 
L 190.619194 88.664337 
L 191.168266 88.309147 
L 192.038746 87.953957 
L 192.536035 87.598767 
L 193.284202 87.243577 
L 193.383302 86.888386 
L 194.146646 86.533196 
L 194.550192 86.178006 
L 198.930269 85.467626 
L 199.15704 85.112436 
L 199.627546 84.757246 
L 201.010493 84.402055 
L 205.061126 84.046865 
L 205.956605 83.691675 
L 206.20391 82.981295 
L 206.502998 82.626105 
L 206.59585 82.270915 
L 206.874403 81.915725 
L 206.90833 81.560534 
L 207.652032 81.205344 
L 207.841306 80.850154 
L 208.996589 80.494964 
L 209.399242 80.139774 
L 209.786717 79.429394 
L 214.938173 78.363823 
L 216.021139 78.008633 
L 216.663955 77.653443 
L 216.836266 77.298253 
L 216.869299 76.943063 
L 217.098749 76.587873 
L 217.127318 76.232682 
L 218.905776 75.877492 
L 219.460205 75.167112 
L 219.479846 74.811922 
L 220.170874 74.456732 
L 224.443814 73.746351 
L 225.097344 73.391161 
L 225.350899 73.035971 
L 227.848061 72.680781 
L 227.992694 72.325591 
L 231.252307 71.615211 
L 239.013418 70.90483 
L 243.878285 70.54964 
L 245.014819 69.83926 
L 245.899584 69.12888 
L 246.782563 68.77369 
L 247.324493 68.418499 
L 247.514659 68.063309 
L 248.281574 67.708119 
L 249.352934 67.352929 
L 249.389539 66.997739 
L 250.876944 66.642549 
L 254.661523 66.287359 
L 254.815978 65.932169 
L 256.426589 65.576978 
L 257.132794 65.221788 
L 259.580851 64.866598 
L 263.84665 64.511408 
L 264.653741 64.156218 
L 271.018512 62.735457 
L 273.754944 62.380267 
L 273.825475 62.025077 
L 279.909014 61.669887 
L 280.741997 61.314697 
L 282.618662 60.959507 
L 282.928464 60.604317 
L 285.644362 60.249126 
L 286.860355 59.538746 
L 287.77369 59.183556 
L 292.318934 58.828366 
L 292.468032 58.473176 
L 295.474982 58.117986 
L 296.051731 57.762795 
L 297.523958 57.407605 
L 302.126342 57.052415 
L 305.091331 55.986845 
L 305.593978 55.631655 
L 311.58913 55.276465 
L 313.928266 54.921274 
L 322.375939 54.566084 
L 325.082909 54.210894 
L 332.058355 53.855704 
L 332.670816 53.500514 
L 333.049363 53.145324 
L 334.293926 52.790134 
L 334.29839 52.434943 
L 344.998598 52.079753 
L 350.291117 51.724563 
L 351.757094 51.369373 
L 358.270963 51.014183 
L 359.335181 50.658993 
L 359.547667 50.303803 
L 359.902109 49.948613 
L 360.556531 49.593422 
L 361.663603 49.238232 
L 364.332182 48.883042 
L 364.709837 48.172662 
L 366.299914 47.817472 
L 377.979523 47.462282 
L 381.22753 47.107091 
L 391.547405 46.751901 
L 417.984106 46.396711 
L 419.87327 46.041521 
L 422.967715 45.686331 
L 439.181856 44.620761 
L 439.52737 44.26557 
L 440.846928 43.91038 
L 459.887674 43.55519 
L 503.479526 43.2 
L 503.479526 43.2 
" style="fill:none;stroke:#0000ff;stroke-linecap:square;"/>
   </g>
   <g id="patch_3">
    <path d="M 72 43.2 
L 518.4 43.2 
" style="fill:none;stroke:#000000;stroke-linecap:square;stroke-linejoin:miter;"/>
   </g>
   <g id="patch_4">
    <path d="M 518.4 388.8 
L 518.4 43.2 
" style="fill:none;stroke:#000000;stroke-linecap:square;stroke-linejoin:miter;"/>
   </g>
   <g id="patch_5">
    <path d="M 72 388.8 
L 518.4 388.8 
" style="fill:none;stroke:#000000;stroke-linecap:square;stroke-linejoin:miter;"/>
   </g>
   <g id="patch_6">
    <path d="M 72 388.8 
L 72 43.2 
" style="fill:none;stroke:#000000;stroke-linecap:square;stroke-linejoin:miter;"/>
   </g>
   <g id="matplotlib.axis_1">
    <g id="xtick_1">
     <g id="line2d_2">
      <defs>
       <path d="M 0 0 
L 0 -4 
" id="mf086787db6" style="stroke:#000000;stroke-width:0.5;"/>
      </defs>
      <g>
       <use style="stroke:#000000;stroke-width:0.5;" x="72.0" xlink:href="#mf086787db6" y="388.8"/>
      </g>
     </g>
     <g id="line2d_3">
      <defs>
       <path d="M 0 0 
L 0 4 
" id="m6900340464" style="stroke:#000000;stroke-width:0.5;"/>
      </defs>
      <g>
       <use style="stroke:#000000;stroke-width:0.5;" x="72.0" xlink:href="#m6900340464" y="43.2"/>
      </g>
     </g>
     <g id="text_1">
      <!-- 0 -->
      <defs>
       <path d="M 31.78125 66.40625 
Q 24.171875 66.40625 20.328125 58.90625 
Q 16.5 51.421875 16.5 36.375 
Q 16.5 21.390625 20.328125 13.890625 
Q 24.171875 6.390625 31.78125 6.390625 
Q 39.453125 6.390625 43.28125 13.890625 
Q 47.125 21.390625 47.125 36.375 
Q 47.125 51.421875 43.28125 58.90625 
Q 39.453125 66.40625 31.78125 66.40625 
M 31.78125 74.21875 
Q 44.046875 74.21875 50.515625 64.515625 
Q 56.984375 54.828125 56.984375 36.375 
Q 56.984375 17.96875 50.515625 8.265625 
Q 44.046875 -1.421875 31.78125 -1.421875 
Q 19.53125 -1.421875 13.0625 8.265625 
Q 6.59375 17.96875 6.59375 36.375 
Q 6.59375 54.828125 13.0625 64.515625 
Q 19.53125 74.21875 31.78125 74.21875 
" id="BitstreamVeraSans-Roman-30"/>
      </defs>
      <g transform="translate(68.1825 401.918125)scale(0.12 -0.12)">
       <use xlink:href="#BitstreamVeraSans-Roman-30"/>
      </g>
     </g>
    </g>
    <g id="xtick_2">
     <g id="line2d_4">
      <g>
       <use style="stroke:#000000;stroke-width:0.5;" x="161.28" xlink:href="#mf086787db6" y="388.8"/>
      </g>
     </g>
     <g id="line2d_5">
      <g>
       <use style="stroke:#000000;stroke-width:0.5;" x="161.28" xlink:href="#m6900340464" y="43.2"/>
      </g>
     </g>
     <g id="text_2">
      <!-- 10 -->
      <defs>
       <path d="M 12.40625 8.296875 
L 28.515625 8.296875 
L 28.515625 63.921875 
L 10.984375 60.40625 
L 10.984375 69.390625 
L 28.421875 72.90625 
L 38.28125 72.90625 
L 38.28125 8.296875 
L 54.390625 8.296875 
L 54.390625 0 
L 12.40625 0 
z
" id="BitstreamVeraSans-Roman-31"/>
      </defs>
      <g transform="translate(153.645 401.918125)scale(0.12 -0.12)">
       <use xlink:href="#BitstreamVeraSans-Roman-31"/>
       <use x="63.623046875" xlink:href="#BitstreamVeraSans-Roman-30"/>
      </g>
     </g>
    </g>
    <g id="xtick_3">
     <g id="line2d_6">
      <g>
       <use style="stroke:#000000;stroke-width:0.5;" x="250.56" xlink:href="#mf086787db6" y="388.8"/>
      </g>
     </g>
     <g id="line2d_7">
      <g>
       <use style="stroke:#000000;stroke-width:0.5;" x="250.56" xlink:href="#m6900340464" y="43.2"/>
      </g>
     </g>
     <g id="text_3">
      <!-- 20 -->
      <defs>
       <path d="M 19.1875 8.296875 
L 53.609375 8.296875 
L 53.609375 0 
L 7.328125 0 
L 7.328125 8.296875 
Q 12.9375 14.109375 22.625 23.890625 
Q 32.328125 33.6875 34.8125 36.53125 
Q 39.546875 41.84375 41.421875 45.53125 
Q 43.3125 49.21875 43.3125 52.78125 
Q 43.3125 58.59375 39.234375 62.25 
Q 35.15625 65.921875 28.609375 65.921875 
Q 23.96875 65.921875 18.8125 64.3125 
Q 13.671875 62.703125 7.8125 59.421875 
L 7.8125 69.390625 
Q 13.765625 71.78125 18.9375 73 
Q 24.125 74.21875 28.421875 74.21875 
Q 39.75 74.21875 46.484375 68.546875 
Q 53.21875 62.890625 53.21875 53.421875 
Q 53.21875 48.921875 51.53125 44.890625 
Q 49.859375 40.875 45.40625 35.40625 
Q 44.1875 33.984375 37.640625 27.21875 
Q 31.109375 20.453125 19.1875 8.296875 
" id="BitstreamVeraSans-Roman-32"/>
      </defs>
      <g transform="translate(242.925 401.918125)scale(0.12 -0.12)">
       <use xlink:href="#BitstreamVeraSans-Roman-32"/>
       <use x="63.623046875" xlink:href="#BitstreamVeraSans-Roman-30"/>
      </g>
     </g>
    </g>
    <g id="xtick_4">
     <g id="line2d_8">
      <g>
       <use style="stroke:#000000;stroke-width:0.5;" x="339.84" xlink:href="#mf086787db6" y="388.8"/>
      </g>
     </g>
     <g id="line2d_9">
      <g>
       <use style="stroke:#000000;stroke-width:0.5;" x="339.84" xlink:href="#m6900340464" y="43.2"/>
      </g>
     </g>
     <g id="text_4">
      <!-- 30 -->
      <defs>
       <path d="M 40.578125 39.3125 
Q 47.65625 37.796875 51.625 33 
Q 55.609375 28.21875 55.609375 21.1875 
Q 55.609375 10.40625 48.1875 4.484375 
Q 40.765625 -1.421875 27.09375 -1.421875 
Q 22.515625 -1.421875 17.65625 -0.515625 
Q 12.796875 0.390625 7.625 2.203125 
L 7.625 11.71875 
Q 11.71875 9.328125 16.59375 8.109375 
Q 21.484375 6.890625 26.8125 6.890625 
Q 36.078125 6.890625 40.9375 10.546875 
Q 45.796875 14.203125 45.796875 21.1875 
Q 45.796875 27.640625 41.28125 31.265625 
Q 36.765625 34.90625 28.71875 34.90625 
L 20.21875 34.90625 
L 20.21875 43.015625 
L 29.109375 43.015625 
Q 36.375 43.015625 40.234375 45.921875 
Q 44.09375 48.828125 44.09375 54.296875 
Q 44.09375 59.90625 40.109375 62.90625 
Q 36.140625 65.921875 28.71875 65.921875 
Q 24.65625 65.921875 20.015625 65.03125 
Q 15.375 64.15625 9.8125 62.3125 
L 9.8125 71.09375 
Q 15.4375 72.65625 20.34375 73.4375 
Q 25.25 74.21875 29.59375 74.21875 
Q 40.828125 74.21875 47.359375 69.109375 
Q 53.90625 64.015625 53.90625 55.328125 
Q 53.90625 49.265625 50.4375 45.09375 
Q 46.96875 40.921875 40.578125 39.3125 
" id="BitstreamVeraSans-Roman-33"/>
      </defs>
      <g transform="translate(332.205 401.918125)scale(0.12 -0.12)">
       <use xlink:href="#BitstreamVeraSans-Roman-33"/>
       <use x="63.623046875" xlink:href="#BitstreamVeraSans-Roman-30"/>
      </g>
     </g>
    </g>
    <g id="xtick_5">
     <g id="line2d_10">
      <g>
       <use style="stroke:#000000;stroke-width:0.5;" x="429.12" xlink:href="#mf086787db6" y="388.8"/>
      </g>
     </g>
     <g id="line2d_11">
      <g>
       <use style="stroke:#000000;stroke-width:0.5;" x="429.12" xlink:href="#m6900340464" y="43.2"/>
      </g>
     </g>
     <g id="text_5">
      <!-- 40 -->
      <defs>
       <path d="M 37.796875 64.3125 
L 12.890625 25.390625 
L 37.796875 25.390625 
z
M 35.203125 72.90625 
L 47.609375 72.90625 
L 47.609375 25.390625 
L 58.015625 25.390625 
L 58.015625 17.1875 
L 47.609375 17.1875 
L 47.609375 0 
L 37.796875 0 
L 37.796875 17.1875 
L 4.890625 17.1875 
L 4.890625 26.703125 
z
" id="BitstreamVeraSans-Roman-34"/>
      </defs>
      <g transform="translate(421.485 401.918125)scale(0.12 -0.12)">
       <use xlink:href="#BitstreamVeraSans-Roman-34"/>
       <use x="63.623046875" xlink:href="#BitstreamVeraSans-Roman-30"/>
      </g>
     </g>
    </g>
    <g id="xtick_6">
     <g id="line2d_12">
      <g>
       <use style="stroke:#000000;stroke-width:0.5;" x="518.4" xlink:href="#mf086787db6" y="388.8"/>
      </g>
     </g>
     <g id="line2d_13">
      <g>
       <use style="stroke:#000000;stroke-width:0.5;" x="518.4" xlink:href="#m6900340464" y="43.2"/>
      </g>
     </g>
     <g id="text_6">
      <!-- 50 -->
      <defs>
       <path d="M 10.796875 72.90625 
L 49.515625 72.90625 
L 49.515625 64.59375 
L 19.828125 64.59375 
L 19.828125 46.734375 
Q 21.96875 47.46875 24.109375 47.828125 
Q 26.265625 48.1875 28.421875 48.1875 
Q 40.625 48.1875 47.75 41.5 
Q 54.890625 34.8125 54.890625 23.390625 
Q 54.890625 11.625 47.5625 5.09375 
Q 40.234375 -1.421875 26.90625 -1.421875 
Q 22.3125 -1.421875 17.546875 -0.640625 
Q 12.796875 0.140625 7.71875 1.703125 
L 7.71875 11.625 
Q 12.109375 9.234375 16.796875 8.0625 
Q 21.484375 6.890625 26.703125 6.890625 
Q 35.15625 6.890625 40.078125 11.328125 
Q 45.015625 15.765625 45.015625 23.390625 
Q 45.015625 31 40.078125 35.4375 
Q 35.15625 39.890625 26.703125 39.890625 
Q 22.75 39.890625 18.8125 39.015625 
Q 14.890625 38.140625 10.796875 36.28125 
z
" id="BitstreamVeraSans-Roman-35"/>
      </defs>
      <g transform="translate(510.765 401.918125)scale(0.12 -0.12)">
       <use xlink:href="#BitstreamVeraSans-Roman-35"/>
       <use x="63.623046875" xlink:href="#BitstreamVeraSans-Roman-30"/>
      </g>
     </g>
    </g>
    <g id="text_7">
     <!-- Resume duration (seconds) -->
     <defs>
      <path id="BitstreamVeraSans-Roman-20"/>
      <path d="M 54.890625 33.015625 
L 54.890625 0 
L 45.90625 0 
L 45.90625 32.71875 
Q 45.90625 40.484375 42.875 44.328125 
Q 39.84375 48.1875 33.796875 48.1875 
Q 26.515625 48.1875 22.3125 43.546875 
Q 18.109375 38.921875 18.109375 30.90625 
L 18.109375 0 
L 9.078125 0 
L 9.078125 54.6875 
L 18.109375 54.6875 
L 18.109375 46.1875 
Q 21.34375 51.125 25.703125 53.5625 
Q 30.078125 56 35.796875 56 
Q 45.21875 56 50.046875 50.171875 
Q 54.890625 44.34375 54.890625 33.015625 
" id="BitstreamVeraSans-Roman-6e"/>
      <path d="M 52 44.1875 
Q 55.375 50.25 60.0625 53.125 
Q 64.75 56 71.09375 56 
Q 79.640625 56 84.28125 50.015625 
Q 88.921875 44.046875 88.921875 33.015625 
L 88.921875 0 
L 79.890625 0 
L 79.890625 32.71875 
Q 79.890625 40.578125 77.09375 44.375 
Q 74.3125 48.1875 68.609375 48.1875 
Q 61.625 48.1875 57.5625 43.546875 
Q 53.515625 38.921875 53.515625 30.90625 
L 53.515625 0 
L 44.484375 0 
L 44.484375 32.71875 
Q 44.484375 40.625 41.703125 44.40625 
Q 38.921875 48.1875 33.109375 48.1875 
Q 26.21875 48.1875 22.15625 43.53125 
Q 18.109375 38.875 18.109375 30.90625 
L 18.109375 0 
L 9.078125 0 
L 9.078125 54.6875 
L 18.109375 54.6875 
L 18.109375 46.1875 
Q 21.1875 51.21875 25.484375 53.609375 
Q 29.78125 56 35.6875 56 
Q 41.65625 56 45.828125 52.96875 
Q 50 49.953125 52 44.1875 
" id="BitstreamVeraSans-Roman-6d"/>
      <path d="M 30.609375 48.390625 
Q 23.390625 48.390625 19.1875 42.75 
Q 14.984375 37.109375 14.984375 27.296875 
Q 14.984375 17.484375 19.15625 11.84375 
Q 23.34375 6.203125 30.609375 6.203125 
Q 37.796875 6.203125 41.984375 11.859375 
Q 46.1875 17.53125 46.1875 27.296875 
Q 46.1875 37.015625 41.984375 42.703125 
Q 37.796875 48.390625 30.609375 48.390625 
M 30.609375 56 
Q 42.328125 56 49.015625 48.375 
Q 55.71875 40.765625 55.71875 27.296875 
Q 55.71875 13.875 49.015625 6.21875 
Q 42.328125 -1.421875 30.609375 -1.421875 
Q 18.84375 -1.421875 12.171875 6.21875 
Q 5.515625 13.875 5.515625 27.296875 
Q 5.515625 40.765625 12.171875 48.375 
Q 18.84375 56 30.609375 56 
" id="BitstreamVeraSans-Roman-6f"/>
      <path d="M 18.3125 70.21875 
L 18.3125 54.6875 
L 36.8125 54.6875 
L 36.8125 47.703125 
L 18.3125 47.703125 
L 18.3125 18.015625 
Q 18.3125 11.328125 20.140625 9.421875 
Q 21.96875 7.515625 27.59375 7.515625 
L 36.8125 7.515625 
L 36.8125 0 
L 27.59375 0 
Q 17.1875 0 13.234375 3.875 
Q 9.28125 7.765625 9.28125 18.015625 
L 9.28125 47.703125 
L 2.6875 47.703125 
L 2.6875 54.6875 
L 9.28125 54.6875 
L 9.28125 70.21875 
z
" id="BitstreamVeraSans-Roman-74"/>
      <path d="M 8.015625 75.875 
L 15.828125 75.875 
Q 23.140625 64.359375 26.78125 53.3125 
Q 30.421875 42.28125 30.421875 31.390625 
Q 30.421875 20.453125 26.78125 9.375 
Q 23.140625 -1.703125 15.828125 -13.1875 
L 8.015625 -13.1875 
Q 14.5 -2 17.703125 9.0625 
Q 20.90625 20.125 20.90625 31.390625 
Q 20.90625 42.671875 17.703125 53.65625 
Q 14.5 64.65625 8.015625 75.875 
" id="BitstreamVeraSans-Roman-29"/>
      <path d="M 44.390625 34.1875 
Q 47.5625 33.109375 50.5625 29.59375 
Q 53.5625 26.078125 56.59375 19.921875 
L 66.609375 0 
L 56 0 
L 46.6875 18.703125 
Q 43.0625 26.03125 39.671875 28.421875 
Q 36.28125 30.8125 30.421875 30.8125 
L 19.671875 30.8125 
L 19.671875 0 
L 9.8125 0 
L 9.8125 72.90625 
L 32.078125 72.90625 
Q 44.578125 72.90625 50.734375 67.671875 
Q 56.890625 62.453125 56.890625 51.90625 
Q 56.890625 45.015625 53.6875 40.46875 
Q 50.484375 35.9375 44.390625 34.1875 
M 19.671875 64.796875 
L 19.671875 38.921875 
L 32.078125 38.921875 
Q 39.203125 38.921875 42.84375 42.21875 
Q 46.484375 45.515625 46.484375 51.90625 
Q 46.484375 58.296875 42.84375 61.546875 
Q 39.203125 64.796875 32.078125 64.796875 
z
" id="BitstreamVeraSans-Roman-52"/>
      <path d="M 9.421875 54.6875 
L 18.40625 54.6875 
L 18.40625 0 
L 9.421875 0 
z
M 9.421875 75.984375 
L 18.40625 75.984375 
L 18.40625 64.59375 
L 9.421875 64.59375 
z
" id="BitstreamVeraSans-Roman-69"/>
      <path d="M 31 75.875 
Q 24.46875 64.65625 21.28125 53.65625 
Q 18.109375 42.671875 18.109375 31.390625 
Q 18.109375 20.125 21.3125 9.0625 
Q 24.515625 -2 31 -13.1875 
L 23.1875 -13.1875 
Q 15.875 -1.703125 12.234375 9.375 
Q 8.59375 20.453125 8.59375 31.390625 
Q 8.59375 42.28125 12.203125 53.3125 
Q 15.828125 64.359375 23.1875 75.875 
z
" id="BitstreamVeraSans-Roman-28"/>
      <path d="M 56.203125 29.59375 
L 56.203125 25.203125 
L 14.890625 25.203125 
Q 15.484375 15.921875 20.484375 11.0625 
Q 25.484375 6.203125 34.421875 6.203125 
Q 39.59375 6.203125 44.453125 7.46875 
Q 49.3125 8.734375 54.109375 11.28125 
L 54.109375 2.78125 
Q 49.265625 0.734375 44.1875 -0.34375 
Q 39.109375 -1.421875 33.890625 -1.421875 
Q 20.796875 -1.421875 13.15625 6.1875 
Q 5.515625 13.8125 5.515625 26.8125 
Q 5.515625 40.234375 12.765625 48.109375 
Q 20.015625 56 32.328125 56 
Q 43.359375 56 49.78125 48.890625 
Q 56.203125 41.796875 56.203125 29.59375 
M 47.21875 32.234375 
Q 47.125 39.59375 43.09375 43.984375 
Q 39.0625 48.390625 32.421875 48.390625 
Q 24.90625 48.390625 20.390625 44.140625 
Q 15.875 39.890625 15.1875 32.171875 
z
" id="BitstreamVeraSans-Roman-65"/>
      <path d="M 45.40625 46.390625 
L 45.40625 75.984375 
L 54.390625 75.984375 
L 54.390625 0 
L 45.40625 0 
L 45.40625 8.203125 
Q 42.578125 3.328125 38.25 0.953125 
Q 33.9375 -1.421875 27.875 -1.421875 
Q 17.96875 -1.421875 11.734375 6.484375 
Q 5.515625 14.40625 5.515625 27.296875 
Q 5.515625 40.1875 11.734375 48.09375 
Q 17.96875 56 27.875 56 
Q 33.9375 56 38.25 53.625 
Q 42.578125 51.265625 45.40625 46.390625 
M 14.796875 27.296875 
Q 14.796875 17.390625 18.875 11.75 
Q 22.953125 6.109375 30.078125 6.109375 
Q 37.203125 6.109375 41.296875 11.75 
Q 45.40625 17.390625 45.40625 27.296875 
Q 45.40625 37.203125 41.296875 42.84375 
Q 37.203125 48.484375 30.078125 48.484375 
Q 22.953125 48.484375 18.875 42.84375 
Q 14.796875 37.203125 14.796875 27.296875 
" id="BitstreamVeraSans-Roman-64"/>
      <path d="M 34.28125 27.484375 
Q 23.390625 27.484375 19.1875 25 
Q 14.984375 22.515625 14.984375 16.5 
Q 14.984375 11.71875 18.140625 8.90625 
Q 21.296875 6.109375 26.703125 6.109375 
Q 34.1875 6.109375 38.703125 11.40625 
Q 43.21875 16.703125 43.21875 25.484375 
L 43.21875 27.484375 
z
M 52.203125 31.203125 
L 52.203125 0 
L 43.21875 0 
L 43.21875 8.296875 
Q 40.140625 3.328125 35.546875 0.953125 
Q 30.953125 -1.421875 24.3125 -1.421875 
Q 15.921875 -1.421875 10.953125 3.296875 
Q 6 8.015625 6 15.921875 
Q 6 25.140625 12.171875 29.828125 
Q 18.359375 34.515625 30.609375 34.515625 
L 43.21875 34.515625 
L 43.21875 35.40625 
Q 43.21875 41.609375 39.140625 45 
Q 35.0625 48.390625 27.6875 48.390625 
Q 23 48.390625 18.546875 47.265625 
Q 14.109375 46.140625 10.015625 43.890625 
L 10.015625 52.203125 
Q 14.9375 54.109375 19.578125 55.046875 
Q 24.21875 56 28.609375 56 
Q 40.484375 56 46.34375 49.84375 
Q 52.203125 43.703125 52.203125 31.203125 
" id="BitstreamVeraSans-Roman-61"/>
      <path d="M 8.5 21.578125 
L 8.5 54.6875 
L 17.484375 54.6875 
L 17.484375 21.921875 
Q 17.484375 14.15625 20.5 10.265625 
Q 23.53125 6.390625 29.59375 6.390625 
Q 36.859375 6.390625 41.078125 11.03125 
Q 45.3125 15.671875 45.3125 23.6875 
L 45.3125 54.6875 
L 54.296875 54.6875 
L 54.296875 0 
L 45.3125 0 
L 45.3125 8.40625 
Q 42.046875 3.421875 37.71875 1 
Q 33.40625 -1.421875 27.6875 -1.421875 
Q 18.265625 -1.421875 13.375 4.4375 
Q 8.5 10.296875 8.5 21.578125 
" id="BitstreamVeraSans-Roman-75"/>
      <path d="M 41.109375 46.296875 
Q 39.59375 47.171875 37.8125 47.578125 
Q 36.03125 48 33.890625 48 
Q 26.265625 48 22.1875 43.046875 
Q 18.109375 38.09375 18.109375 28.8125 
L 18.109375 0 
L 9.078125 0 
L 9.078125 54.6875 
L 18.109375 54.6875 
L 18.109375 46.1875 
Q 20.953125 51.171875 25.484375 53.578125 
Q 30.03125 56 36.53125 56 
Q 37.453125 56 38.578125 55.875 
Q 39.703125 55.765625 41.0625 55.515625 
z
" id="BitstreamVeraSans-Roman-72"/>
      <path d="M 44.28125 53.078125 
L 44.28125 44.578125 
Q 40.484375 46.53125 36.375 47.5 
Q 32.28125 48.484375 27.875 48.484375 
Q 21.1875 48.484375 17.84375 46.4375 
Q 14.5 44.390625 14.5 40.28125 
Q 14.5 37.15625 16.890625 35.375 
Q 19.28125 33.59375 26.515625 31.984375 
L 29.59375 31.296875 
Q 39.15625 29.25 43.1875 25.515625 
Q 47.21875 21.78125 47.21875 15.09375 
Q 47.21875 7.46875 41.1875 3.015625 
Q 35.15625 -1.421875 24.609375 -1.421875 
Q 20.21875 -1.421875 15.453125 -0.5625 
Q 10.6875 0.296875 5.421875 2 
L 5.421875 11.28125 
Q 10.40625 8.6875 15.234375 7.390625 
Q 20.0625 6.109375 24.8125 6.109375 
Q 31.15625 6.109375 34.5625 8.28125 
Q 37.984375 10.453125 37.984375 14.40625 
Q 37.984375 18.0625 35.515625 20.015625 
Q 33.0625 21.96875 24.703125 23.78125 
L 21.578125 24.515625 
Q 13.234375 26.265625 9.515625 29.90625 
Q 5.8125 33.546875 5.8125 39.890625 
Q 5.8125 47.609375 11.28125 51.796875 
Q 16.75 56 26.8125 56 
Q 31.78125 56 36.171875 55.265625 
Q 40.578125 54.546875 44.28125 53.078125 
" id="BitstreamVeraSans-Roman-73"/>
      <path d="M 48.78125 52.59375 
L 48.78125 44.1875 
Q 44.96875 46.296875 41.140625 47.34375 
Q 37.3125 48.390625 33.40625 48.390625 
Q 24.65625 48.390625 19.8125 42.84375 
Q 14.984375 37.3125 14.984375 27.296875 
Q 14.984375 17.28125 19.8125 11.734375 
Q 24.65625 6.203125 33.40625 6.203125 
Q 37.3125 6.203125 41.140625 7.25 
Q 44.96875 8.296875 48.78125 10.40625 
L 48.78125 2.09375 
Q 45.015625 0.34375 40.984375 -0.53125 
Q 36.96875 -1.421875 32.421875 -1.421875 
Q 20.0625 -1.421875 12.78125 6.34375 
Q 5.515625 14.109375 5.515625 27.296875 
Q 5.515625 40.671875 12.859375 48.328125 
Q 20.21875 56 33.015625 56 
Q 37.15625 56 41.109375 55.140625 
Q 45.0625 54.296875 48.78125 52.59375 
" id="BitstreamVeraSans-Roman-63"/>
     </defs>
     <g transform="translate(212.61 418.531875)scale(0.12 -0.12)">
      <use xlink:href="#BitstreamVeraSans-Roman-52"/>
      <use x="69.419921875" xlink:href="#BitstreamVeraSans-Roman-65"/>
      <use x="130.943359375" xlink:href="#BitstreamVeraSans-Roman-73"/>
      <use x="183.04296875" xlink:href="#BitstreamVeraSans-Roman-75"/>
      <use x="246.421875" xlink:href="#BitstreamVeraSans-Roman-6d"/>
      <use x="343.833984375" xlink:href="#BitstreamVeraSans-Roman-65"/>
      <use x="405.357421875" xlink:href="#BitstreamVeraSans-Roman-20"/>
      <use x="437.14453125" xlink:href="#BitstreamVeraSans-Roman-64"/>
      <use x="500.62109375" xlink:href="#BitstreamVeraSans-Roman-75"/>
      <use x="564.0" xlink:href="#BitstreamVeraSans-Roman-72"/>
      <use x="605.11328125" xlink:href="#BitstreamVeraSans-Roman-61"/>
      <use x="666.392578125" xlink:href="#BitstreamVeraSans-Roman-74"/>
      <use x="705.6015625" xlink:href="#BitstreamVeraSans-Roman-69"/>
      <use x="733.384765625" xlink:href="#BitstreamVeraSans-Roman-6f"/>
      <use x="794.56640625" xlink:href="#BitstreamVeraSans-Roman-6e"/>
      <use x="857.9453125" xlink:href="#BitstreamVeraSans-Roman-20"/>
      <use x="889.732421875" xlink:href="#BitstreamVeraSans-Roman-28"/>
      <use x="928.74609375" xlink:href="#BitstreamVeraSans-Roman-73"/>
      <use x="980.845703125" xlink:href="#BitstreamVeraSans-Roman-65"/>
      <use x="1042.36914062" xlink:href="#BitstreamVeraSans-Roman-63"/>
      <use x="1097.34960938" xlink:href="#BitstreamVeraSans-Roman-6f"/>
      <use x="1158.53125" xlink:href="#BitstreamVeraSans-Roman-6e"/>
      <use x="1221.91015625" xlink:href="#BitstreamVeraSans-Roman-64"/>
      <use x="1285.38671875" xlink:href="#BitstreamVeraSans-Roman-73"/>
      <use x="1337.48632812" xlink:href="#BitstreamVeraSans-Roman-29"/>
     </g>
    </g>
   </g>
   <g id="matplotlib.axis_2">
    <g id="ytick_1">
     <g id="line2d_14">
      <defs>
       <path d="M 0 0 
L 4 0 
" id="mbeb9865c29" style="stroke:#000000;stroke-width:0.5;"/>
      </defs>
      <g>
       <use style="stroke:#000000;stroke-width:0.5;" x="72.0" xlink:href="#mbeb9865c29" y="388.8"/>
      </g>
     </g>
     <g id="line2d_15">
      <defs>
       <path d="M 0 0 
L -4 0 
" id="m509cb98312" style="stroke:#000000;stroke-width:0.5;"/>
      </defs>
      <g>
       <use style="stroke:#000000;stroke-width:0.5;" x="518.4" xlink:href="#m509cb98312" y="388.8"/>
      </g>
     </g>
     <g id="text_8">
      <!-- 0.0 -->
      <defs>
       <path d="M 10.6875 12.40625 
L 21 12.40625 
L 21 0 
L 10.6875 0 
z
" id="BitstreamVeraSans-Roman-2e"/>
      </defs>
      <g transform="translate(48.91625 392.11125)scale(0.12 -0.12)">
       <use xlink:href="#BitstreamVeraSans-Roman-30"/>
       <use x="63.623046875" xlink:href="#BitstreamVeraSans-Roman-2e"/>
       <use x="95.41015625" xlink:href="#BitstreamVeraSans-Roman-30"/>
      </g>
     </g>
    </g>
    <g id="ytick_2">
     <g id="line2d_16">
      <g>
       <use style="stroke:#000000;stroke-width:0.5;" x="72.0" xlink:href="#mbeb9865c29" y="319.68"/>
      </g>
     </g>
     <g id="line2d_17">
      <g>
       <use style="stroke:#000000;stroke-width:0.5;" x="518.4" xlink:href="#m509cb98312" y="319.68"/>
      </g>
     </g>
     <g id="text_9">
      <!-- 0.2 -->
      <g transform="translate(48.91625 322.99125)scale(0.12 -0.12)">
       <use xlink:href="#BitstreamVeraSans-Roman-30"/>
       <use x="63.623046875" xlink:href="#BitstreamVeraSans-Roman-2e"/>
       <use x="95.41015625" xlink:href="#BitstreamVeraSans-Roman-32"/>
      </g>
     </g>
    </g>
    <g id="ytick_3">
     <g id="line2d_18">
      <g>
       <use style="stroke:#000000;stroke-width:0.5;" x="72.0" xlink:href="#mbeb9865c29" y="250.56"/>
      </g>
     </g>
     <g id="line2d_19">
      <g>
       <use style="stroke:#000000;stroke-width:0.5;" x="518.4" xlink:href="#m509cb98312" y="250.56"/>
      </g>
     </g>
     <g id="text_10">
      <!-- 0.4 -->
      <g transform="translate(48.91625 253.87125)scale(0.12 -0.12)">
       <use xlink:href="#BitstreamVeraSans-Roman-30"/>
       <use x="63.623046875" xlink:href="#BitstreamVeraSans-Roman-2e"/>
       <use x="95.41015625" xlink:href="#BitstreamVeraSans-Roman-34"/>
      </g>
     </g>
    </g>
    <g id="ytick_4">
     <g id="line2d_20">
      <g>
       <use style="stroke:#000000;stroke-width:0.5;" x="72.0" xlink:href="#mbeb9865c29" y="181.44"/>
      </g>
     </g>
     <g id="line2d_21">
      <g>
       <use style="stroke:#000000;stroke-width:0.5;" x="518.4" xlink:href="#m509cb98312" y="181.44"/>
      </g>
     </g>
     <g id="text_11">
      <!-- 0.6 -->
      <defs>
       <path d="M 33.015625 40.375 
Q 26.375 40.375 22.484375 35.828125 
Q 18.609375 31.296875 18.609375 23.390625 
Q 18.609375 15.53125 22.484375 10.953125 
Q 26.375 6.390625 33.015625 6.390625 
Q 39.65625 6.390625 43.53125 10.953125 
Q 47.40625 15.53125 47.40625 23.390625 
Q 47.40625 31.296875 43.53125 35.828125 
Q 39.65625 40.375 33.015625 40.375 
M 52.59375 71.296875 
L 52.59375 62.3125 
Q 48.875 64.0625 45.09375 64.984375 
Q 41.3125 65.921875 37.59375 65.921875 
Q 27.828125 65.921875 22.671875 59.328125 
Q 17.53125 52.734375 16.796875 39.40625 
Q 19.671875 43.65625 24.015625 45.921875 
Q 28.375 48.1875 33.59375 48.1875 
Q 44.578125 48.1875 50.953125 41.515625 
Q 57.328125 34.859375 57.328125 23.390625 
Q 57.328125 12.15625 50.6875 5.359375 
Q 44.046875 -1.421875 33.015625 -1.421875 
Q 20.359375 -1.421875 13.671875 8.265625 
Q 6.984375 17.96875 6.984375 36.375 
Q 6.984375 53.65625 15.1875 63.9375 
Q 23.390625 74.21875 37.203125 74.21875 
Q 40.921875 74.21875 44.703125 73.484375 
Q 48.484375 72.75 52.59375 71.296875 
" id="BitstreamVeraSans-Roman-36"/>
      </defs>
      <g transform="translate(48.91625 184.75125)scale(0.12 -0.12)">
       <use xlink:href="#BitstreamVeraSans-Roman-30"/>
       <use x="63.623046875" xlink:href="#BitstreamVeraSans-Roman-2e"/>
       <use x="95.41015625" xlink:href="#BitstreamVeraSans-Roman-36"/>
      </g>
     </g>
    </g>
    <g id="ytick_5">
     <g id="line2d_22">
      <g>
       <use style="stroke:#000000;stroke-width:0.5;" x="72.0" xlink:href="#mbeb9865c29" y="112.32"/>
      </g>
     </g>
     <g id="line2d_23">
      <g>
       <use style="stroke:#000000;stroke-width:0.5;" x="518.4" xlink:href="#m509cb98312" y="112.32"/>
      </g>
     </g>
     <g id="text_12">
      <!-- 0.8 -->
      <defs>
       <path d="M 31.78125 34.625 
Q 24.75 34.625 20.71875 30.859375 
Q 16.703125 27.09375 16.703125 20.515625 
Q 16.703125 13.921875 20.71875 10.15625 
Q 24.75 6.390625 31.78125 6.390625 
Q 38.8125 6.390625 42.859375 10.171875 
Q 46.921875 13.96875 46.921875 20.515625 
Q 46.921875 27.09375 42.890625 30.859375 
Q 38.875 34.625 31.78125 34.625 
M 21.921875 38.8125 
Q 15.578125 40.375 12.03125 44.71875 
Q 8.5 49.078125 8.5 55.328125 
Q 8.5 64.0625 14.71875 69.140625 
Q 20.953125 74.21875 31.78125 74.21875 
Q 42.671875 74.21875 48.875 69.140625 
Q 55.078125 64.0625 55.078125 55.328125 
Q 55.078125 49.078125 51.53125 44.71875 
Q 48 40.375 41.703125 38.8125 
Q 48.828125 37.15625 52.796875 32.3125 
Q 56.78125 27.484375 56.78125 20.515625 
Q 56.78125 9.90625 50.3125 4.234375 
Q 43.84375 -1.421875 31.78125 -1.421875 
Q 19.734375 -1.421875 13.25 4.234375 
Q 6.78125 9.90625 6.78125 20.515625 
Q 6.78125 27.484375 10.78125 32.3125 
Q 14.796875 37.15625 21.921875 38.8125 
M 18.3125 54.390625 
Q 18.3125 48.734375 21.84375 45.5625 
Q 25.390625 42.390625 31.78125 42.390625 
Q 38.140625 42.390625 41.71875 45.5625 
Q 45.3125 48.734375 45.3125 54.390625 
Q 45.3125 60.0625 41.71875 63.234375 
Q 38.140625 66.40625 31.78125 66.40625 
Q 25.390625 66.40625 21.84375 63.234375 
Q 18.3125 60.0625 18.3125 54.390625 
" id="BitstreamVeraSans-Roman-38"/>
      </defs>
      <g transform="translate(48.91625 115.63125)scale(0.12 -0.12)">
       <use xlink:href="#BitstreamVeraSans-Roman-30"/>
       <use x="63.623046875" xlink:href="#BitstreamVeraSans-Roman-2e"/>
       <use x="95.41015625" xlink:href="#BitstreamVeraSans-Roman-38"/>
      </g>
     </g>
    </g>
    <g id="ytick_6">
     <g id="line2d_24">
      <g>
       <use style="stroke:#000000;stroke-width:0.5;" x="72.0" xlink:href="#mbeb9865c29" y="43.2"/>
      </g>
     </g>
     <g id="line2d_25">
      <g>
       <use style="stroke:#000000;stroke-width:0.5;" x="518.4" xlink:href="#m509cb98312" y="43.2"/>
      </g>
     </g>
     <g id="text_13">
      <!-- 1.0 -->
      <g transform="translate(48.91625 46.51125)scale(0.12 -0.12)">
       <use xlink:href="#BitstreamVeraSans-Roman-31"/>
       <use x="63.623046875" xlink:href="#BitstreamVeraSans-Roman-2e"/>
       <use x="95.41015625" xlink:href="#BitstreamVeraSans-Roman-30"/>
      </g>
     </g>
    </g>
   </g>
   <g id="text_14">
    <!-- CDF of seek delays for Verizon EVDO driving 720p (973 datapoints) -->
    <defs>
     <path d="M 5.515625 54.6875 
L 48.1875 54.6875 
L 48.1875 46.484375 
L 14.40625 7.171875 
L 48.1875 7.171875 
L 48.1875 0 
L 4.296875 0 
L 4.296875 8.203125 
L 38.09375 47.515625 
L 5.515625 47.515625 
z
" id="BitstreamVeraSans-Roman-7a"/>
     <path d="M 39.40625 66.21875 
Q 28.65625 66.21875 22.328125 58.203125 
Q 16.015625 50.203125 16.015625 36.375 
Q 16.015625 22.609375 22.328125 14.59375 
Q 28.65625 6.59375 39.40625 6.59375 
Q 50.140625 6.59375 56.421875 14.59375 
Q 62.703125 22.609375 62.703125 36.375 
Q 62.703125 50.203125 56.421875 58.203125 
Q 50.140625 66.21875 39.40625 66.21875 
M 39.40625 74.21875 
Q 54.734375 74.21875 63.90625 63.9375 
Q 73.09375 53.65625 73.09375 36.375 
Q 73.09375 19.140625 63.90625 8.859375 
Q 54.734375 -1.421875 39.40625 -1.421875 
Q 24.03125 -1.421875 14.8125 8.828125 
Q 5.609375 19.09375 5.609375 36.375 
Q 5.609375 53.65625 14.8125 63.9375 
Q 24.03125 74.21875 39.40625 74.21875 
" id="BitstreamVeraSans-Roman-4f"/>
     <path d="M 8.203125 72.90625 
L 55.078125 72.90625 
L 55.078125 68.703125 
L 28.609375 0 
L 18.3125 0 
L 43.21875 64.59375 
L 8.203125 64.59375 
z
" id="BitstreamVeraSans-Roman-37"/>
     <path d="M 10.984375 1.515625 
L 10.984375 10.5 
Q 14.703125 8.734375 18.5 7.8125 
Q 22.3125 6.890625 25.984375 6.890625 
Q 35.75 6.890625 40.890625 13.453125 
Q 46.046875 20.015625 46.78125 33.40625 
Q 43.953125 29.203125 39.59375 26.953125 
Q 35.25 24.703125 29.984375 24.703125 
Q 19.046875 24.703125 12.671875 31.3125 
Q 6.296875 37.9375 6.296875 49.421875 
Q 6.296875 60.640625 12.9375 67.421875 
Q 19.578125 74.21875 30.609375 74.21875 
Q 43.265625 74.21875 49.921875 64.515625 
Q 56.59375 54.828125 56.59375 36.375 
Q 56.59375 19.140625 48.40625 8.859375 
Q 40.234375 -1.421875 26.421875 -1.421875 
Q 22.703125 -1.421875 18.890625 -0.6875 
Q 15.09375 0.046875 10.984375 1.515625 
M 30.609375 32.421875 
Q 37.25 32.421875 41.125 36.953125 
Q 45.015625 41.5 45.015625 49.421875 
Q 45.015625 57.28125 41.125 61.84375 
Q 37.25 66.40625 30.609375 66.40625 
Q 23.96875 66.40625 20.09375 61.84375 
Q 16.21875 57.28125 16.21875 49.421875 
Q 16.21875 41.5 20.09375 36.953125 
Q 23.96875 32.421875 30.609375 32.421875 
" id="BitstreamVeraSans-Roman-39"/>
     <path d="M 9.421875 75.984375 
L 18.40625 75.984375 
L 18.40625 0 
L 9.421875 0 
z
" id="BitstreamVeraSans-Roman-6c"/>
     <path d="M 9.078125 75.984375 
L 18.109375 75.984375 
L 18.109375 31.109375 
L 44.921875 54.6875 
L 56.390625 54.6875 
L 27.390625 29.109375 
L 57.625 0 
L 45.90625 0 
L 18.109375 26.703125 
L 18.109375 0 
L 9.078125 0 
z
" id="BitstreamVeraSans-Roman-6b"/>
     <path d="M 9.8125 72.90625 
L 51.703125 72.90625 
L 51.703125 64.59375 
L 19.671875 64.59375 
L 19.671875 43.109375 
L 48.578125 43.109375 
L 48.578125 34.8125 
L 19.671875 34.8125 
L 19.671875 0 
L 9.8125 0 
z
" id="BitstreamVeraSans-Roman-46"/>
     <path d="M 9.8125 72.90625 
L 55.90625 72.90625 
L 55.90625 64.59375 
L 19.671875 64.59375 
L 19.671875 43.015625 
L 54.390625 43.015625 
L 54.390625 34.71875 
L 19.671875 34.71875 
L 19.671875 8.296875 
L 56.78125 8.296875 
L 56.78125 0 
L 9.8125 0 
z
" id="BitstreamVeraSans-Roman-45"/>
     <path d="M 19.671875 64.796875 
L 19.671875 8.109375 
L 31.59375 8.109375 
Q 46.6875 8.109375 53.6875 14.9375 
Q 60.6875 21.78125 60.6875 36.53125 
Q 60.6875 51.171875 53.6875 57.984375 
Q 46.6875 64.796875 31.59375 64.796875 
z
M 9.8125 72.90625 
L 30.078125 72.90625 
Q 51.265625 72.90625 61.171875 64.09375 
Q 71.09375 55.28125 71.09375 36.53125 
Q 71.09375 17.671875 61.125 8.828125 
Q 51.171875 0 30.078125 0 
L 9.8125 0 
z
" id="BitstreamVeraSans-Roman-44"/>
     <path d="M 64.40625 67.28125 
L 64.40625 56.890625 
Q 59.421875 61.53125 53.78125 63.8125 
Q 48.140625 66.109375 41.796875 66.109375 
Q 29.296875 66.109375 22.65625 58.46875 
Q 16.015625 50.828125 16.015625 36.375 
Q 16.015625 21.96875 22.65625 14.328125 
Q 29.296875 6.6875 41.796875 6.6875 
Q 48.140625 6.6875 53.78125 8.984375 
Q 59.421875 11.28125 64.40625 15.921875 
L 64.40625 5.609375 
Q 59.234375 2.09375 53.4375 0.328125 
Q 47.65625 -1.421875 41.21875 -1.421875 
Q 24.65625 -1.421875 15.125 8.703125 
Q 5.609375 18.84375 5.609375 36.375 
Q 5.609375 53.953125 15.125 64.078125 
Q 24.65625 74.21875 41.21875 74.21875 
Q 47.75 74.21875 53.53125 72.484375 
Q 59.328125 70.75 64.40625 67.28125 
" id="BitstreamVeraSans-Roman-43"/>
     <path d="M 28.609375 0 
L 0.78125 72.90625 
L 11.078125 72.90625 
L 34.1875 11.53125 
L 57.328125 72.90625 
L 67.578125 72.90625 
L 39.796875 0 
z
" id="BitstreamVeraSans-Roman-56"/>
     <path d="M 32.171875 -5.078125 
Q 28.375 -14.84375 24.75 -17.8125 
Q 21.140625 -20.796875 15.09375 -20.796875 
L 7.90625 -20.796875 
L 7.90625 -13.28125 
L 13.1875 -13.28125 
Q 16.890625 -13.28125 18.9375 -11.515625 
Q 21 -9.765625 23.484375 -3.21875 
L 25.09375 0.875 
L 2.984375 54.6875 
L 12.5 54.6875 
L 29.59375 11.921875 
L 46.6875 54.6875 
L 56.203125 54.6875 
z
" id="BitstreamVeraSans-Roman-79"/>
     <path d="M 2.984375 54.6875 
L 12.5 54.6875 
L 29.59375 8.796875 
L 46.6875 54.6875 
L 56.203125 54.6875 
L 35.6875 0 
L 23.484375 0 
z
" id="BitstreamVeraSans-Roman-76"/>
     <path d="M 45.40625 27.984375 
Q 45.40625 37.75 41.375 43.109375 
Q 37.359375 48.484375 30.078125 48.484375 
Q 22.859375 48.484375 18.828125 43.109375 
Q 14.796875 37.75 14.796875 27.984375 
Q 14.796875 18.265625 18.828125 12.890625 
Q 22.859375 7.515625 30.078125 7.515625 
Q 37.359375 7.515625 41.375 12.890625 
Q 45.40625 18.265625 45.40625 27.984375 
M 54.390625 6.78125 
Q 54.390625 -7.171875 48.1875 -13.984375 
Q 42 -20.796875 29.203125 -20.796875 
Q 24.46875 -20.796875 20.265625 -20.09375 
Q 16.0625 -19.390625 12.109375 -17.921875 
L 12.109375 -9.1875 
Q 16.0625 -11.328125 19.921875 -12.34375 
Q 23.78125 -13.375 27.78125 -13.375 
Q 36.625 -13.375 41.015625 -8.765625 
Q 45.40625 -4.15625 45.40625 5.171875 
L 45.40625 9.625 
Q 42.625 4.78125 38.28125 2.390625 
Q 33.9375 0 27.875 0 
Q 17.828125 0 11.671875 7.65625 
Q 5.515625 15.328125 5.515625 27.984375 
Q 5.515625 40.671875 11.671875 48.328125 
Q 17.828125 56 27.875 56 
Q 33.9375 56 38.28125 53.609375 
Q 42.625 51.21875 45.40625 46.390625 
L 45.40625 54.6875 
L 54.390625 54.6875 
z
" id="BitstreamVeraSans-Roman-67"/>
     <path d="M 37.109375 75.984375 
L 37.109375 68.5 
L 28.515625 68.5 
Q 23.6875 68.5 21.796875 66.546875 
Q 19.921875 64.59375 19.921875 59.515625 
L 19.921875 54.6875 
L 34.71875 54.6875 
L 34.71875 47.703125 
L 19.921875 47.703125 
L 19.921875 0 
L 10.890625 0 
L 10.890625 47.703125 
L 2.296875 47.703125 
L 2.296875 54.6875 
L 10.890625 54.6875 
L 10.890625 58.5 
Q 10.890625 67.625 15.140625 71.796875 
Q 19.390625 75.984375 28.609375 75.984375 
z
" id="BitstreamVeraSans-Roman-66"/>
     <path d="M 18.109375 8.203125 
L 18.109375 -20.796875 
L 9.078125 -20.796875 
L 9.078125 54.6875 
L 18.109375 54.6875 
L 18.109375 46.390625 
Q 20.953125 51.265625 25.265625 53.625 
Q 29.59375 56 35.59375 56 
Q 45.5625 56 51.78125 48.09375 
Q 58.015625 40.1875 58.015625 27.296875 
Q 58.015625 14.40625 51.78125 6.484375 
Q 45.5625 -1.421875 35.59375 -1.421875 
Q 29.59375 -1.421875 25.265625 0.953125 
Q 20.953125 3.328125 18.109375 8.203125 
M 48.6875 27.296875 
Q 48.6875 37.203125 44.609375 42.84375 
Q 40.53125 48.484375 33.40625 48.484375 
Q 26.265625 48.484375 22.1875 42.84375 
Q 18.109375 37.203125 18.109375 27.296875 
Q 18.109375 17.390625 22.1875 11.75 
Q 26.265625 6.109375 33.40625 6.109375 
Q 40.53125 6.109375 44.609375 11.75 
Q 48.6875 17.390625 48.6875 27.296875 
" id="BitstreamVeraSans-Roman-70"/>
    </defs>
    <g transform="translate(51.883875 38.2)scale(0.144 -0.144)">
     <use xlink:href="#BitstreamVeraSans-Roman-43"/>
     <use x="69.82421875" xlink:href="#BitstreamVeraSans-Roman-44"/>
     <use x="146.826171875" xlink:href="#BitstreamVeraSans-Roman-46"/>
     <use x="204.345703125" xlink:href="#BitstreamVeraSans-Roman-20"/>
     <use x="236.1328125" xlink:href="#BitstreamVeraSans-Roman-6f"/>
     <use x="297.314453125" xlink:href="#BitstreamVeraSans-Roman-66"/>
     <use x="332.51953125" xlink:href="#BitstreamVeraSans-Roman-20"/>
     <use x="364.306640625" xlink:href="#BitstreamVeraSans-Roman-73"/>
     <use x="416.40625" xlink:href="#BitstreamVeraSans-Roman-65"/>
     <use x="477.9296875" xlink:href="#BitstreamVeraSans-Roman-65"/>
     <use x="539.453125" xlink:href="#BitstreamVeraSans-Roman-6b"/>
     <use x="597.36328125" xlink:href="#BitstreamVeraSans-Roman-20"/>
     <use x="629.150390625" xlink:href="#BitstreamVeraSans-Roman-64"/>
     <use x="692.626953125" xlink:href="#BitstreamVeraSans-Roman-65"/>
     <use x="754.150390625" xlink:href="#BitstreamVeraSans-Roman-6c"/>
     <use x="781.93359375" xlink:href="#BitstreamVeraSans-Roman-61"/>
     <use x="843.212890625" xlink:href="#BitstreamVeraSans-Roman-79"/>
     <use x="902.392578125" xlink:href="#BitstreamVeraSans-Roman-73"/>
     <use x="954.4921875" xlink:href="#BitstreamVeraSans-Roman-20"/>
     <use x="986.279296875" xlink:href="#BitstreamVeraSans-Roman-66"/>
     <use x="1021.484375" xlink:href="#BitstreamVeraSans-Roman-6f"/>
     <use x="1082.66601562" xlink:href="#BitstreamVeraSans-Roman-72"/>
     <use x="1123.77929688" xlink:href="#BitstreamVeraSans-Roman-20"/>
     <use x="1155.56640625" xlink:href="#BitstreamVeraSans-Roman-56"/>
     <use x="1223.86523438" xlink:href="#BitstreamVeraSans-Roman-65"/>
     <use x="1285.38867188" xlink:href="#BitstreamVeraSans-Roman-72"/>
     <use x="1326.50195312" xlink:href="#BitstreamVeraSans-Roman-69"/>
     <use x="1354.28515625" xlink:href="#BitstreamVeraSans-Roman-7a"/>
     <use x="1406.77539062" xlink:href="#BitstreamVeraSans-Roman-6f"/>
     <use x="1467.95703125" xlink:href="#BitstreamVeraSans-Roman-6e"/>
     <use x="1531.3359375" xlink:href="#BitstreamVeraSans-Roman-20"/>
     <use x="1563.12304688" xlink:href="#BitstreamVeraSans-Roman-45"/>
     <use x="1626.30664062" xlink:href="#BitstreamVeraSans-Roman-56"/>
     <use x="1694.71484375" xlink:href="#BitstreamVeraSans-Roman-44"/>
     <use x="1771.71679688" xlink:href="#BitstreamVeraSans-Roman-4f"/>
     <use x="1850.42773438" xlink:href="#BitstreamVeraSans-Roman-20"/>
     <use x="1882.21484375" xlink:href="#BitstreamVeraSans-Roman-64"/>
     <use x="1945.69140625" xlink:href="#BitstreamVeraSans-Roman-72"/>
     <use x="1986.8046875" xlink:href="#BitstreamVeraSans-Roman-69"/>
     <use x="2014.58789062" xlink:href="#BitstreamVeraSans-Roman-76"/>
     <use x="2073.76757812" xlink:href="#BitstreamVeraSans-Roman-69"/>
     <use x="2101.55078125" xlink:href="#BitstreamVeraSans-Roman-6e"/>
     <use x="2164.9296875" xlink:href="#BitstreamVeraSans-Roman-67"/>
     <use x="2228.40625" xlink:href="#BitstreamVeraSans-Roman-20"/>
     <use x="2260.19335938" xlink:href="#BitstreamVeraSans-Roman-37"/>
     <use x="2323.81640625" xlink:href="#BitstreamVeraSans-Roman-32"/>
     <use x="2387.43945312" xlink:href="#BitstreamVeraSans-Roman-30"/>
     <use x="2451.0625" xlink:href="#BitstreamVeraSans-Roman-70"/>
     <use x="2514.5390625" xlink:href="#BitstreamVeraSans-Roman-20"/>
     <use x="2546.32617188" xlink:href="#BitstreamVeraSans-Roman-28"/>
     <use x="2585.33984375" xlink:href="#BitstreamVeraSans-Roman-39"/>
     <use x="2648.96289062" xlink:href="#BitstreamVeraSans-Roman-37"/>
     <use x="2712.5859375" xlink:href="#BitstreamVeraSans-Roman-33"/>
     <use x="2776.20898438" xlink:href="#BitstreamVeraSans-Roman-20"/>
     <use x="2807.99609375" xlink:href="#BitstreamVeraSans-Roman-64"/>
     <use x="2871.47265625" xlink:href="#BitstreamVeraSans-Roman-61"/>
     <use x="2932.75195312" xlink:href="#BitstreamVeraSans-Roman-74"/>
     <use x="2971.9609375" xlink:href="#BitstreamVeraSans-Roman-61"/>
     <use x="3033.24023438" xlink:href="#BitstreamVeraSans-Roman-70"/>
     <use x="3096.71679688" xlink:href="#BitstreamVeraSans-Roman-6f"/>
     <use x="3157.8984375" xlink:href="#BitstreamVeraSans-Roman-69"/>
     <use x="3185.68164062" xlink:href="#BitstreamVeraSans-Roman-6e"/>
     <use x="3249.06054688" xlink:href="#BitstreamVeraSans-Roman-74"/>
     <use x="3288.26953125" xlink:href="#BitstreamVeraSans-Roman-73"/>
     <use x="3340.36914062" xlink:href="#BitstreamVeraSans-Roman-29"/>
    </g>
   </g>
  </g>
 </g>
 <defs>
  <clipPath id="p7aa71b6ce6">
   <rect height="345.6" width="446.4" x="72.0" y="43.2"/>
  </clipPath>
 </defs>
</svg>
