<?xml version="1.0" encoding="utf-8" standalone="no"?>
<!DOCTYPE svg PUBLIC "-//W3C//DTD SVG 1.1//EN"
  "http://www.w3.org/Graphics/SVG/1.1/DTD/svg11.dtd">
<!-- Created with matplotlib (http://matplotlib.org/) -->
<svg height="432pt" version="1.1" viewBox="0 0 576 432" width="576pt" xmlns="http://www.w3.org/2000/svg" xmlns:xlink="http://www.w3.org/1999/xlink">
 <defs>
  <style type="text/css">
*{stroke-linecap:butt;stroke-linejoin:round;stroke-miterlimit:100000;}
  </style>
 </defs>
 <g id="figure_1">
  <g id="patch_1">
   <path d="M 0 432 
L 576 432 
L 576 0 
L 0 0 
z
" style="fill:#ffffff;"/>
  </g>
  <g id="axes_1">
   <g id="patch_2">
    <path d="M 72 388.8 
L 518.4 388.8 
L 518.4 43.2 
L 72 43.2 
z
" style="fill:#ffffff;"/>
   </g>
   <g id="line2d_1">
    <path clip-path="url(#p0ccad6be0d)" d="M 73.065073 388.455777 
L 73.468172 388.111554 
L 73.686983 387.767331 
L 73.771836 387.078884 
L 73.984025 386.734661 
L 74.070664 386.046215 
L 74.461487 383.29243 
L 74.636066 380.882869 
L 74.810981 380.538645 
L 75.023058 377.784861 
L 75.811698 371.244622 
L 75.909832 369.523506 
L 75.969984 368.83506 
L 76.10011 368.146614 
L 76.775029 361.606375 
L 76.886815 360.917928 
L 76.991087 359.885259 
L 77.225335 356.787251 
L 77.393554 356.443028 
L 77.644282 354.377689 
L 77.772138 353.689243 
L 77.982764 353.000797 
L 78.164821 352.312351 
L 78.333598 351.279681 
L 78.611965 350.591235 
L 78.694772 349.558566 
L 79.027787 348.87012 
L 79.61179 346.804781 
L 79.762375 346.460558 
L 79.772456 346.116335 
L 80.550904 345.772112 
L 80.63438 345.083665 
L 80.764618 344.739442 
L 82.132759 343.706773 
L 85.1797 343.36255 
L 85.549505 343.018327 
L 87.083744 342.674104 
L 87.288902 342.32988 
L 90.182132 341.985657 
L 90.209549 341.641434 
L 92.743762 340.608765 
L 92.963018 340.264542 
L 93.970729 339.920319 
L 96.24815 339.576096 
L 97.798721 338.543426 
L 99.447722 337.85498 
L 102.754914 337.166534 
L 103.398958 336.822311 
L 103.595113 336.133865 
L 104.073468 335.789641 
L 104.235586 335.445418 
L 104.555654 335.101195 
L 104.579648 334.412749 
L 105.372641 332.691633 
L 105.419736 332.34741 
L 105.669534 332.003187 
L 105.715327 331.658964 
L 105.950766 331.314741 
L 106.15544 330.282072 
L 106.639747 329.593625 
L 106.693427 329.249402 
L 107.106607 328.560956 
L 107.117879 327.87251 
L 107.675507 326.151394 
L 107.692098 325.807171 
L 108.294701 324.086056 
L 108.415378 323.39761 
L 108.419321 323.053386 
L 108.899759 322.709163 
L 109.162242 322.36494 
L 109.342104 320.988048 
L 109.5069 320.299602 
L 109.86588 318.578486 
L 110.381472 318.234263 
L 110.521344 317.201594 
L 110.778768 316.857371 
L 110.846472 316.168924 
L 111.094224 315.824701 
L 111.102408 315.480478 
L 111.896628 315.136255 
L 112.14066 314.792032 
L 112.186416 314.447809 
L 112.362744 314.103586 
L 112.91628 313.415139 
L 112.982496 312.726693 
L 113.169984 312.038247 
L 113.397276 311.694024 
L 113.850744 308.940239 
L 113.947464 308.251793 
L 114.17364 307.563347 
L 114.520344 305.842231 
L 114.576516 305.153785 
L 115.011012 304.809562 
L 115.727856 302.4 
L 116.109156 301.023108 
L 116.740068 299.646215 
L 116.96364 298.957769 
L 117.365772 297.9251 
L 117.548052 297.580876 
L 117.616872 296.89243 
L 117.766788 296.203984 
L 117.872436 295.515538 
L 118.624992 292.41753 
L 119.112684 292.073307 
L 119.354856 290.696414 
L 119.540856 288.975299 
L 120.188136 287.598406 
L 120.19818 287.254183 
L 120.608496 286.565737 
L 120.794496 285.188845 
L 121.310832 284.156175 
L 121.469676 283.467729 
L 122.247528 280.369721 
L 122.317836 280.025498 
L 122.715132 279.681275 
L 122.894064 277.960159 
L 123.402216 274.517928 
L 123.959472 273.829482 
L 124.09116 273.141036 
L 124.769688 272.45259 
L 124.847808 271.41992 
L 124.900632 271.075697 
L 125.206044 270.387251 
L 125.498436 269.354582 
L 125.574696 268.666135 
L 125.741352 267.977689 
L 126.017748 266.600797 
L 126.018492 266.256574 
L 126.406116 265.912351 
L 126.595836 263.502789 
L 126.82536 263.158566 
L 127.116264 261.781673 
L 127.486776 261.43745 
L 127.491984 261.093227 
L 127.626648 260.749004 
L 127.638552 260.404781 
L 128.359488 260.060558 
L 128.550324 259.716335 
L 128.693172 258.683665 
L 129.344544 255.92988 
L 129.433452 255.241434 
L 129.553608 254.552988 
L 129.572208 254.208765 
L 129.801732 253.520319 
L 129.85344 252.831873 
L 130.24032 252.487649 
L 130.286448 252.143426 
L 130.880904 251.110757 
L 131.08104 250.766534 
L 131.225748 250.078088 
L 131.508468 249.389641 
L 131.604444 248.701195 
L 132.031872 248.356972 
L 132.216384 247.324303 
L 132.4221 246.635857 
L 132.627072 246.291633 
L 132.897888 244.570518 
L 133.06194 244.226295 
L 133.095048 243.882072 
L 133.576788 243.193625 
L 134.022444 241.128287 
L 134.569656 238.374502 
L 134.714736 237.341833 
L 135.108684 235.96494 
L 135.291336 234.932271 
L 135.460596 234.243825 
L 135.734016 233.899602 
L 136.13838 232.178486 
L 136.35228 230.113147 
L 136.920696 229.768924 
L 137.20416 229.424701 
L 137.327664 228.736255 
L 137.420292 228.392032 
L 137.702268 228.047809 
L 137.835444 227.359363 
L 138.031488 227.015139 
L 138.048972 226.670916 
L 138.292632 226.326693 
L 138.380796 225.638247 
L 138.550056 225.294024 
L 138.642312 223.228685 
L 139.352832 221.50757 
L 139.605792 220.130677 
L 139.975932 219.442231 
L 139.987092 219.098008 
L 140.135892 218.753785 
L 140.16342 218.409562 
L 140.475528 217.721116 
L 140.658552 216.688446 
L 141.228828 214.967331 
L 141.651792 212.557769 
L 141.886524 212.213546 
L 142.072152 211.5251 
L 142.315068 211.180876 
L 142.881624 210.836653 
L 143.033772 210.148207 
L 143.255112 209.803984 
L 143.404656 208.427092 
L 143.81832 208.082869 
L 143.990556 207.394422 
L 144.146052 206.705976 
L 144.43584 206.361753 
L 144.447744 206.01753 
L 144.75204 205.673307 
L 145.314504 203.607968 
L 145.36212 202.919522 
L 145.728168 202.575299 
L 145.884036 202.231076 
L 146.24004 201.886853 
L 146.316672 201.198406 
L 146.720664 200.854183 
L 147.15888 199.821514 
L 147.506328 199.477291 
L 147.678564 198.444622 
L 148.11678 198.100398 
L 148.117524 197.756175 
L 148.742484 197.067729 
L 148.877148 196.379283 
L 149.015904 196.03506 
L 149.033016 195.690837 
L 149.34624 195.00239 
L 150.352128 194.658167 
L 150.78774 193.281275 
L 151.33086 191.904382 
L 151.765356 191.215936 
L 151.92978 189.839044 
L 152.286156 189.494821 
L 152.378784 189.150598 
L 152.928972 188.806375 
L 153.109392 187.773705 
L 153.595224 187.429482 
L 153.808008 186.396813 
L 154.292352 185.364143 
L 154.361544 185.01992 
L 154.886436 184.675697 
L 154.974228 183.987251 
L 155.468616 183.643028 
L 155.668008 182.954582 
L 156.490872 180.889243 
L 156.775824 180.54502 
L 156.965544 179.512351 
L 157.33308 179.168127 
L 157.514988 178.135458 
L 157.577112 177.791235 
L 158.125812 177.102789 
L 158.173056 176.758566 
L 158.838192 176.414343 
L 159.158112 175.03745 
L 159.512256 174.349004 
L 160.142052 174.004781 
L 160.15842 173.660558 
L 160.5546 173.316335 
L 160.670664 172.972112 
L 161.884128 171.250996 
L 162.282168 170.218327 
L 162.500532 169.874104 
L 162.55038 169.52988 
L 163.45062 168.497211 
L 163.917108 168.152988 
L 164.088228 167.120319 
L 164.712072 166.776096 
L 164.946432 166.431873 
L 164.967636 166.087649 
L 165.258168 165.399203 
L 165.77376 165.05498 
L 165.848532 164.710757 
L 166.060572 164.366534 
L 166.304232 163.333865 
L 167.20038 162.989641 
L 167.387124 162.301195 
L 167.900484 161.956972 
L 168.204408 160.58008 
L 168.771336 160.235857 
L 168.940596 159.891633 
L 169.320036 159.54741 
L 169.327848 159.203187 
L 170.103468 158.170518 
L 170.179728 157.482072 
L 170.511552 156.793625 
L 170.514528 156.449402 
L 170.999244 155.760956 
L 171.111216 155.416733 
L 171.886092 155.07251 
L 172.138308 154.728287 
L 172.475712 153.695618 
L 172.945548 153.351394 
L 173.004696 152.662948 
L 173.270676 152.318725 
L 173.442168 150.59761 
L 173.571252 149.56494 
L 173.863272 149.220717 
L 174.09912 148.188048 
L 174.3186 147.843825 
L 174.360264 147.499602 
L 175.613532 146.811155 
L 176.1972 146.466932 
L 176.520468 146.122709 
L 176.624256 145.778486 
L 177.176676 145.434263 
L 177.211644 145.09004 
L 177.5457 144.401594 
L 178.6338 144.057371 
L 179.056764 143.713147 
L 179.082804 143.368924 
L 179.244624 143.024701 
L 180.137796 142.336255 
L 180.588288 141.303586 
L 180.597216 140.959363 
L 181.463976 140.615139 
L 181.487412 140.270916 
L 182.017512 139.926693 
L 182.120556 139.58247 
L 182.501856 139.238247 
L 184.458204 138.205578 
L 184.540044 137.861355 
L 184.839132 137.517131 
L 185.739744 137.172908 
L 186.054084 136.828685 
L 186.530988 136.484462 
L 187.9896 135.796016 
L 188.685612 135.451793 
L 188.820648 135.10757 
L 190.14906 134.763347 
L 190.654236 134.0749 
L 190.902732 133.386454 
L 191.272128 133.042231 
L 191.282544 132.698008 
L 192.708048 131.665339 
L 192.806256 131.321116 
L 193.325568 130.976892 
L 193.498176 130.288446 
L 194.365308 129.944223 
L 194.627196 129.6 
L 194.743632 128.911554 
L 194.8809 128.223108 
L 196.127844 127.878884 
L 196.361088 127.190438 
L 196.658316 126.846215 
L 197.175024 125.1251 
L 197.611008 124.780876 
L 198.484464 123.059761 
L 198.524268 122.715538 
L 199.648824 120.994422 
L 199.657008 120.650199 
L 199.851192 120.305976 
L 200.539764 119.961753 
L 200.59668 119.61753 
L 201.451536 118.929084 
L 201.458232 118.584861 
L 201.7908 118.240637 
L 201.941088 117.896414 
L 202.41948 117.552191 
L 202.528476 117.207968 
L 203.154552 116.519522 
L 204.574104 116.175299 
L 204.779076 115.142629 
L 208.228632 114.454183 
L 208.355856 114.10996 
L 208.877028 113.765737 
L 209.959176 113.421514 
L 210.927492 112.733068 
L 211.283124 112.388845 
L 211.525668 111.700398 
L 212.634228 111.356175 
L 212.698212 111.011952 
L 213.296388 110.667729 
L 214.890036 110.323506 
L 214.958484 109.979283 
L 215.594976 109.63506 
L 215.987064 109.290837 
L 216.811044 108.946614 
L 219.409836 108.60239 
L 220.132632 108.258167 
L 220.171692 107.913944 
L 220.680216 107.569721 
L 220.733784 106.881275 
L 224.326188 105.504382 
L 224.364876 105.160159 
L 224.714928 104.815936 
L 225.487944 104.471713 
L 225.603264 104.12749 
L 226.5753 103.783267 
L 226.713684 103.439044 
L 227.498976 103.094821 
L 227.648148 102.406375 
L 231.07464 102.062151 
L 231.877044 101.717928 
L 231.989016 101.029482 
L 235.377936 100.685259 
L 237.428028 100.341036 
L 238.05522 99.996813 
L 238.093164 99.65259 
L 238.65786 99.308367 
L 238.826376 98.964143 
L 239.304396 98.61992 
L 240.123168 98.275697 
L 240.460944 97.931474 
L 240.52716 97.587251 
L 241.042752 97.243028 
L 242.348472 96.898805 
L 242.421756 96.554582 
L 243.720036 95.521912 
L 246.827724 95.177689 
L 247.530804 94.833466 
L 248.572032 94.489243 
L 248.605884 94.14502 
L 251.517528 93.800797 
L 251.726964 93.456574 
L 252.475428 93.112351 
L 253.836948 92.768127 
L 254.000628 92.423904 
L 254.396436 92.079681 
L 256.782444 91.735458 
L 256.929756 91.391235 
L 257.6001 91.047012 
L 260.703696 90.702789 
L 262.429776 90.358566 
L 262.542864 90.014343 
L 263.22288 89.67012 
L 263.37354 89.325896 
L 263.764884 88.981673 
L 264.4077 88.63745 
L 264.803136 88.293227 
L 269.78682 87.604781 
L 270.483948 87.260558 
L 273.937596 86.916335 
L 274.210272 86.572112 
L 277.60626 86.227888 
L 278.32794 85.883665 
L 279.582324 85.539442 
L 283.102188 85.195219 
L 289.808604 84.850996 
L 290.075328 84.506773 
L 291.249732 83.818327 
L 295.57014 83.12988 
L 295.675788 82.785657 
L 297.4692 82.441434 
L 298.287972 81.752988 
L 299.732076 81.408765 
L 299.776716 81.064542 
L 299.992476 80.720319 
L 301.713348 80.376096 
L 302.447304 80.031873 
L 303.510108 79.687649 
L 303.556236 79.343426 
L 304.3419 78.999203 
L 305.490636 78.65498 
L 306.162468 78.310757 
L 306.418032 77.966534 
L 306.690336 77.278088 
L 309.661872 76.933865 
L 310.03536 76.245418 
L 312.15576 75.901195 
L 313.231584 75.556972 
L 313.294824 74.868526 
L 314.397432 74.524303 
L 315.084516 74.18008 
L 315.391044 73.835857 
L 318.459672 73.491633 
L 319.83198 73.14741 
L 320.54994 72.803187 
L 320.939796 72.458964 
L 322.636488 72.114741 
L 322.970172 71.770518 
L 323.058336 71.426295 
L 323.649072 71.082072 
L 324.923544 70.737849 
L 324.92652 70.393625 
L 325.405656 70.049402 
L 325.455504 69.705179 
L 325.853916 69.360956 
L 326.687196 69.016733 
L 326.851248 68.67251 
L 328.850748 68.328287 
L 331.218156 67.639841 
L 331.629216 67.295618 
L 332.332296 66.951394 
L 333.68526 66.607171 
L 336.265824 66.262948 
L 344.05476 65.918725 
L 345.325512 65.230279 
L 351.786408 64.19761 
L 364.8849 63.853386 
L 365.244996 63.509163 
L 374.658828 62.820717 
L 375.779292 62.476494 
L 380.222088 62.132271 
L 380.867136 61.788048 
L 382.93062 61.443825 
L 386.479128 61.099602 
L 387.77406 60.755378 
L 388.132296 60.411155 
L 394.413144 60.066932 
L 396.67788 59.722709 
L 398.042376 59.378486 
L 398.59368 59.034263 
L 402.02352 58.69004 
L 402.097548 58.345817 
L 404.7168 57.313147 
L 410.283036 56.624701 
L 413.015748 55.592032 
L 414.125052 54.903586 
L 417.7182 54.215139 
L 421.14246 53.870916 
L 422.012568 53.18247 
L 423.702936 52.838247 
L 424.444704 52.494024 
L 426.580728 52.149801 
L 427.145796 51.805578 
L 434.724552 51.461355 
L 437.555472 51.117131 
L 438.134676 50.772908 
L 440.282232 50.084462 
L 444.67332 49.396016 
L 445.77072 49.051793 
L 446.03856 48.70757 
L 446.71188 48.363347 
L 446.87556 48.019124 
L 449.14476 47.6749 
L 449.74368 47.330677 
L 449.80692 46.986454 
L 450.56208 46.642231 
L 450.80388 46.298008 
L 451.34328 45.953785 
L 452.09844 45.609562 
L 454.16304 45.265339 
L 458.0616 44.921116 
L 458.90976 44.576892 
L 462.35076 44.232669 
L 462.879 43.888446 
L 469.30716 43.544223 
L 470.54592 43.2 
L 470.54592 43.2 
" style="fill:none;stroke:#0000ff;stroke-linecap:square;"/>
   </g>
   <g id="patch_3">
    <path d="M 72 43.2 
L 518.4 43.2 
" style="fill:none;stroke:#000000;stroke-linecap:square;stroke-linejoin:miter;"/>
   </g>
   <g id="patch_4">
    <path d="M 518.4 388.8 
L 518.4 43.2 
" style="fill:none;stroke:#000000;stroke-linecap:square;stroke-linejoin:miter;"/>
   </g>
   <g id="patch_5">
    <path d="M 72 388.8 
L 518.4 388.8 
" style="fill:none;stroke:#000000;stroke-linecap:square;stroke-linejoin:miter;"/>
   </g>
   <g id="patch_6">
    <path d="M 72 388.8 
L 72 43.2 
" style="fill:none;stroke:#000000;stroke-linecap:square;stroke-linejoin:miter;"/>
   </g>
   <g id="matplotlib.axis_1">
    <g id="xtick_1">
     <g id="line2d_2">
      <defs>
       <path d="M 0 0 
L 0 -4 
" id="m2c6a10d62b" style="stroke:#000000;stroke-width:0.5;"/>
      </defs>
      <g>
       <use style="stroke:#000000;stroke-width:0.5;" x="72.0" xlink:href="#m2c6a10d62b" y="388.8"/>
      </g>
     </g>
     <g id="line2d_3">
      <defs>
       <path d="M 0 0 
L 0 4 
" id="mebffe4902c" style="stroke:#000000;stroke-width:0.5;"/>
      </defs>
      <g>
       <use style="stroke:#000000;stroke-width:0.5;" x="72.0" xlink:href="#mebffe4902c" y="43.2"/>
      </g>
     </g>
     <g id="text_1">
      <!-- 0 -->
      <defs>
       <path d="M 31.78125 66.40625 
Q 24.171875 66.40625 20.328125 58.90625 
Q 16.5 51.421875 16.5 36.375 
Q 16.5 21.390625 20.328125 13.890625 
Q 24.171875 6.390625 31.78125 6.390625 
Q 39.453125 6.390625 43.28125 13.890625 
Q 47.125 21.390625 47.125 36.375 
Q 47.125 51.421875 43.28125 58.90625 
Q 39.453125 66.40625 31.78125 66.40625 
M 31.78125 74.21875 
Q 44.046875 74.21875 50.515625 64.515625 
Q 56.984375 54.828125 56.984375 36.375 
Q 56.984375 17.96875 50.515625 8.265625 
Q 44.046875 -1.421875 31.78125 -1.421875 
Q 19.53125 -1.421875 13.0625 8.265625 
Q 6.59375 17.96875 6.59375 36.375 
Q 6.59375 54.828125 13.0625 64.515625 
Q 19.53125 74.21875 31.78125 74.21875 
" id="BitstreamVeraSans-Roman-30"/>
      </defs>
      <g transform="translate(68.1825 401.918125)scale(0.12 -0.12)">
       <use xlink:href="#BitstreamVeraSans-Roman-30"/>
      </g>
     </g>
    </g>
    <g id="xtick_2">
     <g id="line2d_4">
      <g>
       <use style="stroke:#000000;stroke-width:0.5;" x="146.4" xlink:href="#m2c6a10d62b" y="388.8"/>
      </g>
     </g>
     <g id="line2d_5">
      <g>
       <use style="stroke:#000000;stroke-width:0.5;" x="146.4" xlink:href="#mebffe4902c" y="43.2"/>
      </g>
     </g>
     <g id="text_2">
      <!-- 2 -->
      <defs>
       <path d="M 19.1875 8.296875 
L 53.609375 8.296875 
L 53.609375 0 
L 7.328125 0 
L 7.328125 8.296875 
Q 12.9375 14.109375 22.625 23.890625 
Q 32.328125 33.6875 34.8125 36.53125 
Q 39.546875 41.84375 41.421875 45.53125 
Q 43.3125 49.21875 43.3125 52.78125 
Q 43.3125 58.59375 39.234375 62.25 
Q 35.15625 65.921875 28.609375 65.921875 
Q 23.96875 65.921875 18.8125 64.3125 
Q 13.671875 62.703125 7.8125 59.421875 
L 7.8125 69.390625 
Q 13.765625 71.78125 18.9375 73 
Q 24.125 74.21875 28.421875 74.21875 
Q 39.75 74.21875 46.484375 68.546875 
Q 53.21875 62.890625 53.21875 53.421875 
Q 53.21875 48.921875 51.53125 44.890625 
Q 49.859375 40.875 45.40625 35.40625 
Q 44.1875 33.984375 37.640625 27.21875 
Q 31.109375 20.453125 19.1875 8.296875 
" id="BitstreamVeraSans-Roman-32"/>
      </defs>
      <g transform="translate(142.5825 401.918125)scale(0.12 -0.12)">
       <use xlink:href="#BitstreamVeraSans-Roman-32"/>
      </g>
     </g>
    </g>
    <g id="xtick_3">
     <g id="line2d_6">
      <g>
       <use style="stroke:#000000;stroke-width:0.5;" x="220.8" xlink:href="#m2c6a10d62b" y="388.8"/>
      </g>
     </g>
     <g id="line2d_7">
      <g>
       <use style="stroke:#000000;stroke-width:0.5;" x="220.8" xlink:href="#mebffe4902c" y="43.2"/>
      </g>
     </g>
     <g id="text_3">
      <!-- 4 -->
      <defs>
       <path d="M 37.796875 64.3125 
L 12.890625 25.390625 
L 37.796875 25.390625 
z
M 35.203125 72.90625 
L 47.609375 72.90625 
L 47.609375 25.390625 
L 58.015625 25.390625 
L 58.015625 17.1875 
L 47.609375 17.1875 
L 47.609375 0 
L 37.796875 0 
L 37.796875 17.1875 
L 4.890625 17.1875 
L 4.890625 26.703125 
z
" id="BitstreamVeraSans-Roman-34"/>
      </defs>
      <g transform="translate(216.9825 401.918125)scale(0.12 -0.12)">
       <use xlink:href="#BitstreamVeraSans-Roman-34"/>
      </g>
     </g>
    </g>
    <g id="xtick_4">
     <g id="line2d_8">
      <g>
       <use style="stroke:#000000;stroke-width:0.5;" x="295.2" xlink:href="#m2c6a10d62b" y="388.8"/>
      </g>
     </g>
     <g id="line2d_9">
      <g>
       <use style="stroke:#000000;stroke-width:0.5;" x="295.2" xlink:href="#mebffe4902c" y="43.2"/>
      </g>
     </g>
     <g id="text_4">
      <!-- 6 -->
      <defs>
       <path d="M 33.015625 40.375 
Q 26.375 40.375 22.484375 35.828125 
Q 18.609375 31.296875 18.609375 23.390625 
Q 18.609375 15.53125 22.484375 10.953125 
Q 26.375 6.390625 33.015625 6.390625 
Q 39.65625 6.390625 43.53125 10.953125 
Q 47.40625 15.53125 47.40625 23.390625 
Q 47.40625 31.296875 43.53125 35.828125 
Q 39.65625 40.375 33.015625 40.375 
M 52.59375 71.296875 
L 52.59375 62.3125 
Q 48.875 64.0625 45.09375 64.984375 
Q 41.3125 65.921875 37.59375 65.921875 
Q 27.828125 65.921875 22.671875 59.328125 
Q 17.53125 52.734375 16.796875 39.40625 
Q 19.671875 43.65625 24.015625 45.921875 
Q 28.375 48.1875 33.59375 48.1875 
Q 44.578125 48.1875 50.953125 41.515625 
Q 57.328125 34.859375 57.328125 23.390625 
Q 57.328125 12.15625 50.6875 5.359375 
Q 44.046875 -1.421875 33.015625 -1.421875 
Q 20.359375 -1.421875 13.671875 8.265625 
Q 6.984375 17.96875 6.984375 36.375 
Q 6.984375 53.65625 15.1875 63.9375 
Q 23.390625 74.21875 37.203125 74.21875 
Q 40.921875 74.21875 44.703125 73.484375 
Q 48.484375 72.75 52.59375 71.296875 
" id="BitstreamVeraSans-Roman-36"/>
      </defs>
      <g transform="translate(291.3825 401.918125)scale(0.12 -0.12)">
       <use xlink:href="#BitstreamVeraSans-Roman-36"/>
      </g>
     </g>
    </g>
    <g id="xtick_5">
     <g id="line2d_10">
      <g>
       <use style="stroke:#000000;stroke-width:0.5;" x="369.6" xlink:href="#m2c6a10d62b" y="388.8"/>
      </g>
     </g>
     <g id="line2d_11">
      <g>
       <use style="stroke:#000000;stroke-width:0.5;" x="369.6" xlink:href="#mebffe4902c" y="43.2"/>
      </g>
     </g>
     <g id="text_5">
      <!-- 8 -->
      <defs>
       <path d="M 31.78125 34.625 
Q 24.75 34.625 20.71875 30.859375 
Q 16.703125 27.09375 16.703125 20.515625 
Q 16.703125 13.921875 20.71875 10.15625 
Q 24.75 6.390625 31.78125 6.390625 
Q 38.8125 6.390625 42.859375 10.171875 
Q 46.921875 13.96875 46.921875 20.515625 
Q 46.921875 27.09375 42.890625 30.859375 
Q 38.875 34.625 31.78125 34.625 
M 21.921875 38.8125 
Q 15.578125 40.375 12.03125 44.71875 
Q 8.5 49.078125 8.5 55.328125 
Q 8.5 64.0625 14.71875 69.140625 
Q 20.953125 74.21875 31.78125 74.21875 
Q 42.671875 74.21875 48.875 69.140625 
Q 55.078125 64.0625 55.078125 55.328125 
Q 55.078125 49.078125 51.53125 44.71875 
Q 48 40.375 41.703125 38.8125 
Q 48.828125 37.15625 52.796875 32.3125 
Q 56.78125 27.484375 56.78125 20.515625 
Q 56.78125 9.90625 50.3125 4.234375 
Q 43.84375 -1.421875 31.78125 -1.421875 
Q 19.734375 -1.421875 13.25 4.234375 
Q 6.78125 9.90625 6.78125 20.515625 
Q 6.78125 27.484375 10.78125 32.3125 
Q 14.796875 37.15625 21.921875 38.8125 
M 18.3125 54.390625 
Q 18.3125 48.734375 21.84375 45.5625 
Q 25.390625 42.390625 31.78125 42.390625 
Q 38.140625 42.390625 41.71875 45.5625 
Q 45.3125 48.734375 45.3125 54.390625 
Q 45.3125 60.0625 41.71875 63.234375 
Q 38.140625 66.40625 31.78125 66.40625 
Q 25.390625 66.40625 21.84375 63.234375 
Q 18.3125 60.0625 18.3125 54.390625 
" id="BitstreamVeraSans-Roman-38"/>
      </defs>
      <g transform="translate(365.7825 401.918125)scale(0.12 -0.12)">
       <use xlink:href="#BitstreamVeraSans-Roman-38"/>
      </g>
     </g>
    </g>
    <g id="xtick_6">
     <g id="line2d_12">
      <g>
       <use style="stroke:#000000;stroke-width:0.5;" x="444.0" xlink:href="#m2c6a10d62b" y="388.8"/>
      </g>
     </g>
     <g id="line2d_13">
      <g>
       <use style="stroke:#000000;stroke-width:0.5;" x="444.0" xlink:href="#mebffe4902c" y="43.2"/>
      </g>
     </g>
     <g id="text_6">
      <!-- 10 -->
      <defs>
       <path d="M 12.40625 8.296875 
L 28.515625 8.296875 
L 28.515625 63.921875 
L 10.984375 60.40625 
L 10.984375 69.390625 
L 28.421875 72.90625 
L 38.28125 72.90625 
L 38.28125 8.296875 
L 54.390625 8.296875 
L 54.390625 0 
L 12.40625 0 
z
" id="BitstreamVeraSans-Roman-31"/>
      </defs>
      <g transform="translate(436.365 401.918125)scale(0.12 -0.12)">
       <use xlink:href="#BitstreamVeraSans-Roman-31"/>
       <use x="63.623046875" xlink:href="#BitstreamVeraSans-Roman-30"/>
      </g>
     </g>
    </g>
    <g id="xtick_7">
     <g id="line2d_14">
      <g>
       <use style="stroke:#000000;stroke-width:0.5;" x="518.4" xlink:href="#m2c6a10d62b" y="388.8"/>
      </g>
     </g>
     <g id="line2d_15">
      <g>
       <use style="stroke:#000000;stroke-width:0.5;" x="518.4" xlink:href="#mebffe4902c" y="43.2"/>
      </g>
     </g>
     <g id="text_7">
      <!-- 12 -->
      <g transform="translate(510.765 401.918125)scale(0.12 -0.12)">
       <use xlink:href="#BitstreamVeraSans-Roman-31"/>
       <use x="63.623046875" xlink:href="#BitstreamVeraSans-Roman-32"/>
      </g>
     </g>
    </g>
    <g id="text_8">
     <!-- Resume duration (seconds) -->
     <defs>
      <path id="BitstreamVeraSans-Roman-20"/>
      <path d="M 54.890625 33.015625 
L 54.890625 0 
L 45.90625 0 
L 45.90625 32.71875 
Q 45.90625 40.484375 42.875 44.328125 
Q 39.84375 48.1875 33.796875 48.1875 
Q 26.515625 48.1875 22.3125 43.546875 
Q 18.109375 38.921875 18.109375 30.90625 
L 18.109375 0 
L 9.078125 0 
L 9.078125 54.6875 
L 18.109375 54.6875 
L 18.109375 46.1875 
Q 21.34375 51.125 25.703125 53.5625 
Q 30.078125 56 35.796875 56 
Q 45.21875 56 50.046875 50.171875 
Q 54.890625 44.34375 54.890625 33.015625 
" id="BitstreamVeraSans-Roman-6e"/>
      <path d="M 52 44.1875 
Q 55.375 50.25 60.0625 53.125 
Q 64.75 56 71.09375 56 
Q 79.640625 56 84.28125 50.015625 
Q 88.921875 44.046875 88.921875 33.015625 
L 88.921875 0 
L 79.890625 0 
L 79.890625 32.71875 
Q 79.890625 40.578125 77.09375 44.375 
Q 74.3125 48.1875 68.609375 48.1875 
Q 61.625 48.1875 57.5625 43.546875 
Q 53.515625 38.921875 53.515625 30.90625 
L 53.515625 0 
L 44.484375 0 
L 44.484375 32.71875 
Q 44.484375 40.625 41.703125 44.40625 
Q 38.921875 48.1875 33.109375 48.1875 
Q 26.21875 48.1875 22.15625 43.53125 
Q 18.109375 38.875 18.109375 30.90625 
L 18.109375 0 
L 9.078125 0 
L 9.078125 54.6875 
L 18.109375 54.6875 
L 18.109375 46.1875 
Q 21.1875 51.21875 25.484375 53.609375 
Q 29.78125 56 35.6875 56 
Q 41.65625 56 45.828125 52.96875 
Q 50 49.953125 52 44.1875 
" id="BitstreamVeraSans-Roman-6d"/>
      <path d="M 30.609375 48.390625 
Q 23.390625 48.390625 19.1875 42.75 
Q 14.984375 37.109375 14.984375 27.296875 
Q 14.984375 17.484375 19.15625 11.84375 
Q 23.34375 6.203125 30.609375 6.203125 
Q 37.796875 6.203125 41.984375 11.859375 
Q 46.1875 17.53125 46.1875 27.296875 
Q 46.1875 37.015625 41.984375 42.703125 
Q 37.796875 48.390625 30.609375 48.390625 
M 30.609375 56 
Q 42.328125 56 49.015625 48.375 
Q 55.71875 40.765625 55.71875 27.296875 
Q 55.71875 13.875 49.015625 6.21875 
Q 42.328125 -1.421875 30.609375 -1.421875 
Q 18.84375 -1.421875 12.171875 6.21875 
Q 5.515625 13.875 5.515625 27.296875 
Q 5.515625 40.765625 12.171875 48.375 
Q 18.84375 56 30.609375 56 
" id="BitstreamVeraSans-Roman-6f"/>
      <path d="M 18.3125 70.21875 
L 18.3125 54.6875 
L 36.8125 54.6875 
L 36.8125 47.703125 
L 18.3125 47.703125 
L 18.3125 18.015625 
Q 18.3125 11.328125 20.140625 9.421875 
Q 21.96875 7.515625 27.59375 7.515625 
L 36.8125 7.515625 
L 36.8125 0 
L 27.59375 0 
Q 17.1875 0 13.234375 3.875 
Q 9.28125 7.765625 9.28125 18.015625 
L 9.28125 47.703125 
L 2.6875 47.703125 
L 2.6875 54.6875 
L 9.28125 54.6875 
L 9.28125 70.21875 
z
" id="BitstreamVeraSans-Roman-74"/>
      <path d="M 8.015625 75.875 
L 15.828125 75.875 
Q 23.140625 64.359375 26.78125 53.3125 
Q 30.421875 42.28125 30.421875 31.390625 
Q 30.421875 20.453125 26.78125 9.375 
Q 23.140625 -1.703125 15.828125 -13.1875 
L 8.015625 -13.1875 
Q 14.5 -2 17.703125 9.0625 
Q 20.90625 20.125 20.90625 31.390625 
Q 20.90625 42.671875 17.703125 53.65625 
Q 14.5 64.65625 8.015625 75.875 
" id="BitstreamVeraSans-Roman-29"/>
      <path d="M 44.390625 34.1875 
Q 47.5625 33.109375 50.5625 29.59375 
Q 53.5625 26.078125 56.59375 19.921875 
L 66.609375 0 
L 56 0 
L 46.6875 18.703125 
Q 43.0625 26.03125 39.671875 28.421875 
Q 36.28125 30.8125 30.421875 30.8125 
L 19.671875 30.8125 
L 19.671875 0 
L 9.8125 0 
L 9.8125 72.90625 
L 32.078125 72.90625 
Q 44.578125 72.90625 50.734375 67.671875 
Q 56.890625 62.453125 56.890625 51.90625 
Q 56.890625 45.015625 53.6875 40.46875 
Q 50.484375 35.9375 44.390625 34.1875 
M 19.671875 64.796875 
L 19.671875 38.921875 
L 32.078125 38.921875 
Q 39.203125 38.921875 42.84375 42.21875 
Q 46.484375 45.515625 46.484375 51.90625 
Q 46.484375 58.296875 42.84375 61.546875 
Q 39.203125 64.796875 32.078125 64.796875 
z
" id="BitstreamVeraSans-Roman-52"/>
      <path d="M 9.421875 54.6875 
L 18.40625 54.6875 
L 18.40625 0 
L 9.421875 0 
z
M 9.421875 75.984375 
L 18.40625 75.984375 
L 18.40625 64.59375 
L 9.421875 64.59375 
z
" id="BitstreamVeraSans-Roman-69"/>
      <path d="M 31 75.875 
Q 24.46875 64.65625 21.28125 53.65625 
Q 18.109375 42.671875 18.109375 31.390625 
Q 18.109375 20.125 21.3125 9.0625 
Q 24.515625 -2 31 -13.1875 
L 23.1875 -13.1875 
Q 15.875 -1.703125 12.234375 9.375 
Q 8.59375 20.453125 8.59375 31.390625 
Q 8.59375 42.28125 12.203125 53.3125 
Q 15.828125 64.359375 23.1875 75.875 
z
" id="BitstreamVeraSans-Roman-28"/>
      <path d="M 56.203125 29.59375 
L 56.203125 25.203125 
L 14.890625 25.203125 
Q 15.484375 15.921875 20.484375 11.0625 
Q 25.484375 6.203125 34.421875 6.203125 
Q 39.59375 6.203125 44.453125 7.46875 
Q 49.3125 8.734375 54.109375 11.28125 
L 54.109375 2.78125 
Q 49.265625 0.734375 44.1875 -0.34375 
Q 39.109375 -1.421875 33.890625 -1.421875 
Q 20.796875 -1.421875 13.15625 6.1875 
Q 5.515625 13.8125 5.515625 26.8125 
Q 5.515625 40.234375 12.765625 48.109375 
Q 20.015625 56 32.328125 56 
Q 43.359375 56 49.78125 48.890625 
Q 56.203125 41.796875 56.203125 29.59375 
M 47.21875 32.234375 
Q 47.125 39.59375 43.09375 43.984375 
Q 39.0625 48.390625 32.421875 48.390625 
Q 24.90625 48.390625 20.390625 44.140625 
Q 15.875 39.890625 15.1875 32.171875 
z
" id="BitstreamVeraSans-Roman-65"/>
      <path d="M 45.40625 46.390625 
L 45.40625 75.984375 
L 54.390625 75.984375 
L 54.390625 0 
L 45.40625 0 
L 45.40625 8.203125 
Q 42.578125 3.328125 38.25 0.953125 
Q 33.9375 -1.421875 27.875 -1.421875 
Q 17.96875 -1.421875 11.734375 6.484375 
Q 5.515625 14.40625 5.515625 27.296875 
Q 5.515625 40.1875 11.734375 48.09375 
Q 17.96875 56 27.875 56 
Q 33.9375 56 38.25 53.625 
Q 42.578125 51.265625 45.40625 46.390625 
M 14.796875 27.296875 
Q 14.796875 17.390625 18.875 11.75 
Q 22.953125 6.109375 30.078125 6.109375 
Q 37.203125 6.109375 41.296875 11.75 
Q 45.40625 17.390625 45.40625 27.296875 
Q 45.40625 37.203125 41.296875 42.84375 
Q 37.203125 48.484375 30.078125 48.484375 
Q 22.953125 48.484375 18.875 42.84375 
Q 14.796875 37.203125 14.796875 27.296875 
" id="BitstreamVeraSans-Roman-64"/>
      <path d="M 34.28125 27.484375 
Q 23.390625 27.484375 19.1875 25 
Q 14.984375 22.515625 14.984375 16.5 
Q 14.984375 11.71875 18.140625 8.90625 
Q 21.296875 6.109375 26.703125 6.109375 
Q 34.1875 6.109375 38.703125 11.40625 
Q 43.21875 16.703125 43.21875 25.484375 
L 43.21875 27.484375 
z
M 52.203125 31.203125 
L 52.203125 0 
L 43.21875 0 
L 43.21875 8.296875 
Q 40.140625 3.328125 35.546875 0.953125 
Q 30.953125 -1.421875 24.3125 -1.421875 
Q 15.921875 -1.421875 10.953125 3.296875 
Q 6 8.015625 6 15.921875 
Q 6 25.140625 12.171875 29.828125 
Q 18.359375 34.515625 30.609375 34.515625 
L 43.21875 34.515625 
L 43.21875 35.40625 
Q 43.21875 41.609375 39.140625 45 
Q 35.0625 48.390625 27.6875 48.390625 
Q 23 48.390625 18.546875 47.265625 
Q 14.109375 46.140625 10.015625 43.890625 
L 10.015625 52.203125 
Q 14.9375 54.109375 19.578125 55.046875 
Q 24.21875 56 28.609375 56 
Q 40.484375 56 46.34375 49.84375 
Q 52.203125 43.703125 52.203125 31.203125 
" id="BitstreamVeraSans-Roman-61"/>
      <path d="M 8.5 21.578125 
L 8.5 54.6875 
L 17.484375 54.6875 
L 17.484375 21.921875 
Q 17.484375 14.15625 20.5 10.265625 
Q 23.53125 6.390625 29.59375 6.390625 
Q 36.859375 6.390625 41.078125 11.03125 
Q 45.3125 15.671875 45.3125 23.6875 
L 45.3125 54.6875 
L 54.296875 54.6875 
L 54.296875 0 
L 45.3125 0 
L 45.3125 8.40625 
Q 42.046875 3.421875 37.71875 1 
Q 33.40625 -1.421875 27.6875 -1.421875 
Q 18.265625 -1.421875 13.375 4.4375 
Q 8.5 10.296875 8.5 21.578125 
" id="BitstreamVeraSans-Roman-75"/>
      <path d="M 41.109375 46.296875 
Q 39.59375 47.171875 37.8125 47.578125 
Q 36.03125 48 33.890625 48 
Q 26.265625 48 22.1875 43.046875 
Q 18.109375 38.09375 18.109375 28.8125 
L 18.109375 0 
L 9.078125 0 
L 9.078125 54.6875 
L 18.109375 54.6875 
L 18.109375 46.1875 
Q 20.953125 51.171875 25.484375 53.578125 
Q 30.03125 56 36.53125 56 
Q 37.453125 56 38.578125 55.875 
Q 39.703125 55.765625 41.0625 55.515625 
z
" id="BitstreamVeraSans-Roman-72"/>
      <path d="M 44.28125 53.078125 
L 44.28125 44.578125 
Q 40.484375 46.53125 36.375 47.5 
Q 32.28125 48.484375 27.875 48.484375 
Q 21.1875 48.484375 17.84375 46.4375 
Q 14.5 44.390625 14.5 40.28125 
Q 14.5 37.15625 16.890625 35.375 
Q 19.28125 33.59375 26.515625 31.984375 
L 29.59375 31.296875 
Q 39.15625 29.25 43.1875 25.515625 
Q 47.21875 21.78125 47.21875 15.09375 
Q 47.21875 7.46875 41.1875 3.015625 
Q 35.15625 -1.421875 24.609375 -1.421875 
Q 20.21875 -1.421875 15.453125 -0.5625 
Q 10.6875 0.296875 5.421875 2 
L 5.421875 11.28125 
Q 10.40625 8.6875 15.234375 7.390625 
Q 20.0625 6.109375 24.8125 6.109375 
Q 31.15625 6.109375 34.5625 8.28125 
Q 37.984375 10.453125 37.984375 14.40625 
Q 37.984375 18.0625 35.515625 20.015625 
Q 33.0625 21.96875 24.703125 23.78125 
L 21.578125 24.515625 
Q 13.234375 26.265625 9.515625 29.90625 
Q 5.8125 33.546875 5.8125 39.890625 
Q 5.8125 47.609375 11.28125 51.796875 
Q 16.75 56 26.8125 56 
Q 31.78125 56 36.171875 55.265625 
Q 40.578125 54.546875 44.28125 53.078125 
" id="BitstreamVeraSans-Roman-73"/>
      <path d="M 48.78125 52.59375 
L 48.78125 44.1875 
Q 44.96875 46.296875 41.140625 47.34375 
Q 37.3125 48.390625 33.40625 48.390625 
Q 24.65625 48.390625 19.8125 42.84375 
Q 14.984375 37.3125 14.984375 27.296875 
Q 14.984375 17.28125 19.8125 11.734375 
Q 24.65625 6.203125 33.40625 6.203125 
Q 37.3125 6.203125 41.140625 7.25 
Q 44.96875 8.296875 48.78125 10.40625 
L 48.78125 2.09375 
Q 45.015625 0.34375 40.984375 -0.53125 
Q 36.96875 -1.421875 32.421875 -1.421875 
Q 20.0625 -1.421875 12.78125 6.34375 
Q 5.515625 14.109375 5.515625 27.296875 
Q 5.515625 40.671875 12.859375 48.328125 
Q 20.21875 56 33.015625 56 
Q 37.15625 56 41.109375 55.140625 
Q 45.0625 54.296875 48.78125 52.59375 
" id="BitstreamVeraSans-Roman-63"/>
     </defs>
     <g transform="translate(212.61 418.531875)scale(0.12 -0.12)">
      <use xlink:href="#BitstreamVeraSans-Roman-52"/>
      <use x="69.419921875" xlink:href="#BitstreamVeraSans-Roman-65"/>
      <use x="130.943359375" xlink:href="#BitstreamVeraSans-Roman-73"/>
      <use x="183.04296875" xlink:href="#BitstreamVeraSans-Roman-75"/>
      <use x="246.421875" xlink:href="#BitstreamVeraSans-Roman-6d"/>
      <use x="343.833984375" xlink:href="#BitstreamVeraSans-Roman-65"/>
      <use x="405.357421875" xlink:href="#BitstreamVeraSans-Roman-20"/>
      <use x="437.14453125" xlink:href="#BitstreamVeraSans-Roman-64"/>
      <use x="500.62109375" xlink:href="#BitstreamVeraSans-Roman-75"/>
      <use x="564.0" xlink:href="#BitstreamVeraSans-Roman-72"/>
      <use x="605.11328125" xlink:href="#BitstreamVeraSans-Roman-61"/>
      <use x="666.392578125" xlink:href="#BitstreamVeraSans-Roman-74"/>
      <use x="705.6015625" xlink:href="#BitstreamVeraSans-Roman-69"/>
      <use x="733.384765625" xlink:href="#BitstreamVeraSans-Roman-6f"/>
      <use x="794.56640625" xlink:href="#BitstreamVeraSans-Roman-6e"/>
      <use x="857.9453125" xlink:href="#BitstreamVeraSans-Roman-20"/>
      <use x="889.732421875" xlink:href="#BitstreamVeraSans-Roman-28"/>
      <use x="928.74609375" xlink:href="#BitstreamVeraSans-Roman-73"/>
      <use x="980.845703125" xlink:href="#BitstreamVeraSans-Roman-65"/>
      <use x="1042.36914062" xlink:href="#BitstreamVeraSans-Roman-63"/>
      <use x="1097.34960938" xlink:href="#BitstreamVeraSans-Roman-6f"/>
      <use x="1158.53125" xlink:href="#BitstreamVeraSans-Roman-6e"/>
      <use x="1221.91015625" xlink:href="#BitstreamVeraSans-Roman-64"/>
      <use x="1285.38671875" xlink:href="#BitstreamVeraSans-Roman-73"/>
      <use x="1337.48632812" xlink:href="#BitstreamVeraSans-Roman-29"/>
     </g>
    </g>
   </g>
   <g id="matplotlib.axis_2">
    <g id="ytick_1">
     <g id="line2d_16">
      <defs>
       <path d="M 0 0 
L 4 0 
" id="m9990e2ca2e" style="stroke:#000000;stroke-width:0.5;"/>
      </defs>
      <g>
       <use style="stroke:#000000;stroke-width:0.5;" x="72.0" xlink:href="#m9990e2ca2e" y="388.8"/>
      </g>
     </g>
     <g id="line2d_17">
      <defs>
       <path d="M 0 0 
L -4 0 
" id="m1c51f140fc" style="stroke:#000000;stroke-width:0.5;"/>
      </defs>
      <g>
       <use style="stroke:#000000;stroke-width:0.5;" x="518.4" xlink:href="#m1c51f140fc" y="388.8"/>
      </g>
     </g>
     <g id="text_9">
      <!-- 0.0 -->
      <defs>
       <path d="M 10.6875 12.40625 
L 21 12.40625 
L 21 0 
L 10.6875 0 
z
" id="BitstreamVeraSans-Roman-2e"/>
      </defs>
      <g transform="translate(48.91625 392.11125)scale(0.12 -0.12)">
       <use xlink:href="#BitstreamVeraSans-Roman-30"/>
       <use x="63.623046875" xlink:href="#BitstreamVeraSans-Roman-2e"/>
       <use x="95.41015625" xlink:href="#BitstreamVeraSans-Roman-30"/>
      </g>
     </g>
    </g>
    <g id="ytick_2">
     <g id="line2d_18">
      <g>
       <use style="stroke:#000000;stroke-width:0.5;" x="72.0" xlink:href="#m9990e2ca2e" y="319.68"/>
      </g>
     </g>
     <g id="line2d_19">
      <g>
       <use style="stroke:#000000;stroke-width:0.5;" x="518.4" xlink:href="#m1c51f140fc" y="319.68"/>
      </g>
     </g>
     <g id="text_10">
      <!-- 0.2 -->
      <g transform="translate(48.91625 322.99125)scale(0.12 -0.12)">
       <use xlink:href="#BitstreamVeraSans-Roman-30"/>
       <use x="63.623046875" xlink:href="#BitstreamVeraSans-Roman-2e"/>
       <use x="95.41015625" xlink:href="#BitstreamVeraSans-Roman-32"/>
      </g>
     </g>
    </g>
    <g id="ytick_3">
     <g id="line2d_20">
      <g>
       <use style="stroke:#000000;stroke-width:0.5;" x="72.0" xlink:href="#m9990e2ca2e" y="250.56"/>
      </g>
     </g>
     <g id="line2d_21">
      <g>
       <use style="stroke:#000000;stroke-width:0.5;" x="518.4" xlink:href="#m1c51f140fc" y="250.56"/>
      </g>
     </g>
     <g id="text_11">
      <!-- 0.4 -->
      <g transform="translate(48.91625 253.87125)scale(0.12 -0.12)">
       <use xlink:href="#BitstreamVeraSans-Roman-30"/>
       <use x="63.623046875" xlink:href="#BitstreamVeraSans-Roman-2e"/>
       <use x="95.41015625" xlink:href="#BitstreamVeraSans-Roman-34"/>
      </g>
     </g>
    </g>
    <g id="ytick_4">
     <g id="line2d_22">
      <g>
       <use style="stroke:#000000;stroke-width:0.5;" x="72.0" xlink:href="#m9990e2ca2e" y="181.44"/>
      </g>
     </g>
     <g id="line2d_23">
      <g>
       <use style="stroke:#000000;stroke-width:0.5;" x="518.4" xlink:href="#m1c51f140fc" y="181.44"/>
      </g>
     </g>
     <g id="text_12">
      <!-- 0.6 -->
      <g transform="translate(48.91625 184.75125)scale(0.12 -0.12)">
       <use xlink:href="#BitstreamVeraSans-Roman-30"/>
       <use x="63.623046875" xlink:href="#BitstreamVeraSans-Roman-2e"/>
       <use x="95.41015625" xlink:href="#BitstreamVeraSans-Roman-36"/>
      </g>
     </g>
    </g>
    <g id="ytick_5">
     <g id="line2d_24">
      <g>
       <use style="stroke:#000000;stroke-width:0.5;" x="72.0" xlink:href="#m9990e2ca2e" y="112.32"/>
      </g>
     </g>
     <g id="line2d_25">
      <g>
       <use style="stroke:#000000;stroke-width:0.5;" x="518.4" xlink:href="#m1c51f140fc" y="112.32"/>
      </g>
     </g>
     <g id="text_13">
      <!-- 0.8 -->
      <g transform="translate(48.91625 115.63125)scale(0.12 -0.12)">
       <use xlink:href="#BitstreamVeraSans-Roman-30"/>
       <use x="63.623046875" xlink:href="#BitstreamVeraSans-Roman-2e"/>
       <use x="95.41015625" xlink:href="#BitstreamVeraSans-Roman-38"/>
      </g>
     </g>
    </g>
    <g id="ytick_6">
     <g id="line2d_26">
      <g>
       <use style="stroke:#000000;stroke-width:0.5;" x="72.0" xlink:href="#m9990e2ca2e" y="43.2"/>
      </g>
     </g>
     <g id="line2d_27">
      <g>
       <use style="stroke:#000000;stroke-width:0.5;" x="518.4" xlink:href="#m1c51f140fc" y="43.2"/>
      </g>
     </g>
     <g id="text_14">
      <!-- 1.0 -->
      <g transform="translate(48.91625 46.51125)scale(0.12 -0.12)">
       <use xlink:href="#BitstreamVeraSans-Roman-31"/>
       <use x="63.623046875" xlink:href="#BitstreamVeraSans-Roman-2e"/>
       <use x="95.41015625" xlink:href="#BitstreamVeraSans-Roman-30"/>
      </g>
     </g>
    </g>
   </g>
   <g id="text_15">
    <!-- CDF of seek delays for Verizon LTE short 1080p (1004 datapoints) -->
    <defs>
     <path d="M 5.515625 54.6875 
L 48.1875 54.6875 
L 48.1875 46.484375 
L 14.40625 7.171875 
L 48.1875 7.171875 
L 48.1875 0 
L 4.296875 0 
L 4.296875 8.203125 
L 38.09375 47.515625 
L 5.515625 47.515625 
z
" id="BitstreamVeraSans-Roman-7a"/>
     <path d="M 9.8125 72.90625 
L 19.671875 72.90625 
L 19.671875 8.296875 
L 55.171875 8.296875 
L 55.171875 0 
L 9.8125 0 
z
" id="BitstreamVeraSans-Roman-4c"/>
     <path d="M 9.421875 75.984375 
L 18.40625 75.984375 
L 18.40625 0 
L 9.421875 0 
z
" id="BitstreamVeraSans-Roman-6c"/>
     <path d="M 9.078125 75.984375 
L 18.109375 75.984375 
L 18.109375 31.109375 
L 44.921875 54.6875 
L 56.390625 54.6875 
L 27.390625 29.109375 
L 57.625 0 
L 45.90625 0 
L 18.109375 26.703125 
L 18.109375 0 
L 9.078125 0 
z
" id="BitstreamVeraSans-Roman-6b"/>
     <path d="M 9.8125 72.90625 
L 51.703125 72.90625 
L 51.703125 64.59375 
L 19.671875 64.59375 
L 19.671875 43.109375 
L 48.578125 43.109375 
L 48.578125 34.8125 
L 19.671875 34.8125 
L 19.671875 0 
L 9.8125 0 
z
" id="BitstreamVeraSans-Roman-46"/>
     <path d="M 9.8125 72.90625 
L 55.90625 72.90625 
L 55.90625 64.59375 
L 19.671875 64.59375 
L 19.671875 43.015625 
L 54.390625 43.015625 
L 54.390625 34.71875 
L 19.671875 34.71875 
L 19.671875 8.296875 
L 56.78125 8.296875 
L 56.78125 0 
L 9.8125 0 
z
" id="BitstreamVeraSans-Roman-45"/>
     <path d="M 19.671875 64.796875 
L 19.671875 8.109375 
L 31.59375 8.109375 
Q 46.6875 8.109375 53.6875 14.9375 
Q 60.6875 21.78125 60.6875 36.53125 
Q 60.6875 51.171875 53.6875 57.984375 
Q 46.6875 64.796875 31.59375 64.796875 
z
M 9.8125 72.90625 
L 30.078125 72.90625 
Q 51.265625 72.90625 61.171875 64.09375 
Q 71.09375 55.28125 71.09375 36.53125 
Q 71.09375 17.671875 61.125 8.828125 
Q 51.171875 0 30.078125 0 
L 9.8125 0 
z
" id="BitstreamVeraSans-Roman-44"/>
     <path d="M 64.40625 67.28125 
L 64.40625 56.890625 
Q 59.421875 61.53125 53.78125 63.8125 
Q 48.140625 66.109375 41.796875 66.109375 
Q 29.296875 66.109375 22.65625 58.46875 
Q 16.015625 50.828125 16.015625 36.375 
Q 16.015625 21.96875 22.65625 14.328125 
Q 29.296875 6.6875 41.796875 6.6875 
Q 48.140625 6.6875 53.78125 8.984375 
Q 59.421875 11.28125 64.40625 15.921875 
L 64.40625 5.609375 
Q 59.234375 2.09375 53.4375 0.328125 
Q 47.65625 -1.421875 41.21875 -1.421875 
Q 24.65625 -1.421875 15.125 8.703125 
Q 5.609375 18.84375 5.609375 36.375 
Q 5.609375 53.953125 15.125 64.078125 
Q 24.65625 74.21875 41.21875 74.21875 
Q 47.75 74.21875 53.53125 72.484375 
Q 59.328125 70.75 64.40625 67.28125 
" id="BitstreamVeraSans-Roman-43"/>
     <path d="M 54.890625 33.015625 
L 54.890625 0 
L 45.90625 0 
L 45.90625 32.71875 
Q 45.90625 40.484375 42.875 44.328125 
Q 39.84375 48.1875 33.796875 48.1875 
Q 26.515625 48.1875 22.3125 43.546875 
Q 18.109375 38.921875 18.109375 30.90625 
L 18.109375 0 
L 9.078125 0 
L 9.078125 75.984375 
L 18.109375 75.984375 
L 18.109375 46.1875 
Q 21.34375 51.125 25.703125 53.5625 
Q 30.078125 56 35.796875 56 
Q 45.21875 56 50.046875 50.171875 
Q 54.890625 44.34375 54.890625 33.015625 
" id="BitstreamVeraSans-Roman-68"/>
     <path d="M 28.609375 0 
L 0.78125 72.90625 
L 11.078125 72.90625 
L 34.1875 11.53125 
L 57.328125 72.90625 
L 67.578125 72.90625 
L 39.796875 0 
z
" id="BitstreamVeraSans-Roman-56"/>
     <path d="M 32.171875 -5.078125 
Q 28.375 -14.84375 24.75 -17.8125 
Q 21.140625 -20.796875 15.09375 -20.796875 
L 7.90625 -20.796875 
L 7.90625 -13.28125 
L 13.1875 -13.28125 
Q 16.890625 -13.28125 18.9375 -11.515625 
Q 21 -9.765625 23.484375 -3.21875 
L 25.09375 0.875 
L 2.984375 54.6875 
L 12.5 54.6875 
L 29.59375 11.921875 
L 46.6875 54.6875 
L 56.203125 54.6875 
z
" id="BitstreamVeraSans-Roman-79"/>
     <path d="M -0.296875 72.90625 
L 61.375 72.90625 
L 61.375 64.59375 
L 35.5 64.59375 
L 35.5 0 
L 25.59375 0 
L 25.59375 64.59375 
L -0.296875 64.59375 
z
" id="BitstreamVeraSans-Roman-54"/>
     <path d="M 37.109375 75.984375 
L 37.109375 68.5 
L 28.515625 68.5 
Q 23.6875 68.5 21.796875 66.546875 
Q 19.921875 64.59375 19.921875 59.515625 
L 19.921875 54.6875 
L 34.71875 54.6875 
L 34.71875 47.703125 
L 19.921875 47.703125 
L 19.921875 0 
L 10.890625 0 
L 10.890625 47.703125 
L 2.296875 47.703125 
L 2.296875 54.6875 
L 10.890625 54.6875 
L 10.890625 58.5 
Q 10.890625 67.625 15.140625 71.796875 
Q 19.390625 75.984375 28.609375 75.984375 
z
" id="BitstreamVeraSans-Roman-66"/>
     <path d="M 18.109375 8.203125 
L 18.109375 -20.796875 
L 9.078125 -20.796875 
L 9.078125 54.6875 
L 18.109375 54.6875 
L 18.109375 46.390625 
Q 20.953125 51.265625 25.265625 53.625 
Q 29.59375 56 35.59375 56 
Q 45.5625 56 51.78125 48.09375 
Q 58.015625 40.1875 58.015625 27.296875 
Q 58.015625 14.40625 51.78125 6.484375 
Q 45.5625 -1.421875 35.59375 -1.421875 
Q 29.59375 -1.421875 25.265625 0.953125 
Q 20.953125 3.328125 18.109375 8.203125 
M 48.6875 27.296875 
Q 48.6875 37.203125 44.609375 42.84375 
Q 40.53125 48.484375 33.40625 48.484375 
Q 26.265625 48.484375 22.1875 42.84375 
Q 18.109375 37.203125 18.109375 27.296875 
Q 18.109375 17.390625 22.1875 11.75 
Q 26.265625 6.109375 33.40625 6.109375 
Q 40.53125 6.109375 44.609375 11.75 
Q 48.6875 17.390625 48.6875 27.296875 
" id="BitstreamVeraSans-Roman-70"/>
    </defs>
    <g transform="translate(56.889 38.2)scale(0.144 -0.144)">
     <use xlink:href="#BitstreamVeraSans-Roman-43"/>
     <use x="69.82421875" xlink:href="#BitstreamVeraSans-Roman-44"/>
     <use x="146.826171875" xlink:href="#BitstreamVeraSans-Roman-46"/>
     <use x="204.345703125" xlink:href="#BitstreamVeraSans-Roman-20"/>
     <use x="236.1328125" xlink:href="#BitstreamVeraSans-Roman-6f"/>
     <use x="297.314453125" xlink:href="#BitstreamVeraSans-Roman-66"/>
     <use x="332.51953125" xlink:href="#BitstreamVeraSans-Roman-20"/>
     <use x="364.306640625" xlink:href="#BitstreamVeraSans-Roman-73"/>
     <use x="416.40625" xlink:href="#BitstreamVeraSans-Roman-65"/>
     <use x="477.9296875" xlink:href="#BitstreamVeraSans-Roman-65"/>
     <use x="539.453125" xlink:href="#BitstreamVeraSans-Roman-6b"/>
     <use x="597.36328125" xlink:href="#BitstreamVeraSans-Roman-20"/>
     <use x="629.150390625" xlink:href="#BitstreamVeraSans-Roman-64"/>
     <use x="692.626953125" xlink:href="#BitstreamVeraSans-Roman-65"/>
     <use x="754.150390625" xlink:href="#BitstreamVeraSans-Roman-6c"/>
     <use x="781.93359375" xlink:href="#BitstreamVeraSans-Roman-61"/>
     <use x="843.212890625" xlink:href="#BitstreamVeraSans-Roman-79"/>
     <use x="902.392578125" xlink:href="#BitstreamVeraSans-Roman-73"/>
     <use x="954.4921875" xlink:href="#BitstreamVeraSans-Roman-20"/>
     <use x="986.279296875" xlink:href="#BitstreamVeraSans-Roman-66"/>
     <use x="1021.484375" xlink:href="#BitstreamVeraSans-Roman-6f"/>
     <use x="1082.66601562" xlink:href="#BitstreamVeraSans-Roman-72"/>
     <use x="1123.77929688" xlink:href="#BitstreamVeraSans-Roman-20"/>
     <use x="1155.56640625" xlink:href="#BitstreamVeraSans-Roman-56"/>
     <use x="1223.86523438" xlink:href="#BitstreamVeraSans-Roman-65"/>
     <use x="1285.38867188" xlink:href="#BitstreamVeraSans-Roman-72"/>
     <use x="1326.50195312" xlink:href="#BitstreamVeraSans-Roman-69"/>
     <use x="1354.28515625" xlink:href="#BitstreamVeraSans-Roman-7a"/>
     <use x="1406.77539062" xlink:href="#BitstreamVeraSans-Roman-6f"/>
     <use x="1467.95703125" xlink:href="#BitstreamVeraSans-Roman-6e"/>
     <use x="1531.3359375" xlink:href="#BitstreamVeraSans-Roman-20"/>
     <use x="1563.12304688" xlink:href="#BitstreamVeraSans-Roman-4c"/>
     <use x="1618.6328125" xlink:href="#BitstreamVeraSans-Roman-54"/>
     <use x="1679.71679688" xlink:href="#BitstreamVeraSans-Roman-45"/>
     <use x="1742.90039062" xlink:href="#BitstreamVeraSans-Roman-20"/>
     <use x="1774.6875" xlink:href="#BitstreamVeraSans-Roman-73"/>
     <use x="1826.78710938" xlink:href="#BitstreamVeraSans-Roman-68"/>
     <use x="1890.16601562" xlink:href="#BitstreamVeraSans-Roman-6f"/>
     <use x="1951.34765625" xlink:href="#BitstreamVeraSans-Roman-72"/>
     <use x="1992.4609375" xlink:href="#BitstreamVeraSans-Roman-74"/>
     <use x="2031.66992188" xlink:href="#BitstreamVeraSans-Roman-20"/>
     <use x="2063.45703125" xlink:href="#BitstreamVeraSans-Roman-31"/>
     <use x="2127.08007812" xlink:href="#BitstreamVeraSans-Roman-30"/>
     <use x="2190.703125" xlink:href="#BitstreamVeraSans-Roman-38"/>
     <use x="2254.32617188" xlink:href="#BitstreamVeraSans-Roman-30"/>
     <use x="2317.94921875" xlink:href="#BitstreamVeraSans-Roman-70"/>
     <use x="2381.42578125" xlink:href="#BitstreamVeraSans-Roman-20"/>
     <use x="2413.21289062" xlink:href="#BitstreamVeraSans-Roman-28"/>
     <use x="2452.2265625" xlink:href="#BitstreamVeraSans-Roman-31"/>
     <use x="2515.84960938" xlink:href="#BitstreamVeraSans-Roman-30"/>
     <use x="2579.47265625" xlink:href="#BitstreamVeraSans-Roman-30"/>
     <use x="2643.09570312" xlink:href="#BitstreamVeraSans-Roman-34"/>
     <use x="2706.71875" xlink:href="#BitstreamVeraSans-Roman-20"/>
     <use x="2738.50585938" xlink:href="#BitstreamVeraSans-Roman-64"/>
     <use x="2801.98242188" xlink:href="#BitstreamVeraSans-Roman-61"/>
     <use x="2863.26171875" xlink:href="#BitstreamVeraSans-Roman-74"/>
     <use x="2902.47070312" xlink:href="#BitstreamVeraSans-Roman-61"/>
     <use x="2963.75" xlink:href="#BitstreamVeraSans-Roman-70"/>
     <use x="3027.2265625" xlink:href="#BitstreamVeraSans-Roman-6f"/>
     <use x="3088.40820312" xlink:href="#BitstreamVeraSans-Roman-69"/>
     <use x="3116.19140625" xlink:href="#BitstreamVeraSans-Roman-6e"/>
     <use x="3179.5703125" xlink:href="#BitstreamVeraSans-Roman-74"/>
     <use x="3218.77929688" xlink:href="#BitstreamVeraSans-Roman-73"/>
     <use x="3270.87890625" xlink:href="#BitstreamVeraSans-Roman-29"/>
    </g>
   </g>
  </g>
 </g>
 <defs>
  <clipPath id="p0ccad6be0d">
   <rect height="345.6" width="446.4" x="72.0" y="43.2"/>
  </clipPath>
 </defs>
</svg>
