<?xml version="1.0" encoding="utf-8" standalone="no"?>
<!DOCTYPE svg PUBLIC "-//W3C//DTD SVG 1.1//EN"
  "http://www.w3.org/Graphics/SVG/1.1/DTD/svg11.dtd">
<!-- Created with matplotlib (http://matplotlib.org/) -->
<svg height="432pt" version="1.1" viewBox="0 0 576 432" width="576pt" xmlns="http://www.w3.org/2000/svg" xmlns:xlink="http://www.w3.org/1999/xlink">
 <defs>
  <style type="text/css">
*{stroke-linecap:butt;stroke-linejoin:round;stroke-miterlimit:100000;}
  </style>
 </defs>
 <g id="figure_1">
  <g id="patch_1">
   <path d="M 0 432 
L 576 432 
L 576 0 
L 0 0 
z
" style="fill:#ffffff;"/>
  </g>
  <g id="axes_1">
   <g id="patch_2">
    <path d="M 72 388.8 
L 518.4 388.8 
L 518.4 43.2 
L 72 43.2 
z
" style="fill:#ffffff;"/>
   </g>
   <g id="line2d_1">
    <path clip-path="url(#pd594b37aac)" d="M -1 43.200056 
L 207.672668 43.311122 
L 207.672668 43.311165 
L 207.782675 43.524555 
L 207.807208 43.635968 
L 207.917999 46.049867 
L 207.920328 46.161013 
L 208.030796 55.071052 
L 208.033119 55.182221 
L 208.143267 57.436656 
L 208.162944 57.548259 
L 208.273879 57.85282 
L 208.645956 57.972955 
L 208.756658 57.979687 
L 215.044515 58.023615 
L 223.421041 58.139681 
L 223.53175 58.406347 
L 223.548874 58.518149 
L 223.659219 65.342395 
L 223.659995 65.453671 
L 223.770798 119.349789 
L 223.771572 119.481784 
L 223.882057 151.314977 
L 223.884372 151.65341 
L 223.995306 161.674475 
L 224.008382 162.254888 
L 224.118962 165.197039 
L 224.185619 166.172897 
L 224.296459 167.369769 
L 224.945921 170.61901 
L 225.029903 170.888925 
L 225.19583 171.29474 
L 225.303823 171.567745 
L 225.411517 171.77622 
L 226.932168 173.533563 
L 229.070764 174.721215 
L 229.717288 174.956338 
L 229.826649 175.015524 
L 230.123349 175.167523 
L 232.101576 175.65722 
L 233.043731 175.800188 
L 233.806764 176.006096 
L 234.769494 176.374771 
L 234.818405 176.607567 
L 234.985054 177.030184 
L 240.530993 179.455519 
L 240.674855 179.528547 
L 243.457028 180.77517 
L 243.563989 181.000328 
L 243.799193 181.157603 
L 243.899691 181.201496 
L 248.651892 183.334051 
L 248.858654 183.480145 
L 249.674451 184.084736 
L 250.120538 184.500897 
L 250.285286 184.634555 
L 250.501796 184.800209 
L 251.1434 185.497391 
L 251.258577 185.626623 
L 251.430703 185.778385 
L 251.72041 186.129358 
L 251.840266 186.273598 
L 252.052391 186.486171 
L 252.524828 186.906277 
L 254.681117 188.811599 
L 254.911233 188.987764 
L 255.300902 189.203644 
L 255.722348 189.564018 
L 256.056237 189.785808 
L 256.345549 189.996669 
L 256.430623 190.062991 
L 256.536455 190.209624 
L 256.689368 190.397711 
L 256.920408 190.573853 
L 257.021632 190.682971 
L 257.449232 190.999816 
L 257.624455 191.167004 
L 257.814649 191.335505 
L 258.059557 191.505342 
L 260.240906 192.037637 
L 261.564087 192.198469 
L 261.787066 192.375309 
L 261.795193 192.390111 
L 266.270569 192.899583 
L 266.297968 192.929932 
L 270.296412 193.174285 
L 270.398593 193.312967 
L 273.331769 193.499283 
L 273.34362 193.514883 
L 275.803625 193.797635 
L 276.323432 193.845125 
L 292.447834 195.18567 
L 298.156249 195.42316 
L 301.368716 195.577233 
L 305.279744 195.749734 
L 306.01732 195.819125 
L 311.651528 196.187157 
L 312.141438 196.257981 
L 315.497744 196.489786 
L 323.144778 196.997735 
L 323.246033 197.071292 
L 325.082335 197.274884 
L 325.182509 197.312109 
L 326.940155 197.518011 
L 326.962592 197.536828 
L 328.332317 197.66901 
L 329.538198 197.840164 
L 329.625794 197.878385 
L 330.608404 198.012696 
L 330.622472 198.031952 
L 331.987806 198.186627 
L 331.989135 198.20604 
L 333.236096 198.361981 
L 333.72469 198.637636 
L 334.301425 198.776804 
L 334.329057 198.796759 
L 335.026348 198.936967 
L 335.038813 198.977196 
L 336.296177 199.138868 
L 336.395421 199.179478 
L 337.356244 199.383686 
L 337.848347 199.527798 
L 337.957055 199.589859 
L 338.756871 199.777124 
L 339.824449 200.050539 
L 340.305581 200.199219 
L 340.580824 200.327485 
L 341.492864 200.478105 
L 341.519236 200.499709 
L 343.023174 200.738798 
L 344.407587 201.26989 
L 344.497092 201.314747 
L 348.342948 202.634299 
L 348.513213 202.730021 
L 349.882902 203.239696 
L 350.549872 203.56139 
L 351.360279 203.887984 
L 351.497447 203.989484 
L 352.191331 204.426299 
L 352.422976 204.556486 
L 353.482968 204.84571 
L 353.492512 204.872198 
L 353.940888 205.058533 
L 354.671647 205.627457 
L 354.715528 205.765169 
L 355.055111 205.9316 
L 355.123926 205.987365 
L 355.440783 206.127416 
L 355.560394 206.24012 
L 356.098712 206.438787 
L 356.238927 206.524497 
L 356.549105 206.696952 
L 356.68017 206.812697 
L 356.928006 207.016766 
L 356.962676 207.075431 
L 357.645247 207.252392 
L 357.776816 207.311706 
L 357.98135 207.400984 
L 359.483775 208.098092 
L 359.598547 208.190713 
L 360.001283 208.502371 
L 360.192837 208.659916 
L 362.435075 209.997401 
L 362.539719 210.098621 
L 363.498526 210.785915 
L 364.006622 211.316241 
L 364.392225 211.568288 
L 365.901947 212.607191 
L 365.971179 212.721547 
L 366.150015 212.874977 
L 366.211932 212.952106 
L 366.655618 213.14615 
L 366.714989 213.224262 
L 367.086411 213.420796 
L 367.109447 213.46032 
L 367.600497 213.65904 
L 367.689647 213.779162 
L 368.116646 214.062092 
L 368.343548 214.266496 
L 368.814717 214.431433 
L 368.996476 214.639405 
L 369.468854 215.0615 
L 369.495752 215.146925 
L 369.977454 215.36199 
L 370.063798 215.535608 
L 370.325041 215.66675 
L 370.945177 216.199492 
L 371.246649 216.334771 
L 371.499211 216.653783 
L 371.778052 216.838229 
L 372.512193 217.640324 
L 372.755177 217.785038 
L 373.009836 218.02842 
L 373.468936 218.225135 
L 373.812876 218.523633 
L 374.094056 218.674454 
L 374.218071 218.775595 
L 374.97009 219.28858 
L 375.105552 219.392666 
L 375.475571 219.86741 
L 375.807758 220.028023 
L 375.90807 220.189848 
L 376.350772 220.352904 
L 376.619453 220.572259 
L 376.726376 220.73826 
L 377.131736 220.961614 
L 378.137735 221.937712 
L 378.350434 222.173987 
L 378.365941 222.233464 
L 378.569541 222.412894 
L 378.705395 222.593838 
L 378.950803 223.146017 
L 379.086457 223.396069 
L 380.138894 223.840802 
L 380.22068 224.034263 
L 380.274698 224.09914 
L 380.825874 224.294956 
L 380.893854 224.426501 
L 381.290728 224.692037 
L 382.053962 225.233182 
L 383.173772 225.648196 
L 383.724278 225.929403 
L 384.731915 226.358252 
L 385.015325 226.722297 
L 385.018711 226.795854 
L 385.479337 227.167471 
L 385.539395 227.393572 
L 385.732314 227.622083 
L 385.790086 227.853055 
L 386.125287 228.086543 
L 386.171092 228.322601 
L 386.601826 228.48143 
L 386.888305 229.046781 
L 387.131596 229.293714 
L 387.647108 230.137986 
L 387.708529 230.310904 
L 387.933959 230.485228 
L 388.479702 231.197052 
L 388.697625 231.562027 
L 389.173637 232.027159 
L 389.174941 232.121408 
L 390.169409 232.406669 
L 390.353519 232.598972 
L 391.057549 233.385914 
L 391.096645 233.486343 
L 391.421131 233.688625 
L 392.211318 234.30718 
L 392.469712 234.62328 
L 392.538301 234.729691 
L 393.417624 234.94411 
L 393.427847 235.052129 
L 393.572427 235.269814 
L 393.574658 235.37949 
L 394.441003 235.93645 
L 394.823758 236.508264 
L 395.068354 236.741328 
L 395.103051 236.858818 
L 395.311603 237.095745 
L 395.336539 237.215198 
L 395.613464 237.33532 
L 396.37595 237.577602 
L 396.403096 237.822654 
L 396.962868 237.946237 
L 396.967666 238.070538 
L 397.846072 238.575072 
L 397.854931 238.703083 
L 398.403778 239.354858 
L 398.537459 239.621218 
L 398.996434 240.301966 
L 399.146743 240.580434 
L 399.997793 240.862566 
L 400.227115 241.005037 
L 400.234548 241.14846 
L 400.868587 241.292849 
L 401.074933 241.584578 
L 401.366347 241.731945 
L 401.485466 242.029751 
L 401.989394 242.18022 
L 402.160589 242.484364 
L 403.156654 242.792883 
L 403.179674 242.948824 
L 403.348342 243.264149 
L 403.636913 243.746006 
L 404.626426 244.073367 
L 404.762849 244.238942 
L 405.431716 244.405804 
L 405.484037 244.573976 
L 406.12981 244.743476 
L 406.500683 245.086551 
L 407.152638 245.26017 
L 408.365265 245.435205 
L 408.620967 245.969052 
L 409.039931 246.149996 
L 409.09547 246.33248 
L 409.37759 246.516531 
L 409.395909 246.702174 
L 409.705554 246.88944 
L 409.846102 247.268949 
L 410.092759 247.461253 
L 410.13707 247.851114 
L 410.552322 248.248194 
L 410.730732 248.449527 
L 410.738457 248.652768 
L 411.214724 249.485561 
L 411.259738 249.91441 
L 411.747592 250.132095 
L 411.808477 250.574208 
L 412.325649 251.02563 
L 412.335812 251.48676 
L 412.622338 251.958026 
L 412.6712 252.197601 
L 413.156997 252.439883 
L 413.484458 252.932819 
L 413.545228 253.183602 
L 413.808601 253.437353 
L 413.964934 254.217139 
L 414.160807 254.483499 
L 414.242272 255.303029 
L 414.455209 256.15513 
L 414.92477 256.742612 
L 415.175412 257.346645 
L 415.481259 257.968188 
L 415.861747 258.285849 
L 416.988043 258.608287 
L 417.168732 259.268085 
L 418.074606 260.297486 
L 419.848633 260.651903 
L 419.896275 261.012277 
L 421.121441 261.751721 
L 421.264719 262.13123 
L 421.827683 262.517578 
L 421.908744 262.911016 
L 422.166923 263.311808 
L 422.606925 263.720234 
L 422.810219 264.561194 
L 423.573016 264.994376 
L 424.007033 265.887911 
L 424.072541 266.349041 
L 424.477614 266.820307 
L 424.591213 267.7951 
L 424.792758 268.816328 
L 425.436064 269.888638 
L 426.279048 274.130366 
L 426.661204 274.811113 
L 426.757714 276.241092 
L 427.260493 278.582515 
L 427.322235 279.423475 
L 428.140957 280.29877 
L 428.442396 281.211322 
L 428.730545 284.208061 
L 429.190117 286.467174 
L 429.3319 288.992647 
L 429.798007 299.070342 
L 429.955049 306.718073 
L 430.165089 310.023332 
L 430.558628 313.932623 
L 430.643719 318.717209 
L 430.987031 324.885613 
L 431.039466 333.57949 
L 431.671931 348.441771 
L 431.672632 433 
L 431.672632 433 
" style="fill:none;stroke:#0000ff;stroke-linecap:square;"/>
   </g>
   <g id="patch_3">
    <path d="M 72 43.2 
L 518.4 43.2 
" style="fill:none;stroke:#000000;stroke-linecap:square;stroke-linejoin:miter;"/>
   </g>
   <g id="patch_4">
    <path d="M 518.4 388.8 
L 518.4 43.2 
" style="fill:none;stroke:#000000;stroke-linecap:square;stroke-linejoin:miter;"/>
   </g>
   <g id="patch_5">
    <path d="M 72 388.8 
L 518.4 388.8 
" style="fill:none;stroke:#000000;stroke-linecap:square;stroke-linejoin:miter;"/>
   </g>
   <g id="patch_6">
    <path d="M 72 388.8 
L 72 43.2 
" style="fill:none;stroke:#000000;stroke-linecap:square;stroke-linejoin:miter;"/>
   </g>
   <g id="matplotlib.axis_1">
    <g id="xtick_1">
     <g id="line2d_2">
      <defs>
       <path d="M 0 0 
L 0 -4 
" id="mc3190c5327" style="stroke:#000000;stroke-width:0.5;"/>
      </defs>
      <g>
       <use style="stroke:#000000;stroke-width:0.5;" x="72.0" xlink:href="#mc3190c5327" y="388.8"/>
      </g>
     </g>
     <g id="line2d_3">
      <defs>
       <path d="M 0 0 
L 0 4 
" id="m1b0ad46f6a" style="stroke:#000000;stroke-width:0.5;"/>
      </defs>
      <g>
       <use style="stroke:#000000;stroke-width:0.5;" x="72.0" xlink:href="#m1b0ad46f6a" y="43.2"/>
      </g>
     </g>
     <g id="text_1">
      <!-- $\mathdefault{10^{-3}}$ -->
      <defs>
       <path d="M 40.578125 39.3125 
Q 47.65625 37.796875 51.625 33 
Q 55.609375 28.21875 55.609375 21.1875 
Q 55.609375 10.40625 48.1875 4.484375 
Q 40.765625 -1.421875 27.09375 -1.421875 
Q 22.515625 -1.421875 17.65625 -0.515625 
Q 12.796875 0.390625 7.625 2.203125 
L 7.625 11.71875 
Q 11.71875 9.328125 16.59375 8.109375 
Q 21.484375 6.890625 26.8125 6.890625 
Q 36.078125 6.890625 40.9375 10.546875 
Q 45.796875 14.203125 45.796875 21.1875 
Q 45.796875 27.640625 41.28125 31.265625 
Q 36.765625 34.90625 28.71875 34.90625 
L 20.21875 34.90625 
L 20.21875 43.015625 
L 29.109375 43.015625 
Q 36.375 43.015625 40.234375 45.921875 
Q 44.09375 48.828125 44.09375 54.296875 
Q 44.09375 59.90625 40.109375 62.90625 
Q 36.140625 65.921875 28.71875 65.921875 
Q 24.65625 65.921875 20.015625 65.03125 
Q 15.375 64.15625 9.8125 62.3125 
L 9.8125 71.09375 
Q 15.4375 72.65625 20.34375 73.4375 
Q 25.25 74.21875 29.59375 74.21875 
Q 40.828125 74.21875 47.359375 69.109375 
Q 53.90625 64.015625 53.90625 55.328125 
Q 53.90625 49.265625 50.4375 45.09375 
Q 46.96875 40.921875 40.578125 39.3125 
" id="BitstreamVeraSans-Roman-33"/>
       <path d="M 31.78125 66.40625 
Q 24.171875 66.40625 20.328125 58.90625 
Q 16.5 51.421875 16.5 36.375 
Q 16.5 21.390625 20.328125 13.890625 
Q 24.171875 6.390625 31.78125 6.390625 
Q 39.453125 6.390625 43.28125 13.890625 
Q 47.125 21.390625 47.125 36.375 
Q 47.125 51.421875 43.28125 58.90625 
Q 39.453125 66.40625 31.78125 66.40625 
M 31.78125 74.21875 
Q 44.046875 74.21875 50.515625 64.515625 
Q 56.984375 54.828125 56.984375 36.375 
Q 56.984375 17.96875 50.515625 8.265625 
Q 44.046875 -1.421875 31.78125 -1.421875 
Q 19.53125 -1.421875 13.0625 8.265625 
Q 6.59375 17.96875 6.59375 36.375 
Q 6.59375 54.828125 13.0625 64.515625 
Q 19.53125 74.21875 31.78125 74.21875 
" id="BitstreamVeraSans-Roman-30"/>
       <path d="M 12.40625 8.296875 
L 28.515625 8.296875 
L 28.515625 63.921875 
L 10.984375 60.40625 
L 10.984375 69.390625 
L 28.421875 72.90625 
L 38.28125 72.90625 
L 38.28125 8.296875 
L 54.390625 8.296875 
L 54.390625 0 
L 12.40625 0 
z
" id="BitstreamVeraSans-Roman-31"/>
       <path d="M 4.890625 31.390625 
L 31.203125 31.390625 
L 31.203125 23.390625 
L 4.890625 23.390625 
z
" id="BitstreamVeraSans-Roman-2d"/>
      </defs>
      <g transform="translate(59.34 402.544375)scale(0.12 -0.12)">
       <use transform="translate(0.0 0.796875)" xlink:href="#BitstreamVeraSans-Roman-31"/>
       <use transform="translate(63.623046875 0.796875)" xlink:href="#BitstreamVeraSans-Roman-30"/>
       <use transform="translate(132.75859375 48.046875)scale(0.7)" xlink:href="#BitstreamVeraSans-Roman-2d"/>
       <use transform="translate(158.017382812 48.046875)scale(0.7)" xlink:href="#BitstreamVeraSans-Roman-33"/>
      </g>
     </g>
    </g>
    <g id="xtick_2">
     <g id="line2d_4">
      <g>
       <use style="stroke:#000000;stroke-width:0.5;" x="161.28" xlink:href="#mc3190c5327" y="388.8"/>
      </g>
     </g>
     <g id="line2d_5">
      <g>
       <use style="stroke:#000000;stroke-width:0.5;" x="161.28" xlink:href="#m1b0ad46f6a" y="43.2"/>
      </g>
     </g>
     <g id="text_2">
      <!-- $\mathdefault{10^{-2}}$ -->
      <defs>
       <path d="M 19.1875 8.296875 
L 53.609375 8.296875 
L 53.609375 0 
L 7.328125 0 
L 7.328125 8.296875 
Q 12.9375 14.109375 22.625 23.890625 
Q 32.328125 33.6875 34.8125 36.53125 
Q 39.546875 41.84375 41.421875 45.53125 
Q 43.3125 49.21875 43.3125 52.78125 
Q 43.3125 58.59375 39.234375 62.25 
Q 35.15625 65.921875 28.609375 65.921875 
Q 23.96875 65.921875 18.8125 64.3125 
Q 13.671875 62.703125 7.8125 59.421875 
L 7.8125 69.390625 
Q 13.765625 71.78125 18.9375 73 
Q 24.125 74.21875 28.421875 74.21875 
Q 39.75 74.21875 46.484375 68.546875 
Q 53.21875 62.890625 53.21875 53.421875 
Q 53.21875 48.921875 51.53125 44.890625 
Q 49.859375 40.875 45.40625 35.40625 
Q 44.1875 33.984375 37.640625 27.21875 
Q 31.109375 20.453125 19.1875 8.296875 
" id="BitstreamVeraSans-Roman-32"/>
      </defs>
      <g transform="translate(148.62 402.544375)scale(0.12 -0.12)">
       <use transform="translate(0.0 0.796875)" xlink:href="#BitstreamVeraSans-Roman-31"/>
       <use transform="translate(63.623046875 0.796875)" xlink:href="#BitstreamVeraSans-Roman-30"/>
       <use transform="translate(132.75859375 48.046875)scale(0.7)" xlink:href="#BitstreamVeraSans-Roman-2d"/>
       <use transform="translate(158.017382812 48.046875)scale(0.7)" xlink:href="#BitstreamVeraSans-Roman-32"/>
      </g>
     </g>
    </g>
    <g id="xtick_3">
     <g id="line2d_6">
      <g>
       <use style="stroke:#000000;stroke-width:0.5;" x="250.56" xlink:href="#mc3190c5327" y="388.8"/>
      </g>
     </g>
     <g id="line2d_7">
      <g>
       <use style="stroke:#000000;stroke-width:0.5;" x="250.56" xlink:href="#m1b0ad46f6a" y="43.2"/>
      </g>
     </g>
     <g id="text_3">
      <!-- $\mathdefault{10^{-1}}$ -->
      <g transform="translate(237.9 402.424375)scale(0.12 -0.12)">
       <use transform="translate(0.0 0.715625)" xlink:href="#BitstreamVeraSans-Roman-31"/>
       <use transform="translate(63.623046875 0.715625)" xlink:href="#BitstreamVeraSans-Roman-30"/>
       <use transform="translate(132.75859375 47.965625)scale(0.7)" xlink:href="#BitstreamVeraSans-Roman-2d"/>
       <use transform="translate(158.017382812 47.965625)scale(0.7)" xlink:href="#BitstreamVeraSans-Roman-31"/>
      </g>
     </g>
    </g>
    <g id="xtick_4">
     <g id="line2d_8">
      <g>
       <use style="stroke:#000000;stroke-width:0.5;" x="339.84" xlink:href="#mc3190c5327" y="388.8"/>
      </g>
     </g>
     <g id="line2d_9">
      <g>
       <use style="stroke:#000000;stroke-width:0.5;" x="339.84" xlink:href="#m1b0ad46f6a" y="43.2"/>
      </g>
     </g>
     <g id="text_4">
      <!-- $\mathdefault{10^{0}}$ -->
      <g transform="translate(328.68 402.544375)scale(0.12 -0.12)">
       <use transform="translate(0.0 0.796875)" xlink:href="#BitstreamVeraSans-Roman-31"/>
       <use transform="translate(63.623046875 0.796875)" xlink:href="#BitstreamVeraSans-Roman-30"/>
       <use transform="translate(132.75859375 48.046875)scale(0.7)" xlink:href="#BitstreamVeraSans-Roman-30"/>
      </g>
     </g>
    </g>
    <g id="xtick_5">
     <g id="line2d_10">
      <g>
       <use style="stroke:#000000;stroke-width:0.5;" x="429.12" xlink:href="#mc3190c5327" y="388.8"/>
      </g>
     </g>
     <g id="line2d_11">
      <g>
       <use style="stroke:#000000;stroke-width:0.5;" x="429.12" xlink:href="#m1b0ad46f6a" y="43.2"/>
      </g>
     </g>
     <g id="text_5">
      <!-- $\mathdefault{10^{1}}$ -->
      <g transform="translate(417.96 402.424375)scale(0.12 -0.12)">
       <use transform="translate(0.0 0.715625)" xlink:href="#BitstreamVeraSans-Roman-31"/>
       <use transform="translate(63.623046875 0.715625)" xlink:href="#BitstreamVeraSans-Roman-30"/>
       <use transform="translate(132.75859375 47.965625)scale(0.7)" xlink:href="#BitstreamVeraSans-Roman-31"/>
      </g>
     </g>
    </g>
    <g id="xtick_6">
     <g id="line2d_12">
      <g>
       <use style="stroke:#000000;stroke-width:0.5;" x="518.4" xlink:href="#mc3190c5327" y="388.8"/>
      </g>
     </g>
     <g id="line2d_13">
      <g>
       <use style="stroke:#000000;stroke-width:0.5;" x="518.4" xlink:href="#m1b0ad46f6a" y="43.2"/>
      </g>
     </g>
     <g id="text_6">
      <!-- $\mathdefault{10^{2}}$ -->
      <g transform="translate(507.24 402.544375)scale(0.12 -0.12)">
       <use transform="translate(0.0 0.796875)" xlink:href="#BitstreamVeraSans-Roman-31"/>
       <use transform="translate(63.623046875 0.796875)" xlink:href="#BitstreamVeraSans-Roman-30"/>
       <use transform="translate(132.75859375 48.046875)scale(0.7)" xlink:href="#BitstreamVeraSans-Roman-32"/>
      </g>
     </g>
    </g>
    <g id="xtick_7">
     <g id="line2d_14">
      <defs>
       <path d="M 0 0 
L 0 -2 
" id="m1c9730adad" style="stroke:#000000;stroke-width:0.5;"/>
      </defs>
      <g>
       <use style="stroke:#000000;stroke-width:0.5;" x="98.8759580129" xlink:href="#m1c9730adad" y="388.8"/>
      </g>
     </g>
     <g id="line2d_15">
      <defs>
       <path d="M 0 0 
L 0 2 
" id="mf0b3b88977" style="stroke:#000000;stroke-width:0.5;"/>
      </defs>
      <g>
       <use style="stroke:#000000;stroke-width:0.5;" x="98.8759580129" xlink:href="#mf0b3b88977" y="43.2"/>
      </g>
     </g>
    </g>
    <g id="xtick_8">
     <g id="line2d_16">
      <g>
       <use style="stroke:#000000;stroke-width:0.5;" x="114.597385621" xlink:href="#m1c9730adad" y="388.8"/>
      </g>
     </g>
     <g id="line2d_17">
      <g>
       <use style="stroke:#000000;stroke-width:0.5;" x="114.597385621" xlink:href="#mf0b3b88977" y="43.2"/>
      </g>
     </g>
    </g>
    <g id="xtick_9">
     <g id="line2d_18">
      <g>
       <use style="stroke:#000000;stroke-width:0.5;" x="125.751916026" xlink:href="#m1c9730adad" y="388.8"/>
      </g>
     </g>
     <g id="line2d_19">
      <g>
       <use style="stroke:#000000;stroke-width:0.5;" x="125.751916026" xlink:href="#mf0b3b88977" y="43.2"/>
      </g>
     </g>
    </g>
    <g id="xtick_10">
     <g id="line2d_20">
      <g>
       <use style="stroke:#000000;stroke-width:0.5;" x="134.404041987" xlink:href="#m1c9730adad" y="388.8"/>
      </g>
     </g>
     <g id="line2d_21">
      <g>
       <use style="stroke:#000000;stroke-width:0.5;" x="134.404041987" xlink:href="#mf0b3b88977" y="43.2"/>
      </g>
     </g>
    </g>
    <g id="xtick_11">
     <g id="line2d_22">
      <g>
       <use style="stroke:#000000;stroke-width:0.5;" x="141.473343634" xlink:href="#m1c9730adad" y="388.8"/>
      </g>
     </g>
     <g id="line2d_23">
      <g>
       <use style="stroke:#000000;stroke-width:0.5;" x="141.473343634" xlink:href="#mf0b3b88977" y="43.2"/>
      </g>
     </g>
    </g>
    <g id="xtick_12">
     <g id="line2d_24">
      <g>
       <use style="stroke:#000000;stroke-width:0.5;" x="147.450353012" xlink:href="#m1c9730adad" y="388.8"/>
      </g>
     </g>
     <g id="line2d_25">
      <g>
       <use style="stroke:#000000;stroke-width:0.5;" x="147.450353012" xlink:href="#mf0b3b88977" y="43.2"/>
      </g>
     </g>
    </g>
    <g id="xtick_13">
     <g id="line2d_26">
      <g>
       <use style="stroke:#000000;stroke-width:0.5;" x="152.627874039" xlink:href="#m1c9730adad" y="388.8"/>
      </g>
     </g>
     <g id="line2d_27">
      <g>
       <use style="stroke:#000000;stroke-width:0.5;" x="152.627874039" xlink:href="#mf0b3b88977" y="43.2"/>
      </g>
     </g>
    </g>
    <g id="xtick_14">
     <g id="line2d_28">
      <g>
       <use style="stroke:#000000;stroke-width:0.5;" x="157.194771243" xlink:href="#m1c9730adad" y="388.8"/>
      </g>
     </g>
     <g id="line2d_29">
      <g>
       <use style="stroke:#000000;stroke-width:0.5;" x="157.194771243" xlink:href="#mf0b3b88977" y="43.2"/>
      </g>
     </g>
    </g>
    <g id="xtick_15">
     <g id="line2d_30">
      <g>
       <use style="stroke:#000000;stroke-width:0.5;" x="188.155958013" xlink:href="#m1c9730adad" y="388.8"/>
      </g>
     </g>
     <g id="line2d_31">
      <g>
       <use style="stroke:#000000;stroke-width:0.5;" x="188.155958013" xlink:href="#mf0b3b88977" y="43.2"/>
      </g>
     </g>
    </g>
    <g id="xtick_16">
     <g id="line2d_32">
      <g>
       <use style="stroke:#000000;stroke-width:0.5;" x="203.877385621" xlink:href="#m1c9730adad" y="388.8"/>
      </g>
     </g>
     <g id="line2d_33">
      <g>
       <use style="stroke:#000000;stroke-width:0.5;" x="203.877385621" xlink:href="#mf0b3b88977" y="43.2"/>
      </g>
     </g>
    </g>
    <g id="xtick_17">
     <g id="line2d_34">
      <g>
       <use style="stroke:#000000;stroke-width:0.5;" x="215.031916026" xlink:href="#m1c9730adad" y="388.8"/>
      </g>
     </g>
     <g id="line2d_35">
      <g>
       <use style="stroke:#000000;stroke-width:0.5;" x="215.031916026" xlink:href="#mf0b3b88977" y="43.2"/>
      </g>
     </g>
    </g>
    <g id="xtick_18">
     <g id="line2d_36">
      <g>
       <use style="stroke:#000000;stroke-width:0.5;" x="223.684041987" xlink:href="#m1c9730adad" y="388.8"/>
      </g>
     </g>
     <g id="line2d_37">
      <g>
       <use style="stroke:#000000;stroke-width:0.5;" x="223.684041987" xlink:href="#mf0b3b88977" y="43.2"/>
      </g>
     </g>
    </g>
    <g id="xtick_19">
     <g id="line2d_38">
      <g>
       <use style="stroke:#000000;stroke-width:0.5;" x="230.753343634" xlink:href="#m1c9730adad" y="388.8"/>
      </g>
     </g>
     <g id="line2d_39">
      <g>
       <use style="stroke:#000000;stroke-width:0.5;" x="230.753343634" xlink:href="#mf0b3b88977" y="43.2"/>
      </g>
     </g>
    </g>
    <g id="xtick_20">
     <g id="line2d_40">
      <g>
       <use style="stroke:#000000;stroke-width:0.5;" x="236.730353012" xlink:href="#m1c9730adad" y="388.8"/>
      </g>
     </g>
     <g id="line2d_41">
      <g>
       <use style="stroke:#000000;stroke-width:0.5;" x="236.730353012" xlink:href="#mf0b3b88977" y="43.2"/>
      </g>
     </g>
    </g>
    <g id="xtick_21">
     <g id="line2d_42">
      <g>
       <use style="stroke:#000000;stroke-width:0.5;" x="241.907874039" xlink:href="#m1c9730adad" y="388.8"/>
      </g>
     </g>
     <g id="line2d_43">
      <g>
       <use style="stroke:#000000;stroke-width:0.5;" x="241.907874039" xlink:href="#mf0b3b88977" y="43.2"/>
      </g>
     </g>
    </g>
    <g id="xtick_22">
     <g id="line2d_44">
      <g>
       <use style="stroke:#000000;stroke-width:0.5;" x="246.474771243" xlink:href="#m1c9730adad" y="388.8"/>
      </g>
     </g>
     <g id="line2d_45">
      <g>
       <use style="stroke:#000000;stroke-width:0.5;" x="246.474771243" xlink:href="#mf0b3b88977" y="43.2"/>
      </g>
     </g>
    </g>
    <g id="xtick_23">
     <g id="line2d_46">
      <g>
       <use style="stroke:#000000;stroke-width:0.5;" x="277.435958013" xlink:href="#m1c9730adad" y="388.8"/>
      </g>
     </g>
     <g id="line2d_47">
      <g>
       <use style="stroke:#000000;stroke-width:0.5;" x="277.435958013" xlink:href="#mf0b3b88977" y="43.2"/>
      </g>
     </g>
    </g>
    <g id="xtick_24">
     <g id="line2d_48">
      <g>
       <use style="stroke:#000000;stroke-width:0.5;" x="293.157385621" xlink:href="#m1c9730adad" y="388.8"/>
      </g>
     </g>
     <g id="line2d_49">
      <g>
       <use style="stroke:#000000;stroke-width:0.5;" x="293.157385621" xlink:href="#mf0b3b88977" y="43.2"/>
      </g>
     </g>
    </g>
    <g id="xtick_25">
     <g id="line2d_50">
      <g>
       <use style="stroke:#000000;stroke-width:0.5;" x="304.311916026" xlink:href="#m1c9730adad" y="388.8"/>
      </g>
     </g>
     <g id="line2d_51">
      <g>
       <use style="stroke:#000000;stroke-width:0.5;" x="304.311916026" xlink:href="#mf0b3b88977" y="43.2"/>
      </g>
     </g>
    </g>
    <g id="xtick_26">
     <g id="line2d_52">
      <g>
       <use style="stroke:#000000;stroke-width:0.5;" x="312.964041987" xlink:href="#m1c9730adad" y="388.8"/>
      </g>
     </g>
     <g id="line2d_53">
      <g>
       <use style="stroke:#000000;stroke-width:0.5;" x="312.964041987" xlink:href="#mf0b3b88977" y="43.2"/>
      </g>
     </g>
    </g>
    <g id="xtick_27">
     <g id="line2d_54">
      <g>
       <use style="stroke:#000000;stroke-width:0.5;" x="320.033343634" xlink:href="#m1c9730adad" y="388.8"/>
      </g>
     </g>
     <g id="line2d_55">
      <g>
       <use style="stroke:#000000;stroke-width:0.5;" x="320.033343634" xlink:href="#mf0b3b88977" y="43.2"/>
      </g>
     </g>
    </g>
    <g id="xtick_28">
     <g id="line2d_56">
      <g>
       <use style="stroke:#000000;stroke-width:0.5;" x="326.010353012" xlink:href="#m1c9730adad" y="388.8"/>
      </g>
     </g>
     <g id="line2d_57">
      <g>
       <use style="stroke:#000000;stroke-width:0.5;" x="326.010353012" xlink:href="#mf0b3b88977" y="43.2"/>
      </g>
     </g>
    </g>
    <g id="xtick_29">
     <g id="line2d_58">
      <g>
       <use style="stroke:#000000;stroke-width:0.5;" x="331.187874039" xlink:href="#m1c9730adad" y="388.8"/>
      </g>
     </g>
     <g id="line2d_59">
      <g>
       <use style="stroke:#000000;stroke-width:0.5;" x="331.187874039" xlink:href="#mf0b3b88977" y="43.2"/>
      </g>
     </g>
    </g>
    <g id="xtick_30">
     <g id="line2d_60">
      <g>
       <use style="stroke:#000000;stroke-width:0.5;" x="335.754771243" xlink:href="#m1c9730adad" y="388.8"/>
      </g>
     </g>
     <g id="line2d_61">
      <g>
       <use style="stroke:#000000;stroke-width:0.5;" x="335.754771243" xlink:href="#mf0b3b88977" y="43.2"/>
      </g>
     </g>
    </g>
    <g id="xtick_31">
     <g id="line2d_62">
      <g>
       <use style="stroke:#000000;stroke-width:0.5;" x="366.715958013" xlink:href="#m1c9730adad" y="388.8"/>
      </g>
     </g>
     <g id="line2d_63">
      <g>
       <use style="stroke:#000000;stroke-width:0.5;" x="366.715958013" xlink:href="#mf0b3b88977" y="43.2"/>
      </g>
     </g>
    </g>
    <g id="xtick_32">
     <g id="line2d_64">
      <g>
       <use style="stroke:#000000;stroke-width:0.5;" x="382.437385621" xlink:href="#m1c9730adad" y="388.8"/>
      </g>
     </g>
     <g id="line2d_65">
      <g>
       <use style="stroke:#000000;stroke-width:0.5;" x="382.437385621" xlink:href="#mf0b3b88977" y="43.2"/>
      </g>
     </g>
    </g>
    <g id="xtick_33">
     <g id="line2d_66">
      <g>
       <use style="stroke:#000000;stroke-width:0.5;" x="393.591916026" xlink:href="#m1c9730adad" y="388.8"/>
      </g>
     </g>
     <g id="line2d_67">
      <g>
       <use style="stroke:#000000;stroke-width:0.5;" x="393.591916026" xlink:href="#mf0b3b88977" y="43.2"/>
      </g>
     </g>
    </g>
    <g id="xtick_34">
     <g id="line2d_68">
      <g>
       <use style="stroke:#000000;stroke-width:0.5;" x="402.244041987" xlink:href="#m1c9730adad" y="388.8"/>
      </g>
     </g>
     <g id="line2d_69">
      <g>
       <use style="stroke:#000000;stroke-width:0.5;" x="402.244041987" xlink:href="#mf0b3b88977" y="43.2"/>
      </g>
     </g>
    </g>
    <g id="xtick_35">
     <g id="line2d_70">
      <g>
       <use style="stroke:#000000;stroke-width:0.5;" x="409.313343634" xlink:href="#m1c9730adad" y="388.8"/>
      </g>
     </g>
     <g id="line2d_71">
      <g>
       <use style="stroke:#000000;stroke-width:0.5;" x="409.313343634" xlink:href="#mf0b3b88977" y="43.2"/>
      </g>
     </g>
    </g>
    <g id="xtick_36">
     <g id="line2d_72">
      <g>
       <use style="stroke:#000000;stroke-width:0.5;" x="415.290353012" xlink:href="#m1c9730adad" y="388.8"/>
      </g>
     </g>
     <g id="line2d_73">
      <g>
       <use style="stroke:#000000;stroke-width:0.5;" x="415.290353012" xlink:href="#mf0b3b88977" y="43.2"/>
      </g>
     </g>
    </g>
    <g id="xtick_37">
     <g id="line2d_74">
      <g>
       <use style="stroke:#000000;stroke-width:0.5;" x="420.467874039" xlink:href="#m1c9730adad" y="388.8"/>
      </g>
     </g>
     <g id="line2d_75">
      <g>
       <use style="stroke:#000000;stroke-width:0.5;" x="420.467874039" xlink:href="#mf0b3b88977" y="43.2"/>
      </g>
     </g>
    </g>
    <g id="xtick_38">
     <g id="line2d_76">
      <g>
       <use style="stroke:#000000;stroke-width:0.5;" x="425.034771243" xlink:href="#m1c9730adad" y="388.8"/>
      </g>
     </g>
     <g id="line2d_77">
      <g>
       <use style="stroke:#000000;stroke-width:0.5;" x="425.034771243" xlink:href="#mf0b3b88977" y="43.2"/>
      </g>
     </g>
    </g>
    <g id="xtick_39">
     <g id="line2d_78">
      <g>
       <use style="stroke:#000000;stroke-width:0.5;" x="455.995958013" xlink:href="#m1c9730adad" y="388.8"/>
      </g>
     </g>
     <g id="line2d_79">
      <g>
       <use style="stroke:#000000;stroke-width:0.5;" x="455.995958013" xlink:href="#mf0b3b88977" y="43.2"/>
      </g>
     </g>
    </g>
    <g id="xtick_40">
     <g id="line2d_80">
      <g>
       <use style="stroke:#000000;stroke-width:0.5;" x="471.717385621" xlink:href="#m1c9730adad" y="388.8"/>
      </g>
     </g>
     <g id="line2d_81">
      <g>
       <use style="stroke:#000000;stroke-width:0.5;" x="471.717385621" xlink:href="#mf0b3b88977" y="43.2"/>
      </g>
     </g>
    </g>
    <g id="xtick_41">
     <g id="line2d_82">
      <g>
       <use style="stroke:#000000;stroke-width:0.5;" x="482.871916026" xlink:href="#m1c9730adad" y="388.8"/>
      </g>
     </g>
     <g id="line2d_83">
      <g>
       <use style="stroke:#000000;stroke-width:0.5;" x="482.871916026" xlink:href="#mf0b3b88977" y="43.2"/>
      </g>
     </g>
    </g>
    <g id="xtick_42">
     <g id="line2d_84">
      <g>
       <use style="stroke:#000000;stroke-width:0.5;" x="491.524041987" xlink:href="#m1c9730adad" y="388.8"/>
      </g>
     </g>
     <g id="line2d_85">
      <g>
       <use style="stroke:#000000;stroke-width:0.5;" x="491.524041987" xlink:href="#mf0b3b88977" y="43.2"/>
      </g>
     </g>
    </g>
    <g id="xtick_43">
     <g id="line2d_86">
      <g>
       <use style="stroke:#000000;stroke-width:0.5;" x="498.593343634" xlink:href="#m1c9730adad" y="388.8"/>
      </g>
     </g>
     <g id="line2d_87">
      <g>
       <use style="stroke:#000000;stroke-width:0.5;" x="498.593343634" xlink:href="#mf0b3b88977" y="43.2"/>
      </g>
     </g>
    </g>
    <g id="xtick_44">
     <g id="line2d_88">
      <g>
       <use style="stroke:#000000;stroke-width:0.5;" x="504.570353012" xlink:href="#m1c9730adad" y="388.8"/>
      </g>
     </g>
     <g id="line2d_89">
      <g>
       <use style="stroke:#000000;stroke-width:0.5;" x="504.570353012" xlink:href="#mf0b3b88977" y="43.2"/>
      </g>
     </g>
    </g>
    <g id="xtick_45">
     <g id="line2d_90">
      <g>
       <use style="stroke:#000000;stroke-width:0.5;" x="509.747874039" xlink:href="#m1c9730adad" y="388.8"/>
      </g>
     </g>
     <g id="line2d_91">
      <g>
       <use style="stroke:#000000;stroke-width:0.5;" x="509.747874039" xlink:href="#mf0b3b88977" y="43.2"/>
      </g>
     </g>
    </g>
    <g id="xtick_46">
     <g id="line2d_92">
      <g>
       <use style="stroke:#000000;stroke-width:0.5;" x="514.314771243" xlink:href="#m1c9730adad" y="388.8"/>
      </g>
     </g>
     <g id="line2d_93">
      <g>
       <use style="stroke:#000000;stroke-width:0.5;" x="514.314771243" xlink:href="#mf0b3b88977" y="43.2"/>
      </g>
     </g>
    </g>
    <g id="text_7">
     <!-- Inter-frame delay (seconds) -->
     <defs>
      <path id="BitstreamVeraSans-Roman-20"/>
      <path d="M 30.609375 48.390625 
Q 23.390625 48.390625 19.1875 42.75 
Q 14.984375 37.109375 14.984375 27.296875 
Q 14.984375 17.484375 19.15625 11.84375 
Q 23.34375 6.203125 30.609375 6.203125 
Q 37.796875 6.203125 41.984375 11.859375 
Q 46.1875 17.53125 46.1875 27.296875 
Q 46.1875 37.015625 41.984375 42.703125 
Q 37.796875 48.390625 30.609375 48.390625 
M 30.609375 56 
Q 42.328125 56 49.015625 48.375 
Q 55.71875 40.765625 55.71875 27.296875 
Q 55.71875 13.875 49.015625 6.21875 
Q 42.328125 -1.421875 30.609375 -1.421875 
Q 18.84375 -1.421875 12.171875 6.21875 
Q 5.515625 13.875 5.515625 27.296875 
Q 5.515625 40.765625 12.171875 48.375 
Q 18.84375 56 30.609375 56 
" id="BitstreamVeraSans-Roman-6f"/>
      <path d="M 54.890625 33.015625 
L 54.890625 0 
L 45.90625 0 
L 45.90625 32.71875 
Q 45.90625 40.484375 42.875 44.328125 
Q 39.84375 48.1875 33.796875 48.1875 
Q 26.515625 48.1875 22.3125 43.546875 
Q 18.109375 38.921875 18.109375 30.90625 
L 18.109375 0 
L 9.078125 0 
L 9.078125 54.6875 
L 18.109375 54.6875 
L 18.109375 46.1875 
Q 21.34375 51.125 25.703125 53.5625 
Q 30.078125 56 35.796875 56 
Q 45.21875 56 50.046875 50.171875 
Q 54.890625 44.34375 54.890625 33.015625 
" id="BitstreamVeraSans-Roman-6e"/>
      <path d="M 34.28125 27.484375 
Q 23.390625 27.484375 19.1875 25 
Q 14.984375 22.515625 14.984375 16.5 
Q 14.984375 11.71875 18.140625 8.90625 
Q 21.296875 6.109375 26.703125 6.109375 
Q 34.1875 6.109375 38.703125 11.40625 
Q 43.21875 16.703125 43.21875 25.484375 
L 43.21875 27.484375 
z
M 52.203125 31.203125 
L 52.203125 0 
L 43.21875 0 
L 43.21875 8.296875 
Q 40.140625 3.328125 35.546875 0.953125 
Q 30.953125 -1.421875 24.3125 -1.421875 
Q 15.921875 -1.421875 10.953125 3.296875 
Q 6 8.015625 6 15.921875 
Q 6 25.140625 12.171875 29.828125 
Q 18.359375 34.515625 30.609375 34.515625 
L 43.21875 34.515625 
L 43.21875 35.40625 
Q 43.21875 41.609375 39.140625 45 
Q 35.0625 48.390625 27.6875 48.390625 
Q 23 48.390625 18.546875 47.265625 
Q 14.109375 46.140625 10.015625 43.890625 
L 10.015625 52.203125 
Q 14.9375 54.109375 19.578125 55.046875 
Q 24.21875 56 28.609375 56 
Q 40.484375 56 46.34375 49.84375 
Q 52.203125 43.703125 52.203125 31.203125 
" id="BitstreamVeraSans-Roman-61"/>
      <path d="M 32.171875 -5.078125 
Q 28.375 -14.84375 24.75 -17.8125 
Q 21.140625 -20.796875 15.09375 -20.796875 
L 7.90625 -20.796875 
L 7.90625 -13.28125 
L 13.1875 -13.28125 
Q 16.890625 -13.28125 18.9375 -11.515625 
Q 21 -9.765625 23.484375 -3.21875 
L 25.09375 0.875 
L 2.984375 54.6875 
L 12.5 54.6875 
L 29.59375 11.921875 
L 46.6875 54.6875 
L 56.203125 54.6875 
z
" id="BitstreamVeraSans-Roman-79"/>
      <path d="M 9.421875 75.984375 
L 18.40625 75.984375 
L 18.40625 0 
L 9.421875 0 
z
" id="BitstreamVeraSans-Roman-6c"/>
      <path d="M 8.015625 75.875 
L 15.828125 75.875 
Q 23.140625 64.359375 26.78125 53.3125 
Q 30.421875 42.28125 30.421875 31.390625 
Q 30.421875 20.453125 26.78125 9.375 
Q 23.140625 -1.703125 15.828125 -13.1875 
L 8.015625 -13.1875 
Q 14.5 -2 17.703125 9.0625 
Q 20.90625 20.125 20.90625 31.390625 
Q 20.90625 42.671875 17.703125 53.65625 
Q 14.5 64.65625 8.015625 75.875 
" id="BitstreamVeraSans-Roman-29"/>
      <path d="M 31 75.875 
Q 24.46875 64.65625 21.28125 53.65625 
Q 18.109375 42.671875 18.109375 31.390625 
Q 18.109375 20.125 21.3125 9.0625 
Q 24.515625 -2 31 -13.1875 
L 23.1875 -13.1875 
Q 15.875 -1.703125 12.234375 9.375 
Q 8.59375 20.453125 8.59375 31.390625 
Q 8.59375 42.28125 12.203125 53.3125 
Q 15.828125 64.359375 23.1875 75.875 
z
" id="BitstreamVeraSans-Roman-28"/>
      <path d="M 48.78125 52.59375 
L 48.78125 44.1875 
Q 44.96875 46.296875 41.140625 47.34375 
Q 37.3125 48.390625 33.40625 48.390625 
Q 24.65625 48.390625 19.8125 42.84375 
Q 14.984375 37.3125 14.984375 27.296875 
Q 14.984375 17.28125 19.8125 11.734375 
Q 24.65625 6.203125 33.40625 6.203125 
Q 37.3125 6.203125 41.140625 7.25 
Q 44.96875 8.296875 48.78125 10.40625 
L 48.78125 2.09375 
Q 45.015625 0.34375 40.984375 -0.53125 
Q 36.96875 -1.421875 32.421875 -1.421875 
Q 20.0625 -1.421875 12.78125 6.34375 
Q 5.515625 14.109375 5.515625 27.296875 
Q 5.515625 40.671875 12.859375 48.328125 
Q 20.21875 56 33.015625 56 
Q 37.15625 56 41.109375 55.140625 
Q 45.0625 54.296875 48.78125 52.59375 
" id="BitstreamVeraSans-Roman-63"/>
      <path d="M 52 44.1875 
Q 55.375 50.25 60.0625 53.125 
Q 64.75 56 71.09375 56 
Q 79.640625 56 84.28125 50.015625 
Q 88.921875 44.046875 88.921875 33.015625 
L 88.921875 0 
L 79.890625 0 
L 79.890625 32.71875 
Q 79.890625 40.578125 77.09375 44.375 
Q 74.3125 48.1875 68.609375 48.1875 
Q 61.625 48.1875 57.5625 43.546875 
Q 53.515625 38.921875 53.515625 30.90625 
L 53.515625 0 
L 44.484375 0 
L 44.484375 32.71875 
Q 44.484375 40.625 41.703125 44.40625 
Q 38.921875 48.1875 33.109375 48.1875 
Q 26.21875 48.1875 22.15625 43.53125 
Q 18.109375 38.875 18.109375 30.90625 
L 18.109375 0 
L 9.078125 0 
L 9.078125 54.6875 
L 18.109375 54.6875 
L 18.109375 46.1875 
Q 21.1875 51.21875 25.484375 53.609375 
Q 29.78125 56 35.6875 56 
Q 41.65625 56 45.828125 52.96875 
Q 50 49.953125 52 44.1875 
" id="BitstreamVeraSans-Roman-6d"/>
      <path d="M 56.203125 29.59375 
L 56.203125 25.203125 
L 14.890625 25.203125 
Q 15.484375 15.921875 20.484375 11.0625 
Q 25.484375 6.203125 34.421875 6.203125 
Q 39.59375 6.203125 44.453125 7.46875 
Q 49.3125 8.734375 54.109375 11.28125 
L 54.109375 2.78125 
Q 49.265625 0.734375 44.1875 -0.34375 
Q 39.109375 -1.421875 33.890625 -1.421875 
Q 20.796875 -1.421875 13.15625 6.1875 
Q 5.515625 13.8125 5.515625 26.8125 
Q 5.515625 40.234375 12.765625 48.109375 
Q 20.015625 56 32.328125 56 
Q 43.359375 56 49.78125 48.890625 
Q 56.203125 41.796875 56.203125 29.59375 
M 47.21875 32.234375 
Q 47.125 39.59375 43.09375 43.984375 
Q 39.0625 48.390625 32.421875 48.390625 
Q 24.90625 48.390625 20.390625 44.140625 
Q 15.875 39.890625 15.1875 32.171875 
z
" id="BitstreamVeraSans-Roman-65"/>
      <path d="M 45.40625 46.390625 
L 45.40625 75.984375 
L 54.390625 75.984375 
L 54.390625 0 
L 45.40625 0 
L 45.40625 8.203125 
Q 42.578125 3.328125 38.25 0.953125 
Q 33.9375 -1.421875 27.875 -1.421875 
Q 17.96875 -1.421875 11.734375 6.484375 
Q 5.515625 14.40625 5.515625 27.296875 
Q 5.515625 40.1875 11.734375 48.09375 
Q 17.96875 56 27.875 56 
Q 33.9375 56 38.25 53.625 
Q 42.578125 51.265625 45.40625 46.390625 
M 14.796875 27.296875 
Q 14.796875 17.390625 18.875 11.75 
Q 22.953125 6.109375 30.078125 6.109375 
Q 37.203125 6.109375 41.296875 11.75 
Q 45.40625 17.390625 45.40625 27.296875 
Q 45.40625 37.203125 41.296875 42.84375 
Q 37.203125 48.484375 30.078125 48.484375 
Q 22.953125 48.484375 18.875 42.84375 
Q 14.796875 37.203125 14.796875 27.296875 
" id="BitstreamVeraSans-Roman-64"/>
      <path d="M 18.3125 70.21875 
L 18.3125 54.6875 
L 36.8125 54.6875 
L 36.8125 47.703125 
L 18.3125 47.703125 
L 18.3125 18.015625 
Q 18.3125 11.328125 20.140625 9.421875 
Q 21.96875 7.515625 27.59375 7.515625 
L 36.8125 7.515625 
L 36.8125 0 
L 27.59375 0 
Q 17.1875 0 13.234375 3.875 
Q 9.28125 7.765625 9.28125 18.015625 
L 9.28125 47.703125 
L 2.6875 47.703125 
L 2.6875 54.6875 
L 9.28125 54.6875 
L 9.28125 70.21875 
z
" id="BitstreamVeraSans-Roman-74"/>
      <path d="M 37.109375 75.984375 
L 37.109375 68.5 
L 28.515625 68.5 
Q 23.6875 68.5 21.796875 66.546875 
Q 19.921875 64.59375 19.921875 59.515625 
L 19.921875 54.6875 
L 34.71875 54.6875 
L 34.71875 47.703125 
L 19.921875 47.703125 
L 19.921875 0 
L 10.890625 0 
L 10.890625 47.703125 
L 2.296875 47.703125 
L 2.296875 54.6875 
L 10.890625 54.6875 
L 10.890625 58.5 
Q 10.890625 67.625 15.140625 71.796875 
Q 19.390625 75.984375 28.609375 75.984375 
z
" id="BitstreamVeraSans-Roman-66"/>
      <path d="M 41.109375 46.296875 
Q 39.59375 47.171875 37.8125 47.578125 
Q 36.03125 48 33.890625 48 
Q 26.265625 48 22.1875 43.046875 
Q 18.109375 38.09375 18.109375 28.8125 
L 18.109375 0 
L 9.078125 0 
L 9.078125 54.6875 
L 18.109375 54.6875 
L 18.109375 46.1875 
Q 20.953125 51.171875 25.484375 53.578125 
Q 30.03125 56 36.53125 56 
Q 37.453125 56 38.578125 55.875 
Q 39.703125 55.765625 41.0625 55.515625 
z
" id="BitstreamVeraSans-Roman-72"/>
      <path d="M 44.28125 53.078125 
L 44.28125 44.578125 
Q 40.484375 46.53125 36.375 47.5 
Q 32.28125 48.484375 27.875 48.484375 
Q 21.1875 48.484375 17.84375 46.4375 
Q 14.5 44.390625 14.5 40.28125 
Q 14.5 37.15625 16.890625 35.375 
Q 19.28125 33.59375 26.515625 31.984375 
L 29.59375 31.296875 
Q 39.15625 29.25 43.1875 25.515625 
Q 47.21875 21.78125 47.21875 15.09375 
Q 47.21875 7.46875 41.1875 3.015625 
Q 35.15625 -1.421875 24.609375 -1.421875 
Q 20.21875 -1.421875 15.453125 -0.5625 
Q 10.6875 0.296875 5.421875 2 
L 5.421875 11.28125 
Q 10.40625 8.6875 15.234375 7.390625 
Q 20.0625 6.109375 24.8125 6.109375 
Q 31.15625 6.109375 34.5625 8.28125 
Q 37.984375 10.453125 37.984375 14.40625 
Q 37.984375 18.0625 35.515625 20.015625 
Q 33.0625 21.96875 24.703125 23.78125 
L 21.578125 24.515625 
Q 13.234375 26.265625 9.515625 29.90625 
Q 5.8125 33.546875 5.8125 39.890625 
Q 5.8125 47.609375 11.28125 51.796875 
Q 16.75 56 26.8125 56 
Q 31.78125 56 36.171875 55.265625 
Q 40.578125 54.546875 44.28125 53.078125 
" id="BitstreamVeraSans-Roman-73"/>
      <path d="M 9.8125 72.90625 
L 19.671875 72.90625 
L 19.671875 0 
L 9.8125 0 
z
" id="BitstreamVeraSans-Roman-49"/>
     </defs>
     <g transform="translate(211.749375 419.158125)scale(0.12 -0.12)">
      <use xlink:href="#BitstreamVeraSans-Roman-49"/>
      <use x="29.4921875" xlink:href="#BitstreamVeraSans-Roman-6e"/>
      <use x="92.87109375" xlink:href="#BitstreamVeraSans-Roman-74"/>
      <use x="132.080078125" xlink:href="#BitstreamVeraSans-Roman-65"/>
      <use x="193.603515625" xlink:href="#BitstreamVeraSans-Roman-72"/>
      <use x="234.623046875" xlink:href="#BitstreamVeraSans-Roman-2d"/>
      <use x="270.70703125" xlink:href="#BitstreamVeraSans-Roman-66"/>
      <use x="305.912109375" xlink:href="#BitstreamVeraSans-Roman-72"/>
      <use x="347.025390625" xlink:href="#BitstreamVeraSans-Roman-61"/>
      <use x="408.3046875" xlink:href="#BitstreamVeraSans-Roman-6d"/>
      <use x="505.716796875" xlink:href="#BitstreamVeraSans-Roman-65"/>
      <use x="567.240234375" xlink:href="#BitstreamVeraSans-Roman-20"/>
      <use x="599.02734375" xlink:href="#BitstreamVeraSans-Roman-64"/>
      <use x="662.50390625" xlink:href="#BitstreamVeraSans-Roman-65"/>
      <use x="724.02734375" xlink:href="#BitstreamVeraSans-Roman-6c"/>
      <use x="751.810546875" xlink:href="#BitstreamVeraSans-Roman-61"/>
      <use x="813.08984375" xlink:href="#BitstreamVeraSans-Roman-79"/>
      <use x="872.26953125" xlink:href="#BitstreamVeraSans-Roman-20"/>
      <use x="904.056640625" xlink:href="#BitstreamVeraSans-Roman-28"/>
      <use x="943.0703125" xlink:href="#BitstreamVeraSans-Roman-73"/>
      <use x="995.169921875" xlink:href="#BitstreamVeraSans-Roman-65"/>
      <use x="1056.69335938" xlink:href="#BitstreamVeraSans-Roman-63"/>
      <use x="1111.67382812" xlink:href="#BitstreamVeraSans-Roman-6f"/>
      <use x="1172.85546875" xlink:href="#BitstreamVeraSans-Roman-6e"/>
      <use x="1236.234375" xlink:href="#BitstreamVeraSans-Roman-64"/>
      <use x="1299.7109375" xlink:href="#BitstreamVeraSans-Roman-73"/>
      <use x="1351.81054688" xlink:href="#BitstreamVeraSans-Roman-29"/>
     </g>
    </g>
   </g>
   <g id="matplotlib.axis_2">
    <g id="ytick_1">
     <g id="line2d_94">
      <defs>
       <path d="M 0 0 
L 4 0 
" id="mdde4f6bec9" style="stroke:#000000;stroke-width:0.5;"/>
      </defs>
      <g>
       <use style="stroke:#000000;stroke-width:0.5;" x="72.0" xlink:href="#mdde4f6bec9" y="388.8"/>
      </g>
     </g>
     <g id="line2d_95">
      <defs>
       <path d="M 0 0 
L -4 0 
" id="mf538a569e3" style="stroke:#000000;stroke-width:0.5;"/>
      </defs>
      <g>
       <use style="stroke:#000000;stroke-width:0.5;" x="518.4" xlink:href="#mf538a569e3" y="388.8"/>
      </g>
     </g>
     <g id="text_8">
      <!-- $\mathdefault{10^{-7}}$ -->
      <defs>
       <path d="M 8.203125 72.90625 
L 55.078125 72.90625 
L 55.078125 68.703125 
L 28.609375 0 
L 18.3125 0 
L 43.21875 64.59375 
L 8.203125 64.59375 
z
" id="BitstreamVeraSans-Roman-37"/>
      </defs>
      <g transform="translate(42.68 392.364375)scale(0.12 -0.12)">
       <use transform="translate(0.0 0.715625)" xlink:href="#BitstreamVeraSans-Roman-31"/>
       <use transform="translate(63.623046875 0.715625)" xlink:href="#BitstreamVeraSans-Roman-30"/>
       <use transform="translate(132.75859375 47.965625)scale(0.7)" xlink:href="#BitstreamVeraSans-Roman-2d"/>
       <use transform="translate(158.017382812 47.965625)scale(0.7)" xlink:href="#BitstreamVeraSans-Roman-37"/>
      </g>
     </g>
    </g>
    <g id="ytick_2">
     <g id="line2d_96">
      <g>
       <use style="stroke:#000000;stroke-width:0.5;" x="72.0" xlink:href="#mdde4f6bec9" y="339.428571429"/>
      </g>
     </g>
     <g id="line2d_97">
      <g>
       <use style="stroke:#000000;stroke-width:0.5;" x="518.4" xlink:href="#mf538a569e3" y="339.428571429"/>
      </g>
     </g>
     <g id="text_9">
      <!-- $\mathdefault{10^{-6}}$ -->
      <defs>
       <path d="M 33.015625 40.375 
Q 26.375 40.375 22.484375 35.828125 
Q 18.609375 31.296875 18.609375 23.390625 
Q 18.609375 15.53125 22.484375 10.953125 
Q 26.375 6.390625 33.015625 6.390625 
Q 39.65625 6.390625 43.53125 10.953125 
Q 47.40625 15.53125 47.40625 23.390625 
Q 47.40625 31.296875 43.53125 35.828125 
Q 39.65625 40.375 33.015625 40.375 
M 52.59375 71.296875 
L 52.59375 62.3125 
Q 48.875 64.0625 45.09375 64.984375 
Q 41.3125 65.921875 37.59375 65.921875 
Q 27.828125 65.921875 22.671875 59.328125 
Q 17.53125 52.734375 16.796875 39.40625 
Q 19.671875 43.65625 24.015625 45.921875 
Q 28.375 48.1875 33.59375 48.1875 
Q 44.578125 48.1875 50.953125 41.515625 
Q 57.328125 34.859375 57.328125 23.390625 
Q 57.328125 12.15625 50.6875 5.359375 
Q 44.046875 -1.421875 33.015625 -1.421875 
Q 20.359375 -1.421875 13.671875 8.265625 
Q 6.984375 17.96875 6.984375 36.375 
Q 6.984375 53.65625 15.1875 63.9375 
Q 23.390625 74.21875 37.203125 74.21875 
Q 40.921875 74.21875 44.703125 73.484375 
Q 48.484375 72.75 52.59375 71.296875 
" id="BitstreamVeraSans-Roman-36"/>
      </defs>
      <g transform="translate(42.68 343.052946429)scale(0.12 -0.12)">
       <use transform="translate(0.0 0.796875)" xlink:href="#BitstreamVeraSans-Roman-31"/>
       <use transform="translate(63.623046875 0.796875)" xlink:href="#BitstreamVeraSans-Roman-30"/>
       <use transform="translate(132.75859375 48.046875)scale(0.7)" xlink:href="#BitstreamVeraSans-Roman-2d"/>
       <use transform="translate(158.017382812 48.046875)scale(0.7)" xlink:href="#BitstreamVeraSans-Roman-36"/>
      </g>
     </g>
    </g>
    <g id="ytick_3">
     <g id="line2d_98">
      <g>
       <use style="stroke:#000000;stroke-width:0.5;" x="72.0" xlink:href="#mdde4f6bec9" y="290.057142857"/>
      </g>
     </g>
     <g id="line2d_99">
      <g>
       <use style="stroke:#000000;stroke-width:0.5;" x="518.4" xlink:href="#mf538a569e3" y="290.057142857"/>
      </g>
     </g>
     <g id="text_10">
      <!-- $\mathdefault{10^{-5}}$ -->
      <defs>
       <path d="M 10.796875 72.90625 
L 49.515625 72.90625 
L 49.515625 64.59375 
L 19.828125 64.59375 
L 19.828125 46.734375 
Q 21.96875 47.46875 24.109375 47.828125 
Q 26.265625 48.1875 28.421875 48.1875 
Q 40.625 48.1875 47.75 41.5 
Q 54.890625 34.8125 54.890625 23.390625 
Q 54.890625 11.625 47.5625 5.09375 
Q 40.234375 -1.421875 26.90625 -1.421875 
Q 22.3125 -1.421875 17.546875 -0.640625 
Q 12.796875 0.140625 7.71875 1.703125 
L 7.71875 11.625 
Q 12.109375 9.234375 16.796875 8.0625 
Q 21.484375 6.890625 26.703125 6.890625 
Q 35.15625 6.890625 40.078125 11.328125 
Q 45.015625 15.765625 45.015625 23.390625 
Q 45.015625 31 40.078125 35.4375 
Q 35.15625 39.890625 26.703125 39.890625 
Q 22.75 39.890625 18.8125 39.015625 
Q 14.890625 38.140625 10.796875 36.28125 
z
" id="BitstreamVeraSans-Roman-35"/>
      </defs>
      <g transform="translate(42.68 293.621517857)scale(0.12 -0.12)">
       <use transform="translate(0.0 0.715625)" xlink:href="#BitstreamVeraSans-Roman-31"/>
       <use transform="translate(63.623046875 0.715625)" xlink:href="#BitstreamVeraSans-Roman-30"/>
       <use transform="translate(132.75859375 47.965625)scale(0.7)" xlink:href="#BitstreamVeraSans-Roman-2d"/>
       <use transform="translate(158.017382812 47.965625)scale(0.7)" xlink:href="#BitstreamVeraSans-Roman-35"/>
      </g>
     </g>
    </g>
    <g id="ytick_4">
     <g id="line2d_100">
      <g>
       <use style="stroke:#000000;stroke-width:0.5;" x="72.0" xlink:href="#mdde4f6bec9" y="240.685714286"/>
      </g>
     </g>
     <g id="line2d_101">
      <g>
       <use style="stroke:#000000;stroke-width:0.5;" x="518.4" xlink:href="#mf538a569e3" y="240.685714286"/>
      </g>
     </g>
     <g id="text_11">
      <!-- $\mathdefault{10^{-4}}$ -->
      <defs>
       <path d="M 37.796875 64.3125 
L 12.890625 25.390625 
L 37.796875 25.390625 
z
M 35.203125 72.90625 
L 47.609375 72.90625 
L 47.609375 25.390625 
L 58.015625 25.390625 
L 58.015625 17.1875 
L 47.609375 17.1875 
L 47.609375 0 
L 37.796875 0 
L 37.796875 17.1875 
L 4.890625 17.1875 
L 4.890625 26.703125 
z
" id="BitstreamVeraSans-Roman-34"/>
      </defs>
      <g transform="translate(42.68 244.250089286)scale(0.12 -0.12)">
       <use transform="translate(0.0 0.715625)" xlink:href="#BitstreamVeraSans-Roman-31"/>
       <use transform="translate(63.623046875 0.715625)" xlink:href="#BitstreamVeraSans-Roman-30"/>
       <use transform="translate(132.75859375 47.965625)scale(0.7)" xlink:href="#BitstreamVeraSans-Roman-2d"/>
       <use transform="translate(158.017382812 47.965625)scale(0.7)" xlink:href="#BitstreamVeraSans-Roman-34"/>
      </g>
     </g>
    </g>
    <g id="ytick_5">
     <g id="line2d_102">
      <g>
       <use style="stroke:#000000;stroke-width:0.5;" x="72.0" xlink:href="#mdde4f6bec9" y="191.314285714"/>
      </g>
     </g>
     <g id="line2d_103">
      <g>
       <use style="stroke:#000000;stroke-width:0.5;" x="518.4" xlink:href="#mf538a569e3" y="191.314285714"/>
      </g>
     </g>
     <g id="text_12">
      <!-- $\mathdefault{10^{-3}}$ -->
      <g transform="translate(42.68 194.938660714)scale(0.12 -0.12)">
       <use transform="translate(0.0 0.796875)" xlink:href="#BitstreamVeraSans-Roman-31"/>
       <use transform="translate(63.623046875 0.796875)" xlink:href="#BitstreamVeraSans-Roman-30"/>
       <use transform="translate(132.75859375 48.046875)scale(0.7)" xlink:href="#BitstreamVeraSans-Roman-2d"/>
       <use transform="translate(158.017382812 48.046875)scale(0.7)" xlink:href="#BitstreamVeraSans-Roman-33"/>
      </g>
     </g>
    </g>
    <g id="ytick_6">
     <g id="line2d_104">
      <g>
       <use style="stroke:#000000;stroke-width:0.5;" x="72.0" xlink:href="#mdde4f6bec9" y="141.942857143"/>
      </g>
     </g>
     <g id="line2d_105">
      <g>
       <use style="stroke:#000000;stroke-width:0.5;" x="518.4" xlink:href="#mf538a569e3" y="141.942857143"/>
      </g>
     </g>
     <g id="text_13">
      <!-- $\mathdefault{10^{-2}}$ -->
      <g transform="translate(42.68 145.567232143)scale(0.12 -0.12)">
       <use transform="translate(0.0 0.796875)" xlink:href="#BitstreamVeraSans-Roman-31"/>
       <use transform="translate(63.623046875 0.796875)" xlink:href="#BitstreamVeraSans-Roman-30"/>
       <use transform="translate(132.75859375 48.046875)scale(0.7)" xlink:href="#BitstreamVeraSans-Roman-2d"/>
       <use transform="translate(158.017382812 48.046875)scale(0.7)" xlink:href="#BitstreamVeraSans-Roman-32"/>
      </g>
     </g>
    </g>
    <g id="ytick_7">
     <g id="line2d_106">
      <g>
       <use style="stroke:#000000;stroke-width:0.5;" x="72.0" xlink:href="#mdde4f6bec9" y="92.5714285714"/>
      </g>
     </g>
     <g id="line2d_107">
      <g>
       <use style="stroke:#000000;stroke-width:0.5;" x="518.4" xlink:href="#mf538a569e3" y="92.5714285714"/>
      </g>
     </g>
     <g id="text_14">
      <!-- $\mathdefault{10^{-1}}$ -->
      <g transform="translate(42.68 96.1358035714)scale(0.12 -0.12)">
       <use transform="translate(0.0 0.715625)" xlink:href="#BitstreamVeraSans-Roman-31"/>
       <use transform="translate(63.623046875 0.715625)" xlink:href="#BitstreamVeraSans-Roman-30"/>
       <use transform="translate(132.75859375 47.965625)scale(0.7)" xlink:href="#BitstreamVeraSans-Roman-2d"/>
       <use transform="translate(158.017382812 47.965625)scale(0.7)" xlink:href="#BitstreamVeraSans-Roman-31"/>
      </g>
     </g>
    </g>
    <g id="ytick_8">
     <g id="line2d_108">
      <g>
       <use style="stroke:#000000;stroke-width:0.5;" x="72.0" xlink:href="#mdde4f6bec9" y="43.2"/>
      </g>
     </g>
     <g id="line2d_109">
      <g>
       <use style="stroke:#000000;stroke-width:0.5;" x="518.4" xlink:href="#mf538a569e3" y="43.2"/>
      </g>
     </g>
     <g id="text_15">
      <!-- $\mathdefault{10^{0}}$ -->
      <g transform="translate(45.68 46.824375)scale(0.12 -0.12)">
       <use transform="translate(0.0 0.796875)" xlink:href="#BitstreamVeraSans-Roman-31"/>
       <use transform="translate(63.623046875 0.796875)" xlink:href="#BitstreamVeraSans-Roman-30"/>
       <use transform="translate(132.75859375 48.046875)scale(0.7)" xlink:href="#BitstreamVeraSans-Roman-30"/>
      </g>
     </g>
    </g>
    <g id="ytick_9">
     <g id="line2d_110">
      <defs>
       <path d="M 0 0 
L 2 0 
" id="m421c4d590a" style="stroke:#000000;stroke-width:0.5;"/>
      </defs>
      <g>
       <use style="stroke:#000000;stroke-width:0.5;" x="72.0" xlink:href="#m421c4d590a" y="373.937719071"/>
      </g>
     </g>
     <g id="line2d_111">
      <defs>
       <path d="M 0 0 
L -2 0 
" id="m8d92a5a228" style="stroke:#000000;stroke-width:0.5;"/>
      </defs>
      <g>
       <use style="stroke:#000000;stroke-width:0.5;" x="518.4" xlink:href="#m8d92a5a228" y="373.937719071"/>
      </g>
     </g>
    </g>
    <g id="ytick_10">
     <g id="line2d_112">
      <g>
       <use style="stroke:#000000;stroke-width:0.5;" x="72.0" xlink:href="#m421c4d590a" y="359.075438142"/>
      </g>
     </g>
     <g id="line2d_113">
      <g>
       <use style="stroke:#000000;stroke-width:0.5;" x="518.4" xlink:href="#m8d92a5a228" y="359.075438142"/>
      </g>
     </g>
    </g>
    <g id="ytick_11">
     <g id="line2d_114">
      <g>
       <use style="stroke:#000000;stroke-width:0.5;" x="72.0" xlink:href="#m421c4d590a" y="350.381561124"/>
      </g>
     </g>
     <g id="line2d_115">
      <g>
       <use style="stroke:#000000;stroke-width:0.5;" x="518.4" xlink:href="#m8d92a5a228" y="350.381561124"/>
      </g>
     </g>
    </g>
    <g id="ytick_12">
     <g id="line2d_116">
      <g>
       <use style="stroke:#000000;stroke-width:0.5;" x="72.0" xlink:href="#m421c4d590a" y="344.213157214"/>
      </g>
     </g>
     <g id="line2d_117">
      <g>
       <use style="stroke:#000000;stroke-width:0.5;" x="518.4" xlink:href="#m8d92a5a228" y="344.213157214"/>
      </g>
     </g>
    </g>
    <g id="ytick_13">
     <g id="line2d_118">
      <g>
       <use style="stroke:#000000;stroke-width:0.5;" x="72.0" xlink:href="#m421c4d590a" y="324.5662905"/>
      </g>
     </g>
     <g id="line2d_119">
      <g>
       <use style="stroke:#000000;stroke-width:0.5;" x="518.4" xlink:href="#m8d92a5a228" y="324.5662905"/>
      </g>
     </g>
    </g>
    <g id="ytick_14">
     <g id="line2d_120">
      <g>
       <use style="stroke:#000000;stroke-width:0.5;" x="72.0" xlink:href="#m421c4d590a" y="309.704009571"/>
      </g>
     </g>
     <g id="line2d_121">
      <g>
       <use style="stroke:#000000;stroke-width:0.5;" x="518.4" xlink:href="#m8d92a5a228" y="309.704009571"/>
      </g>
     </g>
    </g>
    <g id="ytick_15">
     <g id="line2d_122">
      <g>
       <use style="stroke:#000000;stroke-width:0.5;" x="72.0" xlink:href="#m421c4d590a" y="301.010132552"/>
      </g>
     </g>
     <g id="line2d_123">
      <g>
       <use style="stroke:#000000;stroke-width:0.5;" x="518.4" xlink:href="#m8d92a5a228" y="301.010132552"/>
      </g>
     </g>
    </g>
    <g id="ytick_16">
     <g id="line2d_124">
      <g>
       <use style="stroke:#000000;stroke-width:0.5;" x="72.0" xlink:href="#m421c4d590a" y="294.841728642"/>
      </g>
     </g>
     <g id="line2d_125">
      <g>
       <use style="stroke:#000000;stroke-width:0.5;" x="518.4" xlink:href="#m8d92a5a228" y="294.841728642"/>
      </g>
     </g>
    </g>
    <g id="ytick_17">
     <g id="line2d_126">
      <g>
       <use style="stroke:#000000;stroke-width:0.5;" x="72.0" xlink:href="#m421c4d590a" y="275.194861928"/>
      </g>
     </g>
     <g id="line2d_127">
      <g>
       <use style="stroke:#000000;stroke-width:0.5;" x="518.4" xlink:href="#m8d92a5a228" y="275.194861928"/>
      </g>
     </g>
    </g>
    <g id="ytick_18">
     <g id="line2d_128">
      <g>
       <use style="stroke:#000000;stroke-width:0.5;" x="72.0" xlink:href="#m421c4d590a" y="260.332581"/>
      </g>
     </g>
     <g id="line2d_129">
      <g>
       <use style="stroke:#000000;stroke-width:0.5;" x="518.4" xlink:href="#m8d92a5a228" y="260.332581"/>
      </g>
     </g>
    </g>
    <g id="ytick_19">
     <g id="line2d_130">
      <g>
       <use style="stroke:#000000;stroke-width:0.5;" x="72.0" xlink:href="#m421c4d590a" y="251.638703981"/>
      </g>
     </g>
     <g id="line2d_131">
      <g>
       <use style="stroke:#000000;stroke-width:0.5;" x="518.4" xlink:href="#m8d92a5a228" y="251.638703981"/>
      </g>
     </g>
    </g>
    <g id="ytick_20">
     <g id="line2d_132">
      <g>
       <use style="stroke:#000000;stroke-width:0.5;" x="72.0" xlink:href="#m421c4d590a" y="245.470300071"/>
      </g>
     </g>
     <g id="line2d_133">
      <g>
       <use style="stroke:#000000;stroke-width:0.5;" x="518.4" xlink:href="#m8d92a5a228" y="245.470300071"/>
      </g>
     </g>
    </g>
    <g id="ytick_21">
     <g id="line2d_134">
      <g>
       <use style="stroke:#000000;stroke-width:0.5;" x="72.0" xlink:href="#m421c4d590a" y="225.823433357"/>
      </g>
     </g>
     <g id="line2d_135">
      <g>
       <use style="stroke:#000000;stroke-width:0.5;" x="518.4" xlink:href="#m8d92a5a228" y="225.823433357"/>
      </g>
     </g>
    </g>
    <g id="ytick_22">
     <g id="line2d_136">
      <g>
       <use style="stroke:#000000;stroke-width:0.5;" x="72.0" xlink:href="#m421c4d590a" y="210.961152428"/>
      </g>
     </g>
     <g id="line2d_137">
      <g>
       <use style="stroke:#000000;stroke-width:0.5;" x="518.4" xlink:href="#m8d92a5a228" y="210.961152428"/>
      </g>
     </g>
    </g>
    <g id="ytick_23">
     <g id="line2d_138">
      <g>
       <use style="stroke:#000000;stroke-width:0.5;" x="72.0" xlink:href="#m421c4d590a" y="202.26727541"/>
      </g>
     </g>
     <g id="line2d_139">
      <g>
       <use style="stroke:#000000;stroke-width:0.5;" x="518.4" xlink:href="#m8d92a5a228" y="202.26727541"/>
      </g>
     </g>
    </g>
    <g id="ytick_24">
     <g id="line2d_140">
      <g>
       <use style="stroke:#000000;stroke-width:0.5;" x="72.0" xlink:href="#m421c4d590a" y="196.098871499"/>
      </g>
     </g>
     <g id="line2d_141">
      <g>
       <use style="stroke:#000000;stroke-width:0.5;" x="518.4" xlink:href="#m8d92a5a228" y="196.098871499"/>
      </g>
     </g>
    </g>
    <g id="ytick_25">
     <g id="line2d_142">
      <g>
       <use style="stroke:#000000;stroke-width:0.5;" x="72.0" xlink:href="#m421c4d590a" y="176.452004786"/>
      </g>
     </g>
     <g id="line2d_143">
      <g>
       <use style="stroke:#000000;stroke-width:0.5;" x="518.4" xlink:href="#m8d92a5a228" y="176.452004786"/>
      </g>
     </g>
    </g>
    <g id="ytick_26">
     <g id="line2d_144">
      <g>
       <use style="stroke:#000000;stroke-width:0.5;" x="72.0" xlink:href="#m421c4d590a" y="161.589723857"/>
      </g>
     </g>
     <g id="line2d_145">
      <g>
       <use style="stroke:#000000;stroke-width:0.5;" x="518.4" xlink:href="#m8d92a5a228" y="161.589723857"/>
      </g>
     </g>
    </g>
    <g id="ytick_27">
     <g id="line2d_146">
      <g>
       <use style="stroke:#000000;stroke-width:0.5;" x="72.0" xlink:href="#m421c4d590a" y="152.895846838"/>
      </g>
     </g>
     <g id="line2d_147">
      <g>
       <use style="stroke:#000000;stroke-width:0.5;" x="518.4" xlink:href="#m8d92a5a228" y="152.895846838"/>
      </g>
     </g>
    </g>
    <g id="ytick_28">
     <g id="line2d_148">
      <g>
       <use style="stroke:#000000;stroke-width:0.5;" x="72.0" xlink:href="#m421c4d590a" y="146.727442928"/>
      </g>
     </g>
     <g id="line2d_149">
      <g>
       <use style="stroke:#000000;stroke-width:0.5;" x="518.4" xlink:href="#m8d92a5a228" y="146.727442928"/>
      </g>
     </g>
    </g>
    <g id="ytick_29">
     <g id="line2d_150">
      <g>
       <use style="stroke:#000000;stroke-width:0.5;" x="72.0" xlink:href="#m421c4d590a" y="127.080576214"/>
      </g>
     </g>
     <g id="line2d_151">
      <g>
       <use style="stroke:#000000;stroke-width:0.5;" x="518.4" xlink:href="#m8d92a5a228" y="127.080576214"/>
      </g>
     </g>
    </g>
    <g id="ytick_30">
     <g id="line2d_152">
      <g>
       <use style="stroke:#000000;stroke-width:0.5;" x="72.0" xlink:href="#m421c4d590a" y="112.218295285"/>
      </g>
     </g>
     <g id="line2d_153">
      <g>
       <use style="stroke:#000000;stroke-width:0.5;" x="518.4" xlink:href="#m8d92a5a228" y="112.218295285"/>
      </g>
     </g>
    </g>
    <g id="ytick_31">
     <g id="line2d_154">
      <g>
       <use style="stroke:#000000;stroke-width:0.5;" x="72.0" xlink:href="#m421c4d590a" y="103.524418267"/>
      </g>
     </g>
     <g id="line2d_155">
      <g>
       <use style="stroke:#000000;stroke-width:0.5;" x="518.4" xlink:href="#m8d92a5a228" y="103.524418267"/>
      </g>
     </g>
    </g>
    <g id="ytick_32">
     <g id="line2d_156">
      <g>
       <use style="stroke:#000000;stroke-width:0.5;" x="72.0" xlink:href="#m421c4d590a" y="97.3560143565"/>
      </g>
     </g>
     <g id="line2d_157">
      <g>
       <use style="stroke:#000000;stroke-width:0.5;" x="518.4" xlink:href="#m8d92a5a228" y="97.3560143565"/>
      </g>
     </g>
    </g>
    <g id="ytick_33">
     <g id="line2d_158">
      <g>
       <use style="stroke:#000000;stroke-width:0.5;" x="72.0" xlink:href="#m421c4d590a" y="77.7091476426"/>
      </g>
     </g>
     <g id="line2d_159">
      <g>
       <use style="stroke:#000000;stroke-width:0.5;" x="518.4" xlink:href="#m8d92a5a228" y="77.7091476426"/>
      </g>
     </g>
    </g>
    <g id="ytick_34">
     <g id="line2d_160">
      <g>
       <use style="stroke:#000000;stroke-width:0.5;" x="72.0" xlink:href="#m421c4d590a" y="62.8468667139"/>
      </g>
     </g>
     <g id="line2d_161">
      <g>
       <use style="stroke:#000000;stroke-width:0.5;" x="518.4" xlink:href="#m8d92a5a228" y="62.8468667139"/>
      </g>
     </g>
    </g>
    <g id="ytick_35">
     <g id="line2d_162">
      <g>
       <use style="stroke:#000000;stroke-width:0.5;" x="72.0" xlink:href="#m421c4d590a" y="54.1529896953"/>
      </g>
     </g>
     <g id="line2d_163">
      <g>
       <use style="stroke:#000000;stroke-width:0.5;" x="518.4" xlink:href="#m8d92a5a228" y="54.1529896953"/>
      </g>
     </g>
    </g>
    <g id="ytick_36">
     <g id="line2d_164">
      <g>
       <use style="stroke:#000000;stroke-width:0.5;" x="72.0" xlink:href="#m421c4d590a" y="47.9845857851"/>
      </g>
     </g>
     <g id="line2d_165">
      <g>
       <use style="stroke:#000000;stroke-width:0.5;" x="518.4" xlink:href="#m8d92a5a228" y="47.9845857851"/>
      </g>
     </g>
    </g>
   </g>
   <g id="text_16">
    <!-- CCDF of all inter-frame delays for Verizon LTE short 1080p (1522506 datapoints) -->
    <defs>
     <path d="M 9.8125 72.90625 
L 19.671875 72.90625 
L 19.671875 8.296875 
L 55.171875 8.296875 
L 55.171875 0 
L 9.8125 0 
z
" id="BitstreamVeraSans-Roman-4c"/>
     <path d="M 31.78125 34.625 
Q 24.75 34.625 20.71875 30.859375 
Q 16.703125 27.09375 16.703125 20.515625 
Q 16.703125 13.921875 20.71875 10.15625 
Q 24.75 6.390625 31.78125 6.390625 
Q 38.8125 6.390625 42.859375 10.171875 
Q 46.921875 13.96875 46.921875 20.515625 
Q 46.921875 27.09375 42.890625 30.859375 
Q 38.875 34.625 31.78125 34.625 
M 21.921875 38.8125 
Q 15.578125 40.375 12.03125 44.71875 
Q 8.5 49.078125 8.5 55.328125 
Q 8.5 64.0625 14.71875 69.140625 
Q 20.953125 74.21875 31.78125 74.21875 
Q 42.671875 74.21875 48.875 69.140625 
Q 55.078125 64.0625 55.078125 55.328125 
Q 55.078125 49.078125 51.53125 44.71875 
Q 48 40.375 41.703125 38.8125 
Q 48.828125 37.15625 52.796875 32.3125 
Q 56.78125 27.484375 56.78125 20.515625 
Q 56.78125 9.90625 50.3125 4.234375 
Q 43.84375 -1.421875 31.78125 -1.421875 
Q 19.734375 -1.421875 13.25 4.234375 
Q 6.78125 9.90625 6.78125 20.515625 
Q 6.78125 27.484375 10.78125 32.3125 
Q 14.796875 37.15625 21.921875 38.8125 
M 18.3125 54.390625 
Q 18.3125 48.734375 21.84375 45.5625 
Q 25.390625 42.390625 31.78125 42.390625 
Q 38.140625 42.390625 41.71875 45.5625 
Q 45.3125 48.734375 45.3125 54.390625 
Q 45.3125 60.0625 41.71875 63.234375 
Q 38.140625 66.40625 31.78125 66.40625 
Q 25.390625 66.40625 21.84375 63.234375 
Q 18.3125 60.0625 18.3125 54.390625 
" id="BitstreamVeraSans-Roman-38"/>
     <path d="M 5.515625 54.6875 
L 48.1875 54.6875 
L 48.1875 46.484375 
L 14.40625 7.171875 
L 48.1875 7.171875 
L 48.1875 0 
L 4.296875 0 
L 4.296875 8.203125 
L 38.09375 47.515625 
L 5.515625 47.515625 
z
" id="BitstreamVeraSans-Roman-7a"/>
     <path d="M 9.8125 72.90625 
L 51.703125 72.90625 
L 51.703125 64.59375 
L 19.671875 64.59375 
L 19.671875 43.109375 
L 48.578125 43.109375 
L 48.578125 34.8125 
L 19.671875 34.8125 
L 19.671875 0 
L 9.8125 0 
z
" id="BitstreamVeraSans-Roman-46"/>
     <path d="M 9.8125 72.90625 
L 55.90625 72.90625 
L 55.90625 64.59375 
L 19.671875 64.59375 
L 19.671875 43.015625 
L 54.390625 43.015625 
L 54.390625 34.71875 
L 19.671875 34.71875 
L 19.671875 8.296875 
L 56.78125 8.296875 
L 56.78125 0 
L 9.8125 0 
z
" id="BitstreamVeraSans-Roman-45"/>
     <path d="M 19.671875 64.796875 
L 19.671875 8.109375 
L 31.59375 8.109375 
Q 46.6875 8.109375 53.6875 14.9375 
Q 60.6875 21.78125 60.6875 36.53125 
Q 60.6875 51.171875 53.6875 57.984375 
Q 46.6875 64.796875 31.59375 64.796875 
z
M 9.8125 72.90625 
L 30.078125 72.90625 
Q 51.265625 72.90625 61.171875 64.09375 
Q 71.09375 55.28125 71.09375 36.53125 
Q 71.09375 17.671875 61.125 8.828125 
Q 51.171875 0 30.078125 0 
L 9.8125 0 
z
" id="BitstreamVeraSans-Roman-44"/>
     <path d="M 9.421875 54.6875 
L 18.40625 54.6875 
L 18.40625 0 
L 9.421875 0 
z
M 9.421875 75.984375 
L 18.40625 75.984375 
L 18.40625 64.59375 
L 9.421875 64.59375 
z
" id="BitstreamVeraSans-Roman-69"/>
     <path d="M 54.890625 33.015625 
L 54.890625 0 
L 45.90625 0 
L 45.90625 32.71875 
Q 45.90625 40.484375 42.875 44.328125 
Q 39.84375 48.1875 33.796875 48.1875 
Q 26.515625 48.1875 22.3125 43.546875 
Q 18.109375 38.921875 18.109375 30.90625 
L 18.109375 0 
L 9.078125 0 
L 9.078125 75.984375 
L 18.109375 75.984375 
L 18.109375 46.1875 
Q 21.34375 51.125 25.703125 53.5625 
Q 30.078125 56 35.796875 56 
Q 45.21875 56 50.046875 50.171875 
Q 54.890625 44.34375 54.890625 33.015625 
" id="BitstreamVeraSans-Roman-68"/>
     <path d="M 28.609375 0 
L 0.78125 72.90625 
L 11.078125 72.90625 
L 34.1875 11.53125 
L 57.328125 72.90625 
L 67.578125 72.90625 
L 39.796875 0 
z
" id="BitstreamVeraSans-Roman-56"/>
     <path d="M 64.40625 67.28125 
L 64.40625 56.890625 
Q 59.421875 61.53125 53.78125 63.8125 
Q 48.140625 66.109375 41.796875 66.109375 
Q 29.296875 66.109375 22.65625 58.46875 
Q 16.015625 50.828125 16.015625 36.375 
Q 16.015625 21.96875 22.65625 14.328125 
Q 29.296875 6.6875 41.796875 6.6875 
Q 48.140625 6.6875 53.78125 8.984375 
Q 59.421875 11.28125 64.40625 15.921875 
L 64.40625 5.609375 
Q 59.234375 2.09375 53.4375 0.328125 
Q 47.65625 -1.421875 41.21875 -1.421875 
Q 24.65625 -1.421875 15.125 8.703125 
Q 5.609375 18.84375 5.609375 36.375 
Q 5.609375 53.953125 15.125 64.078125 
Q 24.65625 74.21875 41.21875 74.21875 
Q 47.75 74.21875 53.53125 72.484375 
Q 59.328125 70.75 64.40625 67.28125 
" id="BitstreamVeraSans-Roman-43"/>
     <path d="M -0.296875 72.90625 
L 61.375 72.90625 
L 61.375 64.59375 
L 35.5 64.59375 
L 35.5 0 
L 25.59375 0 
L 25.59375 64.59375 
L -0.296875 64.59375 
z
" id="BitstreamVeraSans-Roman-54"/>
     <path d="M 18.109375 8.203125 
L 18.109375 -20.796875 
L 9.078125 -20.796875 
L 9.078125 54.6875 
L 18.109375 54.6875 
L 18.109375 46.390625 
Q 20.953125 51.265625 25.265625 53.625 
Q 29.59375 56 35.59375 56 
Q 45.5625 56 51.78125 48.09375 
Q 58.015625 40.1875 58.015625 27.296875 
Q 58.015625 14.40625 51.78125 6.484375 
Q 45.5625 -1.421875 35.59375 -1.421875 
Q 29.59375 -1.421875 25.265625 0.953125 
Q 20.953125 3.328125 18.109375 8.203125 
M 48.6875 27.296875 
Q 48.6875 37.203125 44.609375 42.84375 
Q 40.53125 48.484375 33.40625 48.484375 
Q 26.265625 48.484375 22.1875 42.84375 
Q 18.109375 37.203125 18.109375 27.296875 
Q 18.109375 17.390625 22.1875 11.75 
Q 26.265625 6.109375 33.40625 6.109375 
Q 40.53125 6.109375 44.609375 11.75 
Q 48.6875 17.390625 48.6875 27.296875 
" id="BitstreamVeraSans-Roman-70"/>
    </defs>
    <g transform="translate(3.48075 38.2)scale(0.144 -0.144)">
     <use xlink:href="#BitstreamVeraSans-Roman-43"/>
     <use x="69.82421875" xlink:href="#BitstreamVeraSans-Roman-43"/>
     <use x="139.6484375" xlink:href="#BitstreamVeraSans-Roman-44"/>
     <use x="216.650390625" xlink:href="#BitstreamVeraSans-Roman-46"/>
     <use x="274.169921875" xlink:href="#BitstreamVeraSans-Roman-20"/>
     <use x="305.95703125" xlink:href="#BitstreamVeraSans-Roman-6f"/>
     <use x="367.138671875" xlink:href="#BitstreamVeraSans-Roman-66"/>
     <use x="402.34375" xlink:href="#BitstreamVeraSans-Roman-20"/>
     <use x="434.130859375" xlink:href="#BitstreamVeraSans-Roman-61"/>
     <use x="495.41015625" xlink:href="#BitstreamVeraSans-Roman-6c"/>
     <use x="523.193359375" xlink:href="#BitstreamVeraSans-Roman-6c"/>
     <use x="550.9765625" xlink:href="#BitstreamVeraSans-Roman-20"/>
     <use x="582.763671875" xlink:href="#BitstreamVeraSans-Roman-69"/>
     <use x="610.546875" xlink:href="#BitstreamVeraSans-Roman-6e"/>
     <use x="673.92578125" xlink:href="#BitstreamVeraSans-Roman-74"/>
     <use x="713.134765625" xlink:href="#BitstreamVeraSans-Roman-65"/>
     <use x="774.658203125" xlink:href="#BitstreamVeraSans-Roman-72"/>
     <use x="815.677734375" xlink:href="#BitstreamVeraSans-Roman-2d"/>
     <use x="851.76171875" xlink:href="#BitstreamVeraSans-Roman-66"/>
     <use x="886.966796875" xlink:href="#BitstreamVeraSans-Roman-72"/>
     <use x="928.080078125" xlink:href="#BitstreamVeraSans-Roman-61"/>
     <use x="989.359375" xlink:href="#BitstreamVeraSans-Roman-6d"/>
     <use x="1086.77148438" xlink:href="#BitstreamVeraSans-Roman-65"/>
     <use x="1148.29492188" xlink:href="#BitstreamVeraSans-Roman-20"/>
     <use x="1180.08203125" xlink:href="#BitstreamVeraSans-Roman-64"/>
     <use x="1243.55859375" xlink:href="#BitstreamVeraSans-Roman-65"/>
     <use x="1305.08203125" xlink:href="#BitstreamVeraSans-Roman-6c"/>
     <use x="1332.86523438" xlink:href="#BitstreamVeraSans-Roman-61"/>
     <use x="1394.14453125" xlink:href="#BitstreamVeraSans-Roman-79"/>
     <use x="1453.32421875" xlink:href="#BitstreamVeraSans-Roman-73"/>
     <use x="1505.42382812" xlink:href="#BitstreamVeraSans-Roman-20"/>
     <use x="1537.2109375" xlink:href="#BitstreamVeraSans-Roman-66"/>
     <use x="1572.41601562" xlink:href="#BitstreamVeraSans-Roman-6f"/>
     <use x="1633.59765625" xlink:href="#BitstreamVeraSans-Roman-72"/>
     <use x="1674.7109375" xlink:href="#BitstreamVeraSans-Roman-20"/>
     <use x="1706.49804688" xlink:href="#BitstreamVeraSans-Roman-56"/>
     <use x="1774.796875" xlink:href="#BitstreamVeraSans-Roman-65"/>
     <use x="1836.3203125" xlink:href="#BitstreamVeraSans-Roman-72"/>
     <use x="1877.43359375" xlink:href="#BitstreamVeraSans-Roman-69"/>
     <use x="1905.21679688" xlink:href="#BitstreamVeraSans-Roman-7a"/>
     <use x="1957.70703125" xlink:href="#BitstreamVeraSans-Roman-6f"/>
     <use x="2018.88867188" xlink:href="#BitstreamVeraSans-Roman-6e"/>
     <use x="2082.26757812" xlink:href="#BitstreamVeraSans-Roman-20"/>
     <use x="2114.0546875" xlink:href="#BitstreamVeraSans-Roman-4c"/>
     <use x="2169.56445312" xlink:href="#BitstreamVeraSans-Roman-54"/>
     <use x="2230.6484375" xlink:href="#BitstreamVeraSans-Roman-45"/>
     <use x="2293.83203125" xlink:href="#BitstreamVeraSans-Roman-20"/>
     <use x="2325.61914062" xlink:href="#BitstreamVeraSans-Roman-73"/>
     <use x="2377.71875" xlink:href="#BitstreamVeraSans-Roman-68"/>
     <use x="2441.09765625" xlink:href="#BitstreamVeraSans-Roman-6f"/>
     <use x="2502.27929688" xlink:href="#BitstreamVeraSans-Roman-72"/>
     <use x="2543.39257812" xlink:href="#BitstreamVeraSans-Roman-74"/>
     <use x="2582.6015625" xlink:href="#BitstreamVeraSans-Roman-20"/>
     <use x="2614.38867188" xlink:href="#BitstreamVeraSans-Roman-31"/>
     <use x="2678.01171875" xlink:href="#BitstreamVeraSans-Roman-30"/>
     <use x="2741.63476562" xlink:href="#BitstreamVeraSans-Roman-38"/>
     <use x="2805.2578125" xlink:href="#BitstreamVeraSans-Roman-30"/>
     <use x="2868.88085938" xlink:href="#BitstreamVeraSans-Roman-70"/>
     <use x="2932.35742188" xlink:href="#BitstreamVeraSans-Roman-20"/>
     <use x="2964.14453125" xlink:href="#BitstreamVeraSans-Roman-28"/>
     <use x="3003.15820312" xlink:href="#BitstreamVeraSans-Roman-31"/>
     <use x="3066.78125" xlink:href="#BitstreamVeraSans-Roman-35"/>
     <use x="3130.40429688" xlink:href="#BitstreamVeraSans-Roman-32"/>
     <use x="3194.02734375" xlink:href="#BitstreamVeraSans-Roman-32"/>
     <use x="3257.65039062" xlink:href="#BitstreamVeraSans-Roman-35"/>
     <use x="3321.2734375" xlink:href="#BitstreamVeraSans-Roman-30"/>
     <use x="3384.89648438" xlink:href="#BitstreamVeraSans-Roman-36"/>
     <use x="3448.51953125" xlink:href="#BitstreamVeraSans-Roman-20"/>
     <use x="3480.30664062" xlink:href="#BitstreamVeraSans-Roman-64"/>
     <use x="3543.78320312" xlink:href="#BitstreamVeraSans-Roman-61"/>
     <use x="3605.0625" xlink:href="#BitstreamVeraSans-Roman-74"/>
     <use x="3644.27148438" xlink:href="#BitstreamVeraSans-Roman-61"/>
     <use x="3705.55078125" xlink:href="#BitstreamVeraSans-Roman-70"/>
     <use x="3769.02734375" xlink:href="#BitstreamVeraSans-Roman-6f"/>
     <use x="3830.20898438" xlink:href="#BitstreamVeraSans-Roman-69"/>
     <use x="3857.9921875" xlink:href="#BitstreamVeraSans-Roman-6e"/>
     <use x="3921.37109375" xlink:href="#BitstreamVeraSans-Roman-74"/>
     <use x="3960.58007812" xlink:href="#BitstreamVeraSans-Roman-73"/>
     <use x="4012.6796875" xlink:href="#BitstreamVeraSans-Roman-29"/>
    </g>
   </g>
  </g>
 </g>
 <defs>
  <clipPath id="pd594b37aac">
   <rect height="345.6" width="446.4" x="72.0" y="43.2"/>
  </clipPath>
 </defs>
</svg>
