<?xml version="1.0" encoding="utf-8" standalone="no"?>
<!DOCTYPE svg PUBLIC "-//W3C//DTD SVG 1.1//EN"
  "http://www.w3.org/Graphics/SVG/1.1/DTD/svg11.dtd">
<!-- Created with matplotlib (http://matplotlib.org/) -->
<svg height="432pt" version="1.1" viewBox="0 0 576 432" width="576pt" xmlns="http://www.w3.org/2000/svg" xmlns:xlink="http://www.w3.org/1999/xlink">
 <defs>
  <style type="text/css">
*{stroke-linecap:butt;stroke-linejoin:round;stroke-miterlimit:100000;}
  </style>
 </defs>
 <g id="figure_1">
  <g id="patch_1">
   <path d="M 0 432 
L 576 432 
L 576 0 
L 0 0 
z
" style="fill:#ffffff;"/>
  </g>
  <g id="axes_1">
   <g id="patch_2">
    <path d="M 72 388.8 
L 518.4 388.8 
L 518.4 43.2 
L 72 43.2 
z
" style="fill:#ffffff;"/>
   </g>
   <g id="line2d_1">
    <path clip-path="url(#p3a99cfd773)" d="M 89.98992 388.46184 
L 90.03456 388.123679 
L 91.401182 387.785519 
L 91.844393 387.447358 
L 92.102667 387.109198 
L 93.604485 386.771037 
L 93.681648 386.432877 
L 94.494096 386.094716 
L 94.778517 385.756556 
L 95.735726 385.418395 
L 95.778453 385.080235 
L 97.08768 384.403914 
L 97.131045 384.065753 
L 97.31088 383.727593 
L 97.712002 383.389432 
L 97.856763 383.051272 
L 98.189013 382.713112 
L 98.244494 382.374951 
L 98.811422 381.69863 
L 98.846496 381.022309 
L 98.997634 380.684149 
L 99.093291 380.007828 
L 99.239328 379.669667 
L 101.102729 379.331507 
L 102.003182 376.626223 
L 102.205337 376.288063 
L 102.255079 375.611742 
L 102.584777 375.273581 
L 103.168923 372.906458 
L 103.381282 372.568297 
L 104.373566 371.891977 
L 104.480702 371.215656 
L 104.637579 370.539335 
L 105.031687 370.201174 
L 105.318021 369.524853 
L 105.951909 368.510372 
L 105.959561 368.172211 
L 106.375351 367.834051 
L 106.464631 367.49589 
L 106.69357 367.15773 
L 106.759255 366.481409 
L 107.161015 365.805088 
L 107.643765 364.452446 
L 107.861225 362.423483 
L 108.326119 362.085323 
L 108.63541 361.070841 
L 108.697906 360.732681 
L 109.057577 360.05636 
L 109.146857 359.7182 
L 109.408958 359.380039 
L 109.531399 358.703718 
L 109.670421 358.365558 
L 110.355963 358.027397 
L 110.402517 357.689237 
L 110.854656 357.012916 
L 111.610347 353.969472 
L 111.880738 353.631311 
L 112.040805 352.61683 
L 112.265918 352.278669 
L 112.356473 351.940509 
L 113.087294 350.926027 
L 113.173385 350.249706 
L 113.343017 348.897065 
L 113.598741 348.558904 
L 114.235179 345.51546 
L 115.425154 343.148337 
L 115.79184 341.795695 
L 116.036722 341.457534 
L 116.068608 340.443053 
L 116.49205 339.428571 
L 116.647015 338.75225 
L 116.858098 338.41409 
L 117.073646 337.399609 
L 117.389952 336.723288 
L 117.509842 335.708806 
L 117.814032 335.032485 
L 118.314 334.018004 
L 118.691527 331.650881 
L 118.77443 331.31272 
L 119.092011 330.97456 
L 119.171726 330.636399 
L 119.704217 330.298239 
L 120.209925 327.592955 
L 120.675456 327.254795 
L 121.022373 326.240313 
L 121.274907 325.563992 
L 121.609707 325.225832 
L 122.112226 323.535029 
L 122.378791 323.196869 
L 122.418967 322.858708 
L 123.225675 321.506067 
L 123.848085 320.829746 
L 124.077662 320.153425 
L 124.386953 319.815264 
L 124.598037 318.462622 
L 124.619081 318.124462 
L 124.811671 317.786301 
L 124.874167 316.77182 
L 125.018928 316.433659 
L 125.119687 315.419178 
L 125.412398 314.742857 
L 125.499765 314.066536 
L 125.930222 312.375734 
L 126.175104 312.037573 
L 126.422537 311.023092 
L 126.661042 310.684932 
L 126.685275 310.008611 
L 127.029003 309.67045 
L 127.047497 309.33229 
L 127.596569 308.655969 
L 127.858032 307.641487 
L 128.372667 306.627006 
L 128.750832 305.950685 
L 128.979771 305.612524 
L 129.03589 305.274364 
L 129.545424 304.936204 
L 129.688272 304.598043 
L 130.089394 304.259883 
L 130.472661 303.583562 
L 130.797895 302.907241 
L 131.033849 301.892759 
L 131.221337 301.554599 
L 131.284471 300.878278 
L 131.712377 299.863796 
L 131.714928 299.525636 
L 131.86224 298.849315 
L 131.932389 298.172994 
L 132.319481 297.834834 
L 132.641527 297.158513 
L 133.279241 296.820352 
L 133.623607 295.12955 
L 133.977538 294.791389 
L 134.142706 293.438748 
L 134.253031 292.762427 
L 134.33976 292.424266 
L 134.739607 292.086106 
L 134.837177 291.071624 
L 135.256793 290.395303 
L 136.135563 289.042661 
L 136.375344 288.704501 
L 136.375982 288.366341 
L 136.710144 287.351859 
L 136.738841 287.013699 
L 137.125934 286.675538 
L 137.336379 285.999217 
L 137.812114 284.984736 
L 138.071026 284.308415 
L 138.810775 283.970254 
L 138.83437 283.293933 
L 139.261639 282.955773 
L 139.384718 282.617613 
L 139.636615 282.279452 
L 139.7412 281.603131 
L 140.885259 280.58865 
L 141.446448 278.559687 
L 141.985954 277.883366 
L 142.227648 277.545205 
L 142.655554 277.207045 
L 142.836027 276.192564 
L 143.61085 272.472798 
L 144.329554 271.796477 
L 144.335294 271.458317 
L 144.650962 270.781996 
L 144.885003 270.443836 
L 144.920715 270.105675 
L 145.158583 269.767515 
L 145.487006 268.414873 
L 145.722322 268.076712 
L 145.75357 267.738552 
L 145.944247 267.400391 
L 146.111328 266.04775 
L 146.42891 265.709589 
L 146.472274 265.371429 
L 146.872121 265.033268 
L 146.906558 264.356947 
L 147.214574 264.018787 
L 147.219675 263.680626 
L 147.352958 263.342466 
L 147.882898 263.004305 
L 147.895015 262.666145 
L 148.051893 262.327984 
L 148.053806 261.989824 
L 148.372025 261.651663 
L 148.667925 260.975342 
L 148.673026 260.637182 
L 148.85605 259.960861 
L 148.88411 259.622701 
L 149.559449 259.28454 
L 149.767344 258.270059 
L 150.15061 257.931898 
L 150.238615 257.593738 
L 150.59701 256.917417 
L 150.792789 256.241096 
L 150.933086 255.564775 
L 150.991118 254.888454 
L 151.527435 254.550294 
L 151.674747 253.535812 
L 151.81632 252.859491 
L 151.9056 252.18317 
L 152.004446 251.84501 
L 152.279938 251.506849 
L 152.414496 250.830528 
L 152.785008 250.492368 
L 152.983975 250.154207 
L 153.422722 249.816047 
L 153.457159 249.477886 
L 154.253664 248.801566 
L 154.272795 248.463405 
L 155.102462 247.448924 
L 155.678318 246.772603 
L 155.810325 245.419961 
L 156.362585 244.405479 
L 156.499056 243.729159 
L 156.766258 243.052838 
L 156.842784 242.376517 
L 157.301938 241.362035 
L 157.342114 241.023875 
L 157.58891 240.347554 
L 157.591461 240.009393 
L 157.997685 238.994912 
L 158.390517 238.318591 
L 158.560786 237.64227 
L 158.658994 236.965949 
L 158.664096 236.627789 
L 159.167253 236.289628 
L 159.216994 235.951468 
L 160.08301 235.275147 
L 160.091938 234.936986 
L 160.361691 234.260665 
L 160.391026 233.922505 
L 160.628256 233.584344 
L 160.681824 233.246184 
L 160.915227 232.908023 
L 161.008334 232.231703 
L 161.60077 231.555382 
L 161.667093 231.217221 
L 162.345621 230.20274 
L 162.73909 229.864579 
L 162.772889 229.526419 
L 163.194418 229.188258 
L 163.303467 228.850098 
L 163.620411 228.511937 
L 163.955211 227.497456 
L 164.695598 227.159295 
L 164.891376 226.821135 
L 164.923262 226.482975 
L 165.122866 226.144814 
L 165.227451 225.130333 
L 165.296325 224.792172 
L 165.518887 224.454012 
L 165.523989 224.115851 
L 166.593435 222.763209 
L 167.145696 222.086888 
L 167.181408 221.748728 
L 167.470293 221.410568 
L 167.488149 221.072407 
L 167.765554 220.734247 
L 168.460025 220.396086 
L 168.833088 219.719765 
L 168.99443 219.043444 
L 169.565822 218.028963 
L 170.349573 217.690802 
L 170.883339 217.014481 
L 170.939458 216.676321 
L 171.674105 216 
L 172.323936 215.66184 
L 172.612821 214.647358 
L 172.904256 213.971037 
L 173.277957 213.632877 
L 173.3328 213.294716 
L 174.423291 212.280235 
L 174.707074 210.927593 
L 174.851835 210.589432 
L 175.411749 210.251272 
L 175.42259 209.913112 
L 175.905977 209.574951 
L 176.140018 209.236791 
L 176.820459 208.89863 
L 176.933973 208.222309 
L 177.069806 207.884149 
L 177.073632 207.545988 
L 178.637307 205.855186 
L 178.806939 205.178865 
L 179.2476 204.502544 
L 179.431262 203.149902 
L 179.502048 202.811742 
L 179.766699 202.473581 
L 179.944622 201.79726 
L 180.506448 201.4591 
L 180.570857 201.120939 
L 181.049781 200.782779 
L 181.166482 200.444618 
L 181.824603 200.106458 
L 181.954697 199.430137 
L 182.477623 199.091977 
L 182.482087 198.753816 
L 182.657458 198.077495 
L 182.733346 197.739335 
L 183.048377 197.063014 
L 183.950743 196.724853 
L 184.839079 195.710372 
L 184.920069 195.372211 
L 185.335858 195.034051 
L 185.376034 194.69589 
L 185.730603 194.35773 
L 186.18912 193.343249 
L 186.751584 191.652446 
L 186.771991 190.976125 
L 187.364427 190.637965 
L 187.618238 189.961644 
L 188.431323 189.285323 
L 189.699737 188.947162 
L 189.799221 188.609002 
L 190.105961 188.270841 
L 190.234142 187.932681 
L 190.241794 187.594521 
L 191.060619 185.903718 
L 191.260862 185.227397 
L 192.191925 183.874755 
L 193.096203 183.536595 
L 193.520283 182.183953 
L 193.686089 181.169472 
L 194.210928 179.81683 
L 194.477493 179.478669 
L 194.548279 179.140509 
L 195.045058 178.802348 
L 195.127323 178.126027 
L 195.742718 177.449706 
L 196.601719 176.773386 
L 196.754133 176.435225 
L 197.534057 175.420744 
L 197.716443 174.406262 
L 198.076114 173.729941 
L 198.268704 173.05362 
L 198.549936 172.71546 
L 198.984219 172.377299 
L 199.011641 171.700978 
L 199.150025 171.362818 
L 199.451026 171.024658 
L 200.443947 170.348337 
L 200.544069 169.672016 
L 201.055515 169.333855 
L 201.147346 168.995695 
L 201.727029 168.657534 
L 201.741696 167.981213 
L 202.434891 166.966732 
L 203.102578 166.628571 
L 203.193771 165.95225 
L 203.726263 165.27593 
L 203.931607 164.599609 
L 204.240898 163.923288 
L 204.242174 163.585127 
L 204.413719 163.246967 
L 204.800174 162.908806 
L 204.809739 162.570646 
L 205.467223 161.556164 
L 205.491456 161.218004 
L 206.507973 160.541683 
L 206.762421 159.865362 
L 207.598464 159.527202 
L 207.684555 159.189041 
L 207.895001 158.850881 
L 208.03211 158.17456 
L 208.29995 157.836399 
L 208.304414 157.498239 
L 208.488713 157.160078 
L 209.581755 156.821918 
L 209.88467 155.131115 
L 210.110421 154.454795 
L 210.273675 153.440313 
L 210.307474 153.102153 
L 210.496238 152.763992 
L 210.881417 152.425832 
L 211.001307 151.749511 
L 211.619253 151.41135 
L 211.825872 150.396869 
L 212.085422 149.044227 
L 212.399177 148.706067 
L 213.152955 148.367906 
L 213.295166 148.029746 
L 214.172661 147.691585 
L 214.664976 147.353425 
L 215.223614 144.648141 
L 215.460843 144.30998 
L 215.567342 143.633659 
L 215.607518 143.295499 
L 215.898315 142.619178 
L 216.432082 142.281018 
L 216.498405 141.604697 
L 216.849147 141.266536 
L 217.041099 140.590215 
L 217.680727 140.252055 
L 218.065269 139.913894 
L 218.132229 139.237573 
L 219.135353 138.899413 
L 219.491198 138.223092 
L 219.924843 137.884932 
L 220.033255 137.208611 
L 220.103403 136.87045 
L 220.29408 136.53229 
L 220.972608 135.855969 
L 221.910048 135.517808 
L 222.445728 135.179648 
L 222.697625 134.841487 
L 222.842386 134.165166 
L 223.834032 133.488845 
L 223.989634 132.812524 
L 224.634363 131.798043 
L 224.66051 131.459883 
L 225.256773 131.121722 
L 225.337762 130.783562 
L 225.684679 130.107241 
L 225.800743 129.76908 
L 227.009849 129.092759 
L 227.392478 128.078278 
L 228.41027 127.740117 
L 228.549929 127.401957 
L 228.570974 126.725636 
L 229.901883 126.049315 
L 230.137838 125.711155 
L 230.558091 124.358513 
L 230.885877 124.020352 
L 231.978281 123.344031 
L 233.277943 123.005871 
L 233.291973 122.32955 
L 234.172018 121.991389 
L 234.224949 121.653229 
L 234.578242 121.315068 
L 235.288018 120.976908 
L 235.483797 120.638748 
L 236.939061 120.300587 
L 237.597182 119.286106 
L 237.852905 118.947945 
L 238.33693 118.609785 
L 238.499547 118.271624 
L 239.232281 117.933464 
L 239.929303 116.918982 
L 240.499419 116.580822 
L 240.548523 116.242661 
L 241.049129 115.904501 
L 241.081015 115.566341 
L 241.464281 115.22818 
L 241.577794 114.89002 
L 242.811771 114.551859 
L 243.749211 113.537378 
L 243.853159 112.861057 
L 243.997282 112.522896 
L 244.886894 111.846575 
L 245.044409 111.508415 
L 245.052699 111.170254 
L 245.207026 110.832094 
L 245.524608 110.493933 
L 246.170613 110.155773 
L 246.4308 109.479452 
L 247.15907 109.141292 
L 247.461984 108.464971 
L 247.825481 107.78865 
L 247.910297 107.112329 
L 248.847737 106.774168 
L 248.921712 106.436008 
L 249.342603 105.759687 
L 249.36875 105.421526 
L 249.726507 105.083366 
L 250.079801 103.730724 
L 250.56 103.392564 
L 250.862277 102.378082 
L 251.272965 102.039922 
L 252.288206 101.701761 
L 252.825799 101.363601 
L 252.94824 101.02544 
L 253.213529 100.68728 
L 253.443106 100.010959 
L 254.621602 99.672798 
L 254.681547 99.334638 
L 254.856919 98.996477 
L 255.212126 98.658317 
L 255.294391 98.320157 
L 256.013733 97.981996 
L 256.127883 97.643836 
L 256.99645 96.629354 
L 257.335077 96.291194 
L 257.909657 95.953033 
L 257.954297 95.614873 
L 258.933826 95.276712 
L 259.423591 94.938552 
L 259.590034 94.600391 
L 261.09504 93.92407 
L 262.374295 93.24775 
L 263.184192 92.571429 
L 263.260718 91.895108 
L 264.332078 91.218787 
L 265.384944 90.880626 
L 265.846011 90.542466 
L 266.586398 90.204305 
L 266.771973 89.866145 
L 267.169269 89.527984 
L 267.24707 89.189824 
L 267.670512 88.851663 
L 268.120738 88.175342 
L 268.507193 87.837182 
L 270.559995 87.160861 
L 270.865461 86.822701 
L 271.527408 86.48454 
L 271.715534 85.808219 
L 275.370912 84.455577 
L 275.478048 84.117417 
L 276.564713 83.779256 
L 277.11251 83.102935 
L 277.403945 82.764775 
L 277.434555 82.088454 
L 279.113657 81.412133 
L 279.572811 81.073973 
L 280.487931 80.735812 
L 281.809275 80.397652 
L 282.277995 80.059491 
L 283.805959 79.38317 
L 287.334432 79.04501 
L 287.666043 78.706849 
L 288.780768 78.368689 
L 288.94211 78.030528 
L 291.582885 77.692368 
L 292.173408 77.354207 
L 292.396608 77.016047 
L 293.103833 76.339726 
L 294.807168 76.001566 
L 295.211479 75.663405 
L 297.697927 74.648924 
L 297.953013 74.310763 
L 297.967042 73.972603 
L 302.820686 72.2818 
L 303.130615 71.94364 
L 304.261282 71.605479 
L 305.708894 70.929159 
L 307.274482 70.590998 
L 307.610558 70.252838 
L 307.635429 69.914677 
L 308.053769 69.576517 
L 308.89045 69.238356 
L 309.124491 68.900196 
L 310.152487 68.562035 
L 310.205417 68.223875 
L 310.83803 67.885714 
L 310.994907 67.547554 
L 311.526761 66.871233 
L 312.531799 66.533072 
L 313.107655 66.194912 
L 313.229458 65.856751 
L 313.658002 65.518591 
L 314.839687 65.180431 
L 315.258665 64.84227 
L 319.146171 64.50411 
L 321.226395 64.165949 
L 321.417072 63.827789 
L 321.442581 63.489628 
L 321.913214 63.151468 
L 321.978898 62.813307 
L 322.715458 62.136986 
L 323.71667 61.798826 
L 323.754295 61.460665 
L 324.194318 61.122505 
L 325.447426 60.784344 
L 325.500357 60.446184 
L 327.223461 60.108023 
L 327.970224 59.769863 
L 328.06333 59.431703 
L 328.47083 59.093542 
L 329.289017 58.755382 
L 331.369241 58.417221 
L 333.192466 57.40274 
L 335.567314 56.726419 
L 336.135518 56.388258 
L 336.162939 56.050098 
L 337.139918 55.711937 
L 341.790768 55.035616 
L 344.505518 53.682975 
L 344.726805 53.006654 
L 352.337925 52.330333 
L 358.250811 51.654012 
L 360.862889 50.977691 
L 376.997698 49.963209 
L 385.656583 49.625049 
L 387.944702 49.286888 
L 388.155785 48.948728 
L 393.252398 48.272407 
L 399.048583 47.934247 
L 399.399326 47.596086 
L 400.977031 47.257926 
L 401.952096 46.919765 
L 405.375984 46.581605 
L 413.484521 46.243444 
L 417.303154 45.905284 
L 424.171975 45.567123 
L 425.393198 45.228963 
L 425.787943 44.890802 
L 427.007253 44.214481 
L 431.825822 43.876321 
L 444.017643 43.53816 
L 503.557838 43.2 
L 503.557838 43.2 
" style="fill:none;stroke:#0000ff;stroke-linecap:square;"/>
   </g>
   <g id="patch_3">
    <path d="M 72 43.2 
L 518.4 43.2 
" style="fill:none;stroke:#000000;stroke-linecap:square;stroke-linejoin:miter;"/>
   </g>
   <g id="patch_4">
    <path d="M 518.4 388.8 
L 518.4 43.2 
" style="fill:none;stroke:#000000;stroke-linecap:square;stroke-linejoin:miter;"/>
   </g>
   <g id="patch_5">
    <path d="M 72 388.8 
L 518.4 388.8 
" style="fill:none;stroke:#000000;stroke-linecap:square;stroke-linejoin:miter;"/>
   </g>
   <g id="patch_6">
    <path d="M 72 388.8 
L 72 43.2 
" style="fill:none;stroke:#000000;stroke-linecap:square;stroke-linejoin:miter;"/>
   </g>
   <g id="matplotlib.axis_1">
    <g id="xtick_1">
     <g id="line2d_2">
      <defs>
       <path d="M 0 0 
L 0 -4 
" id="m0ec2fec50a" style="stroke:#000000;stroke-width:0.5;"/>
      </defs>
      <g>
       <use style="stroke:#000000;stroke-width:0.5;" x="72.0" xlink:href="#m0ec2fec50a" y="388.8"/>
      </g>
     </g>
     <g id="line2d_3">
      <defs>
       <path d="M 0 0 
L 0 4 
" id="madbfe47026" style="stroke:#000000;stroke-width:0.5;"/>
      </defs>
      <g>
       <use style="stroke:#000000;stroke-width:0.5;" x="72.0" xlink:href="#madbfe47026" y="43.2"/>
      </g>
     </g>
     <g id="text_1">
      <!-- 0.0 -->
      <defs>
       <path d="M 31.78125 66.40625 
Q 24.171875 66.40625 20.328125 58.90625 
Q 16.5 51.421875 16.5 36.375 
Q 16.5 21.390625 20.328125 13.890625 
Q 24.171875 6.390625 31.78125 6.390625 
Q 39.453125 6.390625 43.28125 13.890625 
Q 47.125 21.390625 47.125 36.375 
Q 47.125 51.421875 43.28125 58.90625 
Q 39.453125 66.40625 31.78125 66.40625 
M 31.78125 74.21875 
Q 44.046875 74.21875 50.515625 64.515625 
Q 56.984375 54.828125 56.984375 36.375 
Q 56.984375 17.96875 50.515625 8.265625 
Q 44.046875 -1.421875 31.78125 -1.421875 
Q 19.53125 -1.421875 13.0625 8.265625 
Q 6.59375 17.96875 6.59375 36.375 
Q 6.59375 54.828125 13.0625 64.515625 
Q 19.53125 74.21875 31.78125 74.21875 
" id="BitstreamVeraSans-Roman-30"/>
       <path d="M 10.6875 12.40625 
L 21 12.40625 
L 21 0 
L 10.6875 0 
z
" id="BitstreamVeraSans-Roman-2e"/>
      </defs>
      <g transform="translate(62.458125 401.918125)scale(0.12 -0.12)">
       <use xlink:href="#BitstreamVeraSans-Roman-30"/>
       <use x="63.623046875" xlink:href="#BitstreamVeraSans-Roman-2e"/>
       <use x="95.41015625" xlink:href="#BitstreamVeraSans-Roman-30"/>
      </g>
     </g>
    </g>
    <g id="xtick_2">
     <g id="line2d_4">
      <g>
       <use style="stroke:#000000;stroke-width:0.5;" x="135.771428571" xlink:href="#m0ec2fec50a" y="388.8"/>
      </g>
     </g>
     <g id="line2d_5">
      <g>
       <use style="stroke:#000000;stroke-width:0.5;" x="135.771428571" xlink:href="#madbfe47026" y="43.2"/>
      </g>
     </g>
     <g id="text_2">
      <!-- 0.1 -->
      <defs>
       <path d="M 12.40625 8.296875 
L 28.515625 8.296875 
L 28.515625 63.921875 
L 10.984375 60.40625 
L 10.984375 69.390625 
L 28.421875 72.90625 
L 38.28125 72.90625 
L 38.28125 8.296875 
L 54.390625 8.296875 
L 54.390625 0 
L 12.40625 0 
z
" id="BitstreamVeraSans-Roman-31"/>
      </defs>
      <g transform="translate(126.229553571 401.918125)scale(0.12 -0.12)">
       <use xlink:href="#BitstreamVeraSans-Roman-30"/>
       <use x="63.623046875" xlink:href="#BitstreamVeraSans-Roman-2e"/>
       <use x="95.41015625" xlink:href="#BitstreamVeraSans-Roman-31"/>
      </g>
     </g>
    </g>
    <g id="xtick_3">
     <g id="line2d_6">
      <g>
       <use style="stroke:#000000;stroke-width:0.5;" x="199.542857143" xlink:href="#m0ec2fec50a" y="388.8"/>
      </g>
     </g>
     <g id="line2d_7">
      <g>
       <use style="stroke:#000000;stroke-width:0.5;" x="199.542857143" xlink:href="#madbfe47026" y="43.2"/>
      </g>
     </g>
     <g id="text_3">
      <!-- 0.2 -->
      <defs>
       <path d="M 19.1875 8.296875 
L 53.609375 8.296875 
L 53.609375 0 
L 7.328125 0 
L 7.328125 8.296875 
Q 12.9375 14.109375 22.625 23.890625 
Q 32.328125 33.6875 34.8125 36.53125 
Q 39.546875 41.84375 41.421875 45.53125 
Q 43.3125 49.21875 43.3125 52.78125 
Q 43.3125 58.59375 39.234375 62.25 
Q 35.15625 65.921875 28.609375 65.921875 
Q 23.96875 65.921875 18.8125 64.3125 
Q 13.671875 62.703125 7.8125 59.421875 
L 7.8125 69.390625 
Q 13.765625 71.78125 18.9375 73 
Q 24.125 74.21875 28.421875 74.21875 
Q 39.75 74.21875 46.484375 68.546875 
Q 53.21875 62.890625 53.21875 53.421875 
Q 53.21875 48.921875 51.53125 44.890625 
Q 49.859375 40.875 45.40625 35.40625 
Q 44.1875 33.984375 37.640625 27.21875 
Q 31.109375 20.453125 19.1875 8.296875 
" id="BitstreamVeraSans-Roman-32"/>
      </defs>
      <g transform="translate(190.000982143 401.918125)scale(0.12 -0.12)">
       <use xlink:href="#BitstreamVeraSans-Roman-30"/>
       <use x="63.623046875" xlink:href="#BitstreamVeraSans-Roman-2e"/>
       <use x="95.41015625" xlink:href="#BitstreamVeraSans-Roman-32"/>
      </g>
     </g>
    </g>
    <g id="xtick_4">
     <g id="line2d_8">
      <g>
       <use style="stroke:#000000;stroke-width:0.5;" x="263.314285714" xlink:href="#m0ec2fec50a" y="388.8"/>
      </g>
     </g>
     <g id="line2d_9">
      <g>
       <use style="stroke:#000000;stroke-width:0.5;" x="263.314285714" xlink:href="#madbfe47026" y="43.2"/>
      </g>
     </g>
     <g id="text_4">
      <!-- 0.3 -->
      <defs>
       <path d="M 40.578125 39.3125 
Q 47.65625 37.796875 51.625 33 
Q 55.609375 28.21875 55.609375 21.1875 
Q 55.609375 10.40625 48.1875 4.484375 
Q 40.765625 -1.421875 27.09375 -1.421875 
Q 22.515625 -1.421875 17.65625 -0.515625 
Q 12.796875 0.390625 7.625 2.203125 
L 7.625 11.71875 
Q 11.71875 9.328125 16.59375 8.109375 
Q 21.484375 6.890625 26.8125 6.890625 
Q 36.078125 6.890625 40.9375 10.546875 
Q 45.796875 14.203125 45.796875 21.1875 
Q 45.796875 27.640625 41.28125 31.265625 
Q 36.765625 34.90625 28.71875 34.90625 
L 20.21875 34.90625 
L 20.21875 43.015625 
L 29.109375 43.015625 
Q 36.375 43.015625 40.234375 45.921875 
Q 44.09375 48.828125 44.09375 54.296875 
Q 44.09375 59.90625 40.109375 62.90625 
Q 36.140625 65.921875 28.71875 65.921875 
Q 24.65625 65.921875 20.015625 65.03125 
Q 15.375 64.15625 9.8125 62.3125 
L 9.8125 71.09375 
Q 15.4375 72.65625 20.34375 73.4375 
Q 25.25 74.21875 29.59375 74.21875 
Q 40.828125 74.21875 47.359375 69.109375 
Q 53.90625 64.015625 53.90625 55.328125 
Q 53.90625 49.265625 50.4375 45.09375 
Q 46.96875 40.921875 40.578125 39.3125 
" id="BitstreamVeraSans-Roman-33"/>
      </defs>
      <g transform="translate(253.772410714 401.918125)scale(0.12 -0.12)">
       <use xlink:href="#BitstreamVeraSans-Roman-30"/>
       <use x="63.623046875" xlink:href="#BitstreamVeraSans-Roman-2e"/>
       <use x="95.41015625" xlink:href="#BitstreamVeraSans-Roman-33"/>
      </g>
     </g>
    </g>
    <g id="xtick_5">
     <g id="line2d_10">
      <g>
       <use style="stroke:#000000;stroke-width:0.5;" x="327.085714286" xlink:href="#m0ec2fec50a" y="388.8"/>
      </g>
     </g>
     <g id="line2d_11">
      <g>
       <use style="stroke:#000000;stroke-width:0.5;" x="327.085714286" xlink:href="#madbfe47026" y="43.2"/>
      </g>
     </g>
     <g id="text_5">
      <!-- 0.4 -->
      <defs>
       <path d="M 37.796875 64.3125 
L 12.890625 25.390625 
L 37.796875 25.390625 
z
M 35.203125 72.90625 
L 47.609375 72.90625 
L 47.609375 25.390625 
L 58.015625 25.390625 
L 58.015625 17.1875 
L 47.609375 17.1875 
L 47.609375 0 
L 37.796875 0 
L 37.796875 17.1875 
L 4.890625 17.1875 
L 4.890625 26.703125 
z
" id="BitstreamVeraSans-Roman-34"/>
      </defs>
      <g transform="translate(317.543839286 401.918125)scale(0.12 -0.12)">
       <use xlink:href="#BitstreamVeraSans-Roman-30"/>
       <use x="63.623046875" xlink:href="#BitstreamVeraSans-Roman-2e"/>
       <use x="95.41015625" xlink:href="#BitstreamVeraSans-Roman-34"/>
      </g>
     </g>
    </g>
    <g id="xtick_6">
     <g id="line2d_12">
      <g>
       <use style="stroke:#000000;stroke-width:0.5;" x="390.857142857" xlink:href="#m0ec2fec50a" y="388.8"/>
      </g>
     </g>
     <g id="line2d_13">
      <g>
       <use style="stroke:#000000;stroke-width:0.5;" x="390.857142857" xlink:href="#madbfe47026" y="43.2"/>
      </g>
     </g>
     <g id="text_6">
      <!-- 0.5 -->
      <defs>
       <path d="M 10.796875 72.90625 
L 49.515625 72.90625 
L 49.515625 64.59375 
L 19.828125 64.59375 
L 19.828125 46.734375 
Q 21.96875 47.46875 24.109375 47.828125 
Q 26.265625 48.1875 28.421875 48.1875 
Q 40.625 48.1875 47.75 41.5 
Q 54.890625 34.8125 54.890625 23.390625 
Q 54.890625 11.625 47.5625 5.09375 
Q 40.234375 -1.421875 26.90625 -1.421875 
Q 22.3125 -1.421875 17.546875 -0.640625 
Q 12.796875 0.140625 7.71875 1.703125 
L 7.71875 11.625 
Q 12.109375 9.234375 16.796875 8.0625 
Q 21.484375 6.890625 26.703125 6.890625 
Q 35.15625 6.890625 40.078125 11.328125 
Q 45.015625 15.765625 45.015625 23.390625 
Q 45.015625 31 40.078125 35.4375 
Q 35.15625 39.890625 26.703125 39.890625 
Q 22.75 39.890625 18.8125 39.015625 
Q 14.890625 38.140625 10.796875 36.28125 
z
" id="BitstreamVeraSans-Roman-35"/>
      </defs>
      <g transform="translate(381.315267857 401.918125)scale(0.12 -0.12)">
       <use xlink:href="#BitstreamVeraSans-Roman-30"/>
       <use x="63.623046875" xlink:href="#BitstreamVeraSans-Roman-2e"/>
       <use x="95.41015625" xlink:href="#BitstreamVeraSans-Roman-35"/>
      </g>
     </g>
    </g>
    <g id="xtick_7">
     <g id="line2d_14">
      <g>
       <use style="stroke:#000000;stroke-width:0.5;" x="454.628571429" xlink:href="#m0ec2fec50a" y="388.8"/>
      </g>
     </g>
     <g id="line2d_15">
      <g>
       <use style="stroke:#000000;stroke-width:0.5;" x="454.628571429" xlink:href="#madbfe47026" y="43.2"/>
      </g>
     </g>
     <g id="text_7">
      <!-- 0.6 -->
      <defs>
       <path d="M 33.015625 40.375 
Q 26.375 40.375 22.484375 35.828125 
Q 18.609375 31.296875 18.609375 23.390625 
Q 18.609375 15.53125 22.484375 10.953125 
Q 26.375 6.390625 33.015625 6.390625 
Q 39.65625 6.390625 43.53125 10.953125 
Q 47.40625 15.53125 47.40625 23.390625 
Q 47.40625 31.296875 43.53125 35.828125 
Q 39.65625 40.375 33.015625 40.375 
M 52.59375 71.296875 
L 52.59375 62.3125 
Q 48.875 64.0625 45.09375 64.984375 
Q 41.3125 65.921875 37.59375 65.921875 
Q 27.828125 65.921875 22.671875 59.328125 
Q 17.53125 52.734375 16.796875 39.40625 
Q 19.671875 43.65625 24.015625 45.921875 
Q 28.375 48.1875 33.59375 48.1875 
Q 44.578125 48.1875 50.953125 41.515625 
Q 57.328125 34.859375 57.328125 23.390625 
Q 57.328125 12.15625 50.6875 5.359375 
Q 44.046875 -1.421875 33.015625 -1.421875 
Q 20.359375 -1.421875 13.671875 8.265625 
Q 6.984375 17.96875 6.984375 36.375 
Q 6.984375 53.65625 15.1875 63.9375 
Q 23.390625 74.21875 37.203125 74.21875 
Q 40.921875 74.21875 44.703125 73.484375 
Q 48.484375 72.75 52.59375 71.296875 
" id="BitstreamVeraSans-Roman-36"/>
      </defs>
      <g transform="translate(445.086696429 401.918125)scale(0.12 -0.12)">
       <use xlink:href="#BitstreamVeraSans-Roman-30"/>
       <use x="63.623046875" xlink:href="#BitstreamVeraSans-Roman-2e"/>
       <use x="95.41015625" xlink:href="#BitstreamVeraSans-Roman-36"/>
      </g>
     </g>
    </g>
    <g id="xtick_8">
     <g id="line2d_16">
      <g>
       <use style="stroke:#000000;stroke-width:0.5;" x="518.4" xlink:href="#m0ec2fec50a" y="388.8"/>
      </g>
     </g>
     <g id="line2d_17">
      <g>
       <use style="stroke:#000000;stroke-width:0.5;" x="518.4" xlink:href="#madbfe47026" y="43.2"/>
      </g>
     </g>
     <g id="text_8">
      <!-- 0.7 -->
      <defs>
       <path d="M 8.203125 72.90625 
L 55.078125 72.90625 
L 55.078125 68.703125 
L 28.609375 0 
L 18.3125 0 
L 43.21875 64.59375 
L 8.203125 64.59375 
z
" id="BitstreamVeraSans-Roman-37"/>
      </defs>
      <g transform="translate(508.858125 401.918125)scale(0.12 -0.12)">
       <use xlink:href="#BitstreamVeraSans-Roman-30"/>
       <use x="63.623046875" xlink:href="#BitstreamVeraSans-Roman-2e"/>
       <use x="95.41015625" xlink:href="#BitstreamVeraSans-Roman-37"/>
      </g>
     </g>
    </g>
    <g id="text_9">
     <!-- Resume duration (seconds) -->
     <defs>
      <path id="BitstreamVeraSans-Roman-20"/>
      <path d="M 54.890625 33.015625 
L 54.890625 0 
L 45.90625 0 
L 45.90625 32.71875 
Q 45.90625 40.484375 42.875 44.328125 
Q 39.84375 48.1875 33.796875 48.1875 
Q 26.515625 48.1875 22.3125 43.546875 
Q 18.109375 38.921875 18.109375 30.90625 
L 18.109375 0 
L 9.078125 0 
L 9.078125 54.6875 
L 18.109375 54.6875 
L 18.109375 46.1875 
Q 21.34375 51.125 25.703125 53.5625 
Q 30.078125 56 35.796875 56 
Q 45.21875 56 50.046875 50.171875 
Q 54.890625 44.34375 54.890625 33.015625 
" id="BitstreamVeraSans-Roman-6e"/>
      <path d="M 52 44.1875 
Q 55.375 50.25 60.0625 53.125 
Q 64.75 56 71.09375 56 
Q 79.640625 56 84.28125 50.015625 
Q 88.921875 44.046875 88.921875 33.015625 
L 88.921875 0 
L 79.890625 0 
L 79.890625 32.71875 
Q 79.890625 40.578125 77.09375 44.375 
Q 74.3125 48.1875 68.609375 48.1875 
Q 61.625 48.1875 57.5625 43.546875 
Q 53.515625 38.921875 53.515625 30.90625 
L 53.515625 0 
L 44.484375 0 
L 44.484375 32.71875 
Q 44.484375 40.625 41.703125 44.40625 
Q 38.921875 48.1875 33.109375 48.1875 
Q 26.21875 48.1875 22.15625 43.53125 
Q 18.109375 38.875 18.109375 30.90625 
L 18.109375 0 
L 9.078125 0 
L 9.078125 54.6875 
L 18.109375 54.6875 
L 18.109375 46.1875 
Q 21.1875 51.21875 25.484375 53.609375 
Q 29.78125 56 35.6875 56 
Q 41.65625 56 45.828125 52.96875 
Q 50 49.953125 52 44.1875 
" id="BitstreamVeraSans-Roman-6d"/>
      <path d="M 30.609375 48.390625 
Q 23.390625 48.390625 19.1875 42.75 
Q 14.984375 37.109375 14.984375 27.296875 
Q 14.984375 17.484375 19.15625 11.84375 
Q 23.34375 6.203125 30.609375 6.203125 
Q 37.796875 6.203125 41.984375 11.859375 
Q 46.1875 17.53125 46.1875 27.296875 
Q 46.1875 37.015625 41.984375 42.703125 
Q 37.796875 48.390625 30.609375 48.390625 
M 30.609375 56 
Q 42.328125 56 49.015625 48.375 
Q 55.71875 40.765625 55.71875 27.296875 
Q 55.71875 13.875 49.015625 6.21875 
Q 42.328125 -1.421875 30.609375 -1.421875 
Q 18.84375 -1.421875 12.171875 6.21875 
Q 5.515625 13.875 5.515625 27.296875 
Q 5.515625 40.765625 12.171875 48.375 
Q 18.84375 56 30.609375 56 
" id="BitstreamVeraSans-Roman-6f"/>
      <path d="M 18.3125 70.21875 
L 18.3125 54.6875 
L 36.8125 54.6875 
L 36.8125 47.703125 
L 18.3125 47.703125 
L 18.3125 18.015625 
Q 18.3125 11.328125 20.140625 9.421875 
Q 21.96875 7.515625 27.59375 7.515625 
L 36.8125 7.515625 
L 36.8125 0 
L 27.59375 0 
Q 17.1875 0 13.234375 3.875 
Q 9.28125 7.765625 9.28125 18.015625 
L 9.28125 47.703125 
L 2.6875 47.703125 
L 2.6875 54.6875 
L 9.28125 54.6875 
L 9.28125 70.21875 
z
" id="BitstreamVeraSans-Roman-74"/>
      <path d="M 8.015625 75.875 
L 15.828125 75.875 
Q 23.140625 64.359375 26.78125 53.3125 
Q 30.421875 42.28125 30.421875 31.390625 
Q 30.421875 20.453125 26.78125 9.375 
Q 23.140625 -1.703125 15.828125 -13.1875 
L 8.015625 -13.1875 
Q 14.5 -2 17.703125 9.0625 
Q 20.90625 20.125 20.90625 31.390625 
Q 20.90625 42.671875 17.703125 53.65625 
Q 14.5 64.65625 8.015625 75.875 
" id="BitstreamVeraSans-Roman-29"/>
      <path d="M 44.390625 34.1875 
Q 47.5625 33.109375 50.5625 29.59375 
Q 53.5625 26.078125 56.59375 19.921875 
L 66.609375 0 
L 56 0 
L 46.6875 18.703125 
Q 43.0625 26.03125 39.671875 28.421875 
Q 36.28125 30.8125 30.421875 30.8125 
L 19.671875 30.8125 
L 19.671875 0 
L 9.8125 0 
L 9.8125 72.90625 
L 32.078125 72.90625 
Q 44.578125 72.90625 50.734375 67.671875 
Q 56.890625 62.453125 56.890625 51.90625 
Q 56.890625 45.015625 53.6875 40.46875 
Q 50.484375 35.9375 44.390625 34.1875 
M 19.671875 64.796875 
L 19.671875 38.921875 
L 32.078125 38.921875 
Q 39.203125 38.921875 42.84375 42.21875 
Q 46.484375 45.515625 46.484375 51.90625 
Q 46.484375 58.296875 42.84375 61.546875 
Q 39.203125 64.796875 32.078125 64.796875 
z
" id="BitstreamVeraSans-Roman-52"/>
      <path d="M 9.421875 54.6875 
L 18.40625 54.6875 
L 18.40625 0 
L 9.421875 0 
z
M 9.421875 75.984375 
L 18.40625 75.984375 
L 18.40625 64.59375 
L 9.421875 64.59375 
z
" id="BitstreamVeraSans-Roman-69"/>
      <path d="M 31 75.875 
Q 24.46875 64.65625 21.28125 53.65625 
Q 18.109375 42.671875 18.109375 31.390625 
Q 18.109375 20.125 21.3125 9.0625 
Q 24.515625 -2 31 -13.1875 
L 23.1875 -13.1875 
Q 15.875 -1.703125 12.234375 9.375 
Q 8.59375 20.453125 8.59375 31.390625 
Q 8.59375 42.28125 12.203125 53.3125 
Q 15.828125 64.359375 23.1875 75.875 
z
" id="BitstreamVeraSans-Roman-28"/>
      <path d="M 56.203125 29.59375 
L 56.203125 25.203125 
L 14.890625 25.203125 
Q 15.484375 15.921875 20.484375 11.0625 
Q 25.484375 6.203125 34.421875 6.203125 
Q 39.59375 6.203125 44.453125 7.46875 
Q 49.3125 8.734375 54.109375 11.28125 
L 54.109375 2.78125 
Q 49.265625 0.734375 44.1875 -0.34375 
Q 39.109375 -1.421875 33.890625 -1.421875 
Q 20.796875 -1.421875 13.15625 6.1875 
Q 5.515625 13.8125 5.515625 26.8125 
Q 5.515625 40.234375 12.765625 48.109375 
Q 20.015625 56 32.328125 56 
Q 43.359375 56 49.78125 48.890625 
Q 56.203125 41.796875 56.203125 29.59375 
M 47.21875 32.234375 
Q 47.125 39.59375 43.09375 43.984375 
Q 39.0625 48.390625 32.421875 48.390625 
Q 24.90625 48.390625 20.390625 44.140625 
Q 15.875 39.890625 15.1875 32.171875 
z
" id="BitstreamVeraSans-Roman-65"/>
      <path d="M 45.40625 46.390625 
L 45.40625 75.984375 
L 54.390625 75.984375 
L 54.390625 0 
L 45.40625 0 
L 45.40625 8.203125 
Q 42.578125 3.328125 38.25 0.953125 
Q 33.9375 -1.421875 27.875 -1.421875 
Q 17.96875 -1.421875 11.734375 6.484375 
Q 5.515625 14.40625 5.515625 27.296875 
Q 5.515625 40.1875 11.734375 48.09375 
Q 17.96875 56 27.875 56 
Q 33.9375 56 38.25 53.625 
Q 42.578125 51.265625 45.40625 46.390625 
M 14.796875 27.296875 
Q 14.796875 17.390625 18.875 11.75 
Q 22.953125 6.109375 30.078125 6.109375 
Q 37.203125 6.109375 41.296875 11.75 
Q 45.40625 17.390625 45.40625 27.296875 
Q 45.40625 37.203125 41.296875 42.84375 
Q 37.203125 48.484375 30.078125 48.484375 
Q 22.953125 48.484375 18.875 42.84375 
Q 14.796875 37.203125 14.796875 27.296875 
" id="BitstreamVeraSans-Roman-64"/>
      <path d="M 34.28125 27.484375 
Q 23.390625 27.484375 19.1875 25 
Q 14.984375 22.515625 14.984375 16.5 
Q 14.984375 11.71875 18.140625 8.90625 
Q 21.296875 6.109375 26.703125 6.109375 
Q 34.1875 6.109375 38.703125 11.40625 
Q 43.21875 16.703125 43.21875 25.484375 
L 43.21875 27.484375 
z
M 52.203125 31.203125 
L 52.203125 0 
L 43.21875 0 
L 43.21875 8.296875 
Q 40.140625 3.328125 35.546875 0.953125 
Q 30.953125 -1.421875 24.3125 -1.421875 
Q 15.921875 -1.421875 10.953125 3.296875 
Q 6 8.015625 6 15.921875 
Q 6 25.140625 12.171875 29.828125 
Q 18.359375 34.515625 30.609375 34.515625 
L 43.21875 34.515625 
L 43.21875 35.40625 
Q 43.21875 41.609375 39.140625 45 
Q 35.0625 48.390625 27.6875 48.390625 
Q 23 48.390625 18.546875 47.265625 
Q 14.109375 46.140625 10.015625 43.890625 
L 10.015625 52.203125 
Q 14.9375 54.109375 19.578125 55.046875 
Q 24.21875 56 28.609375 56 
Q 40.484375 56 46.34375 49.84375 
Q 52.203125 43.703125 52.203125 31.203125 
" id="BitstreamVeraSans-Roman-61"/>
      <path d="M 8.5 21.578125 
L 8.5 54.6875 
L 17.484375 54.6875 
L 17.484375 21.921875 
Q 17.484375 14.15625 20.5 10.265625 
Q 23.53125 6.390625 29.59375 6.390625 
Q 36.859375 6.390625 41.078125 11.03125 
Q 45.3125 15.671875 45.3125 23.6875 
L 45.3125 54.6875 
L 54.296875 54.6875 
L 54.296875 0 
L 45.3125 0 
L 45.3125 8.40625 
Q 42.046875 3.421875 37.71875 1 
Q 33.40625 -1.421875 27.6875 -1.421875 
Q 18.265625 -1.421875 13.375 4.4375 
Q 8.5 10.296875 8.5 21.578125 
" id="BitstreamVeraSans-Roman-75"/>
      <path d="M 41.109375 46.296875 
Q 39.59375 47.171875 37.8125 47.578125 
Q 36.03125 48 33.890625 48 
Q 26.265625 48 22.1875 43.046875 
Q 18.109375 38.09375 18.109375 28.8125 
L 18.109375 0 
L 9.078125 0 
L 9.078125 54.6875 
L 18.109375 54.6875 
L 18.109375 46.1875 
Q 20.953125 51.171875 25.484375 53.578125 
Q 30.03125 56 36.53125 56 
Q 37.453125 56 38.578125 55.875 
Q 39.703125 55.765625 41.0625 55.515625 
z
" id="BitstreamVeraSans-Roman-72"/>
      <path d="M 44.28125 53.078125 
L 44.28125 44.578125 
Q 40.484375 46.53125 36.375 47.5 
Q 32.28125 48.484375 27.875 48.484375 
Q 21.1875 48.484375 17.84375 46.4375 
Q 14.5 44.390625 14.5 40.28125 
Q 14.5 37.15625 16.890625 35.375 
Q 19.28125 33.59375 26.515625 31.984375 
L 29.59375 31.296875 
Q 39.15625 29.25 43.1875 25.515625 
Q 47.21875 21.78125 47.21875 15.09375 
Q 47.21875 7.46875 41.1875 3.015625 
Q 35.15625 -1.421875 24.609375 -1.421875 
Q 20.21875 -1.421875 15.453125 -0.5625 
Q 10.6875 0.296875 5.421875 2 
L 5.421875 11.28125 
Q 10.40625 8.6875 15.234375 7.390625 
Q 20.0625 6.109375 24.8125 6.109375 
Q 31.15625 6.109375 34.5625 8.28125 
Q 37.984375 10.453125 37.984375 14.40625 
Q 37.984375 18.0625 35.515625 20.015625 
Q 33.0625 21.96875 24.703125 23.78125 
L 21.578125 24.515625 
Q 13.234375 26.265625 9.515625 29.90625 
Q 5.8125 33.546875 5.8125 39.890625 
Q 5.8125 47.609375 11.28125 51.796875 
Q 16.75 56 26.8125 56 
Q 31.78125 56 36.171875 55.265625 
Q 40.578125 54.546875 44.28125 53.078125 
" id="BitstreamVeraSans-Roman-73"/>
      <path d="M 48.78125 52.59375 
L 48.78125 44.1875 
Q 44.96875 46.296875 41.140625 47.34375 
Q 37.3125 48.390625 33.40625 48.390625 
Q 24.65625 48.390625 19.8125 42.84375 
Q 14.984375 37.3125 14.984375 27.296875 
Q 14.984375 17.28125 19.8125 11.734375 
Q 24.65625 6.203125 33.40625 6.203125 
Q 37.3125 6.203125 41.140625 7.25 
Q 44.96875 8.296875 48.78125 10.40625 
L 48.78125 2.09375 
Q 45.015625 0.34375 40.984375 -0.53125 
Q 36.96875 -1.421875 32.421875 -1.421875 
Q 20.0625 -1.421875 12.78125 6.34375 
Q 5.515625 14.109375 5.515625 27.296875 
Q 5.515625 40.671875 12.859375 48.328125 
Q 20.21875 56 33.015625 56 
Q 37.15625 56 41.109375 55.140625 
Q 45.0625 54.296875 48.78125 52.59375 
" id="BitstreamVeraSans-Roman-63"/>
     </defs>
     <g transform="translate(212.61 418.531875)scale(0.12 -0.12)">
      <use xlink:href="#BitstreamVeraSans-Roman-52"/>
      <use x="69.419921875" xlink:href="#BitstreamVeraSans-Roman-65"/>
      <use x="130.943359375" xlink:href="#BitstreamVeraSans-Roman-73"/>
      <use x="183.04296875" xlink:href="#BitstreamVeraSans-Roman-75"/>
      <use x="246.421875" xlink:href="#BitstreamVeraSans-Roman-6d"/>
      <use x="343.833984375" xlink:href="#BitstreamVeraSans-Roman-65"/>
      <use x="405.357421875" xlink:href="#BitstreamVeraSans-Roman-20"/>
      <use x="437.14453125" xlink:href="#BitstreamVeraSans-Roman-64"/>
      <use x="500.62109375" xlink:href="#BitstreamVeraSans-Roman-75"/>
      <use x="564.0" xlink:href="#BitstreamVeraSans-Roman-72"/>
      <use x="605.11328125" xlink:href="#BitstreamVeraSans-Roman-61"/>
      <use x="666.392578125" xlink:href="#BitstreamVeraSans-Roman-74"/>
      <use x="705.6015625" xlink:href="#BitstreamVeraSans-Roman-69"/>
      <use x="733.384765625" xlink:href="#BitstreamVeraSans-Roman-6f"/>
      <use x="794.56640625" xlink:href="#BitstreamVeraSans-Roman-6e"/>
      <use x="857.9453125" xlink:href="#BitstreamVeraSans-Roman-20"/>
      <use x="889.732421875" xlink:href="#BitstreamVeraSans-Roman-28"/>
      <use x="928.74609375" xlink:href="#BitstreamVeraSans-Roman-73"/>
      <use x="980.845703125" xlink:href="#BitstreamVeraSans-Roman-65"/>
      <use x="1042.36914062" xlink:href="#BitstreamVeraSans-Roman-63"/>
      <use x="1097.34960938" xlink:href="#BitstreamVeraSans-Roman-6f"/>
      <use x="1158.53125" xlink:href="#BitstreamVeraSans-Roman-6e"/>
      <use x="1221.91015625" xlink:href="#BitstreamVeraSans-Roman-64"/>
      <use x="1285.38671875" xlink:href="#BitstreamVeraSans-Roman-73"/>
      <use x="1337.48632812" xlink:href="#BitstreamVeraSans-Roman-29"/>
     </g>
    </g>
   </g>
   <g id="matplotlib.axis_2">
    <g id="ytick_1">
     <g id="line2d_18">
      <defs>
       <path d="M 0 0 
L 4 0 
" id="m65ad7ac68a" style="stroke:#000000;stroke-width:0.5;"/>
      </defs>
      <g>
       <use style="stroke:#000000;stroke-width:0.5;" x="72.0" xlink:href="#m65ad7ac68a" y="388.8"/>
      </g>
     </g>
     <g id="line2d_19">
      <defs>
       <path d="M 0 0 
L -4 0 
" id="m3955f3e494" style="stroke:#000000;stroke-width:0.5;"/>
      </defs>
      <g>
       <use style="stroke:#000000;stroke-width:0.5;" x="518.4" xlink:href="#m3955f3e494" y="388.8"/>
      </g>
     </g>
     <g id="text_10">
      <!-- 0.0 -->
      <g transform="translate(48.91625 392.11125)scale(0.12 -0.12)">
       <use xlink:href="#BitstreamVeraSans-Roman-30"/>
       <use x="63.623046875" xlink:href="#BitstreamVeraSans-Roman-2e"/>
       <use x="95.41015625" xlink:href="#BitstreamVeraSans-Roman-30"/>
      </g>
     </g>
    </g>
    <g id="ytick_2">
     <g id="line2d_20">
      <g>
       <use style="stroke:#000000;stroke-width:0.5;" x="72.0" xlink:href="#m65ad7ac68a" y="319.68"/>
      </g>
     </g>
     <g id="line2d_21">
      <g>
       <use style="stroke:#000000;stroke-width:0.5;" x="518.4" xlink:href="#m3955f3e494" y="319.68"/>
      </g>
     </g>
     <g id="text_11">
      <!-- 0.2 -->
      <g transform="translate(48.91625 322.99125)scale(0.12 -0.12)">
       <use xlink:href="#BitstreamVeraSans-Roman-30"/>
       <use x="63.623046875" xlink:href="#BitstreamVeraSans-Roman-2e"/>
       <use x="95.41015625" xlink:href="#BitstreamVeraSans-Roman-32"/>
      </g>
     </g>
    </g>
    <g id="ytick_3">
     <g id="line2d_22">
      <g>
       <use style="stroke:#000000;stroke-width:0.5;" x="72.0" xlink:href="#m65ad7ac68a" y="250.56"/>
      </g>
     </g>
     <g id="line2d_23">
      <g>
       <use style="stroke:#000000;stroke-width:0.5;" x="518.4" xlink:href="#m3955f3e494" y="250.56"/>
      </g>
     </g>
     <g id="text_12">
      <!-- 0.4 -->
      <g transform="translate(48.91625 253.87125)scale(0.12 -0.12)">
       <use xlink:href="#BitstreamVeraSans-Roman-30"/>
       <use x="63.623046875" xlink:href="#BitstreamVeraSans-Roman-2e"/>
       <use x="95.41015625" xlink:href="#BitstreamVeraSans-Roman-34"/>
      </g>
     </g>
    </g>
    <g id="ytick_4">
     <g id="line2d_24">
      <g>
       <use style="stroke:#000000;stroke-width:0.5;" x="72.0" xlink:href="#m65ad7ac68a" y="181.44"/>
      </g>
     </g>
     <g id="line2d_25">
      <g>
       <use style="stroke:#000000;stroke-width:0.5;" x="518.4" xlink:href="#m3955f3e494" y="181.44"/>
      </g>
     </g>
     <g id="text_13">
      <!-- 0.6 -->
      <g transform="translate(48.91625 184.75125)scale(0.12 -0.12)">
       <use xlink:href="#BitstreamVeraSans-Roman-30"/>
       <use x="63.623046875" xlink:href="#BitstreamVeraSans-Roman-2e"/>
       <use x="95.41015625" xlink:href="#BitstreamVeraSans-Roman-36"/>
      </g>
     </g>
    </g>
    <g id="ytick_5">
     <g id="line2d_26">
      <g>
       <use style="stroke:#000000;stroke-width:0.5;" x="72.0" xlink:href="#m65ad7ac68a" y="112.32"/>
      </g>
     </g>
     <g id="line2d_27">
      <g>
       <use style="stroke:#000000;stroke-width:0.5;" x="518.4" xlink:href="#m3955f3e494" y="112.32"/>
      </g>
     </g>
     <g id="text_14">
      <!-- 0.8 -->
      <defs>
       <path d="M 31.78125 34.625 
Q 24.75 34.625 20.71875 30.859375 
Q 16.703125 27.09375 16.703125 20.515625 
Q 16.703125 13.921875 20.71875 10.15625 
Q 24.75 6.390625 31.78125 6.390625 
Q 38.8125 6.390625 42.859375 10.171875 
Q 46.921875 13.96875 46.921875 20.515625 
Q 46.921875 27.09375 42.890625 30.859375 
Q 38.875 34.625 31.78125 34.625 
M 21.921875 38.8125 
Q 15.578125 40.375 12.03125 44.71875 
Q 8.5 49.078125 8.5 55.328125 
Q 8.5 64.0625 14.71875 69.140625 
Q 20.953125 74.21875 31.78125 74.21875 
Q 42.671875 74.21875 48.875 69.140625 
Q 55.078125 64.0625 55.078125 55.328125 
Q 55.078125 49.078125 51.53125 44.71875 
Q 48 40.375 41.703125 38.8125 
Q 48.828125 37.15625 52.796875 32.3125 
Q 56.78125 27.484375 56.78125 20.515625 
Q 56.78125 9.90625 50.3125 4.234375 
Q 43.84375 -1.421875 31.78125 -1.421875 
Q 19.734375 -1.421875 13.25 4.234375 
Q 6.78125 9.90625 6.78125 20.515625 
Q 6.78125 27.484375 10.78125 32.3125 
Q 14.796875 37.15625 21.921875 38.8125 
M 18.3125 54.390625 
Q 18.3125 48.734375 21.84375 45.5625 
Q 25.390625 42.390625 31.78125 42.390625 
Q 38.140625 42.390625 41.71875 45.5625 
Q 45.3125 48.734375 45.3125 54.390625 
Q 45.3125 60.0625 41.71875 63.234375 
Q 38.140625 66.40625 31.78125 66.40625 
Q 25.390625 66.40625 21.84375 63.234375 
Q 18.3125 60.0625 18.3125 54.390625 
" id="BitstreamVeraSans-Roman-38"/>
      </defs>
      <g transform="translate(48.91625 115.63125)scale(0.12 -0.12)">
       <use xlink:href="#BitstreamVeraSans-Roman-30"/>
       <use x="63.623046875" xlink:href="#BitstreamVeraSans-Roman-2e"/>
       <use x="95.41015625" xlink:href="#BitstreamVeraSans-Roman-38"/>
      </g>
     </g>
    </g>
    <g id="ytick_6">
     <g id="line2d_28">
      <g>
       <use style="stroke:#000000;stroke-width:0.5;" x="72.0" xlink:href="#m65ad7ac68a" y="43.2"/>
      </g>
     </g>
     <g id="line2d_29">
      <g>
       <use style="stroke:#000000;stroke-width:0.5;" x="518.4" xlink:href="#m3955f3e494" y="43.2"/>
      </g>
     </g>
     <g id="text_15">
      <!-- 1.0 -->
      <g transform="translate(48.91625 46.51125)scale(0.12 -0.12)">
       <use xlink:href="#BitstreamVeraSans-Roman-31"/>
       <use x="63.623046875" xlink:href="#BitstreamVeraSans-Roman-2e"/>
       <use x="95.41015625" xlink:href="#BitstreamVeraSans-Roman-30"/>
      </g>
     </g>
    </g>
   </g>
   <g id="text_16">
    <!-- CDF of seek delays for Verizon LTE short 720p (1022 datapoints) -->
    <defs>
     <path d="M 5.515625 54.6875 
L 48.1875 54.6875 
L 48.1875 46.484375 
L 14.40625 7.171875 
L 48.1875 7.171875 
L 48.1875 0 
L 4.296875 0 
L 4.296875 8.203125 
L 38.09375 47.515625 
L 5.515625 47.515625 
z
" id="BitstreamVeraSans-Roman-7a"/>
     <path d="M 9.8125 72.90625 
L 19.671875 72.90625 
L 19.671875 8.296875 
L 55.171875 8.296875 
L 55.171875 0 
L 9.8125 0 
z
" id="BitstreamVeraSans-Roman-4c"/>
     <path d="M 9.421875 75.984375 
L 18.40625 75.984375 
L 18.40625 0 
L 9.421875 0 
z
" id="BitstreamVeraSans-Roman-6c"/>
     <path d="M 9.078125 75.984375 
L 18.109375 75.984375 
L 18.109375 31.109375 
L 44.921875 54.6875 
L 56.390625 54.6875 
L 27.390625 29.109375 
L 57.625 0 
L 45.90625 0 
L 18.109375 26.703125 
L 18.109375 0 
L 9.078125 0 
z
" id="BitstreamVeraSans-Roman-6b"/>
     <path d="M 9.8125 72.90625 
L 51.703125 72.90625 
L 51.703125 64.59375 
L 19.671875 64.59375 
L 19.671875 43.109375 
L 48.578125 43.109375 
L 48.578125 34.8125 
L 19.671875 34.8125 
L 19.671875 0 
L 9.8125 0 
z
" id="BitstreamVeraSans-Roman-46"/>
     <path d="M 9.8125 72.90625 
L 55.90625 72.90625 
L 55.90625 64.59375 
L 19.671875 64.59375 
L 19.671875 43.015625 
L 54.390625 43.015625 
L 54.390625 34.71875 
L 19.671875 34.71875 
L 19.671875 8.296875 
L 56.78125 8.296875 
L 56.78125 0 
L 9.8125 0 
z
" id="BitstreamVeraSans-Roman-45"/>
     <path d="M 19.671875 64.796875 
L 19.671875 8.109375 
L 31.59375 8.109375 
Q 46.6875 8.109375 53.6875 14.9375 
Q 60.6875 21.78125 60.6875 36.53125 
Q 60.6875 51.171875 53.6875 57.984375 
Q 46.6875 64.796875 31.59375 64.796875 
z
M 9.8125 72.90625 
L 30.078125 72.90625 
Q 51.265625 72.90625 61.171875 64.09375 
Q 71.09375 55.28125 71.09375 36.53125 
Q 71.09375 17.671875 61.125 8.828125 
Q 51.171875 0 30.078125 0 
L 9.8125 0 
z
" id="BitstreamVeraSans-Roman-44"/>
     <path d="M 64.40625 67.28125 
L 64.40625 56.890625 
Q 59.421875 61.53125 53.78125 63.8125 
Q 48.140625 66.109375 41.796875 66.109375 
Q 29.296875 66.109375 22.65625 58.46875 
Q 16.015625 50.828125 16.015625 36.375 
Q 16.015625 21.96875 22.65625 14.328125 
Q 29.296875 6.6875 41.796875 6.6875 
Q 48.140625 6.6875 53.78125 8.984375 
Q 59.421875 11.28125 64.40625 15.921875 
L 64.40625 5.609375 
Q 59.234375 2.09375 53.4375 0.328125 
Q 47.65625 -1.421875 41.21875 -1.421875 
Q 24.65625 -1.421875 15.125 8.703125 
Q 5.609375 18.84375 5.609375 36.375 
Q 5.609375 53.953125 15.125 64.078125 
Q 24.65625 74.21875 41.21875 74.21875 
Q 47.75 74.21875 53.53125 72.484375 
Q 59.328125 70.75 64.40625 67.28125 
" id="BitstreamVeraSans-Roman-43"/>
     <path d="M 54.890625 33.015625 
L 54.890625 0 
L 45.90625 0 
L 45.90625 32.71875 
Q 45.90625 40.484375 42.875 44.328125 
Q 39.84375 48.1875 33.796875 48.1875 
Q 26.515625 48.1875 22.3125 43.546875 
Q 18.109375 38.921875 18.109375 30.90625 
L 18.109375 0 
L 9.078125 0 
L 9.078125 75.984375 
L 18.109375 75.984375 
L 18.109375 46.1875 
Q 21.34375 51.125 25.703125 53.5625 
Q 30.078125 56 35.796875 56 
Q 45.21875 56 50.046875 50.171875 
Q 54.890625 44.34375 54.890625 33.015625 
" id="BitstreamVeraSans-Roman-68"/>
     <path d="M 28.609375 0 
L 0.78125 72.90625 
L 11.078125 72.90625 
L 34.1875 11.53125 
L 57.328125 72.90625 
L 67.578125 72.90625 
L 39.796875 0 
z
" id="BitstreamVeraSans-Roman-56"/>
     <path d="M 32.171875 -5.078125 
Q 28.375 -14.84375 24.75 -17.8125 
Q 21.140625 -20.796875 15.09375 -20.796875 
L 7.90625 -20.796875 
L 7.90625 -13.28125 
L 13.1875 -13.28125 
Q 16.890625 -13.28125 18.9375 -11.515625 
Q 21 -9.765625 23.484375 -3.21875 
L 25.09375 0.875 
L 2.984375 54.6875 
L 12.5 54.6875 
L 29.59375 11.921875 
L 46.6875 54.6875 
L 56.203125 54.6875 
z
" id="BitstreamVeraSans-Roman-79"/>
     <path d="M -0.296875 72.90625 
L 61.375 72.90625 
L 61.375 64.59375 
L 35.5 64.59375 
L 35.5 0 
L 25.59375 0 
L 25.59375 64.59375 
L -0.296875 64.59375 
z
" id="BitstreamVeraSans-Roman-54"/>
     <path d="M 37.109375 75.984375 
L 37.109375 68.5 
L 28.515625 68.5 
Q 23.6875 68.5 21.796875 66.546875 
Q 19.921875 64.59375 19.921875 59.515625 
L 19.921875 54.6875 
L 34.71875 54.6875 
L 34.71875 47.703125 
L 19.921875 47.703125 
L 19.921875 0 
L 10.890625 0 
L 10.890625 47.703125 
L 2.296875 47.703125 
L 2.296875 54.6875 
L 10.890625 54.6875 
L 10.890625 58.5 
Q 10.890625 67.625 15.140625 71.796875 
Q 19.390625 75.984375 28.609375 75.984375 
z
" id="BitstreamVeraSans-Roman-66"/>
     <path d="M 18.109375 8.203125 
L 18.109375 -20.796875 
L 9.078125 -20.796875 
L 9.078125 54.6875 
L 18.109375 54.6875 
L 18.109375 46.390625 
Q 20.953125 51.265625 25.265625 53.625 
Q 29.59375 56 35.59375 56 
Q 45.5625 56 51.78125 48.09375 
Q 58.015625 40.1875 58.015625 27.296875 
Q 58.015625 14.40625 51.78125 6.484375 
Q 45.5625 -1.421875 35.59375 -1.421875 
Q 29.59375 -1.421875 25.265625 0.953125 
Q 20.953125 3.328125 18.109375 8.203125 
M 48.6875 27.296875 
Q 48.6875 37.203125 44.609375 42.84375 
Q 40.53125 48.484375 33.40625 48.484375 
Q 26.265625 48.484375 22.1875 42.84375 
Q 18.109375 37.203125 18.109375 27.296875 
Q 18.109375 17.390625 22.1875 11.75 
Q 26.265625 6.109375 33.40625 6.109375 
Q 40.53125 6.109375 44.609375 11.75 
Q 48.6875 17.390625 48.6875 27.296875 
" id="BitstreamVeraSans-Roman-70"/>
    </defs>
    <g transform="translate(61.47 38.2)scale(0.144 -0.144)">
     <use xlink:href="#BitstreamVeraSans-Roman-43"/>
     <use x="69.82421875" xlink:href="#BitstreamVeraSans-Roman-44"/>
     <use x="146.826171875" xlink:href="#BitstreamVeraSans-Roman-46"/>
     <use x="204.345703125" xlink:href="#BitstreamVeraSans-Roman-20"/>
     <use x="236.1328125" xlink:href="#BitstreamVeraSans-Roman-6f"/>
     <use x="297.314453125" xlink:href="#BitstreamVeraSans-Roman-66"/>
     <use x="332.51953125" xlink:href="#BitstreamVeraSans-Roman-20"/>
     <use x="364.306640625" xlink:href="#BitstreamVeraSans-Roman-73"/>
     <use x="416.40625" xlink:href="#BitstreamVeraSans-Roman-65"/>
     <use x="477.9296875" xlink:href="#BitstreamVeraSans-Roman-65"/>
     <use x="539.453125" xlink:href="#BitstreamVeraSans-Roman-6b"/>
     <use x="597.36328125" xlink:href="#BitstreamVeraSans-Roman-20"/>
     <use x="629.150390625" xlink:href="#BitstreamVeraSans-Roman-64"/>
     <use x="692.626953125" xlink:href="#BitstreamVeraSans-Roman-65"/>
     <use x="754.150390625" xlink:href="#BitstreamVeraSans-Roman-6c"/>
     <use x="781.93359375" xlink:href="#BitstreamVeraSans-Roman-61"/>
     <use x="843.212890625" xlink:href="#BitstreamVeraSans-Roman-79"/>
     <use x="902.392578125" xlink:href="#BitstreamVeraSans-Roman-73"/>
     <use x="954.4921875" xlink:href="#BitstreamVeraSans-Roman-20"/>
     <use x="986.279296875" xlink:href="#BitstreamVeraSans-Roman-66"/>
     <use x="1021.484375" xlink:href="#BitstreamVeraSans-Roman-6f"/>
     <use x="1082.66601562" xlink:href="#BitstreamVeraSans-Roman-72"/>
     <use x="1123.77929688" xlink:href="#BitstreamVeraSans-Roman-20"/>
     <use x="1155.56640625" xlink:href="#BitstreamVeraSans-Roman-56"/>
     <use x="1223.86523438" xlink:href="#BitstreamVeraSans-Roman-65"/>
     <use x="1285.38867188" xlink:href="#BitstreamVeraSans-Roman-72"/>
     <use x="1326.50195312" xlink:href="#BitstreamVeraSans-Roman-69"/>
     <use x="1354.28515625" xlink:href="#BitstreamVeraSans-Roman-7a"/>
     <use x="1406.77539062" xlink:href="#BitstreamVeraSans-Roman-6f"/>
     <use x="1467.95703125" xlink:href="#BitstreamVeraSans-Roman-6e"/>
     <use x="1531.3359375" xlink:href="#BitstreamVeraSans-Roman-20"/>
     <use x="1563.12304688" xlink:href="#BitstreamVeraSans-Roman-4c"/>
     <use x="1618.6328125" xlink:href="#BitstreamVeraSans-Roman-54"/>
     <use x="1679.71679688" xlink:href="#BitstreamVeraSans-Roman-45"/>
     <use x="1742.90039062" xlink:href="#BitstreamVeraSans-Roman-20"/>
     <use x="1774.6875" xlink:href="#BitstreamVeraSans-Roman-73"/>
     <use x="1826.78710938" xlink:href="#BitstreamVeraSans-Roman-68"/>
     <use x="1890.16601562" xlink:href="#BitstreamVeraSans-Roman-6f"/>
     <use x="1951.34765625" xlink:href="#BitstreamVeraSans-Roman-72"/>
     <use x="1992.4609375" xlink:href="#BitstreamVeraSans-Roman-74"/>
     <use x="2031.66992188" xlink:href="#BitstreamVeraSans-Roman-20"/>
     <use x="2063.45703125" xlink:href="#BitstreamVeraSans-Roman-37"/>
     <use x="2127.08007812" xlink:href="#BitstreamVeraSans-Roman-32"/>
     <use x="2190.703125" xlink:href="#BitstreamVeraSans-Roman-30"/>
     <use x="2254.32617188" xlink:href="#BitstreamVeraSans-Roman-70"/>
     <use x="2317.80273438" xlink:href="#BitstreamVeraSans-Roman-20"/>
     <use x="2349.58984375" xlink:href="#BitstreamVeraSans-Roman-28"/>
     <use x="2388.60351562" xlink:href="#BitstreamVeraSans-Roman-31"/>
     <use x="2452.2265625" xlink:href="#BitstreamVeraSans-Roman-30"/>
     <use x="2515.84960938" xlink:href="#BitstreamVeraSans-Roman-32"/>
     <use x="2579.47265625" xlink:href="#BitstreamVeraSans-Roman-32"/>
     <use x="2643.09570312" xlink:href="#BitstreamVeraSans-Roman-20"/>
     <use x="2674.8828125" xlink:href="#BitstreamVeraSans-Roman-64"/>
     <use x="2738.359375" xlink:href="#BitstreamVeraSans-Roman-61"/>
     <use x="2799.63867188" xlink:href="#BitstreamVeraSans-Roman-74"/>
     <use x="2838.84765625" xlink:href="#BitstreamVeraSans-Roman-61"/>
     <use x="2900.12695312" xlink:href="#BitstreamVeraSans-Roman-70"/>
     <use x="2963.60351562" xlink:href="#BitstreamVeraSans-Roman-6f"/>
     <use x="3024.78515625" xlink:href="#BitstreamVeraSans-Roman-69"/>
     <use x="3052.56835938" xlink:href="#BitstreamVeraSans-Roman-6e"/>
     <use x="3115.94726562" xlink:href="#BitstreamVeraSans-Roman-74"/>
     <use x="3155.15625" xlink:href="#BitstreamVeraSans-Roman-73"/>
     <use x="3207.25585938" xlink:href="#BitstreamVeraSans-Roman-29"/>
    </g>
   </g>
  </g>
 </g>
 <defs>
  <clipPath id="p3a99cfd773">
   <rect height="345.6" width="446.4" x="72.0" y="43.2"/>
  </clipPath>
 </defs>
</svg>
