<?xml version="1.0" encoding="utf-8" standalone="no"?>
<!DOCTYPE svg PUBLIC "-//W3C//DTD SVG 1.1//EN"
  "http://www.w3.org/Graphics/SVG/1.1/DTD/svg11.dtd">
<!-- Created with matplotlib (http://matplotlib.org/) -->
<svg height="432pt" version="1.1" viewBox="0 0 576 432" width="576pt" xmlns="http://www.w3.org/2000/svg" xmlns:xlink="http://www.w3.org/1999/xlink">
 <defs>
  <style type="text/css">
*{stroke-linecap:butt;stroke-linejoin:round;stroke-miterlimit:100000;}
  </style>
 </defs>
 <g id="figure_1">
  <g id="patch_1">
   <path d="M 0 432 
L 576 432 
L 576 0 
L 0 0 
z
" style="fill:#ffffff;"/>
  </g>
  <g id="axes_1">
   <g id="patch_2">
    <path d="M 72 388.8 
L 518.4 388.8 
L 518.4 43.2 
L 72 43.2 
z
" style="fill:#ffffff;"/>
   </g>
   <g id="line2d_1">
    <path clip-path="url(#p93beb410df)" d="M -1 43.200035 
L 82.194699 43.200035 
L 130.028908 43.311132 
L 130.138568 43.55192 
L 130.16193 43.663304 
L 130.272745 45.438577 
L 130.277115 45.549746 
L 130.387668 51.999556 
L 130.390573 52.110732 
L 130.500868 56.583269 
L 130.508116 56.694542 
L 130.618143 57.646787 
L 130.657172 57.758819 
L 130.766863 57.912307 
L 138.345307 57.987103 
L 149.752365 58.099302 
L 149.863321 58.679748 
L 149.871098 58.791199 
L 149.981783 67.192419 
L 149.982752 67.303728 
L 150.093183 108.082517 
L 150.09415 108.200947 
L 150.204327 142.829544 
L 150.206258 143.067173 
L 150.317144 156.509186 
L 150.325811 156.947245 
L 150.436424 159.434855 
L 151.01992 161.362166 
L 152.232028 162.01862 
L 153.114576 162.133708 
L 163.925915 162.700364 
L 164.057386 162.777977 
L 172.383329 164.34799 
L 172.538245 164.382467 
L 174.497237 164.730312 
L 175.062364 164.866004 
L 175.452119 164.941761 
L 176.582763 165.160427 
L 178.092222 165.433049 
L 178.683192 165.604563 
L 179.677111 165.793248 
L 180.339984 165.941159 
L 181.247947 166.138191 
L 182.458837 166.423618 
L 183.603877 166.773427 
L 183.766924 166.906091 
L 184.508434 167.106639 
L 185.044397 167.297783 
L 185.161395 167.337349 
L 185.518161 167.490647 
L 186.172458 167.685261 
L 186.284476 167.725549 
L 187.542343 168.085727 
L 188.209289 168.250393 
L 188.971845 168.422284 
L 190.216421 168.577573 
L 190.782647 168.643612 
L 191.649133 168.8551 
L 191.909109 168.928094 
L 194.049306 169.117818 
L 199.047621 169.265862 
L 213.847503 169.596462 
L 214.622093 169.615328 
L 218.705396 169.74786 
L 234.077218 170.318818 
L 234.087652 170.325321 
L 239.457171 170.521316 
L 239.618866 170.587048 
L 247.670161 170.892038 
L 247.681143 170.898716 
L 249.913485 171.059631 
L 252.052832 171.269282 
L 254.653312 171.405637 
L 254.676578 171.453567 
L 264.735572 172.072489 
L 264.741206 172.107796 
L 269.06939 172.363735 
L 269.09315 172.413857 
L 271.766279 172.593829 
L 271.783726 172.658991 
L 274.316284 172.906959 
L 274.412089 172.943668 
L 276.747883 173.091136 
L 279.671847 173.276909 
L 280.171913 173.359161 
L 281.262911 173.494441 
L 281.429074 173.524619 
L 281.964757 173.562402 
L 283.362936 173.714203 
L 283.434658 173.767588 
L 285.709953 173.959341 
L 285.95404 173.982467 
L 287.892958 174.176161 
L 298.325885 175.2371 
L 298.329974 175.253461 
L 300.546243 175.500394 
L 300.636442 175.533534 
L 301.528043 175.641595 
L 303.359844 175.834124 
L 303.478884 175.859364 
L 303.677449 175.893065 
L 304.698512 176.036884 
L 304.704886 176.096386 
L 306.043067 176.267305 
L 307.29207 176.422306 
L 308.536939 176.552335 
L 309.747044 176.726943 
L 312.728984 177.178738 
L 312.740461 177.187693 
L 313.721372 177.322462 
L 314.646171 177.476232 
L 315.386168 177.621971 
L 315.465995 177.649407 
L 317.47003 177.972123 
L 317.510116 178.009316 
L 318.478248 178.149367 
L 318.577687 178.186869 
L 319.119206 178.328088 
L 319.481194 178.39431 
L 320.402757 178.546447 
L 321.062715 178.651671 
L 322.320831 178.795996 
L 322.395278 178.824978 
L 323.68545 179.077809 
L 323.686796 179.107174 
L 325.012959 179.294096 
L 325.062976 179.353464 
L 325.878958 179.502607 
L 325.976658 179.552553 
L 326.434499 179.64275 
L 328.382926 179.90547 
L 328.38928 179.956364 
L 329.498409 180.109776 
L 329.596236 180.161158 
L 330.7734 180.326413 
L 330.779449 180.336784 
L 331.922877 180.524322 
L 332.298329 180.576708 
L 333.047943 180.766366 
L 333.057931 180.776952 
L 333.920624 180.904392 
L 333.959851 180.925706 
L 334.668293 181.096984 
L 336.587862 181.487436 
L 336.792123 181.56419 
L 338.583236 181.796114 
L 340.135156 182.086778 
L 341.195335 182.233602 
L 342.364323 182.415698 
L 346.238786 183.183634 
L 346.292526 183.242947 
L 347.277442 183.505893 
L 347.430786 183.554049 
L 347.90296 183.687041 
L 347.90443 183.71131 
L 348.565009 183.845283 
L 349.247862 184.066334 
L 350.088313 184.214977 
L 350.80915 184.364658 
L 350.900003 184.389707 
L 351.823101 184.591158 
L 351.892367 184.629141 
L 352.517883 184.794519 
L 352.818488 184.896928 
L 354.173732 185.142126 
L 354.893868 185.337704 
L 356.243017 185.641099 
L 357.949892 186.220095 
L 357.967815 186.247409 
L 358.572261 186.425806 
L 358.825926 186.508646 
L 359.428846 186.689238 
L 359.475192 186.745112 
L 360.244851 186.899521 
L 360.346319 186.941827 
L 361.178342 187.183146 
L 361.181324 187.197427 
L 362.186147 187.35514 
L 364.886802 188.402005 
L 365.83316 188.798521 
L 366.453507 189.015106 
L 366.535556 189.077392 
L 367.005904 189.281078 
L 367.096042 189.359937 
L 368.187184 189.678306 
L 369.785003 190.115742 
L 370.114152 190.280047 
L 371.859413 190.730065 
L 372.776164 191.138168 
L 373.203889 191.31053 
L 373.292312 191.379865 
L 373.884719 191.641885 
L 374.008439 191.729942 
L 375.027336 192.139726 
L 376.010711 192.46598 
L 377.187949 192.834404 
L 377.419897 192.908854 
L 378.003737 193.114936 
L 378.224745 193.323018 
L 381.633161 195.292629 
L 381.734313 195.418019 
L 382.149883 195.628647 
L 382.35048 195.756024 
L 382.867196 195.905593 
L 382.870928 195.927046 
L 383.367851 196.099443 
L 383.629115 196.207899 
L 384.433017 196.448451 
L 385.909124 197.23231 
L 385.976501 197.323746 
L 386.34319 197.623635 
L 386.356863 197.670147 
L 387.024636 197.857208 
L 387.135515 197.974955 
L 387.404775 198.356151 
L 388.001321 198.719785 
L 388.579109 199.040001 
L 388.628282 199.114581 
L 389.046317 199.289616 
L 389.160204 199.33989 
L 389.395647 199.491422 
L 389.602523 199.695146 
L 390.311778 200.318194 
L 390.522859 200.476827 
L 390.674518 200.583238 
L 392.043753 201.398611 
L 392.421982 201.818228 
L 393.101656 202.188659 
L 393.873983 202.653539 
L 393.977526 202.860137 
L 394.321897 203.008935 
L 394.833754 203.279402 
L 394.888939 203.400714 
L 395.169714 203.614674 
L 395.321042 203.6762 
L 395.609224 203.861844 
L 395.806701 204.111896 
L 396.083313 204.396735 
L 396.208849 204.653142 
L 396.517049 205.043594 
L 396.780112 205.407864 
L 397.055565 205.609196 
L 397.15573 205.744476 
L 397.469093 205.880614 
L 397.905798 206.155512 
L 398.850625 206.858583 
L 398.987599 207.038013 
L 399.295882 207.218957 
L 399.520845 207.401441 
L 399.678064 207.548555 
L 399.955661 207.920816 
L 400.364754 208.261469 
L 400.578704 208.530214 
L 400.599474 208.64643 
L 401.004993 208.880768 
L 401.016518 208.998905 
L 401.305524 209.197257 
L 401.550544 209.437728 
L 402.226303 209.968188 
L 402.302198 210.050975 
L 402.843991 210.259351 
L 402.904641 210.385355 
L 403.970613 211.332735 
L 404.074856 211.687886 
L 404.282568 211.958163 
L 404.481362 212.049018 
L 404.839187 212.277854 
L 405.597068 212.931902 
L 405.736334 213.122496 
L 406.107077 213.266562 
L 406.148408 213.363147 
L 406.614063 213.655538 
L 407.316324 214.252563 
L 407.899752 214.557427 
L 408.152574 214.866688 
L 408.465002 215.075368 
L 408.552496 215.233222 
L 409.158263 215.55246 
L 409.609043 216.040409 
L 409.757465 216.260892 
L 409.925885 216.427755 
L 409.995812 216.652278 
L 410.602738 217.166219 
L 411.242858 218.051148 
L 411.68614 218.232602 
L 411.770637 218.354431 
L 411.991473 218.476955 
L 412.128009 218.662065 
L 412.363217 218.91139 
L 412.454308 219.100305 
L 412.721839 219.35481 
L 413.232991 219.938736 
L 413.359729 220.136966 
L 413.880987 220.471477 
L 414.061151 220.81129 
L 414.222354 220.948738 
L 414.411613 221.156575 
L 414.545226 221.366447 
L 414.751333 221.578393 
L 414.871706 221.720864 
L 415.092773 221.936361 
L 415.836546 222.300406 
L 415.914917 222.373962 
L 416.385686 222.596159 
L 416.501279 222.820681 
L 417.484313 223.353896 
L 418.329127 223.979977 
L 418.432557 224.059538 
L 418.726374 224.219552 
L 420.176676 225.121632 
L 420.315497 225.289803 
L 420.680115 225.544559 
L 420.740861 225.889012 
L 420.806251 226.063336 
L 421.094005 226.239089 
L 421.31113 226.50545 
L 421.462863 226.68488 
L 421.640893 226.865824 
L 421.818627 227.048308 
L 422.114586 227.51143 
L 422.641753 227.794182 
L 422.676695 227.889268 
L 423.099579 228.177081 
L 423.221999 228.566941 
L 423.279298 228.86406 
L 423.736295 229.064452 
L 423.825747 229.266734 
L 424.076831 229.470942 
L 424.302646 230.307799 
L 424.635549 230.522219 
L 424.825379 230.738804 
L 424.862455 230.847922 
L 425.335922 231.17865 
L 425.360714 231.402003 
L 425.58031 231.627708 
L 425.74452 231.855814 
L 426.301951 232.673854 
L 426.404587 232.913429 
L 426.610497 233.155711 
L 426.611141 233.277886 
L 427.041742 233.648646 
L 427.515356 234.281192 
L 428.083837 234.539529 
L 428.365442 235.199327 
L 428.842045 235.605176 
L 429.212779 236.440674 
L 429.3545 236.870958 
L 429.55646 237.016326 
L 430.179482 237.162687 
L 430.267067 237.60786 
L 430.428669 238.062472 
L 430.922347 238.370992 
L 430.982417 238.526932 
L 431.264105 238.842258 
L 431.286628 239.001677 
L 431.768213 239.16229 
L 431.936726 239.487171 
L 432.450769 239.81705 
L 432.667832 240.152084 
L 433.700974 240.838278 
L 433.874832 241.367731 
L 434.546873 241.547161 
L 434.600706 241.728105 
L 434.880925 241.910589 
L 435.016232 242.280283 
L 435.820505 242.847058 
L 436.307551 243.039362 
L 436.788706 243.626843 
L 437.456047 243.826303 
L 437.736409 244.027635 
L 437.934659 244.436062 
L 438.262187 244.64323 
L 438.333295 244.852419 
L 438.540456 245.06367 
L 439.64053 245.710203 
L 439.742815 246.152317 
L 440.225015 246.833064 
L 440.271198 247.064869 
L 440.675727 247.536135 
L 440.754931 247.77571 
L 441.19433 248.017992 
L 441.373492 248.510927 
L 442.021064 249.532155 
L 442.550815 249.795247 
L 442.603403 250.061608 
L 444.085755 250.881137 
L 444.160254 251.161425 
L 444.78139 251.445426 
L 444.975582 252.024968 
L 445.24865 252.32072 
L 445.337581 252.62061 
L 446.524372 252.924753 
L 446.844912 253.546296 
L 447.569863 253.863957 
L 448.456394 255.526941 
L 448.66096 256.230012 
L 449.307447 256.95692 
L 449.48034 257.329829 
L 449.924327 257.709339 
L 450.184424 258.489124 
L 451.430999 258.889916 
L 451.934771 260.139303 
L 452.488528 261.014597 
L 453.271633 261.466019 
L 454.429143 261.92715 
L 455.075357 262.398416 
L 456.056703 262.880273 
L 458.108574 263.373208 
L 458.618568 263.877743 
L 459.398611 264.394436 
L 460.452637 264.923889 
L 460.810345 265.466747 
L 460.856601 266.023706 
L 461.363157 267.183001 
L 462.039839 270.389222 
L 462.121017 271.819201 
L 462.486485 272.57162 
L 463.187761 277.742554 
L 465.198128 278.740024 
L 465.339557 279.78617 
L 466.356198 280.885987 
L 470.58867 282.045282 
L 471.622322 283.270858 
L 473.416542 284.570755 
L 473.636861 285.954574 
L 473.699678 287.433901 
L 473.903546 289.022904 
L 473.993166 294.648451 
L 474.220293 296.907563 
L 474.247057 299.433036 
L 474.403009 302.296182 
L 474.543249 314.295317 
L 475.44711 320.463721 
L 476.242324 329.157598 
L 517.350749 344.019879 
L 517.352477 433 
L 517.352477 433 
" style="fill:none;stroke:#0000ff;stroke-linecap:square;"/>
   </g>
   <g id="patch_3">
    <path d="M 72 43.2 
L 518.4 43.2 
" style="fill:none;stroke:#000000;stroke-linecap:square;stroke-linejoin:miter;"/>
   </g>
   <g id="patch_4">
    <path d="M 518.4 388.8 
L 518.4 43.2 
" style="fill:none;stroke:#000000;stroke-linecap:square;stroke-linejoin:miter;"/>
   </g>
   <g id="patch_5">
    <path d="M 72 388.8 
L 518.4 388.8 
" style="fill:none;stroke:#000000;stroke-linecap:square;stroke-linejoin:miter;"/>
   </g>
   <g id="patch_6">
    <path d="M 72 388.8 
L 72 43.2 
" style="fill:none;stroke:#000000;stroke-linecap:square;stroke-linejoin:miter;"/>
   </g>
   <g id="matplotlib.axis_1">
    <g id="xtick_1">
     <g id="line2d_2">
      <defs>
       <path d="M 0 0 
L 0 -4 
" id="mee19eefac1" style="stroke:#000000;stroke-width:0.5;"/>
      </defs>
      <g>
       <use style="stroke:#000000;stroke-width:0.5;" x="72.0" xlink:href="#mee19eefac1" y="388.8"/>
      </g>
     </g>
     <g id="line2d_3">
      <defs>
       <path d="M 0 0 
L 0 4 
" id="m096642a670" style="stroke:#000000;stroke-width:0.5;"/>
      </defs>
      <g>
       <use style="stroke:#000000;stroke-width:0.5;" x="72.0" xlink:href="#m096642a670" y="43.2"/>
      </g>
     </g>
     <g id="text_1">
      <!-- $\mathdefault{10^{-2}}$ -->
      <defs>
       <path d="M 19.1875 8.296875 
L 53.609375 8.296875 
L 53.609375 0 
L 7.328125 0 
L 7.328125 8.296875 
Q 12.9375 14.109375 22.625 23.890625 
Q 32.328125 33.6875 34.8125 36.53125 
Q 39.546875 41.84375 41.421875 45.53125 
Q 43.3125 49.21875 43.3125 52.78125 
Q 43.3125 58.59375 39.234375 62.25 
Q 35.15625 65.921875 28.609375 65.921875 
Q 23.96875 65.921875 18.8125 64.3125 
Q 13.671875 62.703125 7.8125 59.421875 
L 7.8125 69.390625 
Q 13.765625 71.78125 18.9375 73 
Q 24.125 74.21875 28.421875 74.21875 
Q 39.75 74.21875 46.484375 68.546875 
Q 53.21875 62.890625 53.21875 53.421875 
Q 53.21875 48.921875 51.53125 44.890625 
Q 49.859375 40.875 45.40625 35.40625 
Q 44.1875 33.984375 37.640625 27.21875 
Q 31.109375 20.453125 19.1875 8.296875 
" id="BitstreamVeraSans-Roman-32"/>
       <path d="M 31.78125 66.40625 
Q 24.171875 66.40625 20.328125 58.90625 
Q 16.5 51.421875 16.5 36.375 
Q 16.5 21.390625 20.328125 13.890625 
Q 24.171875 6.390625 31.78125 6.390625 
Q 39.453125 6.390625 43.28125 13.890625 
Q 47.125 21.390625 47.125 36.375 
Q 47.125 51.421875 43.28125 58.90625 
Q 39.453125 66.40625 31.78125 66.40625 
M 31.78125 74.21875 
Q 44.046875 74.21875 50.515625 64.515625 
Q 56.984375 54.828125 56.984375 36.375 
Q 56.984375 17.96875 50.515625 8.265625 
Q 44.046875 -1.421875 31.78125 -1.421875 
Q 19.53125 -1.421875 13.0625 8.265625 
Q 6.59375 17.96875 6.59375 36.375 
Q 6.59375 54.828125 13.0625 64.515625 
Q 19.53125 74.21875 31.78125 74.21875 
" id="BitstreamVeraSans-Roman-30"/>
       <path d="M 12.40625 8.296875 
L 28.515625 8.296875 
L 28.515625 63.921875 
L 10.984375 60.40625 
L 10.984375 69.390625 
L 28.421875 72.90625 
L 38.28125 72.90625 
L 38.28125 8.296875 
L 54.390625 8.296875 
L 54.390625 0 
L 12.40625 0 
z
" id="BitstreamVeraSans-Roman-31"/>
       <path d="M 4.890625 31.390625 
L 31.203125 31.390625 
L 31.203125 23.390625 
L 4.890625 23.390625 
z
" id="BitstreamVeraSans-Roman-2d"/>
      </defs>
      <g transform="translate(59.34 402.544375)scale(0.12 -0.12)">
       <use transform="translate(0.0 0.796875)" xlink:href="#BitstreamVeraSans-Roman-31"/>
       <use transform="translate(63.623046875 0.796875)" xlink:href="#BitstreamVeraSans-Roman-30"/>
       <use transform="translate(132.75859375 48.046875)scale(0.7)" xlink:href="#BitstreamVeraSans-Roman-2d"/>
       <use transform="translate(158.017382812 48.046875)scale(0.7)" xlink:href="#BitstreamVeraSans-Roman-32"/>
      </g>
     </g>
    </g>
    <g id="xtick_2">
     <g id="line2d_4">
      <g>
       <use style="stroke:#000000;stroke-width:0.5;" x="183.6" xlink:href="#mee19eefac1" y="388.8"/>
      </g>
     </g>
     <g id="line2d_5">
      <g>
       <use style="stroke:#000000;stroke-width:0.5;" x="183.6" xlink:href="#m096642a670" y="43.2"/>
      </g>
     </g>
     <g id="text_2">
      <!-- $\mathdefault{10^{-1}}$ -->
      <g transform="translate(170.94 402.424375)scale(0.12 -0.12)">
       <use transform="translate(0.0 0.715625)" xlink:href="#BitstreamVeraSans-Roman-31"/>
       <use transform="translate(63.623046875 0.715625)" xlink:href="#BitstreamVeraSans-Roman-30"/>
       <use transform="translate(132.75859375 47.965625)scale(0.7)" xlink:href="#BitstreamVeraSans-Roman-2d"/>
       <use transform="translate(158.017382812 47.965625)scale(0.7)" xlink:href="#BitstreamVeraSans-Roman-31"/>
      </g>
     </g>
    </g>
    <g id="xtick_3">
     <g id="line2d_6">
      <g>
       <use style="stroke:#000000;stroke-width:0.5;" x="295.2" xlink:href="#mee19eefac1" y="388.8"/>
      </g>
     </g>
     <g id="line2d_7">
      <g>
       <use style="stroke:#000000;stroke-width:0.5;" x="295.2" xlink:href="#m096642a670" y="43.2"/>
      </g>
     </g>
     <g id="text_3">
      <!-- $\mathdefault{10^{0}}$ -->
      <g transform="translate(284.04 402.544375)scale(0.12 -0.12)">
       <use transform="translate(0.0 0.796875)" xlink:href="#BitstreamVeraSans-Roman-31"/>
       <use transform="translate(63.623046875 0.796875)" xlink:href="#BitstreamVeraSans-Roman-30"/>
       <use transform="translate(132.75859375 48.046875)scale(0.7)" xlink:href="#BitstreamVeraSans-Roman-30"/>
      </g>
     </g>
    </g>
    <g id="xtick_4">
     <g id="line2d_8">
      <g>
       <use style="stroke:#000000;stroke-width:0.5;" x="406.8" xlink:href="#mee19eefac1" y="388.8"/>
      </g>
     </g>
     <g id="line2d_9">
      <g>
       <use style="stroke:#000000;stroke-width:0.5;" x="406.8" xlink:href="#m096642a670" y="43.2"/>
      </g>
     </g>
     <g id="text_4">
      <!-- $\mathdefault{10^{1}}$ -->
      <g transform="translate(395.64 402.424375)scale(0.12 -0.12)">
       <use transform="translate(0.0 0.715625)" xlink:href="#BitstreamVeraSans-Roman-31"/>
       <use transform="translate(63.623046875 0.715625)" xlink:href="#BitstreamVeraSans-Roman-30"/>
       <use transform="translate(132.75859375 47.965625)scale(0.7)" xlink:href="#BitstreamVeraSans-Roman-31"/>
      </g>
     </g>
    </g>
    <g id="xtick_5">
     <g id="line2d_10">
      <g>
       <use style="stroke:#000000;stroke-width:0.5;" x="518.4" xlink:href="#mee19eefac1" y="388.8"/>
      </g>
     </g>
     <g id="line2d_11">
      <g>
       <use style="stroke:#000000;stroke-width:0.5;" x="518.4" xlink:href="#m096642a670" y="43.2"/>
      </g>
     </g>
     <g id="text_5">
      <!-- $\mathdefault{10^{2}}$ -->
      <g transform="translate(507.24 402.544375)scale(0.12 -0.12)">
       <use transform="translate(0.0 0.796875)" xlink:href="#BitstreamVeraSans-Roman-31"/>
       <use transform="translate(63.623046875 0.796875)" xlink:href="#BitstreamVeraSans-Roman-30"/>
       <use transform="translate(132.75859375 48.046875)scale(0.7)" xlink:href="#BitstreamVeraSans-Roman-32"/>
      </g>
     </g>
    </g>
    <g id="xtick_6">
     <g id="line2d_12">
      <defs>
       <path d="M 0 0 
L 0 -2 
" id="mb39ac495ac" style="stroke:#000000;stroke-width:0.5;"/>
      </defs>
      <g>
       <use style="stroke:#000000;stroke-width:0.5;" x="105.594947516" xlink:href="#mb39ac495ac" y="388.8"/>
      </g>
     </g>
     <g id="line2d_13">
      <defs>
       <path d="M 0 0 
L 0 2 
" id="m2aad7abab7" style="stroke:#000000;stroke-width:0.5;"/>
      </defs>
      <g>
       <use style="stroke:#000000;stroke-width:0.5;" x="105.594947516" xlink:href="#m2aad7abab7" y="43.2"/>
      </g>
     </g>
    </g>
    <g id="xtick_7">
     <g id="line2d_14">
      <g>
       <use style="stroke:#000000;stroke-width:0.5;" x="125.246732027" xlink:href="#mb39ac495ac" y="388.8"/>
      </g>
     </g>
     <g id="line2d_15">
      <g>
       <use style="stroke:#000000;stroke-width:0.5;" x="125.246732027" xlink:href="#m2aad7abab7" y="43.2"/>
      </g>
     </g>
    </g>
    <g id="xtick_8">
     <g id="line2d_16">
      <g>
       <use style="stroke:#000000;stroke-width:0.5;" x="139.189895032" xlink:href="#mb39ac495ac" y="388.8"/>
      </g>
     </g>
     <g id="line2d_17">
      <g>
       <use style="stroke:#000000;stroke-width:0.5;" x="139.189895032" xlink:href="#m2aad7abab7" y="43.2"/>
      </g>
     </g>
    </g>
    <g id="xtick_9">
     <g id="line2d_18">
      <g>
       <use style="stroke:#000000;stroke-width:0.5;" x="150.005052484" xlink:href="#mb39ac495ac" y="388.8"/>
      </g>
     </g>
     <g id="line2d_19">
      <g>
       <use style="stroke:#000000;stroke-width:0.5;" x="150.005052484" xlink:href="#m2aad7abab7" y="43.2"/>
      </g>
     </g>
    </g>
    <g id="xtick_10">
     <g id="line2d_20">
      <g>
       <use style="stroke:#000000;stroke-width:0.5;" x="158.841679543" xlink:href="#mb39ac495ac" y="388.8"/>
      </g>
     </g>
     <g id="line2d_21">
      <g>
       <use style="stroke:#000000;stroke-width:0.5;" x="158.841679543" xlink:href="#m2aad7abab7" y="43.2"/>
      </g>
     </g>
    </g>
    <g id="xtick_11">
     <g id="line2d_22">
      <g>
       <use style="stroke:#000000;stroke-width:0.5;" x="166.312941266" xlink:href="#mb39ac495ac" y="388.8"/>
      </g>
     </g>
     <g id="line2d_23">
      <g>
       <use style="stroke:#000000;stroke-width:0.5;" x="166.312941266" xlink:href="#m2aad7abab7" y="43.2"/>
      </g>
     </g>
    </g>
    <g id="xtick_12">
     <g id="line2d_24">
      <g>
       <use style="stroke:#000000;stroke-width:0.5;" x="172.784842548" xlink:href="#mb39ac495ac" y="388.8"/>
      </g>
     </g>
     <g id="line2d_25">
      <g>
       <use style="stroke:#000000;stroke-width:0.5;" x="172.784842548" xlink:href="#m2aad7abab7" y="43.2"/>
      </g>
     </g>
    </g>
    <g id="xtick_13">
     <g id="line2d_26">
      <g>
       <use style="stroke:#000000;stroke-width:0.5;" x="178.493464053" xlink:href="#mb39ac495ac" y="388.8"/>
      </g>
     </g>
     <g id="line2d_27">
      <g>
       <use style="stroke:#000000;stroke-width:0.5;" x="178.493464053" xlink:href="#m2aad7abab7" y="43.2"/>
      </g>
     </g>
    </g>
    <g id="xtick_14">
     <g id="line2d_28">
      <g>
       <use style="stroke:#000000;stroke-width:0.5;" x="217.194947516" xlink:href="#mb39ac495ac" y="388.8"/>
      </g>
     </g>
     <g id="line2d_29">
      <g>
       <use style="stroke:#000000;stroke-width:0.5;" x="217.194947516" xlink:href="#m2aad7abab7" y="43.2"/>
      </g>
     </g>
    </g>
    <g id="xtick_15">
     <g id="line2d_30">
      <g>
       <use style="stroke:#000000;stroke-width:0.5;" x="236.846732027" xlink:href="#mb39ac495ac" y="388.8"/>
      </g>
     </g>
     <g id="line2d_31">
      <g>
       <use style="stroke:#000000;stroke-width:0.5;" x="236.846732027" xlink:href="#m2aad7abab7" y="43.2"/>
      </g>
     </g>
    </g>
    <g id="xtick_16">
     <g id="line2d_32">
      <g>
       <use style="stroke:#000000;stroke-width:0.5;" x="250.789895032" xlink:href="#mb39ac495ac" y="388.8"/>
      </g>
     </g>
     <g id="line2d_33">
      <g>
       <use style="stroke:#000000;stroke-width:0.5;" x="250.789895032" xlink:href="#m2aad7abab7" y="43.2"/>
      </g>
     </g>
    </g>
    <g id="xtick_17">
     <g id="line2d_34">
      <g>
       <use style="stroke:#000000;stroke-width:0.5;" x="261.605052484" xlink:href="#mb39ac495ac" y="388.8"/>
      </g>
     </g>
     <g id="line2d_35">
      <g>
       <use style="stroke:#000000;stroke-width:0.5;" x="261.605052484" xlink:href="#m2aad7abab7" y="43.2"/>
      </g>
     </g>
    </g>
    <g id="xtick_18">
     <g id="line2d_36">
      <g>
       <use style="stroke:#000000;stroke-width:0.5;" x="270.441679543" xlink:href="#mb39ac495ac" y="388.8"/>
      </g>
     </g>
     <g id="line2d_37">
      <g>
       <use style="stroke:#000000;stroke-width:0.5;" x="270.441679543" xlink:href="#m2aad7abab7" y="43.2"/>
      </g>
     </g>
    </g>
    <g id="xtick_19">
     <g id="line2d_38">
      <g>
       <use style="stroke:#000000;stroke-width:0.5;" x="277.912941266" xlink:href="#mb39ac495ac" y="388.8"/>
      </g>
     </g>
     <g id="line2d_39">
      <g>
       <use style="stroke:#000000;stroke-width:0.5;" x="277.912941266" xlink:href="#m2aad7abab7" y="43.2"/>
      </g>
     </g>
    </g>
    <g id="xtick_20">
     <g id="line2d_40">
      <g>
       <use style="stroke:#000000;stroke-width:0.5;" x="284.384842548" xlink:href="#mb39ac495ac" y="388.8"/>
      </g>
     </g>
     <g id="line2d_41">
      <g>
       <use style="stroke:#000000;stroke-width:0.5;" x="284.384842548" xlink:href="#m2aad7abab7" y="43.2"/>
      </g>
     </g>
    </g>
    <g id="xtick_21">
     <g id="line2d_42">
      <g>
       <use style="stroke:#000000;stroke-width:0.5;" x="290.093464053" xlink:href="#mb39ac495ac" y="388.8"/>
      </g>
     </g>
     <g id="line2d_43">
      <g>
       <use style="stroke:#000000;stroke-width:0.5;" x="290.093464053" xlink:href="#m2aad7abab7" y="43.2"/>
      </g>
     </g>
    </g>
    <g id="xtick_22">
     <g id="line2d_44">
      <g>
       <use style="stroke:#000000;stroke-width:0.5;" x="328.794947516" xlink:href="#mb39ac495ac" y="388.8"/>
      </g>
     </g>
     <g id="line2d_45">
      <g>
       <use style="stroke:#000000;stroke-width:0.5;" x="328.794947516" xlink:href="#m2aad7abab7" y="43.2"/>
      </g>
     </g>
    </g>
    <g id="xtick_23">
     <g id="line2d_46">
      <g>
       <use style="stroke:#000000;stroke-width:0.5;" x="348.446732027" xlink:href="#mb39ac495ac" y="388.8"/>
      </g>
     </g>
     <g id="line2d_47">
      <g>
       <use style="stroke:#000000;stroke-width:0.5;" x="348.446732027" xlink:href="#m2aad7abab7" y="43.2"/>
      </g>
     </g>
    </g>
    <g id="xtick_24">
     <g id="line2d_48">
      <g>
       <use style="stroke:#000000;stroke-width:0.5;" x="362.389895032" xlink:href="#mb39ac495ac" y="388.8"/>
      </g>
     </g>
     <g id="line2d_49">
      <g>
       <use style="stroke:#000000;stroke-width:0.5;" x="362.389895032" xlink:href="#m2aad7abab7" y="43.2"/>
      </g>
     </g>
    </g>
    <g id="xtick_25">
     <g id="line2d_50">
      <g>
       <use style="stroke:#000000;stroke-width:0.5;" x="373.205052484" xlink:href="#mb39ac495ac" y="388.8"/>
      </g>
     </g>
     <g id="line2d_51">
      <g>
       <use style="stroke:#000000;stroke-width:0.5;" x="373.205052484" xlink:href="#m2aad7abab7" y="43.2"/>
      </g>
     </g>
    </g>
    <g id="xtick_26">
     <g id="line2d_52">
      <g>
       <use style="stroke:#000000;stroke-width:0.5;" x="382.041679543" xlink:href="#mb39ac495ac" y="388.8"/>
      </g>
     </g>
     <g id="line2d_53">
      <g>
       <use style="stroke:#000000;stroke-width:0.5;" x="382.041679543" xlink:href="#m2aad7abab7" y="43.2"/>
      </g>
     </g>
    </g>
    <g id="xtick_27">
     <g id="line2d_54">
      <g>
       <use style="stroke:#000000;stroke-width:0.5;" x="389.512941266" xlink:href="#mb39ac495ac" y="388.8"/>
      </g>
     </g>
     <g id="line2d_55">
      <g>
       <use style="stroke:#000000;stroke-width:0.5;" x="389.512941266" xlink:href="#m2aad7abab7" y="43.2"/>
      </g>
     </g>
    </g>
    <g id="xtick_28">
     <g id="line2d_56">
      <g>
       <use style="stroke:#000000;stroke-width:0.5;" x="395.984842548" xlink:href="#mb39ac495ac" y="388.8"/>
      </g>
     </g>
     <g id="line2d_57">
      <g>
       <use style="stroke:#000000;stroke-width:0.5;" x="395.984842548" xlink:href="#m2aad7abab7" y="43.2"/>
      </g>
     </g>
    </g>
    <g id="xtick_29">
     <g id="line2d_58">
      <g>
       <use style="stroke:#000000;stroke-width:0.5;" x="401.693464053" xlink:href="#mb39ac495ac" y="388.8"/>
      </g>
     </g>
     <g id="line2d_59">
      <g>
       <use style="stroke:#000000;stroke-width:0.5;" x="401.693464053" xlink:href="#m2aad7abab7" y="43.2"/>
      </g>
     </g>
    </g>
    <g id="xtick_30">
     <g id="line2d_60">
      <g>
       <use style="stroke:#000000;stroke-width:0.5;" x="440.394947516" xlink:href="#mb39ac495ac" y="388.8"/>
      </g>
     </g>
     <g id="line2d_61">
      <g>
       <use style="stroke:#000000;stroke-width:0.5;" x="440.394947516" xlink:href="#m2aad7abab7" y="43.2"/>
      </g>
     </g>
    </g>
    <g id="xtick_31">
     <g id="line2d_62">
      <g>
       <use style="stroke:#000000;stroke-width:0.5;" x="460.046732027" xlink:href="#mb39ac495ac" y="388.8"/>
      </g>
     </g>
     <g id="line2d_63">
      <g>
       <use style="stroke:#000000;stroke-width:0.5;" x="460.046732027" xlink:href="#m2aad7abab7" y="43.2"/>
      </g>
     </g>
    </g>
    <g id="xtick_32">
     <g id="line2d_64">
      <g>
       <use style="stroke:#000000;stroke-width:0.5;" x="473.989895032" xlink:href="#mb39ac495ac" y="388.8"/>
      </g>
     </g>
     <g id="line2d_65">
      <g>
       <use style="stroke:#000000;stroke-width:0.5;" x="473.989895032" xlink:href="#m2aad7abab7" y="43.2"/>
      </g>
     </g>
    </g>
    <g id="xtick_33">
     <g id="line2d_66">
      <g>
       <use style="stroke:#000000;stroke-width:0.5;" x="484.805052484" xlink:href="#mb39ac495ac" y="388.8"/>
      </g>
     </g>
     <g id="line2d_67">
      <g>
       <use style="stroke:#000000;stroke-width:0.5;" x="484.805052484" xlink:href="#m2aad7abab7" y="43.2"/>
      </g>
     </g>
    </g>
    <g id="xtick_34">
     <g id="line2d_68">
      <g>
       <use style="stroke:#000000;stroke-width:0.5;" x="493.641679543" xlink:href="#mb39ac495ac" y="388.8"/>
      </g>
     </g>
     <g id="line2d_69">
      <g>
       <use style="stroke:#000000;stroke-width:0.5;" x="493.641679543" xlink:href="#m2aad7abab7" y="43.2"/>
      </g>
     </g>
    </g>
    <g id="xtick_35">
     <g id="line2d_70">
      <g>
       <use style="stroke:#000000;stroke-width:0.5;" x="501.112941266" xlink:href="#mb39ac495ac" y="388.8"/>
      </g>
     </g>
     <g id="line2d_71">
      <g>
       <use style="stroke:#000000;stroke-width:0.5;" x="501.112941266" xlink:href="#m2aad7abab7" y="43.2"/>
      </g>
     </g>
    </g>
    <g id="xtick_36">
     <g id="line2d_72">
      <g>
       <use style="stroke:#000000;stroke-width:0.5;" x="507.584842548" xlink:href="#mb39ac495ac" y="388.8"/>
      </g>
     </g>
     <g id="line2d_73">
      <g>
       <use style="stroke:#000000;stroke-width:0.5;" x="507.584842548" xlink:href="#m2aad7abab7" y="43.2"/>
      </g>
     </g>
    </g>
    <g id="xtick_37">
     <g id="line2d_74">
      <g>
       <use style="stroke:#000000;stroke-width:0.5;" x="513.293464053" xlink:href="#mb39ac495ac" y="388.8"/>
      </g>
     </g>
     <g id="line2d_75">
      <g>
       <use style="stroke:#000000;stroke-width:0.5;" x="513.293464053" xlink:href="#m2aad7abab7" y="43.2"/>
      </g>
     </g>
    </g>
    <g id="text_6">
     <!-- Inter-frame delay (seconds) -->
     <defs>
      <path id="BitstreamVeraSans-Roman-20"/>
      <path d="M 30.609375 48.390625 
Q 23.390625 48.390625 19.1875 42.75 
Q 14.984375 37.109375 14.984375 27.296875 
Q 14.984375 17.484375 19.15625 11.84375 
Q 23.34375 6.203125 30.609375 6.203125 
Q 37.796875 6.203125 41.984375 11.859375 
Q 46.1875 17.53125 46.1875 27.296875 
Q 46.1875 37.015625 41.984375 42.703125 
Q 37.796875 48.390625 30.609375 48.390625 
M 30.609375 56 
Q 42.328125 56 49.015625 48.375 
Q 55.71875 40.765625 55.71875 27.296875 
Q 55.71875 13.875 49.015625 6.21875 
Q 42.328125 -1.421875 30.609375 -1.421875 
Q 18.84375 -1.421875 12.171875 6.21875 
Q 5.515625 13.875 5.515625 27.296875 
Q 5.515625 40.765625 12.171875 48.375 
Q 18.84375 56 30.609375 56 
" id="BitstreamVeraSans-Roman-6f"/>
      <path d="M 54.890625 33.015625 
L 54.890625 0 
L 45.90625 0 
L 45.90625 32.71875 
Q 45.90625 40.484375 42.875 44.328125 
Q 39.84375 48.1875 33.796875 48.1875 
Q 26.515625 48.1875 22.3125 43.546875 
Q 18.109375 38.921875 18.109375 30.90625 
L 18.109375 0 
L 9.078125 0 
L 9.078125 54.6875 
L 18.109375 54.6875 
L 18.109375 46.1875 
Q 21.34375 51.125 25.703125 53.5625 
Q 30.078125 56 35.796875 56 
Q 45.21875 56 50.046875 50.171875 
Q 54.890625 44.34375 54.890625 33.015625 
" id="BitstreamVeraSans-Roman-6e"/>
      <path d="M 34.28125 27.484375 
Q 23.390625 27.484375 19.1875 25 
Q 14.984375 22.515625 14.984375 16.5 
Q 14.984375 11.71875 18.140625 8.90625 
Q 21.296875 6.109375 26.703125 6.109375 
Q 34.1875 6.109375 38.703125 11.40625 
Q 43.21875 16.703125 43.21875 25.484375 
L 43.21875 27.484375 
z
M 52.203125 31.203125 
L 52.203125 0 
L 43.21875 0 
L 43.21875 8.296875 
Q 40.140625 3.328125 35.546875 0.953125 
Q 30.953125 -1.421875 24.3125 -1.421875 
Q 15.921875 -1.421875 10.953125 3.296875 
Q 6 8.015625 6 15.921875 
Q 6 25.140625 12.171875 29.828125 
Q 18.359375 34.515625 30.609375 34.515625 
L 43.21875 34.515625 
L 43.21875 35.40625 
Q 43.21875 41.609375 39.140625 45 
Q 35.0625 48.390625 27.6875 48.390625 
Q 23 48.390625 18.546875 47.265625 
Q 14.109375 46.140625 10.015625 43.890625 
L 10.015625 52.203125 
Q 14.9375 54.109375 19.578125 55.046875 
Q 24.21875 56 28.609375 56 
Q 40.484375 56 46.34375 49.84375 
Q 52.203125 43.703125 52.203125 31.203125 
" id="BitstreamVeraSans-Roman-61"/>
      <path d="M 32.171875 -5.078125 
Q 28.375 -14.84375 24.75 -17.8125 
Q 21.140625 -20.796875 15.09375 -20.796875 
L 7.90625 -20.796875 
L 7.90625 -13.28125 
L 13.1875 -13.28125 
Q 16.890625 -13.28125 18.9375 -11.515625 
Q 21 -9.765625 23.484375 -3.21875 
L 25.09375 0.875 
L 2.984375 54.6875 
L 12.5 54.6875 
L 29.59375 11.921875 
L 46.6875 54.6875 
L 56.203125 54.6875 
z
" id="BitstreamVeraSans-Roman-79"/>
      <path d="M 9.421875 75.984375 
L 18.40625 75.984375 
L 18.40625 0 
L 9.421875 0 
z
" id="BitstreamVeraSans-Roman-6c"/>
      <path d="M 8.015625 75.875 
L 15.828125 75.875 
Q 23.140625 64.359375 26.78125 53.3125 
Q 30.421875 42.28125 30.421875 31.390625 
Q 30.421875 20.453125 26.78125 9.375 
Q 23.140625 -1.703125 15.828125 -13.1875 
L 8.015625 -13.1875 
Q 14.5 -2 17.703125 9.0625 
Q 20.90625 20.125 20.90625 31.390625 
Q 20.90625 42.671875 17.703125 53.65625 
Q 14.5 64.65625 8.015625 75.875 
" id="BitstreamVeraSans-Roman-29"/>
      <path d="M 31 75.875 
Q 24.46875 64.65625 21.28125 53.65625 
Q 18.109375 42.671875 18.109375 31.390625 
Q 18.109375 20.125 21.3125 9.0625 
Q 24.515625 -2 31 -13.1875 
L 23.1875 -13.1875 
Q 15.875 -1.703125 12.234375 9.375 
Q 8.59375 20.453125 8.59375 31.390625 
Q 8.59375 42.28125 12.203125 53.3125 
Q 15.828125 64.359375 23.1875 75.875 
z
" id="BitstreamVeraSans-Roman-28"/>
      <path d="M 48.78125 52.59375 
L 48.78125 44.1875 
Q 44.96875 46.296875 41.140625 47.34375 
Q 37.3125 48.390625 33.40625 48.390625 
Q 24.65625 48.390625 19.8125 42.84375 
Q 14.984375 37.3125 14.984375 27.296875 
Q 14.984375 17.28125 19.8125 11.734375 
Q 24.65625 6.203125 33.40625 6.203125 
Q 37.3125 6.203125 41.140625 7.25 
Q 44.96875 8.296875 48.78125 10.40625 
L 48.78125 2.09375 
Q 45.015625 0.34375 40.984375 -0.53125 
Q 36.96875 -1.421875 32.421875 -1.421875 
Q 20.0625 -1.421875 12.78125 6.34375 
Q 5.515625 14.109375 5.515625 27.296875 
Q 5.515625 40.671875 12.859375 48.328125 
Q 20.21875 56 33.015625 56 
Q 37.15625 56 41.109375 55.140625 
Q 45.0625 54.296875 48.78125 52.59375 
" id="BitstreamVeraSans-Roman-63"/>
      <path d="M 52 44.1875 
Q 55.375 50.25 60.0625 53.125 
Q 64.75 56 71.09375 56 
Q 79.640625 56 84.28125 50.015625 
Q 88.921875 44.046875 88.921875 33.015625 
L 88.921875 0 
L 79.890625 0 
L 79.890625 32.71875 
Q 79.890625 40.578125 77.09375 44.375 
Q 74.3125 48.1875 68.609375 48.1875 
Q 61.625 48.1875 57.5625 43.546875 
Q 53.515625 38.921875 53.515625 30.90625 
L 53.515625 0 
L 44.484375 0 
L 44.484375 32.71875 
Q 44.484375 40.625 41.703125 44.40625 
Q 38.921875 48.1875 33.109375 48.1875 
Q 26.21875 48.1875 22.15625 43.53125 
Q 18.109375 38.875 18.109375 30.90625 
L 18.109375 0 
L 9.078125 0 
L 9.078125 54.6875 
L 18.109375 54.6875 
L 18.109375 46.1875 
Q 21.1875 51.21875 25.484375 53.609375 
Q 29.78125 56 35.6875 56 
Q 41.65625 56 45.828125 52.96875 
Q 50 49.953125 52 44.1875 
" id="BitstreamVeraSans-Roman-6d"/>
      <path d="M 56.203125 29.59375 
L 56.203125 25.203125 
L 14.890625 25.203125 
Q 15.484375 15.921875 20.484375 11.0625 
Q 25.484375 6.203125 34.421875 6.203125 
Q 39.59375 6.203125 44.453125 7.46875 
Q 49.3125 8.734375 54.109375 11.28125 
L 54.109375 2.78125 
Q 49.265625 0.734375 44.1875 -0.34375 
Q 39.109375 -1.421875 33.890625 -1.421875 
Q 20.796875 -1.421875 13.15625 6.1875 
Q 5.515625 13.8125 5.515625 26.8125 
Q 5.515625 40.234375 12.765625 48.109375 
Q 20.015625 56 32.328125 56 
Q 43.359375 56 49.78125 48.890625 
Q 56.203125 41.796875 56.203125 29.59375 
M 47.21875 32.234375 
Q 47.125 39.59375 43.09375 43.984375 
Q 39.0625 48.390625 32.421875 48.390625 
Q 24.90625 48.390625 20.390625 44.140625 
Q 15.875 39.890625 15.1875 32.171875 
z
" id="BitstreamVeraSans-Roman-65"/>
      <path d="M 45.40625 46.390625 
L 45.40625 75.984375 
L 54.390625 75.984375 
L 54.390625 0 
L 45.40625 0 
L 45.40625 8.203125 
Q 42.578125 3.328125 38.25 0.953125 
Q 33.9375 -1.421875 27.875 -1.421875 
Q 17.96875 -1.421875 11.734375 6.484375 
Q 5.515625 14.40625 5.515625 27.296875 
Q 5.515625 40.1875 11.734375 48.09375 
Q 17.96875 56 27.875 56 
Q 33.9375 56 38.25 53.625 
Q 42.578125 51.265625 45.40625 46.390625 
M 14.796875 27.296875 
Q 14.796875 17.390625 18.875 11.75 
Q 22.953125 6.109375 30.078125 6.109375 
Q 37.203125 6.109375 41.296875 11.75 
Q 45.40625 17.390625 45.40625 27.296875 
Q 45.40625 37.203125 41.296875 42.84375 
Q 37.203125 48.484375 30.078125 48.484375 
Q 22.953125 48.484375 18.875 42.84375 
Q 14.796875 37.203125 14.796875 27.296875 
" id="BitstreamVeraSans-Roman-64"/>
      <path d="M 18.3125 70.21875 
L 18.3125 54.6875 
L 36.8125 54.6875 
L 36.8125 47.703125 
L 18.3125 47.703125 
L 18.3125 18.015625 
Q 18.3125 11.328125 20.140625 9.421875 
Q 21.96875 7.515625 27.59375 7.515625 
L 36.8125 7.515625 
L 36.8125 0 
L 27.59375 0 
Q 17.1875 0 13.234375 3.875 
Q 9.28125 7.765625 9.28125 18.015625 
L 9.28125 47.703125 
L 2.6875 47.703125 
L 2.6875 54.6875 
L 9.28125 54.6875 
L 9.28125 70.21875 
z
" id="BitstreamVeraSans-Roman-74"/>
      <path d="M 37.109375 75.984375 
L 37.109375 68.5 
L 28.515625 68.5 
Q 23.6875 68.5 21.796875 66.546875 
Q 19.921875 64.59375 19.921875 59.515625 
L 19.921875 54.6875 
L 34.71875 54.6875 
L 34.71875 47.703125 
L 19.921875 47.703125 
L 19.921875 0 
L 10.890625 0 
L 10.890625 47.703125 
L 2.296875 47.703125 
L 2.296875 54.6875 
L 10.890625 54.6875 
L 10.890625 58.5 
Q 10.890625 67.625 15.140625 71.796875 
Q 19.390625 75.984375 28.609375 75.984375 
z
" id="BitstreamVeraSans-Roman-66"/>
      <path d="M 41.109375 46.296875 
Q 39.59375 47.171875 37.8125 47.578125 
Q 36.03125 48 33.890625 48 
Q 26.265625 48 22.1875 43.046875 
Q 18.109375 38.09375 18.109375 28.8125 
L 18.109375 0 
L 9.078125 0 
L 9.078125 54.6875 
L 18.109375 54.6875 
L 18.109375 46.1875 
Q 20.953125 51.171875 25.484375 53.578125 
Q 30.03125 56 36.53125 56 
Q 37.453125 56 38.578125 55.875 
Q 39.703125 55.765625 41.0625 55.515625 
z
" id="BitstreamVeraSans-Roman-72"/>
      <path d="M 44.28125 53.078125 
L 44.28125 44.578125 
Q 40.484375 46.53125 36.375 47.5 
Q 32.28125 48.484375 27.875 48.484375 
Q 21.1875 48.484375 17.84375 46.4375 
Q 14.5 44.390625 14.5 40.28125 
Q 14.5 37.15625 16.890625 35.375 
Q 19.28125 33.59375 26.515625 31.984375 
L 29.59375 31.296875 
Q 39.15625 29.25 43.1875 25.515625 
Q 47.21875 21.78125 47.21875 15.09375 
Q 47.21875 7.46875 41.1875 3.015625 
Q 35.15625 -1.421875 24.609375 -1.421875 
Q 20.21875 -1.421875 15.453125 -0.5625 
Q 10.6875 0.296875 5.421875 2 
L 5.421875 11.28125 
Q 10.40625 8.6875 15.234375 7.390625 
Q 20.0625 6.109375 24.8125 6.109375 
Q 31.15625 6.109375 34.5625 8.28125 
Q 37.984375 10.453125 37.984375 14.40625 
Q 37.984375 18.0625 35.515625 20.015625 
Q 33.0625 21.96875 24.703125 23.78125 
L 21.578125 24.515625 
Q 13.234375 26.265625 9.515625 29.90625 
Q 5.8125 33.546875 5.8125 39.890625 
Q 5.8125 47.609375 11.28125 51.796875 
Q 16.75 56 26.8125 56 
Q 31.78125 56 36.171875 55.265625 
Q 40.578125 54.546875 44.28125 53.078125 
" id="BitstreamVeraSans-Roman-73"/>
      <path d="M 9.8125 72.90625 
L 19.671875 72.90625 
L 19.671875 0 
L 9.8125 0 
z
" id="BitstreamVeraSans-Roman-49"/>
     </defs>
     <g transform="translate(211.749375 419.158125)scale(0.12 -0.12)">
      <use xlink:href="#BitstreamVeraSans-Roman-49"/>
      <use x="29.4921875" xlink:href="#BitstreamVeraSans-Roman-6e"/>
      <use x="92.87109375" xlink:href="#BitstreamVeraSans-Roman-74"/>
      <use x="132.080078125" xlink:href="#BitstreamVeraSans-Roman-65"/>
      <use x="193.603515625" xlink:href="#BitstreamVeraSans-Roman-72"/>
      <use x="234.623046875" xlink:href="#BitstreamVeraSans-Roman-2d"/>
      <use x="270.70703125" xlink:href="#BitstreamVeraSans-Roman-66"/>
      <use x="305.912109375" xlink:href="#BitstreamVeraSans-Roman-72"/>
      <use x="347.025390625" xlink:href="#BitstreamVeraSans-Roman-61"/>
      <use x="408.3046875" xlink:href="#BitstreamVeraSans-Roman-6d"/>
      <use x="505.716796875" xlink:href="#BitstreamVeraSans-Roman-65"/>
      <use x="567.240234375" xlink:href="#BitstreamVeraSans-Roman-20"/>
      <use x="599.02734375" xlink:href="#BitstreamVeraSans-Roman-64"/>
      <use x="662.50390625" xlink:href="#BitstreamVeraSans-Roman-65"/>
      <use x="724.02734375" xlink:href="#BitstreamVeraSans-Roman-6c"/>
      <use x="751.810546875" xlink:href="#BitstreamVeraSans-Roman-61"/>
      <use x="813.08984375" xlink:href="#BitstreamVeraSans-Roman-79"/>
      <use x="872.26953125" xlink:href="#BitstreamVeraSans-Roman-20"/>
      <use x="904.056640625" xlink:href="#BitstreamVeraSans-Roman-28"/>
      <use x="943.0703125" xlink:href="#BitstreamVeraSans-Roman-73"/>
      <use x="995.169921875" xlink:href="#BitstreamVeraSans-Roman-65"/>
      <use x="1056.69335938" xlink:href="#BitstreamVeraSans-Roman-63"/>
      <use x="1111.67382812" xlink:href="#BitstreamVeraSans-Roman-6f"/>
      <use x="1172.85546875" xlink:href="#BitstreamVeraSans-Roman-6e"/>
      <use x="1236.234375" xlink:href="#BitstreamVeraSans-Roman-64"/>
      <use x="1299.7109375" xlink:href="#BitstreamVeraSans-Roman-73"/>
      <use x="1351.81054688" xlink:href="#BitstreamVeraSans-Roman-29"/>
     </g>
    </g>
   </g>
   <g id="matplotlib.axis_2">
    <g id="ytick_1">
     <g id="line2d_76">
      <defs>
       <path d="M 0 0 
L 4 0 
" id="m52688de01c" style="stroke:#000000;stroke-width:0.5;"/>
      </defs>
      <g>
       <use style="stroke:#000000;stroke-width:0.5;" x="72.0" xlink:href="#m52688de01c" y="388.8"/>
      </g>
     </g>
     <g id="line2d_77">
      <defs>
       <path d="M 0 0 
L -4 0 
" id="mc6d88a191b" style="stroke:#000000;stroke-width:0.5;"/>
      </defs>
      <g>
       <use style="stroke:#000000;stroke-width:0.5;" x="518.4" xlink:href="#mc6d88a191b" y="388.8"/>
      </g>
     </g>
     <g id="text_7">
      <!-- $\mathdefault{10^{-7}}$ -->
      <defs>
       <path d="M 8.203125 72.90625 
L 55.078125 72.90625 
L 55.078125 68.703125 
L 28.609375 0 
L 18.3125 0 
L 43.21875 64.59375 
L 8.203125 64.59375 
z
" id="BitstreamVeraSans-Roman-37"/>
      </defs>
      <g transform="translate(42.68 392.364375)scale(0.12 -0.12)">
       <use transform="translate(0.0 0.715625)" xlink:href="#BitstreamVeraSans-Roman-31"/>
       <use transform="translate(63.623046875 0.715625)" xlink:href="#BitstreamVeraSans-Roman-30"/>
       <use transform="translate(132.75859375 47.965625)scale(0.7)" xlink:href="#BitstreamVeraSans-Roman-2d"/>
       <use transform="translate(158.017382812 47.965625)scale(0.7)" xlink:href="#BitstreamVeraSans-Roman-37"/>
      </g>
     </g>
    </g>
    <g id="ytick_2">
     <g id="line2d_78">
      <g>
       <use style="stroke:#000000;stroke-width:0.5;" x="72.0" xlink:href="#m52688de01c" y="339.428571429"/>
      </g>
     </g>
     <g id="line2d_79">
      <g>
       <use style="stroke:#000000;stroke-width:0.5;" x="518.4" xlink:href="#mc6d88a191b" y="339.428571429"/>
      </g>
     </g>
     <g id="text_8">
      <!-- $\mathdefault{10^{-6}}$ -->
      <defs>
       <path d="M 33.015625 40.375 
Q 26.375 40.375 22.484375 35.828125 
Q 18.609375 31.296875 18.609375 23.390625 
Q 18.609375 15.53125 22.484375 10.953125 
Q 26.375 6.390625 33.015625 6.390625 
Q 39.65625 6.390625 43.53125 10.953125 
Q 47.40625 15.53125 47.40625 23.390625 
Q 47.40625 31.296875 43.53125 35.828125 
Q 39.65625 40.375 33.015625 40.375 
M 52.59375 71.296875 
L 52.59375 62.3125 
Q 48.875 64.0625 45.09375 64.984375 
Q 41.3125 65.921875 37.59375 65.921875 
Q 27.828125 65.921875 22.671875 59.328125 
Q 17.53125 52.734375 16.796875 39.40625 
Q 19.671875 43.65625 24.015625 45.921875 
Q 28.375 48.1875 33.59375 48.1875 
Q 44.578125 48.1875 50.953125 41.515625 
Q 57.328125 34.859375 57.328125 23.390625 
Q 57.328125 12.15625 50.6875 5.359375 
Q 44.046875 -1.421875 33.015625 -1.421875 
Q 20.359375 -1.421875 13.671875 8.265625 
Q 6.984375 17.96875 6.984375 36.375 
Q 6.984375 53.65625 15.1875 63.9375 
Q 23.390625 74.21875 37.203125 74.21875 
Q 40.921875 74.21875 44.703125 73.484375 
Q 48.484375 72.75 52.59375 71.296875 
" id="BitstreamVeraSans-Roman-36"/>
      </defs>
      <g transform="translate(42.68 343.052946429)scale(0.12 -0.12)">
       <use transform="translate(0.0 0.796875)" xlink:href="#BitstreamVeraSans-Roman-31"/>
       <use transform="translate(63.623046875 0.796875)" xlink:href="#BitstreamVeraSans-Roman-30"/>
       <use transform="translate(132.75859375 48.046875)scale(0.7)" xlink:href="#BitstreamVeraSans-Roman-2d"/>
       <use transform="translate(158.017382812 48.046875)scale(0.7)" xlink:href="#BitstreamVeraSans-Roman-36"/>
      </g>
     </g>
    </g>
    <g id="ytick_3">
     <g id="line2d_80">
      <g>
       <use style="stroke:#000000;stroke-width:0.5;" x="72.0" xlink:href="#m52688de01c" y="290.057142857"/>
      </g>
     </g>
     <g id="line2d_81">
      <g>
       <use style="stroke:#000000;stroke-width:0.5;" x="518.4" xlink:href="#mc6d88a191b" y="290.057142857"/>
      </g>
     </g>
     <g id="text_9">
      <!-- $\mathdefault{10^{-5}}$ -->
      <defs>
       <path d="M 10.796875 72.90625 
L 49.515625 72.90625 
L 49.515625 64.59375 
L 19.828125 64.59375 
L 19.828125 46.734375 
Q 21.96875 47.46875 24.109375 47.828125 
Q 26.265625 48.1875 28.421875 48.1875 
Q 40.625 48.1875 47.75 41.5 
Q 54.890625 34.8125 54.890625 23.390625 
Q 54.890625 11.625 47.5625 5.09375 
Q 40.234375 -1.421875 26.90625 -1.421875 
Q 22.3125 -1.421875 17.546875 -0.640625 
Q 12.796875 0.140625 7.71875 1.703125 
L 7.71875 11.625 
Q 12.109375 9.234375 16.796875 8.0625 
Q 21.484375 6.890625 26.703125 6.890625 
Q 35.15625 6.890625 40.078125 11.328125 
Q 45.015625 15.765625 45.015625 23.390625 
Q 45.015625 31 40.078125 35.4375 
Q 35.15625 39.890625 26.703125 39.890625 
Q 22.75 39.890625 18.8125 39.015625 
Q 14.890625 38.140625 10.796875 36.28125 
z
" id="BitstreamVeraSans-Roman-35"/>
      </defs>
      <g transform="translate(42.68 293.621517857)scale(0.12 -0.12)">
       <use transform="translate(0.0 0.715625)" xlink:href="#BitstreamVeraSans-Roman-31"/>
       <use transform="translate(63.623046875 0.715625)" xlink:href="#BitstreamVeraSans-Roman-30"/>
       <use transform="translate(132.75859375 47.965625)scale(0.7)" xlink:href="#BitstreamVeraSans-Roman-2d"/>
       <use transform="translate(158.017382812 47.965625)scale(0.7)" xlink:href="#BitstreamVeraSans-Roman-35"/>
      </g>
     </g>
    </g>
    <g id="ytick_4">
     <g id="line2d_82">
      <g>
       <use style="stroke:#000000;stroke-width:0.5;" x="72.0" xlink:href="#m52688de01c" y="240.685714286"/>
      </g>
     </g>
     <g id="line2d_83">
      <g>
       <use style="stroke:#000000;stroke-width:0.5;" x="518.4" xlink:href="#mc6d88a191b" y="240.685714286"/>
      </g>
     </g>
     <g id="text_10">
      <!-- $\mathdefault{10^{-4}}$ -->
      <defs>
       <path d="M 37.796875 64.3125 
L 12.890625 25.390625 
L 37.796875 25.390625 
z
M 35.203125 72.90625 
L 47.609375 72.90625 
L 47.609375 25.390625 
L 58.015625 25.390625 
L 58.015625 17.1875 
L 47.609375 17.1875 
L 47.609375 0 
L 37.796875 0 
L 37.796875 17.1875 
L 4.890625 17.1875 
L 4.890625 26.703125 
z
" id="BitstreamVeraSans-Roman-34"/>
      </defs>
      <g transform="translate(42.68 244.250089286)scale(0.12 -0.12)">
       <use transform="translate(0.0 0.715625)" xlink:href="#BitstreamVeraSans-Roman-31"/>
       <use transform="translate(63.623046875 0.715625)" xlink:href="#BitstreamVeraSans-Roman-30"/>
       <use transform="translate(132.75859375 47.965625)scale(0.7)" xlink:href="#BitstreamVeraSans-Roman-2d"/>
       <use transform="translate(158.017382812 47.965625)scale(0.7)" xlink:href="#BitstreamVeraSans-Roman-34"/>
      </g>
     </g>
    </g>
    <g id="ytick_5">
     <g id="line2d_84">
      <g>
       <use style="stroke:#000000;stroke-width:0.5;" x="72.0" xlink:href="#m52688de01c" y="191.314285714"/>
      </g>
     </g>
     <g id="line2d_85">
      <g>
       <use style="stroke:#000000;stroke-width:0.5;" x="518.4" xlink:href="#mc6d88a191b" y="191.314285714"/>
      </g>
     </g>
     <g id="text_11">
      <!-- $\mathdefault{10^{-3}}$ -->
      <defs>
       <path d="M 40.578125 39.3125 
Q 47.65625 37.796875 51.625 33 
Q 55.609375 28.21875 55.609375 21.1875 
Q 55.609375 10.40625 48.1875 4.484375 
Q 40.765625 -1.421875 27.09375 -1.421875 
Q 22.515625 -1.421875 17.65625 -0.515625 
Q 12.796875 0.390625 7.625 2.203125 
L 7.625 11.71875 
Q 11.71875 9.328125 16.59375 8.109375 
Q 21.484375 6.890625 26.8125 6.890625 
Q 36.078125 6.890625 40.9375 10.546875 
Q 45.796875 14.203125 45.796875 21.1875 
Q 45.796875 27.640625 41.28125 31.265625 
Q 36.765625 34.90625 28.71875 34.90625 
L 20.21875 34.90625 
L 20.21875 43.015625 
L 29.109375 43.015625 
Q 36.375 43.015625 40.234375 45.921875 
Q 44.09375 48.828125 44.09375 54.296875 
Q 44.09375 59.90625 40.109375 62.90625 
Q 36.140625 65.921875 28.71875 65.921875 
Q 24.65625 65.921875 20.015625 65.03125 
Q 15.375 64.15625 9.8125 62.3125 
L 9.8125 71.09375 
Q 15.4375 72.65625 20.34375 73.4375 
Q 25.25 74.21875 29.59375 74.21875 
Q 40.828125 74.21875 47.359375 69.109375 
Q 53.90625 64.015625 53.90625 55.328125 
Q 53.90625 49.265625 50.4375 45.09375 
Q 46.96875 40.921875 40.578125 39.3125 
" id="BitstreamVeraSans-Roman-33"/>
      </defs>
      <g transform="translate(42.68 194.938660714)scale(0.12 -0.12)">
       <use transform="translate(0.0 0.796875)" xlink:href="#BitstreamVeraSans-Roman-31"/>
       <use transform="translate(63.623046875 0.796875)" xlink:href="#BitstreamVeraSans-Roman-30"/>
       <use transform="translate(132.75859375 48.046875)scale(0.7)" xlink:href="#BitstreamVeraSans-Roman-2d"/>
       <use transform="translate(158.017382812 48.046875)scale(0.7)" xlink:href="#BitstreamVeraSans-Roman-33"/>
      </g>
     </g>
    </g>
    <g id="ytick_6">
     <g id="line2d_86">
      <g>
       <use style="stroke:#000000;stroke-width:0.5;" x="72.0" xlink:href="#m52688de01c" y="141.942857143"/>
      </g>
     </g>
     <g id="line2d_87">
      <g>
       <use style="stroke:#000000;stroke-width:0.5;" x="518.4" xlink:href="#mc6d88a191b" y="141.942857143"/>
      </g>
     </g>
     <g id="text_12">
      <!-- $\mathdefault{10^{-2}}$ -->
      <g transform="translate(42.68 145.567232143)scale(0.12 -0.12)">
       <use transform="translate(0.0 0.796875)" xlink:href="#BitstreamVeraSans-Roman-31"/>
       <use transform="translate(63.623046875 0.796875)" xlink:href="#BitstreamVeraSans-Roman-30"/>
       <use transform="translate(132.75859375 48.046875)scale(0.7)" xlink:href="#BitstreamVeraSans-Roman-2d"/>
       <use transform="translate(158.017382812 48.046875)scale(0.7)" xlink:href="#BitstreamVeraSans-Roman-32"/>
      </g>
     </g>
    </g>
    <g id="ytick_7">
     <g id="line2d_88">
      <g>
       <use style="stroke:#000000;stroke-width:0.5;" x="72.0" xlink:href="#m52688de01c" y="92.5714285714"/>
      </g>
     </g>
     <g id="line2d_89">
      <g>
       <use style="stroke:#000000;stroke-width:0.5;" x="518.4" xlink:href="#mc6d88a191b" y="92.5714285714"/>
      </g>
     </g>
     <g id="text_13">
      <!-- $\mathdefault{10^{-1}}$ -->
      <g transform="translate(42.68 96.1358035714)scale(0.12 -0.12)">
       <use transform="translate(0.0 0.715625)" xlink:href="#BitstreamVeraSans-Roman-31"/>
       <use transform="translate(63.623046875 0.715625)" xlink:href="#BitstreamVeraSans-Roman-30"/>
       <use transform="translate(132.75859375 47.965625)scale(0.7)" xlink:href="#BitstreamVeraSans-Roman-2d"/>
       <use transform="translate(158.017382812 47.965625)scale(0.7)" xlink:href="#BitstreamVeraSans-Roman-31"/>
      </g>
     </g>
    </g>
    <g id="ytick_8">
     <g id="line2d_90">
      <g>
       <use style="stroke:#000000;stroke-width:0.5;" x="72.0" xlink:href="#m52688de01c" y="43.2"/>
      </g>
     </g>
     <g id="line2d_91">
      <g>
       <use style="stroke:#000000;stroke-width:0.5;" x="518.4" xlink:href="#mc6d88a191b" y="43.2"/>
      </g>
     </g>
     <g id="text_14">
      <!-- $\mathdefault{10^{0}}$ -->
      <g transform="translate(45.68 46.824375)scale(0.12 -0.12)">
       <use transform="translate(0.0 0.796875)" xlink:href="#BitstreamVeraSans-Roman-31"/>
       <use transform="translate(63.623046875 0.796875)" xlink:href="#BitstreamVeraSans-Roman-30"/>
       <use transform="translate(132.75859375 48.046875)scale(0.7)" xlink:href="#BitstreamVeraSans-Roman-30"/>
      </g>
     </g>
    </g>
    <g id="ytick_9">
     <g id="line2d_92">
      <defs>
       <path d="M 0 0 
L 2 0 
" id="m2ae8da7dab" style="stroke:#000000;stroke-width:0.5;"/>
      </defs>
      <g>
       <use style="stroke:#000000;stroke-width:0.5;" x="72.0" xlink:href="#m2ae8da7dab" y="373.937719071"/>
      </g>
     </g>
     <g id="line2d_93">
      <defs>
       <path d="M 0 0 
L -2 0 
" id="m2e215d4598" style="stroke:#000000;stroke-width:0.5;"/>
      </defs>
      <g>
       <use style="stroke:#000000;stroke-width:0.5;" x="518.4" xlink:href="#m2e215d4598" y="373.937719071"/>
      </g>
     </g>
    </g>
    <g id="ytick_10">
     <g id="line2d_94">
      <g>
       <use style="stroke:#000000;stroke-width:0.5;" x="72.0" xlink:href="#m2ae8da7dab" y="359.075438142"/>
      </g>
     </g>
     <g id="line2d_95">
      <g>
       <use style="stroke:#000000;stroke-width:0.5;" x="518.4" xlink:href="#m2e215d4598" y="359.075438142"/>
      </g>
     </g>
    </g>
    <g id="ytick_11">
     <g id="line2d_96">
      <g>
       <use style="stroke:#000000;stroke-width:0.5;" x="72.0" xlink:href="#m2ae8da7dab" y="350.381561124"/>
      </g>
     </g>
     <g id="line2d_97">
      <g>
       <use style="stroke:#000000;stroke-width:0.5;" x="518.4" xlink:href="#m2e215d4598" y="350.381561124"/>
      </g>
     </g>
    </g>
    <g id="ytick_12">
     <g id="line2d_98">
      <g>
       <use style="stroke:#000000;stroke-width:0.5;" x="72.0" xlink:href="#m2ae8da7dab" y="344.213157214"/>
      </g>
     </g>
     <g id="line2d_99">
      <g>
       <use style="stroke:#000000;stroke-width:0.5;" x="518.4" xlink:href="#m2e215d4598" y="344.213157214"/>
      </g>
     </g>
    </g>
    <g id="ytick_13">
     <g id="line2d_100">
      <g>
       <use style="stroke:#000000;stroke-width:0.5;" x="72.0" xlink:href="#m2ae8da7dab" y="324.5662905"/>
      </g>
     </g>
     <g id="line2d_101">
      <g>
       <use style="stroke:#000000;stroke-width:0.5;" x="518.4" xlink:href="#m2e215d4598" y="324.5662905"/>
      </g>
     </g>
    </g>
    <g id="ytick_14">
     <g id="line2d_102">
      <g>
       <use style="stroke:#000000;stroke-width:0.5;" x="72.0" xlink:href="#m2ae8da7dab" y="309.704009571"/>
      </g>
     </g>
     <g id="line2d_103">
      <g>
       <use style="stroke:#000000;stroke-width:0.5;" x="518.4" xlink:href="#m2e215d4598" y="309.704009571"/>
      </g>
     </g>
    </g>
    <g id="ytick_15">
     <g id="line2d_104">
      <g>
       <use style="stroke:#000000;stroke-width:0.5;" x="72.0" xlink:href="#m2ae8da7dab" y="301.010132552"/>
      </g>
     </g>
     <g id="line2d_105">
      <g>
       <use style="stroke:#000000;stroke-width:0.5;" x="518.4" xlink:href="#m2e215d4598" y="301.010132552"/>
      </g>
     </g>
    </g>
    <g id="ytick_16">
     <g id="line2d_106">
      <g>
       <use style="stroke:#000000;stroke-width:0.5;" x="72.0" xlink:href="#m2ae8da7dab" y="294.841728642"/>
      </g>
     </g>
     <g id="line2d_107">
      <g>
       <use style="stroke:#000000;stroke-width:0.5;" x="518.4" xlink:href="#m2e215d4598" y="294.841728642"/>
      </g>
     </g>
    </g>
    <g id="ytick_17">
     <g id="line2d_108">
      <g>
       <use style="stroke:#000000;stroke-width:0.5;" x="72.0" xlink:href="#m2ae8da7dab" y="275.194861928"/>
      </g>
     </g>
     <g id="line2d_109">
      <g>
       <use style="stroke:#000000;stroke-width:0.5;" x="518.4" xlink:href="#m2e215d4598" y="275.194861928"/>
      </g>
     </g>
    </g>
    <g id="ytick_18">
     <g id="line2d_110">
      <g>
       <use style="stroke:#000000;stroke-width:0.5;" x="72.0" xlink:href="#m2ae8da7dab" y="260.332581"/>
      </g>
     </g>
     <g id="line2d_111">
      <g>
       <use style="stroke:#000000;stroke-width:0.5;" x="518.4" xlink:href="#m2e215d4598" y="260.332581"/>
      </g>
     </g>
    </g>
    <g id="ytick_19">
     <g id="line2d_112">
      <g>
       <use style="stroke:#000000;stroke-width:0.5;" x="72.0" xlink:href="#m2ae8da7dab" y="251.638703981"/>
      </g>
     </g>
     <g id="line2d_113">
      <g>
       <use style="stroke:#000000;stroke-width:0.5;" x="518.4" xlink:href="#m2e215d4598" y="251.638703981"/>
      </g>
     </g>
    </g>
    <g id="ytick_20">
     <g id="line2d_114">
      <g>
       <use style="stroke:#000000;stroke-width:0.5;" x="72.0" xlink:href="#m2ae8da7dab" y="245.470300071"/>
      </g>
     </g>
     <g id="line2d_115">
      <g>
       <use style="stroke:#000000;stroke-width:0.5;" x="518.4" xlink:href="#m2e215d4598" y="245.470300071"/>
      </g>
     </g>
    </g>
    <g id="ytick_21">
     <g id="line2d_116">
      <g>
       <use style="stroke:#000000;stroke-width:0.5;" x="72.0" xlink:href="#m2ae8da7dab" y="225.823433357"/>
      </g>
     </g>
     <g id="line2d_117">
      <g>
       <use style="stroke:#000000;stroke-width:0.5;" x="518.4" xlink:href="#m2e215d4598" y="225.823433357"/>
      </g>
     </g>
    </g>
    <g id="ytick_22">
     <g id="line2d_118">
      <g>
       <use style="stroke:#000000;stroke-width:0.5;" x="72.0" xlink:href="#m2ae8da7dab" y="210.961152428"/>
      </g>
     </g>
     <g id="line2d_119">
      <g>
       <use style="stroke:#000000;stroke-width:0.5;" x="518.4" xlink:href="#m2e215d4598" y="210.961152428"/>
      </g>
     </g>
    </g>
    <g id="ytick_23">
     <g id="line2d_120">
      <g>
       <use style="stroke:#000000;stroke-width:0.5;" x="72.0" xlink:href="#m2ae8da7dab" y="202.26727541"/>
      </g>
     </g>
     <g id="line2d_121">
      <g>
       <use style="stroke:#000000;stroke-width:0.5;" x="518.4" xlink:href="#m2e215d4598" y="202.26727541"/>
      </g>
     </g>
    </g>
    <g id="ytick_24">
     <g id="line2d_122">
      <g>
       <use style="stroke:#000000;stroke-width:0.5;" x="72.0" xlink:href="#m2ae8da7dab" y="196.098871499"/>
      </g>
     </g>
     <g id="line2d_123">
      <g>
       <use style="stroke:#000000;stroke-width:0.5;" x="518.4" xlink:href="#m2e215d4598" y="196.098871499"/>
      </g>
     </g>
    </g>
    <g id="ytick_25">
     <g id="line2d_124">
      <g>
       <use style="stroke:#000000;stroke-width:0.5;" x="72.0" xlink:href="#m2ae8da7dab" y="176.452004786"/>
      </g>
     </g>
     <g id="line2d_125">
      <g>
       <use style="stroke:#000000;stroke-width:0.5;" x="518.4" xlink:href="#m2e215d4598" y="176.452004786"/>
      </g>
     </g>
    </g>
    <g id="ytick_26">
     <g id="line2d_126">
      <g>
       <use style="stroke:#000000;stroke-width:0.5;" x="72.0" xlink:href="#m2ae8da7dab" y="161.589723857"/>
      </g>
     </g>
     <g id="line2d_127">
      <g>
       <use style="stroke:#000000;stroke-width:0.5;" x="518.4" xlink:href="#m2e215d4598" y="161.589723857"/>
      </g>
     </g>
    </g>
    <g id="ytick_27">
     <g id="line2d_128">
      <g>
       <use style="stroke:#000000;stroke-width:0.5;" x="72.0" xlink:href="#m2ae8da7dab" y="152.895846838"/>
      </g>
     </g>
     <g id="line2d_129">
      <g>
       <use style="stroke:#000000;stroke-width:0.5;" x="518.4" xlink:href="#m2e215d4598" y="152.895846838"/>
      </g>
     </g>
    </g>
    <g id="ytick_28">
     <g id="line2d_130">
      <g>
       <use style="stroke:#000000;stroke-width:0.5;" x="72.0" xlink:href="#m2ae8da7dab" y="146.727442928"/>
      </g>
     </g>
     <g id="line2d_131">
      <g>
       <use style="stroke:#000000;stroke-width:0.5;" x="518.4" xlink:href="#m2e215d4598" y="146.727442928"/>
      </g>
     </g>
    </g>
    <g id="ytick_29">
     <g id="line2d_132">
      <g>
       <use style="stroke:#000000;stroke-width:0.5;" x="72.0" xlink:href="#m2ae8da7dab" y="127.080576214"/>
      </g>
     </g>
     <g id="line2d_133">
      <g>
       <use style="stroke:#000000;stroke-width:0.5;" x="518.4" xlink:href="#m2e215d4598" y="127.080576214"/>
      </g>
     </g>
    </g>
    <g id="ytick_30">
     <g id="line2d_134">
      <g>
       <use style="stroke:#000000;stroke-width:0.5;" x="72.0" xlink:href="#m2ae8da7dab" y="112.218295285"/>
      </g>
     </g>
     <g id="line2d_135">
      <g>
       <use style="stroke:#000000;stroke-width:0.5;" x="518.4" xlink:href="#m2e215d4598" y="112.218295285"/>
      </g>
     </g>
    </g>
    <g id="ytick_31">
     <g id="line2d_136">
      <g>
       <use style="stroke:#000000;stroke-width:0.5;" x="72.0" xlink:href="#m2ae8da7dab" y="103.524418267"/>
      </g>
     </g>
     <g id="line2d_137">
      <g>
       <use style="stroke:#000000;stroke-width:0.5;" x="518.4" xlink:href="#m2e215d4598" y="103.524418267"/>
      </g>
     </g>
    </g>
    <g id="ytick_32">
     <g id="line2d_138">
      <g>
       <use style="stroke:#000000;stroke-width:0.5;" x="72.0" xlink:href="#m2ae8da7dab" y="97.3560143565"/>
      </g>
     </g>
     <g id="line2d_139">
      <g>
       <use style="stroke:#000000;stroke-width:0.5;" x="518.4" xlink:href="#m2e215d4598" y="97.3560143565"/>
      </g>
     </g>
    </g>
    <g id="ytick_33">
     <g id="line2d_140">
      <g>
       <use style="stroke:#000000;stroke-width:0.5;" x="72.0" xlink:href="#m2ae8da7dab" y="77.7091476426"/>
      </g>
     </g>
     <g id="line2d_141">
      <g>
       <use style="stroke:#000000;stroke-width:0.5;" x="518.4" xlink:href="#m2e215d4598" y="77.7091476426"/>
      </g>
     </g>
    </g>
    <g id="ytick_34">
     <g id="line2d_142">
      <g>
       <use style="stroke:#000000;stroke-width:0.5;" x="72.0" xlink:href="#m2ae8da7dab" y="62.8468667139"/>
      </g>
     </g>
     <g id="line2d_143">
      <g>
       <use style="stroke:#000000;stroke-width:0.5;" x="518.4" xlink:href="#m2e215d4598" y="62.8468667139"/>
      </g>
     </g>
    </g>
    <g id="ytick_35">
     <g id="line2d_144">
      <g>
       <use style="stroke:#000000;stroke-width:0.5;" x="72.0" xlink:href="#m2ae8da7dab" y="54.1529896953"/>
      </g>
     </g>
     <g id="line2d_145">
      <g>
       <use style="stroke:#000000;stroke-width:0.5;" x="518.4" xlink:href="#m2e215d4598" y="54.1529896953"/>
      </g>
     </g>
    </g>
    <g id="ytick_36">
     <g id="line2d_146">
      <g>
       <use style="stroke:#000000;stroke-width:0.5;" x="72.0" xlink:href="#m2ae8da7dab" y="47.9845857851"/>
      </g>
     </g>
     <g id="line2d_147">
      <g>
       <use style="stroke:#000000;stroke-width:0.5;" x="518.4" xlink:href="#m2e215d4598" y="47.9845857851"/>
      </g>
     </g>
    </g>
   </g>
   <g id="text_15">
    <!-- CCDF of all inter-frame delays for Verizon EVDO driving 1080p (1238783 datapoints) -->
    <defs>
     <path d="M 39.40625 66.21875 
Q 28.65625 66.21875 22.328125 58.203125 
Q 16.015625 50.203125 16.015625 36.375 
Q 16.015625 22.609375 22.328125 14.59375 
Q 28.65625 6.59375 39.40625 6.59375 
Q 50.140625 6.59375 56.421875 14.59375 
Q 62.703125 22.609375 62.703125 36.375 
Q 62.703125 50.203125 56.421875 58.203125 
Q 50.140625 66.21875 39.40625 66.21875 
M 39.40625 74.21875 
Q 54.734375 74.21875 63.90625 63.9375 
Q 73.09375 53.65625 73.09375 36.375 
Q 73.09375 19.140625 63.90625 8.859375 
Q 54.734375 -1.421875 39.40625 -1.421875 
Q 24.03125 -1.421875 14.8125 8.828125 
Q 5.609375 19.09375 5.609375 36.375 
Q 5.609375 53.65625 14.8125 63.9375 
Q 24.03125 74.21875 39.40625 74.21875 
" id="BitstreamVeraSans-Roman-4f"/>
     <path d="M 31.78125 34.625 
Q 24.75 34.625 20.71875 30.859375 
Q 16.703125 27.09375 16.703125 20.515625 
Q 16.703125 13.921875 20.71875 10.15625 
Q 24.75 6.390625 31.78125 6.390625 
Q 38.8125 6.390625 42.859375 10.171875 
Q 46.921875 13.96875 46.921875 20.515625 
Q 46.921875 27.09375 42.890625 30.859375 
Q 38.875 34.625 31.78125 34.625 
M 21.921875 38.8125 
Q 15.578125 40.375 12.03125 44.71875 
Q 8.5 49.078125 8.5 55.328125 
Q 8.5 64.0625 14.71875 69.140625 
Q 20.953125 74.21875 31.78125 74.21875 
Q 42.671875 74.21875 48.875 69.140625 
Q 55.078125 64.0625 55.078125 55.328125 
Q 55.078125 49.078125 51.53125 44.71875 
Q 48 40.375 41.703125 38.8125 
Q 48.828125 37.15625 52.796875 32.3125 
Q 56.78125 27.484375 56.78125 20.515625 
Q 56.78125 9.90625 50.3125 4.234375 
Q 43.84375 -1.421875 31.78125 -1.421875 
Q 19.734375 -1.421875 13.25 4.234375 
Q 6.78125 9.90625 6.78125 20.515625 
Q 6.78125 27.484375 10.78125 32.3125 
Q 14.796875 37.15625 21.921875 38.8125 
M 18.3125 54.390625 
Q 18.3125 48.734375 21.84375 45.5625 
Q 25.390625 42.390625 31.78125 42.390625 
Q 38.140625 42.390625 41.71875 45.5625 
Q 45.3125 48.734375 45.3125 54.390625 
Q 45.3125 60.0625 41.71875 63.234375 
Q 38.140625 66.40625 31.78125 66.40625 
Q 25.390625 66.40625 21.84375 63.234375 
Q 18.3125 60.0625 18.3125 54.390625 
" id="BitstreamVeraSans-Roman-38"/>
     <path d="M 5.515625 54.6875 
L 48.1875 54.6875 
L 48.1875 46.484375 
L 14.40625 7.171875 
L 48.1875 7.171875 
L 48.1875 0 
L 4.296875 0 
L 4.296875 8.203125 
L 38.09375 47.515625 
L 5.515625 47.515625 
z
" id="BitstreamVeraSans-Roman-7a"/>
     <path d="M 9.8125 72.90625 
L 51.703125 72.90625 
L 51.703125 64.59375 
L 19.671875 64.59375 
L 19.671875 43.109375 
L 48.578125 43.109375 
L 48.578125 34.8125 
L 19.671875 34.8125 
L 19.671875 0 
L 9.8125 0 
z
" id="BitstreamVeraSans-Roman-46"/>
     <path d="M 9.8125 72.90625 
L 55.90625 72.90625 
L 55.90625 64.59375 
L 19.671875 64.59375 
L 19.671875 43.015625 
L 54.390625 43.015625 
L 54.390625 34.71875 
L 19.671875 34.71875 
L 19.671875 8.296875 
L 56.78125 8.296875 
L 56.78125 0 
L 9.8125 0 
z
" id="BitstreamVeraSans-Roman-45"/>
     <path d="M 19.671875 64.796875 
L 19.671875 8.109375 
L 31.59375 8.109375 
Q 46.6875 8.109375 53.6875 14.9375 
Q 60.6875 21.78125 60.6875 36.53125 
Q 60.6875 51.171875 53.6875 57.984375 
Q 46.6875 64.796875 31.59375 64.796875 
z
M 9.8125 72.90625 
L 30.078125 72.90625 
Q 51.265625 72.90625 61.171875 64.09375 
Q 71.09375 55.28125 71.09375 36.53125 
Q 71.09375 17.671875 61.125 8.828125 
Q 51.171875 0 30.078125 0 
L 9.8125 0 
z
" id="BitstreamVeraSans-Roman-44"/>
     <path d="M 9.421875 54.6875 
L 18.40625 54.6875 
L 18.40625 0 
L 9.421875 0 
z
M 9.421875 75.984375 
L 18.40625 75.984375 
L 18.40625 64.59375 
L 9.421875 64.59375 
z
" id="BitstreamVeraSans-Roman-69"/>
     <path d="M 28.609375 0 
L 0.78125 72.90625 
L 11.078125 72.90625 
L 34.1875 11.53125 
L 57.328125 72.90625 
L 67.578125 72.90625 
L 39.796875 0 
z
" id="BitstreamVeraSans-Roman-56"/>
     <path d="M 2.984375 54.6875 
L 12.5 54.6875 
L 29.59375 8.796875 
L 46.6875 54.6875 
L 56.203125 54.6875 
L 35.6875 0 
L 23.484375 0 
z
" id="BitstreamVeraSans-Roman-76"/>
     <path d="M 64.40625 67.28125 
L 64.40625 56.890625 
Q 59.421875 61.53125 53.78125 63.8125 
Q 48.140625 66.109375 41.796875 66.109375 
Q 29.296875 66.109375 22.65625 58.46875 
Q 16.015625 50.828125 16.015625 36.375 
Q 16.015625 21.96875 22.65625 14.328125 
Q 29.296875 6.6875 41.796875 6.6875 
Q 48.140625 6.6875 53.78125 8.984375 
Q 59.421875 11.28125 64.40625 15.921875 
L 64.40625 5.609375 
Q 59.234375 2.09375 53.4375 0.328125 
Q 47.65625 -1.421875 41.21875 -1.421875 
Q 24.65625 -1.421875 15.125 8.703125 
Q 5.609375 18.84375 5.609375 36.375 
Q 5.609375 53.953125 15.125 64.078125 
Q 24.65625 74.21875 41.21875 74.21875 
Q 47.75 74.21875 53.53125 72.484375 
Q 59.328125 70.75 64.40625 67.28125 
" id="BitstreamVeraSans-Roman-43"/>
     <path d="M 45.40625 27.984375 
Q 45.40625 37.75 41.375 43.109375 
Q 37.359375 48.484375 30.078125 48.484375 
Q 22.859375 48.484375 18.828125 43.109375 
Q 14.796875 37.75 14.796875 27.984375 
Q 14.796875 18.265625 18.828125 12.890625 
Q 22.859375 7.515625 30.078125 7.515625 
Q 37.359375 7.515625 41.375 12.890625 
Q 45.40625 18.265625 45.40625 27.984375 
M 54.390625 6.78125 
Q 54.390625 -7.171875 48.1875 -13.984375 
Q 42 -20.796875 29.203125 -20.796875 
Q 24.46875 -20.796875 20.265625 -20.09375 
Q 16.0625 -19.390625 12.109375 -17.921875 
L 12.109375 -9.1875 
Q 16.0625 -11.328125 19.921875 -12.34375 
Q 23.78125 -13.375 27.78125 -13.375 
Q 36.625 -13.375 41.015625 -8.765625 
Q 45.40625 -4.15625 45.40625 5.171875 
L 45.40625 9.625 
Q 42.625 4.78125 38.28125 2.390625 
Q 33.9375 0 27.875 0 
Q 17.828125 0 11.671875 7.65625 
Q 5.515625 15.328125 5.515625 27.984375 
Q 5.515625 40.671875 11.671875 48.328125 
Q 17.828125 56 27.875 56 
Q 33.9375 56 38.28125 53.609375 
Q 42.625 51.21875 45.40625 46.390625 
L 45.40625 54.6875 
L 54.390625 54.6875 
z
" id="BitstreamVeraSans-Roman-67"/>
     <path d="M 18.109375 8.203125 
L 18.109375 -20.796875 
L 9.078125 -20.796875 
L 9.078125 54.6875 
L 18.109375 54.6875 
L 18.109375 46.390625 
Q 20.953125 51.265625 25.265625 53.625 
Q 29.59375 56 35.59375 56 
Q 45.5625 56 51.78125 48.09375 
Q 58.015625 40.1875 58.015625 27.296875 
Q 58.015625 14.40625 51.78125 6.484375 
Q 45.5625 -1.421875 35.59375 -1.421875 
Q 29.59375 -1.421875 25.265625 0.953125 
Q 20.953125 3.328125 18.109375 8.203125 
M 48.6875 27.296875 
Q 48.6875 37.203125 44.609375 42.84375 
Q 40.53125 48.484375 33.40625 48.484375 
Q 26.265625 48.484375 22.1875 42.84375 
Q 18.109375 37.203125 18.109375 27.296875 
Q 18.109375 17.390625 22.1875 11.75 
Q 26.265625 6.109375 33.40625 6.109375 
Q 40.53125 6.109375 44.609375 11.75 
Q 48.6875 17.390625 48.6875 27.296875 
" id="BitstreamVeraSans-Roman-70"/>
    </defs>
    <g transform="translate(-10.686375 38.2)scale(0.144 -0.144)">
     <use xlink:href="#BitstreamVeraSans-Roman-43"/>
     <use x="69.82421875" xlink:href="#BitstreamVeraSans-Roman-43"/>
     <use x="139.6484375" xlink:href="#BitstreamVeraSans-Roman-44"/>
     <use x="216.650390625" xlink:href="#BitstreamVeraSans-Roman-46"/>
     <use x="274.169921875" xlink:href="#BitstreamVeraSans-Roman-20"/>
     <use x="305.95703125" xlink:href="#BitstreamVeraSans-Roman-6f"/>
     <use x="367.138671875" xlink:href="#BitstreamVeraSans-Roman-66"/>
     <use x="402.34375" xlink:href="#BitstreamVeraSans-Roman-20"/>
     <use x="434.130859375" xlink:href="#BitstreamVeraSans-Roman-61"/>
     <use x="495.41015625" xlink:href="#BitstreamVeraSans-Roman-6c"/>
     <use x="523.193359375" xlink:href="#BitstreamVeraSans-Roman-6c"/>
     <use x="550.9765625" xlink:href="#BitstreamVeraSans-Roman-20"/>
     <use x="582.763671875" xlink:href="#BitstreamVeraSans-Roman-69"/>
     <use x="610.546875" xlink:href="#BitstreamVeraSans-Roman-6e"/>
     <use x="673.92578125" xlink:href="#BitstreamVeraSans-Roman-74"/>
     <use x="713.134765625" xlink:href="#BitstreamVeraSans-Roman-65"/>
     <use x="774.658203125" xlink:href="#BitstreamVeraSans-Roman-72"/>
     <use x="815.677734375" xlink:href="#BitstreamVeraSans-Roman-2d"/>
     <use x="851.76171875" xlink:href="#BitstreamVeraSans-Roman-66"/>
     <use x="886.966796875" xlink:href="#BitstreamVeraSans-Roman-72"/>
     <use x="928.080078125" xlink:href="#BitstreamVeraSans-Roman-61"/>
     <use x="989.359375" xlink:href="#BitstreamVeraSans-Roman-6d"/>
     <use x="1086.77148438" xlink:href="#BitstreamVeraSans-Roman-65"/>
     <use x="1148.29492188" xlink:href="#BitstreamVeraSans-Roman-20"/>
     <use x="1180.08203125" xlink:href="#BitstreamVeraSans-Roman-64"/>
     <use x="1243.55859375" xlink:href="#BitstreamVeraSans-Roman-65"/>
     <use x="1305.08203125" xlink:href="#BitstreamVeraSans-Roman-6c"/>
     <use x="1332.86523438" xlink:href="#BitstreamVeraSans-Roman-61"/>
     <use x="1394.14453125" xlink:href="#BitstreamVeraSans-Roman-79"/>
     <use x="1453.32421875" xlink:href="#BitstreamVeraSans-Roman-73"/>
     <use x="1505.42382812" xlink:href="#BitstreamVeraSans-Roman-20"/>
     <use x="1537.2109375" xlink:href="#BitstreamVeraSans-Roman-66"/>
     <use x="1572.41601562" xlink:href="#BitstreamVeraSans-Roman-6f"/>
     <use x="1633.59765625" xlink:href="#BitstreamVeraSans-Roman-72"/>
     <use x="1674.7109375" xlink:href="#BitstreamVeraSans-Roman-20"/>
     <use x="1706.49804688" xlink:href="#BitstreamVeraSans-Roman-56"/>
     <use x="1774.796875" xlink:href="#BitstreamVeraSans-Roman-65"/>
     <use x="1836.3203125" xlink:href="#BitstreamVeraSans-Roman-72"/>
     <use x="1877.43359375" xlink:href="#BitstreamVeraSans-Roman-69"/>
     <use x="1905.21679688" xlink:href="#BitstreamVeraSans-Roman-7a"/>
     <use x="1957.70703125" xlink:href="#BitstreamVeraSans-Roman-6f"/>
     <use x="2018.88867188" xlink:href="#BitstreamVeraSans-Roman-6e"/>
     <use x="2082.26757812" xlink:href="#BitstreamVeraSans-Roman-20"/>
     <use x="2114.0546875" xlink:href="#BitstreamVeraSans-Roman-45"/>
     <use x="2177.23828125" xlink:href="#BitstreamVeraSans-Roman-56"/>
     <use x="2245.64648438" xlink:href="#BitstreamVeraSans-Roman-44"/>
     <use x="2322.6484375" xlink:href="#BitstreamVeraSans-Roman-4f"/>
     <use x="2401.359375" xlink:href="#BitstreamVeraSans-Roman-20"/>
     <use x="2433.14648438" xlink:href="#BitstreamVeraSans-Roman-64"/>
     <use x="2496.62304688" xlink:href="#BitstreamVeraSans-Roman-72"/>
     <use x="2537.73632812" xlink:href="#BitstreamVeraSans-Roman-69"/>
     <use x="2565.51953125" xlink:href="#BitstreamVeraSans-Roman-76"/>
     <use x="2624.69921875" xlink:href="#BitstreamVeraSans-Roman-69"/>
     <use x="2652.48242188" xlink:href="#BitstreamVeraSans-Roman-6e"/>
     <use x="2715.86132812" xlink:href="#BitstreamVeraSans-Roman-67"/>
     <use x="2779.33789062" xlink:href="#BitstreamVeraSans-Roman-20"/>
     <use x="2811.125" xlink:href="#BitstreamVeraSans-Roman-31"/>
     <use x="2874.74804688" xlink:href="#BitstreamVeraSans-Roman-30"/>
     <use x="2938.37109375" xlink:href="#BitstreamVeraSans-Roman-38"/>
     <use x="3001.99414062" xlink:href="#BitstreamVeraSans-Roman-30"/>
     <use x="3065.6171875" xlink:href="#BitstreamVeraSans-Roman-70"/>
     <use x="3129.09375" xlink:href="#BitstreamVeraSans-Roman-20"/>
     <use x="3160.88085938" xlink:href="#BitstreamVeraSans-Roman-28"/>
     <use x="3199.89453125" xlink:href="#BitstreamVeraSans-Roman-31"/>
     <use x="3263.51757812" xlink:href="#BitstreamVeraSans-Roman-32"/>
     <use x="3327.140625" xlink:href="#BitstreamVeraSans-Roman-33"/>
     <use x="3390.76367188" xlink:href="#BitstreamVeraSans-Roman-38"/>
     <use x="3454.38671875" xlink:href="#BitstreamVeraSans-Roman-37"/>
     <use x="3518.00976562" xlink:href="#BitstreamVeraSans-Roman-38"/>
     <use x="3581.6328125" xlink:href="#BitstreamVeraSans-Roman-33"/>
     <use x="3645.25585938" xlink:href="#BitstreamVeraSans-Roman-20"/>
     <use x="3677.04296875" xlink:href="#BitstreamVeraSans-Roman-64"/>
     <use x="3740.51953125" xlink:href="#BitstreamVeraSans-Roman-61"/>
     <use x="3801.79882812" xlink:href="#BitstreamVeraSans-Roman-74"/>
     <use x="3841.0078125" xlink:href="#BitstreamVeraSans-Roman-61"/>
     <use x="3902.28710938" xlink:href="#BitstreamVeraSans-Roman-70"/>
     <use x="3965.76367188" xlink:href="#BitstreamVeraSans-Roman-6f"/>
     <use x="4026.9453125" xlink:href="#BitstreamVeraSans-Roman-69"/>
     <use x="4054.72851562" xlink:href="#BitstreamVeraSans-Roman-6e"/>
     <use x="4118.10742188" xlink:href="#BitstreamVeraSans-Roman-74"/>
     <use x="4157.31640625" xlink:href="#BitstreamVeraSans-Roman-73"/>
     <use x="4209.41601562" xlink:href="#BitstreamVeraSans-Roman-29"/>
    </g>
   </g>
  </g>
 </g>
 <defs>
  <clipPath id="p93beb410df">
   <rect height="345.6" width="446.4" x="72.0" y="43.2"/>
  </clipPath>
 </defs>
</svg>
